<svg width="32" height="29" viewBox="0 0 32 29" fill="none" xmlns="http://www.w3.org/2000/svg">
<g id="Group 2147">
<path id="Vector" d="M15.9269 28.9994C24.3477 28.9994 31.1741 22.5077 31.1741 14.4997C31.1741 6.49173 24.3477 0 15.9269 0C7.50609 0 0.679688 6.49173 0.679688 14.4997C0.679688 22.5077 7.50609 28.9994 15.9269 28.9994Z" fill="url(#paint0_linear_21_3288)"/>
<path id="Vector_2" d="M15.9269 6.93949C18.5164 6.93949 18.8227 6.94971 19.8488 6.99569C20.7944 7.03656 21.3102 7.18473 21.6486 7.31246C22.0999 7.48106 22.4223 7.68031 22.7661 8.00218C23.1099 8.32406 23.3141 8.6306 23.4914 9.06488C23.6257 9.39186 23.7815 9.87722 23.8245 10.7764C23.8728 11.7472 23.8836 12.0435 23.8836 14.5061C23.8836 16.9687 23.8728 17.2599 23.8245 18.2357C23.7815 19.1349 23.6257 19.6254 23.4914 19.9473C23.3141 20.3764 23.1046 20.683 22.7661 21.0099C22.4276 21.3318 22.1053 21.5311 21.6486 21.6997C21.3048 21.8274 20.7944 21.9756 19.8488 22.0164C18.828 22.0624 18.5164 22.0726 15.9269 22.0726C13.3373 22.0726 13.0311 22.0624 12.005 22.0164C11.0594 21.9756 10.5436 21.8274 10.2052 21.6997C9.75387 21.5311 9.43151 21.3318 9.08767 21.0099C8.7492 20.6881 8.53968 20.3815 8.36238 19.9473C8.22807 19.6203 8.07227 19.1349 8.02929 18.2357C7.98093 17.265 7.97019 16.9687 7.97019 14.5061C7.97019 12.0435 7.98093 11.7523 8.02929 10.7764C8.07227 9.87722 8.22807 9.38675 8.36238 9.06488C8.53968 8.63571 8.7492 8.32917 9.08767 8.00218C9.42614 7.68031 9.74849 7.48106 10.2052 7.31246C10.549 7.18473 11.0594 7.03656 12.005 6.99569C13.0311 6.94971 13.3373 6.93949 15.9269 6.93949ZM15.9269 5.27393C13.289 5.27393 12.9613 5.28414 11.9244 5.33013C10.8928 5.37611 10.1837 5.52938 9.5712 5.75929C8.93187 5.99431 8.38924 6.31107 7.85199 6.82198C7.31474 7.33289 6.98165 7.84891 6.73451 8.45689C6.49275 9.04444 6.33157 9.71373 6.28322 10.6947C6.23487 11.6807 6.22412 11.9924 6.22412 14.501C6.22412 17.0095 6.23487 17.3212 6.28322 18.3072C6.33157 19.2882 6.49275 19.9626 6.73451 20.545C6.98165 21.153 7.31474 21.669 7.85199 22.1799C8.38924 22.6908 8.93187 23.0076 9.5712 23.2426C10.189 23.4725 10.8928 23.6258 11.9244 23.6718C12.9613 23.7178 13.289 23.728 15.9269 23.728C18.5648 23.728 18.8925 23.7178 19.9294 23.6718C20.9609 23.6258 21.6701 23.4725 22.2826 23.2426C22.9219 23.0076 23.4645 22.6908 24.0018 22.1799C24.539 21.669 24.8721 21.153 25.1193 20.545C25.361 19.9575 25.5222 19.2882 25.5706 18.3072C25.6189 17.3212 25.6296 17.0095 25.6296 14.501C25.6296 11.9924 25.6189 11.6807 25.5706 10.6947C25.5222 9.71373 25.361 9.03933 25.1193 8.45689C24.8721 7.84891 24.539 7.33289 24.0018 6.82198C23.4645 6.31107 22.9219 5.99431 22.2826 5.75929C21.6647 5.52938 20.9609 5.37611 19.9294 5.33013C18.8925 5.28414 18.5648 5.27393 15.9269 5.27393Z" fill="white"/>
<path id="Vector_3" d="M15.9269 10.5449C12.8679 10.5449 10.3824 12.6081 10.3824 15.1584C10.3824 17.7038 12.8619 19.7719 15.9269 19.7719C18.9859 19.7719 21.4713 17.7087 21.4713 15.1584C21.4713 12.6081 18.9919 10.5449 15.9269 10.5449ZM15.9269 18.1512C13.9373 18.1512 12.3302 16.8089 12.3302 15.1584C12.3302 13.5029 13.9433 12.1656 15.9269 12.1656C17.9164 12.1656 19.5236 13.5079 19.5236 15.1584C19.5236 16.8089 17.9164 18.1512 15.9269 18.1512Z" fill="white"/>
<path id="Vector_4" d="M20.7783 11.8622C21.161 11.8622 21.4713 11.2721 21.4713 10.5441C21.4713 9.81618 21.161 9.22607 20.7783 9.22607C20.3955 9.22607 20.0852 9.81618 20.0852 10.5441C20.0852 11.2721 20.3955 11.8622 20.7783 11.8622Z" fill="white"/>
</g>
<defs>
<linearGradient id="paint0_linear_21_3288" x1="15.9269" y1="0" x2="15.9269" y2="28.9994" gradientUnits="userSpaceOnUse">
<stop stop-color="#F0B90B"/>
<stop offset="1" stop-color="#FFE259"/>
</linearGradient>
</defs>
</svg>
