<svg width="31" height="29" viewBox="0 0 31 29" fill="none" xmlns="http://www.w3.org/2000/svg">
<path d="M15.2472 28.9994C23.668 28.9994 30.4944 22.5077 30.4944 14.4997C30.4944 6.49173 23.668 0 15.2472 0C6.8264 0 0 6.49173 0 14.4997C0 22.5077 6.8264 28.9994 15.2472 28.9994Z" fill="url(#paint0_linear_21_3296)"/>
<path d="M10.6809 16.1402L7.23727 15.0827C7.23727 15.0827 6.82403 14.925 6.95686 14.5679C6.98637 14.4937 7.04049 14.4334 7.20283 14.3221C7.96535 13.8212 21.3267 9.29456 21.3267 9.29456C21.3267 9.29456 21.7055 9.17397 21.9268 9.25282C22.0302 9.28992 22.0941 9.33166 22.1482 9.48008C22.1679 9.53573 22.1777 9.65168 22.1777 9.76763C22.1777 9.85111 22.1679 9.92996 22.1581 10.0505C22.0744 11.2889 19.6393 20.5277 19.6393 20.5277C19.6393 20.5277 19.4917 21.0703 18.9702 21.0889C18.7784 21.0935 18.5472 21.061 18.2717 20.8338C17.2484 20.0036 13.7064 17.7588 12.9242 17.2672C12.8799 17.2394 12.8652 17.2023 12.8602 17.1698C12.8504 17.1188 12.9094 17.0539 12.9094 17.0539C12.9094 17.0539 19.0735 11.8872 19.2408 11.3445C19.2556 11.3028 19.2064 11.2796 19.1424 11.2982C18.7341 11.4419 11.6353 15.6671 10.8482 16.1355C10.8088 16.1587 10.6809 16.1402 10.6809 16.1402Z" fill="white"/>
<defs>
<linearGradient id="paint0_linear_21_3296" x1="15.2472" y1="0" x2="15.2472" y2="28.9994" gradientUnits="userSpaceOnUse">
<stop stop-color="#F0B90B"/>
<stop offset="1" stop-color="#FFE259"/>
</linearGradient>
</defs>
</svg>
