<svg width="32" height="29" viewBox="0 0 32 29" fill="none" xmlns="http://www.w3.org/2000/svg">
<path d="M16.2159 28.9994C24.6367 28.9994 31.4632 22.5077 31.4632 14.4997C31.4632 6.49173 24.6367 0 16.2159 0C7.79515 0 0.96875 6.49173 0.96875 14.4997C0.96875 22.5077 7.79515 28.9994 16.2159 28.9994Z" fill="url(#paint0_linear_21_3293)"/>
<path d="M14.0001 23.7254C21.3242 23.7254 25.3287 17.6364 25.3287 12.3604C25.3287 12.1873 25.3235 12.0142 25.3183 11.8464C26.0972 11.28 26.7716 10.5772 27.3048 9.78003C26.5886 10.0999 25.8254 10.3097 25.0203 10.4094C25.841 9.91639 26.4736 9.1297 26.7716 8.20141C26.0031 8.65769 25.151 8.99334 24.2413 9.17166C23.5147 8.39546 22.4796 7.90771 21.3347 7.90771C19.1338 7.90771 17.3511 9.69612 17.3511 11.9041C17.3511 12.2188 17.3877 12.5229 17.4557 12.8166C14.1465 12.6488 11.2085 11.0597 9.24806 8.64196C8.90825 9.23459 8.7096 9.91639 8.7096 10.6506C8.7096 12.0352 9.41012 13.2624 10.4818 13.9757C9.82834 13.9547 9.2167 13.7764 8.67823 13.4775C8.67823 13.4932 8.67823 13.5089 8.67823 13.5299C8.67823 15.4652 10.0531 17.0805 11.8724 17.4476C11.5378 17.5368 11.1876 17.5892 10.8216 17.5892C10.5655 17.5892 10.3145 17.563 10.0741 17.5158C10.5811 19.1049 12.0502 20.2587 13.7962 20.2902C12.4318 21.3601 10.7171 21.9999 8.85075 21.9999C8.53185 21.9999 8.21296 21.9789 7.89929 21.9422C9.65583 23.0646 11.7469 23.7254 14.0001 23.7254Z" fill="white"/>
<defs>
<linearGradient id="paint0_linear_21_3293" x1="16.2159" y1="0" x2="16.2159" y2="28.9994" gradientUnits="userSpaceOnUse">
<stop stop-color="#F0B90B"/>
<stop offset="1" stop-color="#FFE259"/>
</linearGradient>
</defs>
</svg>
