<svg xmlns="http://www.w3.org/2000/svg" width="378" height="178" viewBox="0 0 378 178" fill="none">
<path d="M18.63 177.16H19.13H299.959L300.153 176.817C300.154 176.816 300.154 176.815 300.155 176.813M18.63 177.16L322.65 177.66C318.25 168.61 305.48 168.26 300.59 177.06L300.155 176.813M18.63 177.16V177.163C8.56771 176.898 0.5 168.657 0.5 158.54V19.13C0.5 8.83614 8.83614 0.5 19.13 0.5H299.947C305.048 10.3703 319.195 10.3532 324.288 0.5H358.41C368.704 0.5 377.04 8.84597 377.04 19.13V158.53C377.04 168.824 368.694 177.16 358.41 177.16H322.959M18.63 177.16H322.959M300.155 176.813C305.192 167.756 318.257 168.022 322.959 177.16M300.155 176.813L322.959 177.16" fill="white" stroke="#E2E2E2"/>
</svg>