<svg xmlns="http://www.w3.org/2000/svg" width="14" height="16" viewBox="0 0 14 16" fill="none">
  <g clip-path="url(#clip0_83_176)">
    <path d="M1.34349 12.158C1.33103 12.1618 1.31966 12.1687 1.31037 12.1782C1.30108 12.1876 1.29417 12.1992 1.29022 12.212L0.608007 14.3721L0.435503 14.917C0.430537 14.9331 0.430355 14.9503 0.434982 14.9664C0.439608 14.9826 0.448828 14.9969 0.461437 15.0075C0.474046 15.0182 0.48946 15.0246 0.505667 15.0261C0.521874 15.0275 0.538121 15.0238 0.552289 15.0156L1.03526 14.7293L2.95063 13.5956C2.96219 13.5888 2.97198 13.5793 2.97913 13.5677C2.98627 13.5561 2.99055 13.5429 2.99159 13.5292C2.99262 13.5156 2.99038 13.5018 2.98507 13.4892C2.97975 13.4767 2.97152 13.4656 2.9611 13.4571L1.41726 12.1719C1.40693 12.1636 1.39484 12.1581 1.382 12.1557C1.36917 12.1532 1.35596 12.1541 1.34349 12.158Z" fill="black"/>
    <path d="M3.18964 13.3568C4.28172 12.3541 5.59511 10.9304 6.94906 9.25551L4.47963 7.19922C3.18964 8.92768 2.12832 10.5613 1.41602 11.8793L3.18964 13.3568Z" fill="#F0B90B"/>
    <path d="M9.29899 0.970467L4.69599 6.89572C4.67829 6.91843 4.66508 6.94453 4.65713 6.97253C4.64919 7.00053 4.64665 7.02988 4.64967 7.05889C4.6527 7.08791 4.66122 7.11602 4.67475 7.14162C4.68828 7.16722 4.70656 7.18981 4.72853 7.20809L6.88639 9.00484C6.93076 9.04181 6.98749 9.05903 7.04412 9.05271C7.10075 9.0464 7.15264 9.01706 7.18838 8.97116L13.6555 0.646785C13.6813 0.613687 13.6973 0.573625 13.7018 0.531357C13.7062 0.489088 13.6989 0.446388 13.6806 0.408325C13.6623 0.370262 13.6338 0.338435 13.5985 0.316622C13.5633 0.294809 13.5227 0.283927 13.4817 0.285267L9.83545 0.40385C9.80445 0.404706 9.77401 0.412562 9.74625 0.426868C9.7185 0.441175 9.69409 0.461586 9.67475 0.486674L9.5787 0.610102L9.59073 0.619792L9.31036 0.980157L9.29899 0.970467Z" fill="black"/>
    <path d="M8.84526 0L4.98242 4.97335L5.38538 5.30834L8.96829 0.695813L9.29858 0.970585L9.30995 0.980274L9.59032 0.61991L9.57829 0.61022L9.24821 0.335217H9.24844L8.84526 0Z" fill="#F0B90B"/>
    <path d="M0.310016 15.3584C0.227795 15.3584 0.148941 15.3922 0.0908017 15.4524C0.0326623 15.5126 0 15.5942 0 15.6793C0 15.7644 0.0326623 15.846 0.0908017 15.9062C0.148941 15.9664 0.227795 16.0002 0.310016 16.0002H13.69C13.7307 16.0002 13.771 15.9919 13.8086 15.9758C13.8462 15.9597 13.8804 15.936 13.9092 15.9062C13.938 15.8764 13.9608 15.8411 13.9764 15.8021C13.992 15.7632 14 15.7215 14 15.6793C14 15.6372 13.992 15.5954 13.9764 15.5565C13.9608 15.5176 13.938 15.4822 13.9092 15.4524C13.8804 15.4226 13.8462 15.399 13.8086 15.3828C13.771 15.3667 13.7307 15.3584 13.69 15.3584H0.310016Z" fill="#F0B90B"/>
  </g>
  <defs>
    <clipPath id="clip0_83_176">
      <rect width="14" height="16" fill="white"/>
    </clipPath>
  </defs>
</svg>