<svg xmlns="http://www.w3.org/2000/svg" width="45" height="45" viewBox="0 0 95 94" fill="none">
  <g filter="url(#filter0_d_127_229)">
    <circle cx="47.6246" cy="34.8746" r="22.6988" fill="#F52929"/>
    <path fill-rule="evenodd" clip-rule="evenodd" d="M57.0516 27.9478C57.6657 28.6515 57.8825 30.2442 57.8825 30.2442C57.8825 30.2442 58.0992 32.1331 58.0992 34.022V35.7628C58.0992 37.6147 57.8825 39.5036 57.8825 39.5036C57.8825 39.5036 57.6657 41.0962 57.0516 41.7999C56.2958 42.6453 55.442 42.7202 55.0183 42.7574C54.9965 42.7593 54.9758 42.7611 54.9563 42.7629C52.0302 43.0222 47.6229 43.0222 47.6229 43.0222C47.6229 43.0222 42.1679 42.9851 40.5062 42.8C40.4179 42.7791 40.3091 42.7635 40.1855 42.7457C39.6515 42.6688 38.8395 42.5518 38.1941 41.8C37.58 41.0963 37.3633 39.5036 37.3633 39.5036C37.3633 39.5036 37.1465 37.6518 37.1465 35.7628V34.022C37.1465 32.1331 37.3633 30.2442 37.3633 30.2442C37.3633 30.2442 37.5439 28.6516 38.1941 27.9478C38.9499 27.1025 39.8038 27.0276 40.2274 26.9904C40.2492 26.9885 40.2699 26.9867 40.2894 26.9848C43.2155 26.7626 47.6229 26.7256 47.6229 26.7256C47.6229 26.7256 52.0302 26.7626 54.9563 26.9848C54.9865 26.9876 55.0196 26.9902 55.0553 26.9931C55.4902 27.0272 56.3172 27.0922 57.0516 27.9478ZM45.0943 39.171V31.1338L51.9581 35.245L45.0943 39.171Z" fill="white"/>
  </g>
</svg>