
<svg width="1199" height="312" viewBox="0 0 1199 312" fill="none" xmlns="http://www.w3.org/2000/svg">
<mask id="mask0_99_506" style="mask-type:luminance" maskUnits="userSpaceOnUse" x="0" y="0" width="1199" height="312">
<path d="M1199 0H0V311.46H1199V0Z" fill="white"/>
</mask>
<g mask="url(#mask0_99_506)">

<path d="M52.3405 -269.887C101.106 -267.926 150.378 -268.457 199.871 -271.133C202.338 -269.601 172.389 -208.498 174.919 -206.986C229.947 -173.135 302.653 -144.269 331.115 -136.67C574.375 -48.6618 862.953 -35.3217 1149.41 -32.8702C1553.8 -30.9294 1971.85 -40.4493 2294.52 86.3328C2308.6 92.053 2321.56 97.1398 2333.61 101.695C2338.89 154.157 2356.83 140.878 2353.79 185.046C2351.42 235.076 2348.51 277.773 2325.17 291.991C2301.45 306.843 2257.3 293.217 2163.63 245.74C1863.1 97.9773 1445.77 79.387 1043.88 50.2962C759.382 28.621 474.503 -4.02445 246.74 -107.885C219.637 -117.344 151.991 -150.95 102.719 -188.314C52.8149 -224.882 21.3164 -265.25 52.3405 -269.887Z" fill="url(#paint0_linear_99_506)"/>
<g style="mix-blend-mode:multiply">
<path d="M1699.06 159.795C1559.87 182.002 1429.29 171.828 1330.85 144.903C1227.4 115.546 1150.9 65.8834 1052.58 18.4065C965.956 -24.7191 876.235 -50.0714 783.447 -64.0244C701.064 -77.8344 608.118 -78.6515 529.372 -111.481C514.476 -153.197 476.115 -154.749 457.425 -195.423C702.361 -203.697 917.126 -128.396 1124.14 -53.3196C1332.84 22.0224 1533.85 97.1806 1789.63 94.5044C1750.83 130.378 1740.48 123.942 1699.02 159.795H1699.06Z" fill="url(#paint1_linear_99_506)"/>
</g>
<g style="mix-blend-mode:multiply">
<path d="M1815.02 356.506C1434.83 350.071 1285.78 188.232 1010.04 67.2726C832.909 -11.4198 662.577 -56.9151 492.308 -71.1337C359.767 -83.0437 200.693 -96.9559 50.8537 -135.199C34.5668 -215.097 3.09995 -274.851 -22.1685 -353.85C373.176 -326.414 707.168 -178.038 1027.31 -33.0745C1350.74 112.707 1660.32 255.076 2082.6 289.07C1984.79 318.937 1903.01 328.028 1814.99 356.485L1815.02 356.506Z" fill="url(#paint2_linear_99_506)"/>
</g>
<path d="M-835.47 -41.4299C-787.305 -36.0367 -738.254 -33.1153 -688.603 -32.2982C-686.421 -30.6026 -726.458 28.0285 -724.213 29.7241C-675.226 67.2522 -607.801 101.062 -580.793 110.602C-353.82 215.199 -69.1951 248.743 215.146 271.317C616.815 301.674 1033.98 321.593 1333.38 470.295C1346.4 476.975 1358.45 482.941 1369.62 488.313C1366.01 540.836 1386.09 528.885 1375.66 572.583C1364.87 622.164 1354.79 664.391 1329.2 676.873C1303.11 689.968 1261.52 673.318 1176.39 619.549C902.516 451.541 490.821 403.717 96.2355 346.557C-182.919 305.025 -460.618 252.543 -669.533 133.279C-694.865 121.961 -756.47 83.8201 -799.164 43.2073C-842.585 3.35037 -867.126 -38.9989 -835.501 -41.4095L-835.47 -41.4299Z" fill="url(#paint3_linear_99_506)"/>
<g style="mix-blend-mode:multiply">
<path d="M732.625 480.53C590.534 492.828 462.421 473.523 369.127 439.836C271.248 403.37 203.57 348.641 113.818 294.524C34.9772 245.556 -49.9361 214.075 -139.846 193.667C-219.415 174.157 -311.665 166.802 -384.434 128.641C-392.214 86.1285 -430.101 81.8793 -441.833 40.1225C-196.961 49.1112 3.82647 139.06 196.992 228.253C391.771 317.813 578.896 406.659 833.636 421.981C789.013 454.912 779.81 447.782 732.594 480.53H732.625Z" fill="url(#paint4_linear_99_506)"/>
</g>
<g style="mix-blend-mode:multiply">
<path d="M814.756 684.207C437.88 651.092 317.009 479.733 63.2818 340.101C-99.5556 249.417 -261.191 192.237 -428.045 166.128C-557.802 144.964 -713.587 119.959 -856.09 71.4196C-858.809 -9.15219 -880.03 -70.7455 -891.826 -151.072C-503.439 -95.9957 -196.423 74.9538 97.3735 241.572C394.333 409.213 678.072 572.501 1092.14 635.995C989.864 658.814 907.038 662.103 814.756 684.207Z" fill="url(#paint5_linear_99_506)"/>
</g>
<path style="mix-blend-mode:overlay" d="M81.9083 313.196C-1.29714 290.336 -49.8416 243.125 -26.534 207.763C-3.25793 172.42 83.0784 162.288 166.284 185.148C249.458 208.008 298.034 255.219 274.726 290.582C251.45 325.944 165.114 336.056 81.94 313.196H81.9083Z" fill="url(#paint6_radial_99_506)"/>
<path style="mix-blend-mode:overlay" d="M938.061 80.6739C851.029 64.8619 788.759 33.0131 798.974 9.51982C809.189 -13.9735 888.03 -20.2043 975.062 -4.3923C1062.09 11.4197 1124.36 43.2685 1114.15 66.7618C1103.93 90.2551 1025.09 96.4859 938.061 80.6739Z" fill="url(#paint7_radial_99_506)"/>
</g>
<defs>
<linearGradient id="paint0_linear_99_506" x1="2321.56" y1="302.292" x2="531.913" y2="-959.695" gradientUnits="userSpaceOnUse">
<stop offset="0.01" stop-color="#FFD80B" stop-opacity="0.5"/>
<stop offset="1" stop-color="#FFC077"/>
</linearGradient>
<linearGradient id="paint1_linear_99_506" x1="1465.25" y1="92.283" x2="938.214" y2="-193.111" gradientUnits="userSpaceOnUse">
<stop offset="0.01" stop-color="#FFEC40" stop-opacity="0"/>
<stop offset="1" stop-color="#FFB800"/>
</linearGradient>
<linearGradient id="paint2_linear_99_506" x1="1819.46" y1="292.146" x2="574.475" y2="-653.276" gradientUnits="userSpaceOnUse">
<stop stop-color="#FFF965" stop-opacity="0"/>
<stop offset="1" stop-color="#FFD600"/>
</linearGradient>
<linearGradient id="paint3_linear_99_506" x1="1323.71" y1="686.85" x2="-211.828" y2="-726.811" gradientUnits="userSpaceOnUse">
<stop stop-color="#FFB800"/>
<stop offset="0.99" stop-color="#FFE600" stop-opacity="0.5"/>
</linearGradient>
<linearGradient id="paint4_linear_99_506" x1="514.883" y1="394.072" x2="53.825" y2="53.3295" gradientUnits="userSpaceOnUse">
<stop stop-color="#FFA800"/>
<stop offset="0.99" stop-color="#FBFF40" stop-opacity="0"/>
</linearGradient>
<linearGradient id="paint5_linear_99_506" x1="827.789" y1="622.558" x2="-235.186" y2="-420.524" gradientUnits="userSpaceOnUse">
<stop stop-color="#FFD600"/>
<stop offset="1" stop-color="#FFF065" stop-opacity="0"/>
</linearGradient>
<radialGradient id="paint6_radial_99_506" cx="0" cy="0" r="1" gradientUnits="userSpaceOnUse" gradientTransform="translate(122.363 251.723) rotate(123.373) scale(76.8966 148.56)">
<stop stop-color="white"/>
<stop offset="1" stop-color="#808080" stop-opacity="0"/>
</radialGradient>
<radialGradient id="paint7_radial_99_506" cx="0" cy="0" r="1" gradientUnits="userSpaceOnUse" gradientTransform="translate(956.171 39.1438) rotate(113.516) scale(46.6263 155.914)">
<stop stop-color="white"/>
<stop offset="1" stop-color="#808080" stop-opacity="0"/>
</radialGradient>
</defs>
</svg>
