<svg width="30" height="30" viewBox="0 0 30 30" fill="none" xmlns="http://www.w3.org/2000/svg">
<g id="Capa_1" clipPath="url(#clip0_162_37513)">
<path id="Vector" d="M30 15C30 22.4864 24.5136 28.6909 17.3455 29.8182V19.3364H20.8409L21.5045 15H17.3455V12.1864C17.3455 11 17.9273 9.84545 19.7909 9.84545H21.6818V6.15455C21.6818 6.15455 19.9636 5.86364 18.3227 5.86364C14.8955 5.86364 12.6591 7.94091 12.6591 11.7V15.0045H8.85V19.3409H12.6591V29.8227C5.48636 28.6909 0 22.4864 0 15C0 6.71818 6.71818 0 15 0C23.2818 0 30 6.71818 30 15Z" fill="#1877F2"/>
<path id="Vector_2" d="M20.8409 19.336L21.5046 14.9996H17.3455V12.186C17.3455 10.9996 17.9273 9.8451 19.7909 9.8451H21.6818V6.15419C21.6818 6.15419 19.9636 5.86328 18.3227 5.86328C14.8955 5.86328 12.6591 7.94055 12.6591 11.6996V15.0042H8.85001V19.3406H12.6591V29.8224C13.4227 29.9406 14.2046 30.0042 15.0046 30.0042C15.8046 30.0042 16.5864 29.9406 17.35 29.8224V19.3406H20.8455L20.8409 19.336Z" fill="white"/>
</g>
<defs>
<clipPath id="clip0_162_37513">
<rect width="30" height="30" fill="white"/>
</clipPath>
</defs>
</svg>
