<svg width="30" height="30" viewBox="0 0 30 30" fill="none" xmlns="http://www.w3.org/2000/svg">
<g id="Layer_1" clipPath="url(#clip0_162_37508)">
<path id="Vector" d="M6.64667 18.1263L5.6 22.0263L1.78 22.1063C0.64 19.9929 -0.00666666 17.5729 -0.00666666 14.9996C-0.00666666 12.4263 0.6 10.1663 1.67333 8.09961L5.07333 8.71961L6.56 12.0996C6.24667 13.0063 6.08 13.9796 6.08 14.9996C6.08 16.0996 6.28 17.1529 6.64667 18.1263Z" fill="#FBBB00"/>
<path id="Vector_2" d="M29.74 12.1992C29.9133 13.1059 30 14.0459 30 14.9992C30 16.0726 29.8867 17.1192 29.6733 18.1326C28.94 21.5726 27.0333 24.5726 24.3933 26.6992L20.1133 26.4792L19.5067 22.6992C21.26 21.6726 22.6333 20.0592 23.3533 18.1326H15.3333V12.1992H29.74Z" fill="#518EF8"/>
<path id="Vector_3" d="M24.3867 26.7003C21.8133 28.767 18.5533 30.0003 14.9933 30.0003C9.28 30.0003 4.31333 26.807 1.78 22.107L6.64 18.127C7.90667 21.507 11.1667 23.9136 14.9933 23.9136C16.64 23.9136 18.1733 23.467 19.5 22.6936L24.3867 26.6936V26.7003Z" fill="#28B446"/>
<path id="Vector_4" d="M24.5733 3.45333L19.7133 7.43333C18.3467 6.58 16.7267 6.08667 15 6.08667C11.0933 6.08667 7.76667 8.60667 6.56667 12.1067L1.68 8.10667C4.17333 3.28667 9.2 0 15 0C18.64 0 21.9733 1.29333 24.5733 3.45333Z" fill="#F14336"/>
</g>
<defs>
<clipPath id="clip0_162_37508">
<rect width="30" height="30" fill="white"/>
</clipPath>
</defs>
</svg>
