<svg width="33" height="22" viewBox="0 0 33 22" fill="none" xmlns="http://www.w3.org/2000/svg">
<g id="Capa_1" clipPath="url(#clip0_144_34659)">
<path id="Vector" d="M32.66 0H0V21.78H32.66V0Z" fill="#F0F0F0"/>
<path id="Vector_2" d="M18.37 0H14.29V8.85H0V12.93H14.29V21.78H18.37V12.93H32.66V8.85H18.37V0Z" fill="#D80027"/>
<g id="Group">
<path id="Vector_3" d="M25.1199 14.6797L32.6599 18.8697V14.6797H25.1199Z" fill="#0052B4"/>
<path id="Vector_4" d="M19.8799 14.6797L32.6599 21.7797V19.7697L23.4999 14.6797H19.8799Z" fill="#0052B4"/>
<path id="Vector_5" d="M29.2599 21.7803L19.8799 16.5703V21.7803H29.2599Z" fill="#0052B4"/>
</g>
<path id="Vector_6" d="M19.8799 14.6797L32.6599 21.7797V19.7697L23.4999 14.6797H19.8799Z" fill="#F0F0F0"/>
<path id="Vector_7" d="M19.8799 14.6797L32.6599 21.7797V19.7697L23.4999 14.6797H19.8799Z" fill="#D80027"/>
<g id="Group_2">
<path id="Vector_8" d="M5.76 14.6797L0 17.8797V14.6797H5.76Z" fill="#0052B4"/>
<path id="Vector_9" d="M12.7799 15.5801V21.7801H1.62988L12.7799 15.5801Z" fill="#0052B4"/>
</g>
<path id="Vector_10" d="M9.17 14.6797L0 19.7697V21.7797L12.78 14.6797H9.17Z" fill="#D80027"/>
<g id="Group_3">
<path id="Vector_11" d="M7.54 7.10016L0 2.91016V7.10016H7.54Z" fill="#0052B4"/>
<path id="Vector_12" d="M12.78 7.1L0 0V2.01L9.17 7.1H12.78Z" fill="#0052B4"/>
<path id="Vector_13" d="M3.3999 0L12.7799 5.21V0H3.3999Z" fill="#0052B4"/>
</g>
<path id="Vector_14" d="M12.78 7.1L0 0V2.01L9.17 7.1H12.78Z" fill="#F0F0F0"/>
<path id="Vector_15" d="M12.78 7.1L0 0V2.01L9.17 7.1H12.78Z" fill="#D80027"/>
<g id="Group_4">
<path id="Vector_16" d="M26.8999 7.10039L32.6599 3.90039V7.10039H26.8999Z" fill="#0052B4"/>
<path id="Vector_17" d="M19.8799 6.2V0H31.0399L19.8799 6.2Z" fill="#0052B4"/>
</g>
<path id="Vector_18" d="M23.4999 7.1L32.6599 2.01V0L19.8799 7.1H23.4999Z" fill="#D80027"/>
</g>
<defs>
<clipPath id="clip0_144_34659">
<rect width="32.66" height="21.78" fill="white"/>
</clipPath>
</defs>
</svg>
