<svg width="141" height="124" viewBox="0 0 141 124" fill="none" xmlns="http://www.w3.org/2000/svg">
<g id="Frame" clip-path="url(#clip0_38_2044)">
<g id="Group">
<g id="Isolation Mode">
<g id="Group_2">
<g id="Group_3">
<path id="Vector" d="M0.032561 52.6098L1.81257 69.9992L136.066 56.064L134.286 38.6746C133.913 34.9963 130.647 32.3266 126.995 32.7089L5.96155 45.2665C2.30992 45.6422 -0.340455 48.9316 0.0391052 52.6098H0.032561Z" fill="white"/>
<path id="Vector_2" d="M1.32812 65.2333L6.71395 117.863C7.10006 121.627 10.4376 124.363 14.1743 123.974L134.901 111.442C138.637 111.053 141.353 107.692 140.967 103.928L135.581 51.298L1.32812 65.2333Z" fill="white"/>
<path id="Vector_3" d="M135.576 51.3013L1.31982 65.2289L6.18571 112.821L140.442 98.8935L135.576 51.3013Z" fill="#433E72"/>
<g id="Vector_4" style="mix-blend-mode:multiply" opacity="0.3">
<path d="M113.606 76.1627L117.055 113.288L48.2627 120.427L44.0352 83.3874L113.606 76.1627Z" fill="#433E72"/>
</g>
<path id="Vector_5" d="M9.50592 44.9648L17.7016 44.1146C18.4063 44.0415 18.9187 43.4068 18.8461 42.697L18.7436 41.6938C18.671 40.984 18.0409 40.4678 17.3363 40.5409L9.14054 41.3911C8.43588 41.4642 7.92347 42.0989 7.99604 42.8087L8.09861 43.812C8.17118 44.5218 8.80125 45.0379 9.50592 44.9648Z" fill="#26013F"/>
<path id="Vector_6" d="M99.8503 37.7583L94.0719 20.1909L51.8753 24.5745L49.7681 42.9593L99.8503 37.7583Z" fill="white"/>
<g id="Vector_7" style="mix-blend-mode:multiply" opacity="0.3">
<path d="M93.0839 36.0906L89.3668 28.5297L58.1643 31.7663L56.0571 39.9402L93.0839 36.0906Z" fill="#433E72"/>
</g>
<g id="Vector_8" style="mix-blend-mode:multiply" opacity="0.3">
<path d="M101.436 39.4866L48.5444 44.9735L50.0716 59.9108L102.963 54.4239L101.436 39.4866Z" fill="#433E72"/>
</g>
<path id="Vector_9" d="M107.232 29.4243L120.303 28.0683C121.436 27.9508 122.448 28.7801 122.565 29.9211L122.89 33.1013L105.717 34.8828L105.392 31.7025C105.276 30.5616 106.099 29.5418 107.232 29.4243Z" fill="#26013F"/>
<path id="Vector_10" d="M42.2967 36.4559L23.3795 38.4183C23.1278 38.4444 22.9448 38.6711 22.9708 38.9246L23.3589 42.7212C23.3848 42.9747 23.6099 43.159 23.8615 43.1329L42.7787 41.1705C43.0304 41.1444 43.2134 40.9177 43.1875 40.6642L42.7993 36.8676C42.7734 36.6141 42.5484 36.4298 42.2967 36.4559Z" fill="#26013F"/>
<g id="Vector_11" style="mix-blend-mode:multiply" opacity="0.3">
<path d="M38.7937 52.1089C38.5123 49.3732 36.0844 47.3825 33.3686 47.6659C30.6528 47.9494 28.6764 50.395 28.9578 53.1306C29.2392 55.8662 31.6671 57.857 34.3829 57.5735C37.0987 57.2901 39.0751 54.8445 38.7937 52.1089Z" fill="#433E72"/>
</g>
<path id="Vector_12" d="M36.3525 52.3593C36.2086 50.9816 34.9848 49.9796 33.6171 50.1181C32.2494 50.2565 31.2547 51.4958 31.3921 52.8735C31.5295 54.2512 32.7598 55.2531 34.1275 55.1147C35.4953 54.9697 36.49 53.737 36.3525 52.3593Z" fill="#433E72"/>
<path id="Vector_13" d="M108.024 51.2716L95.0405 59.8411L100.95 68.9247L113.933 60.3553C116.427 58.7139 117.12 55.3454 115.491 52.8405C113.861 50.329 110.517 49.6303 108.031 51.2716H108.024Z" fill="#26013F"/>
<path id="Vector_14" d="M113.292 54.416C112.297 52.8867 110.262 52.4582 108.744 53.4602C107.226 54.4621 106.8 56.5122 107.795 58.0415C108.79 59.5709 110.825 59.9993 112.343 58.9974C113.861 57.9954 114.287 55.9453 113.292 54.416Z" fill="#6A9AA5"/>
<g id="Vector_15" style="mix-blend-mode:multiply">
<path d="M111.767 55.4245C111.322 54.7456 110.419 54.5544 109.745 55.0027C109.071 55.4509 108.881 56.3606 109.326 57.0396C109.771 57.7185 110.674 57.9097 111.348 57.4614C112.023 57.0132 112.212 56.1035 111.767 55.4245Z" fill="#6A9AA5"/>
</g>
<path id="Vector_16" d="M84.645 114.503C103.69 111.265 116.523 93.0886 113.309 73.9045C110.095 54.7205 92.0497 41.7935 73.0047 45.0314C53.9596 48.2692 41.1263 66.4458 44.3407 85.6298C47.5551 104.814 65.6 117.741 84.645 114.503Z" fill="#26013F"/>
<path id="Vector_17" d="M108.35 79.8624C108.401 63.4288 95.217 50.0649 78.9025 50.0133C62.5879 49.9617 49.3208 63.2419 49.2696 79.6755C49.2183 96.109 62.4023 109.473 78.7168 109.525C95.0314 109.576 108.298 96.296 108.35 79.8624Z" stroke="#6A9AA5" stroke-width="1.04" stroke-miterlimit="10"/>
<path id="Vector_18" d="M78.8438 62.7086C87.5409 62.7086 94.7787 69.2939 95.6687 78.0281C96.6242 87.3886 89.8444 95.7933 80.5518 96.7557C79.9628 96.815 79.3738 96.848 78.7848 96.848C70.0877 96.848 62.8499 90.2627 61.9599 81.5284C61.4952 76.9932 62.8106 72.5503 65.6704 69.0104C68.5236 65.4706 72.581 63.2689 77.0768 62.8009C77.6658 62.7415 78.2548 62.7086 78.8438 62.7086ZM78.8438 56.5583C78.0519 56.5583 77.2535 56.5979 76.4551 56.6836C63.7922 57.9954 54.5846 69.4059 55.8935 82.1546C57.1172 94.0991 67.1232 102.992 78.7914 102.992C79.5832 102.992 80.3816 102.952 81.18 102.866C93.8429 101.555 103.051 90.144 101.742 77.3953C100.518 65.4508 90.5119 56.5583 78.8438 56.5583Z" fill="#6A9AA5"/>
<path id="Vector_19" d="M77.7836 69.6762C72.2473 70.2497 68.2226 75.2398 68.792 80.8165C69.3613 86.3932 74.3152 90.4472 79.8515 89.8737C85.3879 89.3002 89.4125 84.3102 88.8432 78.7335C88.2739 73.1567 83.3199 69.1027 77.7836 69.6762Z" fill="#6A9AA5"/>
<g id="Vector_20" style="mix-blend-mode:multiply">
<path d="M78.2152 73.8951C74.989 74.2312 72.6462 77.1317 72.9799 80.3815C73.3137 83.6313 76.1931 85.9912 79.4193 85.655C82.6456 85.3188 84.9884 82.4184 84.6546 79.1686C84.3209 75.9188 81.4415 73.5589 78.2152 73.8951Z" fill="#6A9AA5"/>
</g>
<path id="Vector_21" d="M80.9052 67.3427C78.0062 67.6459 75.899 70.2563 76.2 73.1765C76.501 76.0967 79.0925 78.2193 81.9916 77.9161C84.8906 77.6128 86.9978 75.0025 86.6968 72.0822C86.3958 69.162 83.8043 67.0395 80.9052 67.3427Z" fill="white"/>
<path id="Vector_22" d="M108.797 41.074L126.327 39.2554C126.991 39.1865 127.587 39.6747 127.656 40.3435L128.113 44.8221C128.182 45.4909 127.697 46.0912 127.033 46.1601L109.503 47.9787C108.839 48.0476 108.243 47.5594 108.174 46.8906L107.716 42.412C107.648 41.7432 108.133 41.1429 108.797 41.074Z" fill="#433E72"/>
</g>
<path id="Vector_23" d="M48.832 17.1323C48.7731 17.1916 48.7076 17.2443 48.6357 17.2905C47.9812 17.7387 47.0912 17.5739 46.6462 16.9147L41.0314 8.64852C40.5864 7.98933 40.75 7.09283 41.4044 6.63799C42.0588 6.18974 42.9488 6.35454 43.3938 7.01373L49.0087 15.28C49.4079 15.8666 49.3162 16.6511 48.8254 17.1257L48.832 17.1323Z" fill="#26013F"/>
<g id="Group_4">
<path id="Vector_24" d="M42.4843 21.5093C42.0327 21.9509 41.3325 22.0564 40.7697 21.7268L31.8239 16.5258C31.1368 16.1303 30.9012 15.2404 31.3004 14.5548C31.6996 13.8627 32.5765 13.6254 33.2571 14.0275L42.2029 19.2285C42.89 19.624 43.1256 20.5139 42.7264 21.1995C42.661 21.3181 42.5759 21.4236 42.4843 21.5093Z" fill="#26013F"/>
<path id="Vector_25" d="M55.1733 12.7619C54.9639 12.9662 54.6956 13.1046 54.388 13.1574C53.6027 13.276 52.8763 12.7355 52.752 11.9511L51.1814 1.66772C51.0636 0.88329 51.5937 0.144999 52.379 0.0197527C53.1643 -0.0989013 53.8972 0.441633 54.015 1.22607L55.5856 11.5094C55.6576 11.9906 55.4875 12.4521 55.1668 12.7619H55.1733Z" fill="#26013F"/>
</g>
</g>
</g>
</g>
</g>
<defs>
<clipPath id="clip0_38_2044">
<rect width="141" height="124" fill="white"/>
</clipPath>
</defs>
</svg>
