<svg width="147" height="135" viewBox="0 0 147 135" fill="none" xmlns="http://www.w3.org/2000/svg">
<g id="Isolation_Mode" clip-path="url(#clip0_38_2075)">
<g id="Group">
<path id="Vector" d="M109.511 0H8.53829C3.82272 0 0 3.85223 0 8.60419V126.396C0 131.148 3.82272 135 8.53829 135H109.511C114.227 135 118.05 131.148 118.05 126.396V8.60419C118.05 3.85223 114.227 0 109.511 0Z" fill="#11AACC"/>
<path id="Vector_2" d="M107.735 30.1969H10.4597C5.74411 30.1969 1.92139 34.0491 1.92139 38.8011V123.729C1.92139 128.481 5.74411 132.333 10.4597 132.333H107.735C112.45 132.333 116.273 128.481 116.273 123.729V38.8011C116.273 34.0491 112.45 30.1969 107.735 30.1969Z" fill="white"/>
<g id="Group_2">
<path id="Vector_3" d="M18.6716 18.9621H14.5203L13.6864 22.2321H10.5503L14.8104 8.49457H18.5085L22.7686 22.2321H19.5055L18.6716 18.9621ZM18.0372 16.5325L17.729 15.272C17.3483 13.9019 16.9676 12.276 16.6232 10.8511H16.5325C16.2062 12.3126 15.8437 13.9019 15.463 15.272L15.1367 16.5325H18.0372Z" fill="white"/>
<path id="Vector_4" d="M24.2549 8.49457H28.098C32.2675 8.49457 34.9323 10.5771 34.9323 15.3085C34.9323 20.0399 32.2493 22.2503 28.2612 22.2503H24.2549V8.51284V8.49457ZM27.9167 19.7293C30.2371 19.7293 31.778 18.5967 31.778 15.3085C31.778 12.0203 30.2371 11.0155 27.9167 11.0155H27.3366V19.7476H27.9167V19.7293Z" fill="white"/>
<path id="Vector_5" d="M37.5249 8.49457H41.368C45.5375 8.49457 48.2023 10.5771 48.2023 15.3085C48.2023 20.0399 45.5194 22.2503 41.5312 22.2503H37.5249V8.51284V8.49457ZM41.1868 19.7293C43.5071 19.7293 45.048 18.5967 45.048 15.3085C45.048 12.0203 43.5071 11.0155 41.1868 11.0155H40.6067V19.7476H41.1868V19.7293Z" fill="white"/>
</g>
<path id="Vector_6" d="M18.8166 45.0487H99.3775C101.227 45.0487 102.749 46.5649 102.749 48.4465V48.5196C102.749 50.3829 101.245 51.9174 99.3775 51.9174H18.8166C16.9676 51.9174 15.4448 50.4012 15.4448 48.5196V48.4465C15.4448 46.5832 16.9494 45.0487 18.8166 45.0487Z" fill="#ABABAB"/>
<path id="Vector_7" d="M18.8166 66.1116H99.3775C101.227 66.1116 102.749 67.6279 102.749 69.5095V69.5825C102.749 71.4459 101.245 72.9804 99.3775 72.9804H18.8166C16.9676 72.9804 15.4448 71.4641 15.4448 69.5825V69.5095C15.4448 67.6461 16.9494 66.1116 18.8166 66.1116Z" fill="#ABABAB"/>
<path id="Vector_8" d="M18.8166 87.1928H99.3775C101.227 87.1928 102.749 88.709 102.749 90.5906V90.6637C102.749 92.527 101.245 94.0616 99.3775 94.0616H18.8166C16.9676 94.0616 15.4448 92.5453 15.4448 90.6637V90.5906C15.4448 88.7273 16.9494 87.1928 18.8166 87.1928Z" fill="#ABABAB"/>
<path id="Vector_9" d="M18.8166 108.256H68.288C70.137 108.256 71.6598 109.772 71.6598 111.654V111.727C71.6598 113.59 70.1551 115.124 68.288 115.124H18.8166C16.9676 115.124 15.4448 113.608 15.4448 111.727V111.654C15.4448 109.79 16.9494 108.256 18.8166 108.256Z" fill="#ABABAB"/>
</g>
<g id="Group_3">
<path id="Vector_10" d="M129.147 72.7255L95.998 106.13L103.292 113.48L136.44 80.0755L129.147 72.7255Z" fill="#F5B400"/>
<path id="Vector_11" d="M134.534 67.2905L129.15 72.7158L136.444 80.0658L141.828 74.6405L134.534 67.2905Z" fill="#ABABAB"/>
<path id="Vector_12" d="M145.912 65.2896L143.827 63.1888C142.395 61.7456 140.057 61.7456 138.625 63.1888L134.528 67.3173L141.815 74.661L145.912 70.5325C147.344 69.0893 147.344 66.7327 145.912 65.2896Z" fill="#E03434"/>
<path id="Vector_13" d="M89.1172 120.422L96.0058 106.118L103.293 113.48L89.1172 120.422Z" fill="#F5E5B5"/>
<path id="Vector_14" d="M89.1172 120.422L90.3136 117.919L91.6007 119.198L89.1172 120.422Z" fill="#303030"/>
</g>
</g>
<defs>
<clipPath id="clip0_38_2075">
<rect width="147" height="135" fill="white"/>
</clipPath>
</defs>
</svg>
