<svg width="123" height="136" viewBox="0 0 123 136" fill="none" xmlns="http://www.w3.org/2000/svg">
<g clip-path="url(#clip0_38_2123)">
<path d="M106.851 27.0812C113.882 29.4797 117.543 37.2172 114.929 44.175C113.303 48.5041 114.068 53.3679 116.941 56.9916C121.559 62.8132 120.453 71.3007 114.498 75.7412C110.793 78.5035 108.804 83.0109 109.264 87.6148C110.006 95.0107 104.482 101.553 97.0723 102.065C92.4615 102.384 88.3481 105.102 86.2543 109.223C82.8834 115.847 74.7012 118.364 68.1897 114.785C64.1357 112.557 59.213 112.624 55.2185 114.956C48.8034 118.698 40.5544 116.396 37.0127 109.869C34.8075 105.808 30.6274 103.194 26.0091 103.001C18.5843 102.681 12.8968 96.2879 13.4463 88.8771C13.7878 84.2658 11.6792 79.8105 7.89991 77.1447C1.82639 72.8601 0.497338 64.4097 4.9671 58.4693C7.74399 54.7713 8.38252 49.8927 6.64511 45.6007C3.85337 38.7171 7.30592 30.8831 14.2704 28.299C18.6065 26.6951 21.7844 22.9303 22.6382 18.3858C24.0118 11.079 31.1471 6.36377 38.4086 7.96027C42.9229 8.9553 47.6303 7.50731 50.8081 4.14351C55.909 -1.25491 64.4698 -1.36629 69.7118 3.89846C72.9713 7.17316 77.7157 8.50234 82.2078 7.3885C89.4173 5.60635 96.6788 10.136 98.2454 17.3982C99.2181 21.9204 102.492 25.5961 106.866 27.0886L106.851 27.0812Z" fill="url(#paint0_linear_38_2123)"/>
<path d="M95.496 94.0806C114.677 74.8979 114.677 43.7966 95.496 24.6139C76.3153 5.43115 45.2172 5.43116 26.0364 24.6139C6.8557 43.7966 6.8557 74.8979 26.0364 94.0806C45.2172 113.263 76.3153 113.263 95.496 94.0806Z" fill="url(#paint1_radial_38_2123)"/>
<path d="M104.399 77.7796C114.58 53.6771 103.295 25.8845 79.1954 15.7032C55.0953 5.5219 27.3057 16.8073 17.1254 40.9098C6.94512 65.0124 18.2293 92.8049 42.3294 102.986C66.4295 113.168 94.2192 101.882 104.399 77.7796Z" fill="url(#paint2_linear_38_2123)"/>
<path d="M80.8542 95.2927C100.706 84.1966 107.805 59.1065 96.7104 39.2524C85.6154 19.3983 60.5279 12.2985 40.6758 23.3946C20.8238 34.4907 13.7247 59.5808 24.8196 79.4349C35.9146 99.289 61.0021 106.389 80.8542 95.2927Z" fill="#2B2D2E"/>
<path style="mix-blend-mode:multiply" d="M80.8542 95.2927C100.706 84.1966 107.805 59.1065 96.7104 39.2524C85.6154 19.3983 60.5279 12.2985 40.6758 23.3946C20.8238 34.4907 13.7247 59.5808 24.8196 79.4349C35.9146 99.289 61.0021 106.389 80.8542 95.2927Z" fill="url(#paint3_radial_38_2123)"/>
<path d="M60.7655 28.8188L69.7496 47.0189L89.8338 49.9372L75.3034 64.1053L78.7337 84.1173L60.7655 74.6719L42.7974 84.1173L46.2277 64.1053L31.6973 49.9372L51.7815 47.0189L60.7655 28.8188Z" fill="url(#paint4_linear_38_2123)"/>
<path d="M63.3797 50.5455V68H61.2661V52.7614H61.1638L56.9024 55.5909V53.4432L61.2661 50.5455H63.3797Z" fill="#C8954E"/>
<path d="M63.3797 50.5455V68H61.2661V52.7614H61.1638L56.9024 55.5909V53.4432L61.2661 50.5455H63.3797Z" fill="#282830"/>
<path d="M99.8196 104.708C108.15 108.882 116.08 113.991 122.992 120.265C122.992 120.265 115.234 121.81 110.311 123.54C106.836 127.884 103.049 136 103.049 136C97.9336 130 90.2786 124.743 83.1582 121.32C88.9867 116.137 94.5999 110.508 99.8196 104.716V104.708Z" fill="url(#paint5_linear_38_2123)"/>
<path style="mix-blend-mode:multiply" d="M99.8196 104.708C108.15 108.882 116.08 113.991 122.992 120.265C122.992 120.265 115.234 121.81 110.311 123.54C106.836 127.884 103.049 136 103.049 136C97.9336 130 90.2786 124.743 83.1582 121.32C88.9867 116.137 94.5999 110.508 99.8196 104.716V104.708Z" fill="url(#paint6_linear_38_2123)"/>
<path d="M97.8969 124.268L83.166 121.32L90.5315 110.307L97.8969 124.268Z" fill="url(#paint7_linear_38_2123)"/>
<path style="mix-blend-mode:multiply" d="M97.8969 124.268L83.166 121.32L90.5315 110.307L97.8969 124.268Z" fill="url(#paint8_linear_38_2123)"/>
<path d="M23.1729 104.708C14.8423 108.882 6.91253 113.991 0 120.265C0 120.265 7.75896 121.81 12.6816 123.54C16.1565 127.884 19.9431 136 19.9431 136C25.0589 130 32.7139 124.743 39.8343 121.32C34.0058 116.137 28.3926 110.508 23.1729 104.716V104.708Z" fill="url(#paint9_linear_38_2123)"/>
<path style="mix-blend-mode:multiply" d="M23.1729 104.708C14.8423 108.882 6.91253 113.991 0 120.265C0 120.265 7.75896 121.81 12.6816 123.54C16.1565 127.884 19.9431 136 19.9431 136C25.0589 130 32.7139 124.743 39.8343 121.32C34.0058 116.137 28.3926 110.508 23.1729 104.716V104.708Z" fill="url(#paint10_linear_38_2123)"/>
<path d="M25.0957 124.268L39.834 121.32L32.4686 110.307L25.0957 124.268Z" fill="url(#paint11_linear_38_2123)"/>
<path style="mix-blend-mode:multiply" d="M25.0957 124.268L39.834 121.32L32.4686 110.307L25.0957 124.268Z" fill="url(#paint12_linear_38_2123)"/>
<path d="M97.8962 124.268L110.741 103.246C98.9728 96.2953 90.1967 92.4488 76.6612 90.585C55.0252 87.6073 34.8741 91.7805 15.0498 103.246L25.0956 124.268C30.4489 119.656 43.7765 113.849 52.6344 113.047C70.0531 111.466 83.9821 112.632 97.8962 124.268Z" fill="url(#paint13_linear_38_2123)"/>
</g>
<defs>
<linearGradient id="paint0_linear_38_2123" x1="18.0647" y1="12.3962" x2="96.5262" y2="100.574" gradientUnits="userSpaceOnUse">
<stop offset="0.03" stop-color="#92693A"/>
<stop offset="0.1" stop-color="#A17A43"/>
<stop offset="0.24" stop-color="#C9A65D"/>
<stop offset="0.31" stop-color="#E0C06C"/>
<stop offset="0.5" stop-color="#B58B42"/>
<stop offset="0.56" stop-color="#BC954C"/>
<stop offset="0.65" stop-color="#D2B269"/>
<stop offset="0.77" stop-color="#F4E097"/>
<stop offset="0.79" stop-color="#F8E69D"/>
<stop offset="0.81" stop-color="#E6D08C"/>
<stop offset="0.85" stop-color="#C8AA6E"/>
<stop offset="0.89" stop-color="#AF8D57"/>
<stop offset="0.93" stop-color="#9E7846"/>
<stop offset="0.96" stop-color="#946B3C"/>
<stop offset="1" stop-color="#916739"/>
</linearGradient>
<radialGradient id="paint1_radial_38_2123" cx="0" cy="0" r="1" gradientUnits="userSpaceOnUse" gradientTransform="translate(60.765 59.3507) rotate(31.6526) scale(49.1167 49.119)">
<stop offset="0.24" stop-color="#282830"/>
<stop offset="0.5" stop-color="#25252C"/>
<stop offset="0.74" stop-color="#1B1B21"/>
<stop offset="0.96" stop-color="#0C0C0F"/>
<stop offset="1" stop-color="#09090B"/>
</radialGradient>
<linearGradient id="paint2_linear_38_2123" x1="27.2699" y1="25.8477" x2="94.2635" y2="92.8345" gradientUnits="userSpaceOnUse">
<stop offset="0.03" stop-color="#92693A"/>
<stop offset="0.1" stop-color="#A17A43"/>
<stop offset="0.24" stop-color="#C9A65D"/>
<stop offset="0.31" stop-color="#E0C06C"/>
<stop offset="0.5" stop-color="#B58B42"/>
<stop offset="0.56" stop-color="#BC954C"/>
<stop offset="0.65" stop-color="#D2B269"/>
<stop offset="0.77" stop-color="#F4E097"/>
<stop offset="0.79" stop-color="#F8E69D"/>
<stop offset="0.81" stop-color="#E6D08C"/>
<stop offset="0.85" stop-color="#C8AA6E"/>
<stop offset="0.89" stop-color="#AF8D57"/>
<stop offset="0.93" stop-color="#9E7846"/>
<stop offset="0.96" stop-color="#946B3C"/>
<stop offset="1" stop-color="#916739"/>
</linearGradient>
<radialGradient id="paint3_radial_38_2123" cx="0" cy="0" r="1" gradientUnits="userSpaceOnUse" gradientTransform="translate(60.7662 59.3426) rotate(45.0029) scale(42.5837 42.5837)">
<stop offset="0.8" stop-color="white" stop-opacity="0"/>
<stop offset="1" stop-color="#291E06"/>
</radialGradient>
<linearGradient id="paint4_linear_38_2123" x1="31.6973" y1="56.4643" x2="89.8338" y2="56.4643" gradientUnits="userSpaceOnUse">
<stop offset="0.03" stop-color="#92693A"/>
<stop offset="0.1" stop-color="#A17A43"/>
<stop offset="0.24" stop-color="#C9A65D"/>
<stop offset="0.31" stop-color="#E0C06C"/>
<stop offset="0.5" stop-color="#B58B42"/>
<stop offset="0.56" stop-color="#BC954C"/>
<stop offset="0.65" stop-color="#D2B269"/>
<stop offset="0.77" stop-color="#F4E097"/>
<stop offset="0.79" stop-color="#F8E69D"/>
<stop offset="0.81" stop-color="#E6D08C"/>
<stop offset="0.85" stop-color="#C8AA6E"/>
<stop offset="0.89" stop-color="#AF8D57"/>
<stop offset="0.93" stop-color="#9E7846"/>
<stop offset="0.96" stop-color="#946B3C"/>
<stop offset="1" stop-color="#916739"/>
</linearGradient>
<linearGradient id="paint5_linear_38_2123" x1="111.929" y1="131.723" x2="96.5507" y2="112.73" gradientUnits="userSpaceOnUse">
<stop stop-color="#E1C999"/>
<stop offset="0.08" stop-color="#DCC392"/>
<stop offset="0.2" stop-color="#D0B380"/>
<stop offset="0.34" stop-color="#BC9962"/>
<stop offset="0.49" stop-color="#9F7438"/>
<stop offset="0.76" stop-color="#745437"/>
<stop offset="0.8" stop-color="#7C5C3B"/>
<stop offset="0.87" stop-color="#957249"/>
<stop offset="0.96" stop-color="#BC975F"/>
<stop offset="0.97" stop-color="#BD9860"/>
</linearGradient>
<linearGradient id="paint6_linear_38_2123" x1="97.7233" y1="110.381" x2="108.752" y2="131.833" gradientUnits="userSpaceOnUse">
<stop stop-color="#613211" stop-opacity="0.95"/>
<stop offset="0.36" stop-color="#A18572" stop-opacity="0.56"/>
<stop offset="0.78" stop-color="#E5DDD8" stop-opacity="0.16"/>
<stop offset="1" stop-color="white" stop-opacity="0"/>
</linearGradient>
<linearGradient id="paint7_linear_38_2123" x1="97.3178" y1="116.783" x2="82.3344" y2="119.232" gradientUnits="userSpaceOnUse">
<stop stop-color="#745437"/>
<stop offset="1" stop-color="#9F7438"/>
</linearGradient>
<linearGradient id="paint8_linear_38_2123" x1="91.3482" y1="119.745" x2="88.452" y2="130.542" gradientUnits="userSpaceOnUse">
<stop stop-color="#613211" stop-opacity="0.95"/>
<stop offset="0.36" stop-color="#A18572" stop-opacity="0.56"/>
<stop offset="0.78" stop-color="#E5DDD8" stop-opacity="0.16"/>
<stop offset="1" stop-color="white" stop-opacity="0"/>
</linearGradient>
<linearGradient id="paint9_linear_38_2123" x1="11.063" y1="131.723" x2="26.4418" y2="112.73" gradientUnits="userSpaceOnUse">
<stop stop-color="#E1C999"/>
<stop offset="0.08" stop-color="#DCC392"/>
<stop offset="0.2" stop-color="#D0B380"/>
<stop offset="0.34" stop-color="#BC9962"/>
<stop offset="0.49" stop-color="#9F7438"/>
<stop offset="0.76" stop-color="#745437"/>
<stop offset="0.8" stop-color="#7C5C3B"/>
<stop offset="0.87" stop-color="#957249"/>
<stop offset="0.96" stop-color="#BC975F"/>
<stop offset="0.97" stop-color="#BD9860"/>
</linearGradient>
<linearGradient id="paint10_linear_38_2123" x1="25.2748" y1="110.388" x2="14.2454" y2="131.833" gradientUnits="userSpaceOnUse">
<stop stop-color="#613211" stop-opacity="0.95"/>
<stop offset="0.36" stop-color="#A18572" stop-opacity="0.56"/>
<stop offset="0.78" stop-color="#E5DDD8" stop-opacity="0.16"/>
<stop offset="1" stop-color="white" stop-opacity="0"/>
</linearGradient>
<linearGradient id="paint11_linear_38_2123" x1="25.6748" y1="116.783" x2="40.6583" y2="119.232" gradientUnits="userSpaceOnUse">
<stop stop-color="#745437"/>
<stop offset="1" stop-color="#9F7438"/>
</linearGradient>
<linearGradient id="paint12_linear_38_2123" x1="31.6444" y1="119.745" x2="34.5407" y2="130.542" gradientUnits="userSpaceOnUse">
<stop stop-color="#613211" stop-opacity="0.95"/>
<stop offset="0.36" stop-color="#A18572" stop-opacity="0.56"/>
<stop offset="0.78" stop-color="#E5DDD8" stop-opacity="0.16"/>
<stop offset="1" stop-color="white" stop-opacity="0"/>
</linearGradient>
<linearGradient id="paint13_linear_38_2123" x1="13.7208" y1="106.231" x2="114.127" y2="108.592" gradientUnits="userSpaceOnUse">
<stop offset="0.03" stop-color="#92693A"/>
<stop offset="0.1" stop-color="#A17A43"/>
<stop offset="0.24" stop-color="#C9A65D"/>
<stop offset="0.31" stop-color="#E0C06C"/>
<stop offset="0.5" stop-color="#B58B42"/>
<stop offset="0.56" stop-color="#BC954C"/>
<stop offset="0.65" stop-color="#D2B269"/>
<stop offset="0.77" stop-color="#F4E097"/>
<stop offset="0.79" stop-color="#F8E69D"/>
<stop offset="0.81" stop-color="#E6D08C"/>
<stop offset="0.85" stop-color="#C8AA6E"/>
<stop offset="0.89" stop-color="#AF8D57"/>
<stop offset="0.93" stop-color="#9E7846"/>
<stop offset="0.96" stop-color="#946B3C"/>
<stop offset="1" stop-color="#916739"/>
</linearGradient>
<clipPath id="clip0_38_2123">
<rect width="123" height="136" fill="white"/>
</clipPath>
</defs>
</svg>
