<svg width="173" height="165" viewBox="0 0 173 165" fill="none" xmlns="http://www.w3.org/2000/svg">
<g clip-path="url(#clip0_38_2149)">
<g style="mix-blend-mode:multiply" opacity="0.3">
<path d="M42.2704 88.2558C42.0158 88.2558 41.7613 88.2529 41.5039 88.2485C41.2939 88.244 41.1271 88.0668 41.1314 87.8513C41.1357 87.6387 41.304 87.4689 41.5111 87.4689H41.5183C41.7714 87.4733 42.023 87.4762 42.2733 87.4762C42.4832 87.4762 42.6529 87.6519 42.6515 87.8675C42.6515 88.0831 42.4818 88.2558 42.2718 88.2558H42.2704ZM43.9443 88.2263C43.7416 88.2263 43.5719 88.0609 43.5647 87.8513C43.5575 87.6357 43.7214 87.4556 43.93 87.4482C44.1831 87.4393 44.4333 87.4275 44.6835 87.4128C44.8949 87.4009 45.0718 87.5663 45.0833 87.7804C45.0948 87.996 44.9338 88.1791 44.7252 88.1909C44.4707 88.2056 44.2161 88.2175 43.9587 88.2263C43.9544 88.2263 43.9487 88.2263 43.9443 88.2263ZM39.8371 88.1865C39.8371 88.1865 39.8242 88.1865 39.817 88.1865C39.5639 88.1732 39.3079 88.1569 39.0519 88.1392C38.8419 88.1244 38.6837 87.9384 38.6981 87.7243C38.7125 87.5087 38.8966 87.3433 39.1022 87.3611C39.3553 87.3788 39.607 87.3935 39.8558 87.4068C40.0643 87.4186 40.2254 87.6017 40.2153 87.8173C40.2053 88.0255 40.037 88.1865 39.8371 88.1865ZM46.3719 88.0609C46.1792 88.0609 46.0138 87.9103 45.9951 87.7095C45.975 87.4954 46.1274 87.305 46.3359 87.2828C46.5876 87.2577 46.8364 87.2297 47.0837 87.1987C47.2923 87.1736 47.4806 87.3256 47.5065 87.5397C47.531 87.7538 47.3829 87.9473 47.1743 87.9724C46.9227 88.0034 46.6667 88.0314 46.4107 88.058C46.3978 88.058 46.3862 88.0595 46.3733 88.0595L46.3719 88.0609ZM37.4081 87.9989C37.3952 87.9989 37.3837 87.9989 37.3708 87.9975C37.1191 87.9724 36.8645 87.9443 36.6086 87.9162C36.4 87.8926 36.2505 87.7007 36.2735 87.4866C36.2965 87.2725 36.4834 87.1189 36.692 87.1425C36.9436 87.1706 37.1953 87.1986 37.4441 87.2223C37.6526 87.2429 37.8051 87.4334 37.7849 87.6475C37.7662 87.8483 37.6008 87.9989 37.4081 87.9989ZM48.7821 87.7317C48.6009 87.7317 48.4399 87.5973 48.4082 87.4068C48.3737 87.1942 48.5118 86.9934 48.7189 86.958C48.9677 86.9152 49.215 86.8694 49.458 86.8207C49.6637 86.7793 49.8636 86.9181 49.9024 87.1292C49.9427 87.3404 49.8075 87.5456 49.6019 87.5855C49.3516 87.6357 49.1 87.6815 48.8454 87.7258C48.8238 87.7302 48.8023 87.7317 48.7807 87.7317H48.7821ZM34.9892 87.7051C34.972 87.7051 34.9547 87.7051 34.9375 87.7007C34.6858 87.6652 34.4341 87.6283 34.1796 87.5885C33.9725 87.556 33.8287 87.3581 33.8603 87.1455C33.892 86.9329 34.0847 86.7867 34.2918 86.8177C34.5434 86.8561 34.7922 86.893 35.041 86.9284C35.2481 86.958 35.3934 87.1544 35.3646 87.3684C35.3387 87.5633 35.1762 87.7051 34.9892 87.7051ZM32.5833 87.3183C32.5617 87.3183 32.5401 87.3168 32.5171 87.3123C32.2669 87.268 32.0167 87.2208 31.7636 87.1736C31.5579 87.1352 31.4213 86.9314 31.4587 86.7188C31.4961 86.5062 31.6945 86.3674 31.9016 86.4057C32.1519 86.453 32.3992 86.4988 32.6466 86.5431C32.8537 86.58 32.9917 86.7823 32.9558 86.9934C32.9241 87.1824 32.7631 87.3168 32.5819 87.3168L32.5833 87.3183ZM51.1636 87.2208C50.9939 87.2208 50.8386 87.1027 50.7955 86.9255C50.7452 86.7173 50.8674 86.5047 51.0716 86.453C51.3132 86.391 51.5577 86.3245 51.7964 86.2551C51.9977 86.1976 52.2077 86.3186 52.2638 86.5268C52.3199 86.7335 52.202 86.9491 51.9992 87.0067C51.7533 87.0776 51.503 87.1455 51.2542 87.209C51.224 87.2164 51.1924 87.2208 51.1622 87.2208H51.1636ZM30.1917 86.8487C30.1658 86.8487 30.1399 86.8458 30.1141 86.8399C29.8667 86.7867 29.6165 86.7321 29.3662 86.6774C29.162 86.6317 29.0312 86.4235 29.0757 86.2138C29.1203 86.0027 29.3231 85.8698 29.5273 85.9155C29.7761 85.9716 30.022 86.0248 30.2679 86.0765C30.4736 86.1208 30.6045 86.326 30.5627 86.5372C30.5254 86.7217 30.3672 86.8472 30.1917 86.8472V86.8487ZM53.4963 86.5106C53.3381 86.5106 53.1914 86.4087 53.1367 86.2478C53.0677 86.044 53.1741 85.8225 53.3711 85.7516C53.607 85.669 53.8443 85.5804 54.0758 85.4903C54.2714 85.415 54.4914 85.5154 54.5648 85.7177C54.6381 85.9185 54.5403 86.1444 54.3433 86.2197C54.1046 86.3127 53.8601 86.4028 53.6185 86.4884C53.5768 86.5032 53.5351 86.5091 53.4948 86.5091L53.4963 86.5106ZM27.8145 86.3053C27.7858 86.3053 27.7556 86.3024 27.7268 86.295C27.4809 86.2345 27.2321 86.1739 26.9833 86.1104C26.7805 86.0588 26.6554 85.8476 26.7057 85.638C26.7561 85.4283 26.9617 85.3028 27.1659 85.353C27.4119 85.415 27.6578 85.477 27.9022 85.5361C28.1065 85.5863 28.2316 85.7959 28.1841 86.0056C28.1424 86.1843 27.9871 86.3053 27.8145 86.3053ZM25.4532 85.6955C25.4215 85.6955 25.3884 85.6911 25.3554 85.6822C25.1109 85.6158 24.865 85.5479 24.6176 85.4785C24.4148 85.4209 24.2969 85.2068 24.3516 85.0001C24.4062 84.7919 24.6162 84.6708 24.8175 84.7269C25.0634 84.7963 25.3065 84.8628 25.5495 84.9292C25.7523 84.9838 25.8731 85.1979 25.8184 85.4061C25.7738 85.5804 25.62 85.6955 25.4517 85.6955H25.4532ZM55.7555 85.5892C55.6117 85.5892 55.4737 85.5036 55.4089 85.3604C55.3227 85.164 55.4061 84.9336 55.5973 84.8436C55.8231 84.7387 56.0503 84.628 56.2747 84.5143C56.4616 84.4198 56.6903 84.4995 56.7838 84.6915C56.8758 84.8849 56.7981 85.1182 56.6112 85.2127C56.3811 85.3294 56.1452 85.4431 55.9137 85.5508C55.8634 85.5745 55.8087 85.5863 55.757 85.5863L55.7555 85.5892ZM23.1076 85.0252C23.0731 85.0252 23.0371 85.0208 23.0012 85.0089C22.7581 84.9366 22.5137 84.8628 22.2692 84.7875C22.0678 84.7255 21.9542 84.5084 22.0132 84.3017C22.0736 84.095 22.285 83.9783 22.4863 84.0389C22.7294 84.1142 22.9724 84.1865 23.214 84.2589C23.4154 84.3194 23.5318 84.535 23.4729 84.7417C23.424 84.9115 23.273 85.0222 23.109 85.0222L23.1076 85.0252ZM57.917 84.4449C57.7861 84.4449 57.6596 84.3755 57.5877 84.2515C57.4827 84.0654 57.5445 83.8262 57.7257 83.7185C57.9414 83.59 58.1572 83.4556 58.3671 83.3213C58.5455 83.2061 58.7799 83.2622 58.8906 83.4453C59.0013 83.6284 58.9481 83.8691 58.7698 83.9828C58.5541 84.1216 58.3312 84.2589 58.1083 84.3932C58.0479 84.4287 57.9832 84.4464 57.9184 84.4464L57.917 84.4449ZM20.7764 84.3002C20.739 84.3002 20.7002 84.2943 20.6628 84.2825C20.4399 84.2101 20.217 84.1378 19.9927 84.064H19.672V83.6742C19.672 83.4586 19.8417 83.2844 20.0516 83.2844H20.112L20.158 83.2991C20.158 83.2991 20.171 83.3036 20.1782 83.3065C20.4169 83.3848 20.6542 83.463 20.8915 83.5398C21.0914 83.6048 21.2021 83.8233 21.1403 84.0285C21.0899 84.1954 20.9389 84.3017 20.7779 84.3017L20.7764 84.3002ZM18.4711 83.497C18.4266 83.497 18.382 83.4896 18.3374 83.4719C18.0958 83.3789 17.8571 83.2829 17.6198 83.1854C17.4256 83.1057 17.3307 82.8783 17.4098 82.6775C17.4875 82.4782 17.7104 82.3807 17.9045 82.4619C18.1361 82.5579 18.369 82.6509 18.6049 82.7425C18.8005 82.8178 18.8997 83.0437 18.8264 83.2445C18.7688 83.401 18.625 83.497 18.4711 83.497ZM59.9519 83.0806C59.8354 83.0806 59.7189 83.0245 59.6456 82.9211C59.5219 82.7469 59.5593 82.5033 59.7276 82.3763C59.9304 82.2242 60.1302 82.0692 60.3244 81.9127C60.4898 81.7798 60.7285 81.8108 60.8579 81.9791C60.9874 82.1489 60.9586 82.394 60.7932 82.5269C60.5933 82.6878 60.3862 82.8488 60.1763 83.0053C60.1087 83.0555 60.0296 83.0806 59.9519 83.0806ZM16.2277 82.5299C16.1745 82.5299 16.1198 82.518 16.0666 82.4929C15.8322 82.3807 15.6007 82.2656 15.3735 82.1489C15.1865 82.0529 15.1088 81.8196 15.2023 81.6262C15.2958 81.4343 15.5245 81.3545 15.7114 81.4505C15.9343 81.5642 16.1601 81.6764 16.3888 81.7857C16.5786 81.8772 16.6606 82.109 16.5714 82.3039C16.5067 82.4457 16.3701 82.5284 16.2277 82.5284V82.5299ZM61.8373 81.5051C61.7337 81.5051 61.6302 81.4623 61.5554 81.3767C61.4145 81.2172 61.4274 80.9706 61.5827 80.8259C61.7654 80.6561 61.948 80.4804 62.1278 80.3032C62.2788 80.1541 62.5189 80.1585 62.6642 80.3136C62.8094 80.4686 62.8051 80.7152 62.6556 80.8643C62.47 81.0474 62.2817 81.229 62.0918 81.4047C62.0185 81.4727 61.9279 81.5051 61.8373 81.5051ZM14.0662 81.3811C14.0029 81.3811 13.9368 81.3649 13.8778 81.3294C13.6535 81.198 13.4306 81.0622 13.2134 80.9278C13.0337 80.8156 12.9776 80.5764 13.0869 80.3918C13.1962 80.2073 13.4291 80.1497 13.6089 80.2619C13.8203 80.3933 14.0375 80.5262 14.256 80.6532C14.4387 80.7595 14.502 80.9987 14.397 81.1847C14.3265 81.3102 14.1985 81.3811 14.0677 81.3811H14.0662ZM12.0083 80.0478C11.9335 80.0478 11.8587 80.0257 11.7926 79.9784C11.584 79.8293 11.3726 79.6742 11.1656 79.5177C10.9973 79.3893 10.9613 79.1456 11.085 78.9729C11.2101 78.8001 11.4474 78.7632 11.6157 78.8902C11.817 79.0423 12.0227 79.1929 12.2254 79.3391C12.398 79.4616 12.4397 79.7053 12.3204 79.881C12.247 79.9902 12.1291 80.0478 12.0083 80.0478ZM63.5529 79.7392C63.4623 79.7392 63.3717 79.7067 63.2984 79.6388C63.1431 79.4941 63.1301 79.2475 63.2696 79.0881C63.4379 78.8961 63.6033 78.7012 63.7643 78.5078C63.8995 78.3439 64.1397 78.3232 64.2993 78.4635C64.459 78.6023 64.4791 78.8489 64.3425 79.0128C64.1771 79.2121 64.0059 79.4129 63.8334 79.6107C63.7586 79.6964 63.655 79.7392 63.5515 79.7392H63.5529ZM10.0755 78.5299C9.98918 78.5299 9.90289 78.5004 9.83099 78.4384C9.63397 78.2686 9.43838 78.0944 9.24712 77.9186C9.09036 77.7754 9.07742 77.5288 9.21691 77.3679C9.35641 77.207 9.59657 77.1937 9.75333 77.3369C9.93741 77.5067 10.1287 77.6765 10.3199 77.8404C10.481 77.9792 10.5011 78.2243 10.366 78.3897C10.2912 78.4812 10.1833 78.5285 10.0755 78.5285V78.5299ZM65.0932 77.805C65.0141 77.805 64.935 77.7799 64.8674 77.7282C64.6991 77.5997 64.6632 77.3561 64.7883 77.1833C64.9364 76.9796 65.0831 76.7699 65.2269 76.5588C65.3477 76.3816 65.585 76.3402 65.7561 76.4628C65.9287 76.5868 65.9704 76.829 65.8496 77.0061C65.7015 77.2232 65.5505 77.4388 65.3995 77.6484C65.3247 77.7518 65.2111 77.8064 65.0946 77.8064L65.0932 77.805ZM8.28933 76.8319C8.19154 76.8319 8.09231 76.7935 8.01897 76.7153C7.83921 76.5263 7.65944 76.3343 7.48687 76.1409C7.3445 75.9829 7.35456 75.7363 7.50844 75.5902C7.66232 75.444 7.90248 75.4543 8.04486 75.6123C8.21311 75.7998 8.38713 75.9873 8.56114 76.169C8.70782 76.3225 8.70495 76.5691 8.55539 76.7197C8.48204 76.7935 8.38569 76.8304 8.28933 76.8304V76.8319ZM66.4536 75.7349C66.386 75.7349 66.317 75.7157 66.2551 75.6773C66.0768 75.5651 66.0207 75.3244 66.13 75.1413C66.2595 74.9257 66.3889 74.7028 66.514 74.4783C66.619 74.2923 66.8505 74.2288 67.0332 74.3366C67.2144 74.4444 67.2762 74.6836 67.1712 74.8696C67.0418 75.0985 66.9095 75.3273 66.7772 75.5488C66.7053 75.6684 66.5816 75.7349 66.4536 75.7349ZM6.67003 74.9671C6.55929 74.9671 6.45 74.9183 6.37521 74.8224C6.21415 74.6171 6.05308 74.4075 5.89776 74.1963C5.77121 74.025 5.80285 73.7799 5.96967 73.65C6.13649 73.5201 6.37521 73.5525 6.50177 73.7238C6.65277 73.9276 6.80952 74.1328 6.96484 74.3307C7.09714 74.4975 7.07126 74.7441 6.90875 74.8785C6.83828 74.9375 6.75344 74.9656 6.67003 74.9656V74.9671ZM67.6415 73.5555C67.584 73.5555 67.525 73.5422 67.4689 73.5127C67.282 73.4152 67.2072 73.1805 67.3035 72.9885C67.4171 72.7596 67.5279 72.5293 67.6372 72.296C67.7278 72.1026 67.955 72.0199 68.1434 72.1129C68.3318 72.2059 68.4123 72.4392 68.3217 72.6327C68.2095 72.8704 68.0974 73.1066 67.9809 73.3414C67.9133 73.4772 67.781 73.554 67.6415 73.554V73.5555ZM5.23048 72.9486C5.1068 72.9486 4.986 72.8866 4.9141 72.7744C4.77172 72.5544 4.63223 72.33 4.49705 72.107C4.38631 71.9239 4.44096 71.6833 4.61928 71.5696C4.79761 71.4559 5.03202 71.512 5.14276 71.6951C5.27362 71.9121 5.41024 72.1306 5.5483 72.3433C5.66335 72.5234 5.61589 72.7641 5.44188 72.8837C5.37717 72.928 5.30526 72.9486 5.23192 72.9486H5.23048ZM68.6669 71.289C68.618 71.289 68.5676 71.2787 68.5187 71.258C68.326 71.1739 68.2354 70.945 68.316 70.7471C68.4137 70.5109 68.5087 70.2717 68.6021 70.031C68.6798 69.8317 68.9013 69.7342 69.0954 69.8125C69.291 69.8922 69.3859 70.1196 69.3083 70.3189C69.2133 70.564 69.1155 70.8077 69.0163 71.0498C68.9545 71.199 68.815 71.2875 68.6669 71.2875V71.289ZM3.9822 70.8018C3.84702 70.8018 3.71615 70.7279 3.64712 70.5965C3.52632 70.3662 3.40696 70.1285 3.29191 69.8937C3.19843 69.7018 3.27465 69.467 3.46161 69.371C3.64856 69.275 3.87722 69.3518 3.9707 69.5452C4.08287 69.7741 4.19792 70.0044 4.31584 70.2289C4.41507 70.4193 4.34604 70.6556 4.16053 70.7575C4.103 70.7885 4.04116 70.8032 3.98076 70.8032L3.9822 70.8018ZM69.5412 68.9561C69.4995 68.9561 69.4578 68.9487 69.4161 68.934C69.2177 68.8631 69.1141 68.6401 69.1831 68.4378C69.2665 68.1957 69.3471 67.9506 69.4262 67.7055C69.4923 67.5017 69.7066 67.391 69.9051 67.4574C70.1035 67.5253 70.2128 67.7453 70.1467 67.9491C70.0661 68.2001 69.9842 68.4482 69.8993 68.6962C69.8447 68.8572 69.698 68.9576 69.5412 68.9576V68.9561ZM2.92807 68.5501C2.78138 68.5501 2.64045 68.4615 2.57861 68.3138C2.47794 68.0731 2.38015 67.828 2.28523 67.5829C2.20758 67.3836 2.30249 67.1562 2.49807 67.0765C2.69222 66.9967 2.91369 67.0942 2.99135 67.295C3.08338 67.5342 3.17974 67.7734 3.27753 68.0067C3.3595 68.2045 3.27034 68.4334 3.07763 68.5176C3.02874 68.5397 2.9784 68.5486 2.92807 68.5486V68.5501ZM70.2804 66.5745C70.2459 66.5745 70.2099 66.57 70.1754 66.5597C69.9741 66.5006 69.8576 66.2836 69.9166 66.0769C69.9856 65.8303 70.0532 65.5808 70.1193 65.3297C70.174 65.1216 70.3825 64.999 70.5853 65.0551C70.7881 65.1112 70.9074 65.3253 70.8528 65.5335C70.7852 65.7875 70.7162 66.0414 70.6457 66.2924C70.5982 66.4637 70.4458 66.5745 70.2804 66.5745ZM2.06664 66.2157C1.90701 66.2157 1.75889 66.1123 1.70712 65.9484C1.62658 65.6989 1.54749 65.4449 1.47414 65.1969C1.41374 64.9901 1.52591 64.7731 1.72725 64.7111C1.92715 64.6491 2.13999 64.7642 2.20039 64.9709C2.27229 65.2131 2.34851 65.4612 2.42761 65.7048C2.49376 65.9085 2.3859 66.13 2.18744 66.1979C2.14718 66.2112 2.10691 66.2186 2.06808 66.2186L2.06664 66.2157ZM70.8959 64.1559C70.8672 64.1559 70.8384 64.1529 70.8082 64.1456C70.604 64.0968 70.4774 63.8857 70.5263 63.6775C70.5838 63.4265 70.6399 63.174 70.6946 62.9215C70.7392 62.7119 70.9434 62.579 71.1476 62.6247C71.3518 62.6705 71.4812 62.8787 71.4366 63.0898C71.382 63.3468 71.3245 63.6022 71.267 63.8562C71.2253 64.0363 71.0699 64.1574 70.8974 64.1574L70.8959 64.1559ZM1.39073 63.8178C1.2196 63.8178 1.06572 63.6996 1.02258 63.521C0.960737 63.267 0.903213 63.0101 0.847127 62.7532C0.801108 62.5435 0.930537 62.3353 1.13475 62.2881C1.33896 62.2408 1.54173 62.3737 1.58775 62.5834C1.6424 62.8344 1.69993 63.0839 1.75889 63.3335C1.80922 63.5431 1.68554 63.7543 1.48133 63.806C1.45113 63.8133 1.41949 63.8178 1.38929 63.8178H1.39073ZM71.4007 61.7093C71.3777 61.7093 71.3532 61.7063 71.3288 61.7019C71.1231 61.662 70.988 61.4583 71.0268 61.2457C71.0742 60.9932 71.1188 60.7377 71.1634 60.4823C71.1994 60.2697 71.3964 60.1294 71.6035 60.1663C71.8106 60.2032 71.9472 60.4055 71.9112 60.6181C71.8666 60.8765 71.8206 61.1349 71.7732 61.3918C71.7387 61.5794 71.579 61.7093 71.4007 61.7093ZM0.894584 61.3741C0.713383 61.3741 0.552315 61.2397 0.520677 61.0493C0.477533 60.7909 0.437266 60.5325 0.399876 60.2711C0.369675 60.0585 0.512048 59.8592 0.719136 59.8282C0.926223 59.7957 1.12037 59.9434 1.15057 60.156C1.18796 60.4099 1.22679 60.6639 1.26849 60.9164C1.30445 61.129 1.16495 61.3298 0.957862 61.3667C0.93629 61.3712 0.914718 61.3726 0.893147 61.3726L0.894584 61.3741ZM71.8077 59.245C71.789 59.245 71.7703 59.245 71.7516 59.2405C71.5445 59.208 71.4007 59.0102 71.4323 58.7976C71.4697 58.5421 71.5057 58.2867 71.5402 58.0283C71.569 57.8157 71.7602 57.6665 71.9688 57.6961C72.1773 57.7256 72.3211 57.922 72.2923 58.1361C72.2578 58.396 72.2204 58.6558 72.183 58.9142C72.1543 59.1076 71.9932 59.2464 71.8077 59.2464V59.245ZM0.568134 58.9024C0.375428 58.9024 0.210045 58.7533 0.19135 58.551C0.165464 58.2911 0.142454 58.0298 0.122321 57.7669C0.105063 57.5529 0.260379 57.3639 0.470343 57.3461C0.680307 57.3284 0.862946 57.4879 0.880204 57.7035C0.900337 57.9604 0.923347 58.2158 0.947795 58.4713C0.969366 58.6854 0.816927 58.8773 0.608401 58.898C0.595458 58.898 0.582515 58.8994 0.569572 58.8994L0.568134 58.9024ZM72.1255 56.7659C72.1111 56.7659 72.0967 56.7659 72.0824 56.7629C71.8738 56.7378 71.7243 56.5459 71.7487 56.3318C71.7775 56.0748 71.8048 55.8179 71.8307 55.5595C71.8523 55.3454 72.0363 55.1889 72.2477 55.2126C72.4563 55.2347 72.6073 55.4266 72.5857 55.6407C72.5598 55.9021 72.5325 56.162 72.5023 56.4218C72.4807 56.6212 72.3168 56.7673 72.1255 56.7673V56.7659ZM0.401314 56.413C0.19854 56.413 0.0302818 56.2476 0.0216531 56.0379C0.0115864 55.7751 0.00439615 55.5138 8.18315e-05 55.2509C-0.00423249 55.0354 0.162588 54.8582 0.372552 54.8538C0.576763 54.8493 0.755088 55.0221 0.759403 55.2362C0.763717 55.4946 0.770907 55.7515 0.779536 56.0084C0.786727 56.224 0.62422 56.4041 0.414256 56.413C0.409942 56.413 0.40419 56.413 0.399876 56.413H0.401314ZM72.3628 54.2779C72.3527 54.2779 72.3412 54.2779 72.3312 54.2779C72.1226 54.2602 71.9673 54.0712 71.9846 53.8571C72.0047 53.6002 72.0248 53.3418 72.0435 53.0819C72.0594 52.8663 72.2449 52.7069 72.4505 52.7216C72.6605 52.7379 72.8172 52.9239 72.8014 53.1395C72.7827 53.4008 72.7626 53.6622 72.7425 53.9221C72.7266 54.1258 72.5598 54.2794 72.3642 54.2794L72.3628 54.2779ZM0.385495 53.9147H0.376866C0.166902 53.9102 0.00151952 53.7316 0.00583385 53.516C0.0115863 53.2532 0.0202152 52.9904 0.030282 52.7275C0.0389106 52.512 0.217236 52.3422 0.425762 52.354C0.635725 52.3628 0.798231 52.5445 0.789603 52.76C0.779536 53.0184 0.770908 53.2768 0.765155 53.5337C0.760841 53.7464 0.591144 53.9147 0.385495 53.9147ZM72.5282 51.784C72.5282 51.784 72.5138 51.784 72.508 51.784C72.2981 51.7722 72.1385 51.5891 72.15 51.3736C72.1629 51.1152 72.1758 50.8568 72.1873 50.5954C72.1974 50.3799 72.3743 50.213 72.5843 50.2234C72.7942 50.2337 72.9553 50.4153 72.9467 50.6309C72.9352 50.8937 72.9222 51.1536 72.9078 51.4149C72.8963 51.6231 72.7295 51.784 72.5296 51.784H72.5282ZM0.51061 51.4179C0.500543 51.4179 0.490477 51.4179 0.48041 51.4179C0.271884 51.4001 0.11513 51.2126 0.132387 50.9985C0.152521 50.7372 0.175531 50.4758 0.199979 50.213C0.220112 49.9989 0.407066 49.8424 0.614154 49.8631C0.82268 49.8837 0.975119 50.0742 0.954985 50.2883C0.930537 50.5452 0.908966 50.8036 0.888832 51.0605C0.873013 51.2643 0.706193 51.4193 0.51061 51.4193V51.4179ZM72.6288 49.2858C72.6288 49.2858 72.6217 49.2858 72.6173 49.2858C72.4074 49.2798 72.242 49.0997 72.2492 48.8856C72.2564 48.6272 72.2621 48.3674 72.2679 48.1075C72.2722 47.8949 72.4419 47.7265 72.6475 47.7265H72.6562C72.8661 47.731 73.033 47.9096 73.0272 48.1252C73.0214 48.388 73.0157 48.6494 73.0085 48.9092C73.0027 49.1204 72.8345 49.2872 72.6288 49.2872V49.2858ZM0.770907 48.9314C0.75365 48.9314 0.736393 48.9314 0.719136 48.9284C0.512048 48.9004 0.365361 48.704 0.394123 48.4899C0.428638 48.2315 0.46459 47.9716 0.501981 47.7118C0.53362 47.4992 0.726326 47.3515 0.934852 47.3855C1.14194 47.4179 1.28431 47.6158 1.25267 47.8299C1.21528 48.0853 1.17933 48.3393 1.14625 48.5947C1.12037 48.7911 0.957861 48.9329 0.770907 48.9329V48.9314ZM72.6648 46.7845C72.4563 46.7845 72.2866 46.6118 72.2851 46.3977C72.2837 46.1378 72.2794 45.8794 72.2736 45.6225C72.2679 45.4069 72.4347 45.2282 72.6447 45.2238C72.8518 45.2238 73.0286 45.3892 73.033 45.6048C73.0387 45.8661 73.043 46.1275 73.0444 46.3932C73.0444 46.6088 72.8776 46.7845 72.6677 46.786H72.6648V46.7845ZM1.15776 46.4685C1.13475 46.4685 1.1103 46.4671 1.08729 46.4612C0.881642 46.4213 0.745021 46.2175 0.78385 46.0064C0.831308 45.7495 0.880203 45.4925 0.930537 45.2356C0.972242 45.0245 1.17214 44.8886 1.37923 44.9315C1.58488 44.9743 1.71718 45.181 1.67548 45.3921C1.62514 45.6446 1.57625 45.8986 1.53023 46.1511C1.49571 46.3386 1.33608 46.4685 1.15776 46.4685ZM72.5799 44.2877C72.3815 44.2877 72.2147 44.1297 72.2017 43.923C72.1859 43.6631 72.1672 43.4062 72.1471 43.1508C72.1298 42.9367 72.2851 42.7477 72.4937 42.73C72.7036 42.7137 72.8863 42.8717 72.9035 43.0858C72.9251 43.3457 72.9438 43.607 72.9596 43.8713C72.9725 44.0854 72.8144 44.2715 72.6058 44.2847C72.5972 44.2847 72.5886 44.2847 72.5814 44.2847L72.5799 44.2877ZM1.66685 44.0278C1.63809 44.0278 1.60789 44.0249 1.57769 44.0175C1.37347 43.9673 1.24836 43.7561 1.29726 43.548C1.35622 43.2925 1.41806 43.0385 1.48133 42.7846C1.5331 42.5764 1.74019 42.4509 1.94297 42.504C2.14574 42.5572 2.26798 42.7698 2.21621 42.978C2.15437 43.2275 2.09397 43.4786 2.035 43.7296C1.9933 43.9082 1.83798 44.0278 1.66541 44.0278H1.66685ZM72.3499 41.8027C72.1615 41.8027 71.9975 41.6595 71.9731 41.4616C71.9414 41.2047 71.9069 40.9493 71.8695 40.6968C71.8393 40.4841 71.9817 40.2848 72.1888 40.2538C72.3973 40.2213 72.59 40.369 72.6202 40.5816C72.6576 40.84 72.6921 41.0999 72.7252 41.3627C72.7511 41.5768 72.6044 41.7717 72.3959 41.7983C72.38 41.7997 72.3628 41.8012 72.347 41.8012L72.3499 41.8027ZM2.29243 41.6137C2.25647 41.6137 2.22196 41.6093 2.18601 41.5975C1.98467 41.5369 1.86962 41.3213 1.92858 41.1146C2.00049 40.8621 2.07383 40.6111 2.14861 40.3601C2.21045 40.1549 2.42329 40.0397 2.62319 40.1032C2.82309 40.1667 2.93526 40.3852 2.87342 40.5905C2.79864 40.837 2.72673 41.0851 2.65627 41.3332C2.60737 41.503 2.45637 41.6137 2.29243 41.6137ZM71.9601 39.3384C71.7832 39.3384 71.6236 39.2099 71.5876 39.0239C71.5387 38.7699 71.487 38.5174 71.4323 38.2679C71.3863 38.0582 71.5157 37.85 71.72 37.8028C71.9256 37.7555 72.1269 37.8884 72.173 38.0981C72.2276 38.3535 72.2808 38.6104 72.3312 38.8703C72.3729 39.0814 72.2391 39.2867 72.0335 39.328C72.009 39.3325 71.9831 39.3354 71.9587 39.3354L71.9601 39.3384ZM3.03017 39.2306C2.98847 39.2306 2.94676 39.2232 2.9065 39.2084C2.70804 39.1376 2.60306 38.9161 2.67209 38.7123C2.7555 38.4643 2.84034 38.2162 2.92807 37.9696C2.99997 37.7673 3.21713 37.6625 3.41415 37.7363C3.61117 37.8102 3.71328 38.0331 3.64137 38.2354C3.55508 38.479 3.47167 38.7227 3.3897 38.9678C3.33505 39.1287 3.18837 39.2306 3.03017 39.2306ZM71.3978 36.9095C71.231 36.9095 71.0786 36.7973 71.0325 36.6245C70.965 36.375 70.8945 36.1284 70.8226 35.8848C70.7607 35.678 70.8744 35.461 71.0742 35.3975C71.2756 35.334 71.487 35.4507 71.5488 35.6559C71.6236 35.9054 71.6955 36.1594 71.7645 36.4148C71.8206 36.6215 71.7027 36.8371 71.5014 36.8947C71.4669 36.905 71.4323 36.9095 71.3993 36.9095H71.3978ZM3.87866 36.8829C3.8312 36.8829 3.78374 36.874 3.73772 36.8548C3.54358 36.7751 3.44866 36.5477 3.52632 36.3484C3.62124 36.1033 3.71759 35.8597 3.81682 35.6175C3.89735 35.4182 4.12026 35.3252 4.31297 35.4078C4.50711 35.4905 4.59771 35.7194 4.51718 35.9172C4.42083 36.1564 4.32447 36.3956 4.231 36.6378C4.17203 36.7899 4.02966 36.8829 3.87866 36.8829ZM4.83788 34.578C4.78467 34.578 4.73146 34.5662 4.68112 34.5426C4.48985 34.454 4.40644 34.2222 4.49273 34.0258C4.59915 33.7866 4.70701 33.5474 4.81774 33.3097C4.90691 33.1148 5.13413 33.0321 5.32396 33.1251C5.51379 33.2181 5.59432 33.45 5.50372 33.6449C5.39586 33.8796 5.28944 34.1144 5.18446 34.3506C5.12118 34.4939 4.98312 34.5795 4.83931 34.5795L4.83788 34.578ZM70.6529 34.5323C70.4976 34.5323 70.3523 34.4348 70.2962 34.2768C70.2099 34.0347 70.1193 33.794 70.0273 33.5577C69.9496 33.3584 70.0446 33.131 70.2401 33.0513C70.4343 32.9716 70.6558 33.069 70.7334 33.2698C70.8269 33.512 70.9204 33.76 71.0081 34.0081C71.08 34.2104 70.9793 34.4348 70.7823 34.5086C70.7392 34.5249 70.6946 34.5323 70.6514 34.5323H70.6529ZM5.90495 32.3219C5.84599 32.3219 5.78703 32.3086 5.73094 32.2791C5.54399 32.1801 5.47208 31.9454 5.567 31.7534C5.68492 31.5201 5.80285 31.2868 5.92365 31.0565C6.02288 30.866 6.25297 30.7952 6.43705 30.897C6.62257 30.9989 6.6916 31.2352 6.59237 31.4242C6.473 31.6515 6.35652 31.8804 6.24147 32.1107C6.17388 32.2451 6.04157 32.3219 5.90351 32.3219H5.90495ZM69.7181 32.2289C69.5757 32.2289 69.4391 32.1462 69.3744 32.0044C69.268 31.7726 69.1587 31.5393 69.0465 31.3119C68.953 31.12 69.0278 30.8852 69.2148 30.7892C69.4017 30.6918 69.6304 30.7701 69.7239 30.962C69.8389 31.1968 69.9511 31.436 70.0604 31.6737C70.1495 31.8686 70.0676 32.1004 69.8777 32.192C69.826 32.2171 69.7713 32.2289 69.7167 32.2289H69.7181ZM7.07413 30.1278C7.00942 30.1278 6.94327 30.11 6.8843 30.0746C6.7031 29.9668 6.64126 29.7276 6.74625 29.5416C6.87424 29.3142 7.0051 29.0883 7.13597 28.8639C7.24383 28.6793 7.4768 28.6202 7.65657 28.731C7.83633 28.8417 7.89385 29.0809 7.786 29.2655C7.65657 29.4869 7.52858 29.7084 7.40202 29.9329C7.33155 30.0569 7.205 30.1278 7.0727 30.1278H7.07413ZM68.5906 30.017C68.4598 30.017 68.3332 29.9476 68.2613 29.8236C68.1362 29.6021 68.0068 29.3806 67.8759 29.1636C67.7652 28.9805 67.8198 28.7398 67.9981 28.6261C68.1765 28.5124 68.4109 28.5685 68.5202 28.7516C68.6553 28.9746 68.7877 29.2035 68.9171 29.4308C69.0221 29.6169 68.9602 29.8561 68.779 29.9639C68.7186 29.9993 68.6539 30.017 68.5892 30.017H68.5906ZM8.34974 27.9971C8.27927 27.9971 8.20736 27.9765 8.14265 27.9336C7.9672 27.8155 7.91687 27.5748 8.03191 27.3947C8.17141 27.1747 8.31234 26.9547 8.45616 26.7376C8.57408 26.559 8.80993 26.5132 8.98394 26.6328C9.15795 26.7539 9.20397 26.996 9.08605 27.1747C8.94511 27.3888 8.80705 27.6044 8.66899 27.8199C8.59565 27.9351 8.47485 27.9971 8.34974 27.9971ZM67.2748 27.9174C67.1554 27.9174 67.0389 27.8598 66.9641 27.7535C66.8203 27.5453 66.6708 27.3356 66.5226 27.1319C66.3961 26.9606 66.4306 26.7155 66.5974 26.5856C66.7657 26.4556 67.003 26.4911 67.1295 26.6623C67.2834 26.872 67.4358 27.0876 67.584 27.3017C67.7048 27.4774 67.6645 27.721 67.4948 27.845C67.4286 27.8938 67.351 27.9174 67.2748 27.9174ZM65.7791 25.9477C65.6713 25.9477 65.5649 25.9019 65.4901 25.8104C65.3276 25.6155 65.1608 25.4206 64.9954 25.2316C64.8544 25.0721 64.8674 24.8255 65.0227 24.6808C65.178 24.5361 65.4182 24.5494 65.5591 24.7089C65.7302 24.9038 65.9014 25.1031 66.0682 25.3039C66.2048 25.4678 66.1861 25.7129 66.0265 25.8532C65.9546 25.9152 65.8669 25.9462 65.7806 25.9462L65.7791 25.9477ZM9.73176 25.9374C9.6541 25.9374 9.57644 25.9137 9.50885 25.8621C9.33915 25.7351 9.30176 25.4915 9.42544 25.3172C9.57644 25.1046 9.72888 24.8935 9.8842 24.6838C10.0107 24.5125 10.2495 24.4786 10.4163 24.6085C10.5831 24.7384 10.6162 24.9835 10.4896 25.1548C10.3386 25.36 10.1876 25.5682 10.0395 25.7764C9.96473 25.8813 9.84968 25.9359 9.73319 25.9359L9.73176 25.9374ZM64.1196 24.1212C64.0232 24.1212 63.9269 24.0843 63.8535 24.009C63.6766 23.8304 63.494 23.6502 63.3113 23.476C63.1575 23.3298 63.1488 23.0832 63.2926 22.9252C63.4365 22.7673 63.6766 22.7599 63.8291 22.906C64.016 23.0847 64.203 23.2693 64.3856 23.4538C64.5352 23.6044 64.5366 23.851 64.3899 24.0046C64.3151 24.0828 64.2174 24.1212 64.1196 24.1212ZM11.2231 23.9603C11.1382 23.9603 11.0534 23.9308 10.9829 23.8717C10.8204 23.7359 10.7974 23.4893 10.9297 23.3224C11.0922 23.1187 11.2562 22.9164 11.423 22.7171C11.5596 22.5532 11.7983 22.534 11.9579 22.6728C12.1176 22.813 12.1363 23.0581 12.0011 23.222C11.8386 23.4184 11.6775 23.6163 11.5179 23.8156C11.4431 23.9101 11.3338 23.9588 11.2245 23.9588L11.2231 23.9603ZM62.3147 22.4468C62.2284 22.4468 62.1422 22.4173 62.0717 22.3568C61.879 22.1914 61.6848 22.0305 61.4878 21.871C61.3239 21.7381 61.2951 21.4915 61.426 21.3232C61.5554 21.1549 61.7941 21.1254 61.9595 21.2597C62.1623 21.4236 62.3636 21.5919 62.5578 21.7573C62.7188 21.8946 62.7404 22.1412 62.6067 22.3066C62.5319 22.3996 62.424 22.4468 62.3147 22.4468ZM12.8223 22.0762C12.7302 22.0762 12.6367 22.0423 12.5648 21.9729C12.411 21.8267 12.4023 21.5801 12.5447 21.4221C12.7187 21.2287 12.8956 21.0368 13.0725 20.8492C13.2177 20.6942 13.4579 20.6898 13.6089 20.8389C13.7599 20.988 13.7642 21.2346 13.619 21.3897C13.445 21.5742 13.2724 21.7632 13.1012 21.9522C13.0265 22.0349 12.9244 22.0777 12.8223 22.0777V22.0762ZM60.3834 20.926C60.3071 20.926 60.2309 20.9024 60.1633 20.8537C59.9591 20.7045 59.752 20.5584 59.5449 20.4151C59.3709 20.2941 59.3249 20.0519 59.4428 19.8747C59.5608 19.6961 59.7966 19.6488 59.9692 19.7699C60.182 19.9176 60.3934 20.0667 60.6019 20.2188C60.7731 20.3428 60.8133 20.5864 60.6925 20.7621C60.6178 20.8699 60.5013 20.926 60.3819 20.926H60.3834ZM14.5336 20.297C14.4329 20.297 14.3323 20.2557 14.2589 20.1759C14.1151 20.0194 14.1209 19.7729 14.2733 19.6252C14.4603 19.4436 14.6472 19.2649 14.837 19.0877C14.9924 18.943 15.2325 18.9549 15.3735 19.1143C15.5144 19.2738 15.5029 19.5204 15.3476 19.6651C15.1621 19.8378 14.978 20.0135 14.7953 20.1907C14.722 20.2616 14.6285 20.297 14.5336 20.297ZM58.347 19.5558C58.2794 19.5558 58.2118 19.5381 58.15 19.4997C57.9357 19.3653 57.7185 19.2354 57.5014 19.1055C57.3202 18.9977 57.2569 18.7599 57.3633 18.5724C57.4683 18.3864 57.6998 18.3214 57.8825 18.4292C58.104 18.5606 58.3254 18.695 58.544 18.8308C58.7238 18.943 58.7799 19.1822 58.672 19.3668C58.6001 19.4879 58.475 19.5543 58.347 19.5543V19.5558ZM16.3571 18.6404C16.2478 18.6404 16.1385 18.5916 16.0637 18.4986C15.93 18.3332 15.953 18.0867 16.1155 17.9493C16.314 17.781 16.5139 17.6156 16.7152 17.4532C16.8806 17.3203 17.1193 17.3499 17.2487 17.5182C17.3782 17.688 17.3494 17.9331 17.1855 18.066C16.9884 18.2254 16.7929 18.3864 16.6002 18.5503C16.5297 18.6108 16.4434 18.6389 16.3586 18.6389L16.3571 18.6404ZM56.2243 18.3332C56.1654 18.3332 56.105 18.3185 56.0489 18.2889C55.826 18.1693 55.6016 18.0527 55.3773 17.939C55.1889 17.843 55.1127 17.6097 55.2047 17.4163C55.2982 17.2229 55.5254 17.1446 55.7138 17.2406C55.9439 17.3572 56.1726 17.4768 56.3998 17.5979C56.5853 17.6968 56.6587 17.9331 56.5609 18.1236C56.4933 18.2565 56.361 18.3332 56.2243 18.3332ZM54.0298 17.248C53.978 17.248 53.9263 17.2376 53.8759 17.214C53.6458 17.1092 53.4143 17.0058 53.1842 16.9054C52.9915 16.8213 52.9009 16.5924 52.9829 16.3945C53.0648 16.1967 53.2877 16.1037 53.4804 16.1878C53.7148 16.2897 53.9507 16.3945 54.1851 16.5023C54.3764 16.5894 54.4627 16.8198 54.3778 17.0176C54.3145 17.1623 54.1765 17.2495 54.0312 17.2495L54.0298 17.248ZM18.2928 17.124C18.1734 17.124 18.0555 17.0664 17.9822 16.9586C17.8614 16.7829 17.9031 16.5392 18.0742 16.4152C18.2842 16.2631 18.497 16.114 18.7099 15.9678C18.8839 15.8482 19.1197 15.897 19.2362 16.0756C19.3527 16.2543 19.3052 16.4964 19.1312 16.616C18.9227 16.7578 18.7171 16.9039 18.5114 17.0531C18.4453 17.1018 18.369 17.124 18.2928 17.124ZM51.7777 16.2941C51.7331 16.2941 51.6871 16.2853 51.6425 16.269C51.4067 16.176 51.1708 16.086 50.935 15.9988C50.738 15.925 50.6359 15.7021 50.7078 15.4998C50.7797 15.2975 50.9983 15.1927 51.1938 15.2665C51.434 15.3565 51.6742 15.4481 51.9129 15.5411C52.1085 15.6179 52.2063 15.8438 52.1315 16.0446C52.074 16.1996 51.9302 16.2956 51.7763 16.2956L51.7777 16.2941ZM20.3378 15.77C20.2069 15.77 20.0804 15.7006 20.0099 15.578C19.9035 15.392 19.9639 15.1528 20.1451 15.045C20.3666 14.9121 20.5923 14.7807 20.8153 14.6537C20.9993 14.5504 21.2294 14.6183 21.3315 14.8073C21.4322 14.9963 21.3661 15.2325 21.182 15.3373C20.9648 15.4599 20.7448 15.5884 20.5291 15.7183C20.4687 15.7552 20.4025 15.7715 20.3378 15.7715V15.77ZM49.4796 15.4599C49.4408 15.4599 49.4005 15.454 49.3617 15.4407C49.1215 15.3595 48.8814 15.2812 48.6412 15.2045C48.4413 15.141 48.3291 14.9224 48.391 14.7172C48.4528 14.512 48.6657 14.3968 48.8656 14.4603C49.1086 14.5385 49.3531 14.6168 49.5961 14.6995C49.796 14.7659 49.9039 14.9859 49.8391 15.1912C49.7874 15.3551 49.6378 15.4599 49.4782 15.4599H49.4796ZM47.147 14.7379C47.1139 14.7379 47.0794 14.7334 47.0449 14.7231C46.8004 14.6537 46.5574 14.5858 46.3143 14.5208C46.1116 14.4662 45.9908 14.2521 46.044 14.0439C46.0972 13.8357 46.3043 13.7117 46.5071 13.7663C46.753 13.8328 47.0003 13.9007 47.2477 13.9716C47.449 14.0291 47.5684 14.2447 47.5123 14.4514C47.4663 14.6242 47.3124 14.7364 47.147 14.7364V14.7379ZM22.4892 14.602C22.3468 14.602 22.2102 14.5194 22.1455 14.3791C22.0563 14.1842 22.1369 13.9524 22.3267 13.8608C22.5597 13.7471 22.797 13.6379 23.0299 13.533C23.2226 13.4474 23.4456 13.5375 23.5304 13.7353C23.6138 13.9332 23.5261 14.162 23.3334 14.2477C23.1062 14.3496 22.8775 14.4559 22.6503 14.5651C22.5985 14.5902 22.5424 14.602 22.4892 14.602ZM44.7856 14.1177C44.7569 14.1177 44.7281 14.1148 44.6994 14.1074C44.452 14.0483 44.2061 13.9908 43.9616 13.9346C43.7574 13.8874 43.628 13.6792 43.674 13.4695C43.72 13.2599 43.9228 13.127 44.127 13.1742C44.3743 13.2303 44.6246 13.2894 44.8748 13.3499C45.079 13.3987 45.2056 13.6083 45.1581 13.818C45.1164 13.9981 44.9611 14.1192 44.7885 14.1192L44.7856 14.1177ZM24.7413 13.6452C24.586 13.6452 24.4393 13.5463 24.3832 13.3869C24.3127 13.1846 24.4163 12.9616 24.6133 12.8893C24.8549 12.8007 25.1023 12.715 25.3467 12.6338C25.5466 12.5689 25.7609 12.6811 25.8242 12.8863C25.8889 13.0915 25.7782 13.3115 25.5783 13.3765C25.341 13.4548 25.1023 13.5375 24.8678 13.6231C24.8261 13.6379 24.783 13.6452 24.7398 13.6452H24.7413ZM42.4027 13.5906C42.3782 13.5906 42.3538 13.5877 42.3293 13.5832C42.0791 13.533 41.8318 13.4843 41.5844 13.4371C41.3788 13.3972 41.2421 13.1949 41.2795 12.9823C41.3184 12.7711 41.5139 12.6309 41.7225 12.6707C41.9713 12.718 42.2215 12.7667 42.4746 12.8184C42.6802 12.8597 42.814 13.065 42.7737 13.2761C42.7378 13.4622 42.5796 13.5906 42.4013 13.5906H42.4027ZM40.0025 13.1491C39.9824 13.1491 39.9622 13.1477 39.9407 13.1447C39.6875 13.1034 39.4388 13.062 39.1914 13.0236C38.9843 12.9911 38.8419 12.7918 38.8736 12.5792C38.9052 12.3666 39.0979 12.2204 39.3064 12.2529C39.5552 12.2913 39.8083 12.3326 40.0629 12.3754C40.27 12.4094 40.4109 12.6102 40.3778 12.8228C40.3476 13.0148 40.1866 13.1506 40.0039 13.1506L40.0025 13.1491ZM27.0725 12.9277C26.9013 12.9277 26.746 12.8081 26.7043 12.6294C26.6554 12.4197 26.7805 12.2101 26.9833 12.1584C27.2321 12.0964 27.4866 12.0373 27.7354 11.9841C27.9411 11.9413 28.1424 12.0757 28.1841 12.2868C28.2273 12.498 28.095 12.7047 27.8893 12.7475C27.6477 12.7992 27.4032 12.8553 27.1616 12.9158C27.1314 12.9232 27.1012 12.9277 27.0725 12.9277ZM37.5879 12.7859C37.5706 12.7859 37.5548 12.7859 37.5376 12.783C37.283 12.7475 37.0314 12.715 36.7854 12.684C36.5769 12.6574 36.4302 12.4625 36.4561 12.2484C36.482 12.0343 36.6704 11.8837 36.8804 11.9103C37.1292 11.9413 37.3823 11.9753 37.6397 12.0107C37.8482 12.0388 37.9935 12.2352 37.9661 12.4478C37.9402 12.6442 37.7777 12.7859 37.5908 12.7859H37.5879ZM35.1647 12.4876C35.1517 12.4876 35.1374 12.4876 35.123 12.4847C34.8641 12.4566 34.6125 12.4286 34.3665 12.4035L34.2932 12.3961L34.3191 12.0063L34.3694 11.6194L34.4442 11.6268C34.6901 11.6534 34.9447 11.68 35.205 11.7095C35.4135 11.7331 35.5645 11.9251 35.5415 12.1392C35.5199 12.3385 35.356 12.4876 35.1647 12.4876ZM29.4597 12.4729C29.2713 12.4729 29.1088 12.3297 29.0829 12.1333C29.0556 11.9192 29.2023 11.7243 29.4108 11.6962C29.6654 11.6623 29.9242 11.6327 30.1802 11.6091C30.3902 11.5884 30.5743 11.7464 30.5929 11.9605C30.6131 12.1746 30.4592 12.3651 30.2507 12.3843C30.0033 12.4079 29.7531 12.436 29.5086 12.4684C29.4914 12.4699 29.4755 12.4714 29.4597 12.4714V12.4729ZM32.648 12.2957C32.648 12.2957 32.6423 12.2957 32.6408 12.2957C32.4941 12.2927 32.3474 12.2898 32.2008 12.2913C32.0986 12.2913 31.9951 12.2913 31.893 12.2942C31.6802 12.2957 31.5105 12.1259 31.5076 11.9103C31.5047 11.6947 31.6715 11.5176 31.8815 11.5146C31.9922 11.5131 32.0986 11.5117 32.2137 11.5117C32.3604 11.5117 32.5085 11.5131 32.6552 11.5161C32.8652 11.5205 33.032 11.6992 33.0277 11.9133C33.0233 12.1259 32.8537 12.2957 32.648 12.2957Z" fill="black"/>
</g>
<g style="mix-blend-mode:multiply" opacity="0.3">
<path d="M31.7075 26.3172L31.7821 26.3385C37.4257 10.9416 53.6951 2.06568 69.7191 5.63522L69.7404 5.57129L71.8527 6.18929L73.9438 6.79665L73.9224 6.86058C89.3596 12.5079 98.2358 28.7466 94.6618 44.751L94.7365 44.7723L94.1178 46.882L93.499 48.9811L93.4243 48.9598C87.7807 64.3568 71.522 73.2327 55.4767 69.6525L55.4554 69.7271L53.3644 69.1197L51.252 68.5017L51.2734 68.4271C35.8575 62.7905 26.96 46.5517 30.5446 30.5474L30.4699 30.5261L31.0887 28.427L31.7075 26.3172ZM76.6535 44.0477L64.0755 40.361L61.6111 48.7574L73.0903 52.1245C74.4452 49.6738 75.6614 46.9673 76.6535 44.0477ZM70.6792 55.971L60.3735 52.9556L56.7569 65.2732C61.419 65.3904 66.4865 61.8528 70.6792 55.9817V55.971ZM79.246 31.1334L67.7667 27.7664L65.3023 36.1521L77.8804 39.8389C78.6165 36.866 79.0646 33.9145 79.246 31.1228V31.1334ZM50.1638 18.07C52.5322 14.5857 55.21 11.6874 58.0265 9.58834C52.7883 10.4408 47.8701 12.7423 43.8908 16.2266L50.1745 18.07H50.1638ZM72.6102 11.2612L68.9936 23.5895L79.2993 26.6156C78.9473 19.4126 76.6002 13.68 72.6102 11.2719V11.2612ZM75.0106 57.239C72.6422 60.7233 69.9644 63.6003 67.1373 65.71C72.3862 64.847 77.2936 62.5347 81.2943 59.0718L75.0106 57.2284V57.239ZM82.0731 41.0749L90.4371 43.5256C91.0666 40.5208 91.2266 37.484 90.8852 34.5432L83.5027 32.3801C83.2786 35.1931 82.8199 38.1127 82.0731 41.0749ZM77.3363 53.3711L84.7189 55.5342C86.5858 53.2326 88.1008 50.6114 89.1996 47.7238L80.8356 45.2731C79.8647 48.15 78.6699 50.8672 77.3363 53.3605V53.3711ZM83.62 27.8729L89.9144 29.7163C88.4315 24.6337 85.5403 20.0412 81.593 16.493C82.8306 19.7749 83.5347 23.664 83.62 27.8622V27.8729ZM40.4556 19.7748C38.5886 22.0657 37.063 24.6976 35.9748 27.5746L44.3389 30.0253C45.3097 27.1377 46.5046 24.4206 47.8488 21.9379L40.4556 19.7748ZM41.5438 47.4361L35.26 45.5928C36.743 50.654 39.6341 55.2571 43.5708 58.8054C42.3439 55.5022 41.6611 51.6343 41.5438 47.4361ZM43.112 34.2235L34.748 31.7728C34.1079 34.7882 33.9692 37.8143 34.2999 40.7552L41.6931 42.9182C41.8958 40.0946 42.3759 37.1644 43.112 34.2129V34.2235ZM54.4952 19.338L64.7902 22.3535L68.4068 10.0252C63.7554 9.90801 58.6666 13.4562 54.4846 19.338H54.4952ZM48.5422 31.2507L61.1096 34.9374L63.5741 26.5517L52.1055 23.1952C50.7293 25.6247 49.5451 28.363 48.5529 31.2613L48.5422 31.2507ZM45.9391 44.1649L57.4077 47.5214L59.8721 39.125L47.3047 35.4489C46.5579 38.443 46.0885 41.3626 45.9285 44.1649H45.9391ZM45.8751 48.7041C46.2165 55.9071 48.5849 61.6184 52.5536 64.0371L56.1702 51.7196L45.8751 48.7041Z" fill="black"/>
</g>
<path d="M31.6879 21.4689L31.7626 21.4902C37.4062 6.08261 53.6756 -2.78266 69.6995 0.786882L69.7209 0.722953L71.8332 1.34098L73.9242 1.94834L73.9029 2.01227C89.3401 7.6596 98.2162 23.8983 94.6423 39.9027L94.717 39.924L94.0982 42.0337L93.4794 44.1328L93.4048 44.1115C87.7612 59.5085 71.5025 68.3844 55.4572 64.8042L55.4358 64.8788L53.3448 64.2714L51.2325 63.6534L51.2538 63.5788C35.8379 57.9422 26.9405 41.7034 30.5251 25.6991L30.4504 25.6778L31.0692 23.5787L31.6879 21.4689ZM76.6447 39.1994L64.0666 35.5127L61.6022 43.9091L73.0814 47.2761C74.4363 44.8254 75.6525 42.119 76.6447 39.1994ZM70.6704 51.1227L60.3647 48.1073L56.7481 60.4248C61.4102 60.542 66.4777 57.0045 70.6704 51.1334V51.1227ZM79.2371 26.2851L67.7579 22.918L65.2935 31.3038L77.8715 34.9905C78.6077 32.0177 79.0557 29.0662 79.2371 26.2745V26.2851ZM50.155 13.2217C52.5234 9.73738 55.2011 6.83914 58.0176 4.74004C52.7901 5.59247 47.8613 7.894 43.8713 11.3783L50.155 13.2217ZM72.6013 6.41293L68.9847 18.7411L79.2904 21.7673C78.9384 14.5642 76.5913 8.83167 72.6013 6.42357V6.41293ZM75.0017 52.3907C72.6333 55.875 69.9556 58.7519 67.1284 60.8617C72.3773 59.9986 77.2848 57.6864 81.2854 54.2234L75.0017 52.3801V52.3907ZM82.0642 36.2266L90.4283 38.6773C91.0577 35.6725 91.2071 32.6357 90.8764 29.6948L83.4938 27.5318C83.2698 30.3448 82.811 33.2644 82.0642 36.2266ZM77.3274 48.5228L84.71 50.6859C86.577 48.3843 88.0919 45.7631 89.1907 42.8755L80.8267 40.4248C79.8559 43.3017 78.661 46.0188 77.3274 48.5122V48.5228ZM83.6112 23.0246L89.9055 24.868C88.4226 19.7854 85.5315 15.1929 81.5842 11.6447C82.8217 14.9265 83.5258 18.8157 83.6112 23.0139V23.0246ZM40.4467 14.9265C38.5797 17.2174 37.0541 19.8493 35.966 22.7263L44.33 25.177C45.3008 22.2894 46.485 19.5723 47.8399 17.0896L40.4467 14.9265ZM41.5349 42.5878L35.2512 40.7444C36.7341 45.8057 39.6252 50.4088 43.5619 53.9571C42.335 50.6539 41.6522 46.786 41.5349 42.5878ZM43.1031 29.3752L34.7391 26.9245C34.099 29.9506 33.9603 32.966 34.291 35.9069L41.6842 38.07C41.8869 35.2463 42.367 32.316 43.1031 29.3645V29.3752ZM54.497 14.4897L64.792 17.5051L68.4086 5.17691C63.7572 5.0597 58.6684 8.60792 54.4864 14.4897H54.497ZM48.544 26.4023L61.1008 30.0784L63.5652 21.6927L52.0966 18.3362C50.7204 20.7656 49.5362 23.5041 48.544 26.4023ZM45.9409 39.3166L57.4095 42.6731L59.8739 34.2766L47.3065 30.6005C46.5597 33.5947 46.0903 36.5143 45.9303 39.3166H45.9409ZM45.8769 43.8558C46.2183 51.0588 48.5867 56.7701 52.5554 59.1888L56.172 46.8712L45.8769 43.8558Z" fill="#B8DE6F"/>
<path d="M172.998 158.386H170.23C165.127 150.011 160.03 141.637 154.928 133.262H36.1813C31.0787 141.637 25.982 150.011 20.8794 158.386H18.1229V163.297C18.1114 163.407 18.1114 163.517 18.1229 163.621C18.2212 164.446 19.0418 165 20.3766 165H170.726C172.061 165 172.882 164.446 172.98 163.626H172.992V158.386H172.998Z" fill="#F29232"/>
<path d="M154.887 128.333V59.4953C154.887 58.0293 153.697 56.8403 152.229 56.8403H38.8916C37.4238 56.8403 36.2334 58.0293 36.2334 59.4953V128.333H154.893H154.887Z" fill="#F29232"/>
<path d="M150.235 61.4922H40.8848V123.687H150.235V61.4922Z" fill="#E6E6E6"/>
<path d="M154.932 128.281C160.832 137.972 166.738 147.662 172.638 157.353C173.539 158.824 172.69 160.019 170.731 160.019H20.3811C18.4221 160.019 17.5727 158.824 18.4742 157.353C24.3742 147.662 30.28 137.972 36.18 128.281H154.926H154.932Z" fill="#CC7B2A"/>
<path d="M41.7293 134.884H38.707C39.2213 133.937 39.7356 132.997 40.2557 132.05H43.1913C42.7001 132.997 42.2147 133.937 41.7235 134.884H41.7293Z" fill="#F2F2F2"/>
<path d="M45.7273 134.884H42.7051C43.1847 133.937 43.6643 132.997 44.144 132.05H47.0795C46.6288 132.997 46.1781 133.937 45.7216 134.884H45.7273Z" fill="#F2F2F2"/>
<path d="M49.7185 134.884H46.6963C47.1412 133.937 47.5804 132.997 48.0254 132.05H50.961C50.5449 132.997 50.1288 133.937 49.7128 134.884H49.7185Z" fill="#F2F2F2"/>
<path d="M53.7166 134.884H50.6943C51.0988 133.937 51.5091 132.997 51.9136 132.05H54.8492C54.4678 132.997 54.0922 133.937 53.7108 134.884H53.7166Z" fill="#F2F2F2"/>
<path d="M57.7185 134.884H54.6963C55.0661 133.937 55.436 132.997 55.8058 132.05H58.7414C58.4004 132.997 58.0537 133.937 57.7128 134.884H57.7185Z" fill="#F2F2F2"/>
<path d="M61.7176 134.884H58.6953C59.0305 133.937 59.3656 132.997 59.7008 132.05H62.6364C62.3301 132.997 62.0238 133.937 61.7176 134.884Z" fill="#F2F2F2"/>
<path d="M65.7089 134.884H62.6924C62.9929 133.937 63.2876 132.997 63.5881 132.05H66.5237C66.2521 132.997 65.9805 133.937 65.7089 134.884Z" fill="#F2F2F2"/>
<path d="M69.7068 134.884H66.6846C66.9446 133.937 67.2104 132.997 67.4705 132.05H70.406C70.1691 132.997 69.938 133.937 69.701 134.884H69.7068Z" fill="#F2F2F2"/>
<path d="M73.7088 134.884H70.6865C70.9119 133.937 71.1373 132.997 71.3626 132.05H74.2982C74.1017 132.997 73.8995 133.937 73.703 134.884H73.7088Z" fill="#F2F2F2"/>
<path d="M77.7068 134.884H74.6846C74.8753 133.937 75.066 132.997 75.2509 132.05H78.1865C78.0246 132.997 77.8628 133.937 77.701 134.884H77.7068Z" fill="#F2F2F2"/>
<path d="M81.7049 134.884H78.6826C78.8386 133.937 78.9889 132.997 79.1391 132.05H82.0747C81.9476 132.997 81.8262 133.937 81.6991 134.884H81.7049Z" fill="#F2F2F2"/>
<path d="M85.6961 134.884H82.6738C82.7894 133.937 82.905 132.997 83.0263 132.05H85.9619C85.8752 132.997 85.7828 133.937 85.6961 134.884Z" fill="#F2F2F2"/>
<path d="M89.698 134.884H86.6758C86.7567 133.937 86.8376 132.997 86.9185 132.05H89.8541C89.8021 132.997 89.75 133.937 89.6922 134.884H89.698Z" fill="#F2F2F2"/>
<path d="M93.697 134.884H90.6748C90.721 133.937 90.7615 132.997 90.8077 132.05H93.7491C93.7317 132.997 93.7144 133.937 93.697 134.884Z" fill="#F2F2F2"/>
<path d="M97.6941 134.884H94.6719C94.6777 133.937 94.6892 132.997 94.695 132.05H97.6306C97.6479 132.997 97.671 133.937 97.6884 134.884H97.6941Z" fill="#F2F2F2"/>
<path d="M101.693 134.884H98.6706C98.6418 133.937 98.6129 132.997 98.584 132.05H101.52C101.577 132.997 101.629 133.937 101.687 134.884H101.693Z" fill="#F2F2F2"/>
<path d="M105.688 134.884H102.665C102.602 133.937 102.538 132.997 102.475 132.05H105.41C105.503 132.997 105.595 133.937 105.688 134.884Z" fill="#F2F2F2"/>
<path d="M109.687 134.884H106.665C106.561 133.937 106.462 132.997 106.364 132.05H109.3C109.427 132.997 109.554 133.937 109.687 134.884Z" fill="#F2F2F2"/>
<path d="M113.683 134.884H110.66C110.522 133.937 110.389 132.997 110.25 132.05H113.186C113.347 132.997 113.515 133.937 113.677 134.884H113.683Z" fill="#F2F2F2"/>
<path d="M117.681 134.884H114.659C114.485 133.937 114.312 132.997 114.139 132.05H117.074C117.277 132.997 117.479 133.937 117.675 134.884H117.681Z" fill="#F2F2F2"/>
<path d="M121.677 134.884H118.654C118.446 133.937 118.238 132.997 118.024 132.05H120.96C121.197 132.997 121.434 133.937 121.671 134.884H121.677Z" fill="#F2F2F2"/>
<path d="M125.676 134.884H122.654C122.405 133.937 122.163 132.997 121.914 132.05H124.85C125.121 132.997 125.399 133.937 125.67 134.884H125.676Z" fill="#F2F2F2"/>
<path d="M129.674 134.884H126.651C126.368 133.937 126.085 132.997 125.808 132.05H128.743C129.055 132.997 129.362 133.937 129.674 134.884Z" fill="#F2F2F2"/>
<path d="M133.672 134.884H130.65C130.332 133.937 130.014 132.997 129.696 132.05H132.632C132.979 132.997 133.325 133.937 133.666 134.884H133.672Z" fill="#F2F2F2"/>
<path d="M137.666 134.884H134.643C134.291 133.937 133.933 132.997 133.58 132.05H136.516C136.897 132.997 137.278 133.937 137.66 134.884H137.666Z" fill="#F2F2F2"/>
<path d="M141.664 134.884H138.642C138.255 133.937 137.862 132.997 137.469 132.05H140.404C140.82 132.997 141.242 133.937 141.658 134.884H141.664Z" fill="#F2F2F2"/>
<path d="M145.663 134.884H142.641C142.214 133.937 141.786 132.997 141.358 132.05H144.294C144.75 132.997 145.201 133.937 145.658 134.884H145.663Z" fill="#F2F2F2"/>
<path d="M149.662 134.884H146.64C146.177 133.937 145.715 132.997 145.247 132.05H148.183C148.674 132.997 149.165 133.937 149.656 134.884H149.662Z" fill="#F2F2F2"/>
<path d="M153.66 134.884H150.637C150.14 133.937 149.638 132.997 149.141 132.05H152.082C152.608 132.997 153.134 133.937 153.665 134.884H153.66Z" fill="#F2F2F2"/>
<path d="M39.6994 138.797H36.5674C37.0817 137.851 37.6018 136.91 38.1161 135.963H41.1672C40.676 136.91 40.1906 137.851 39.6994 138.797Z" fill="#F2F2F2"/>
<path d="M43.8489 138.797H40.7168C41.1964 137.851 41.6761 136.91 42.1557 135.963H45.2068C44.7561 136.91 44.3054 137.851 43.8489 138.797Z" fill="#F2F2F2"/>
<path d="M47.9963 138.797H44.8643C45.3092 137.85 45.7484 136.91 46.1934 135.963H49.2445C48.8284 136.91 48.4124 137.85 47.9963 138.797Z" fill="#F2F2F2"/>
<path d="M52.1486 138.797H49.0166C49.4211 137.85 49.8314 136.91 50.2359 135.963H53.287C52.9056 136.91 52.53 137.85 52.1486 138.797Z" fill="#F2F2F2"/>
<path d="M56.2971 138.797H53.165C53.5349 137.85 53.9047 136.91 54.2745 135.963H57.3257C56.9847 136.91 56.638 137.85 56.2971 138.797Z" fill="#F2F2F2"/>
<path d="M60.4377 138.797H57.3057C57.6408 137.85 57.976 136.91 58.3112 135.963H61.3623C61.056 136.91 60.7498 137.85 60.4435 138.797H60.4377Z" fill="#F2F2F2"/>
<path d="M64.5861 138.797H61.4541C61.7546 137.85 62.0493 136.91 62.3498 135.963H65.4009C65.1293 136.91 64.8577 137.85 64.5919 138.797H64.5861Z" fill="#F2F2F2"/>
<path d="M68.7385 138.797H65.6064C65.8665 137.85 66.1323 136.91 66.3923 135.963H69.4435C69.2066 136.91 68.9754 137.85 68.7385 138.797Z" fill="#F2F2F2"/>
<path d="M72.8869 138.797H69.7549C69.9803 137.85 70.2056 136.91 70.431 135.963H73.4821C73.2857 136.91 73.0834 137.85 72.8869 138.797Z" fill="#F2F2F2"/>
<path d="M77.0354 138.797H73.9033C74.094 137.851 74.2847 136.91 74.4696 135.963H77.5208C77.359 136.91 77.1972 137.851 77.0354 138.797Z" fill="#F2F2F2"/>
<path d="M81.177 138.797H78.0449C78.1952 137.85 78.3512 136.91 78.5014 135.963H81.5526C81.4255 136.91 81.3041 137.85 81.177 138.797Z" fill="#F2F2F2"/>
<path d="M85.3293 138.797H82.1973C82.3186 137.85 82.4342 136.91 82.5498 135.963H85.6009C85.5142 136.91 85.4218 137.85 85.3351 138.797H85.3293Z" fill="#F2F2F2"/>
<path d="M89.4768 138.797H86.3447C86.4256 137.851 86.5065 136.91 86.5874 135.963H89.6386C89.5866 136.91 89.5346 137.851 89.4768 138.797Z" fill="#F2F2F2"/>
<path d="M93.6262 138.797H90.4941C90.5404 137.851 90.5808 136.91 90.627 135.963H93.6782C93.6609 136.91 93.6435 137.851 93.6262 138.797Z" fill="#F2F2F2"/>
<path d="M97.7746 138.797H94.6426C94.6484 137.851 94.6599 136.91 94.6657 135.963H97.7168C97.7342 136.91 97.7573 137.851 97.7746 138.797Z" fill="#F2F2F2"/>
<path d="M101.92 138.797H98.7878C98.7589 137.85 98.7301 136.91 98.7012 135.963H101.752C101.81 136.91 101.862 137.85 101.92 138.797Z" fill="#F2F2F2"/>
<path d="M106.068 138.797H102.936C102.872 137.851 102.809 136.91 102.745 135.963H105.796C105.889 136.91 105.981 137.851 106.074 138.797H106.068Z" fill="#F2F2F2"/>
<path d="M110.217 138.797H107.085C106.986 137.851 106.882 136.91 106.784 135.963H109.835C109.962 136.91 110.09 137.851 110.223 138.797H110.217Z" fill="#F2F2F2"/>
<path d="M114.366 138.797H111.234C111.095 137.851 110.962 136.91 110.823 135.963H113.874C114.042 136.91 114.204 137.851 114.366 138.797Z" fill="#F2F2F2"/>
<path d="M118.515 138.797H115.383C115.21 137.85 115.037 136.91 114.863 135.963H117.914C118.117 136.91 118.313 137.85 118.515 138.797Z" fill="#F2F2F2"/>
<path d="M122.658 138.797H119.526C119.318 137.851 119.11 136.91 118.896 135.963H121.948C122.185 136.91 122.421 137.851 122.658 138.797Z" fill="#F2F2F2"/>
<path d="M126.807 138.797H123.675C123.427 137.851 123.184 136.91 122.936 135.963H125.987C126.258 136.91 126.536 137.851 126.807 138.797Z" fill="#F2F2F2"/>
<path d="M130.954 138.797H127.822C127.539 137.85 127.256 136.91 126.979 135.963H130.03C130.342 136.91 130.648 137.85 130.96 138.797H130.954Z" fill="#F2F2F2"/>
<path d="M135.104 138.797H131.972C131.654 137.85 131.336 136.91 131.019 135.963H134.07C134.416 136.91 134.763 137.85 135.104 138.797Z" fill="#F2F2F2"/>
<path d="M139.254 138.797H136.122C135.769 137.85 135.411 136.91 135.059 135.963H138.11C138.491 136.91 138.873 137.85 139.254 138.797Z" fill="#F2F2F2"/>
<path d="M143.399 138.797H140.267C139.874 137.85 139.487 136.91 139.094 135.963H142.145C142.561 136.91 142.983 137.85 143.399 138.797Z" fill="#F2F2F2"/>
<path d="M147.549 138.797H144.417C143.989 137.85 143.561 136.91 143.134 135.963H146.185C146.641 136.91 147.092 137.85 147.549 138.797Z" fill="#F2F2F2"/>
<path d="M151.695 138.797H148.563C148.1 137.85 147.638 136.91 147.17 135.963H150.221C150.712 136.91 151.203 137.85 151.695 138.797Z" fill="#F2F2F2"/>
<path d="M155.845 138.797H152.713C152.211 137.851 151.714 136.91 151.217 135.963H154.268C154.794 136.91 155.325 137.851 155.851 138.797H155.845Z" fill="#F2F2F2"/>
<path d="M37.6783 142.716H34.4307C34.945 141.769 35.4593 140.829 35.9794 139.882H39.1461C38.6549 140.829 38.1695 141.769 37.6783 142.716Z" fill="#F2F2F2"/>
<path d="M41.9761 142.716H38.7285C39.2081 141.769 39.6878 140.829 40.1674 139.882H43.3341C42.8834 140.829 42.4269 141.769 41.9761 142.716Z" fill="#F2F2F2"/>
<path d="M46.275 142.716H43.0273C43.4723 141.769 43.9115 140.829 44.3565 139.882H47.5232C47.1071 140.829 46.691 141.769 46.275 142.716Z" fill="#F2F2F2"/>
<path d="M50.5748 142.716H47.3271C47.7317 141.769 48.142 140.829 48.5465 139.882H51.7132C51.3318 140.829 50.9562 141.769 50.5748 142.716Z" fill="#F2F2F2"/>
<path d="M54.8697 142.716H51.6221C51.9919 141.769 52.3617 140.829 52.7316 139.882H55.8983C55.5574 140.829 55.2106 141.769 54.8697 142.716Z" fill="#F2F2F2"/>
<path d="M59.1675 142.716H55.9199C56.2551 141.769 56.5903 140.829 56.9196 139.882H60.0864C59.7801 140.829 59.4738 141.769 59.1675 142.716Z" fill="#F2F2F2"/>
<path d="M63.4673 142.716H60.2197C60.5202 141.769 60.8149 140.829 61.1154 139.882H64.2821C64.0105 140.829 63.7389 141.769 63.4673 142.716Z" fill="#F2F2F2"/>
<path d="M67.7662 142.716H64.5186C64.7786 141.769 65.0444 140.829 65.3045 139.882H68.4712C68.2342 140.829 68.0031 141.769 67.7662 142.716Z" fill="#F2F2F2"/>
<path d="M72.064 142.716H68.8164C69.0418 141.769 69.2672 140.829 69.4925 139.882H72.6592C72.4628 140.829 72.2605 141.769 72.064 142.716Z" fill="#F2F2F2"/>
<path d="M76.3589 142.716H73.1113C73.302 141.769 73.4869 140.829 73.6776 139.882H76.8444C76.6826 140.829 76.5208 141.769 76.3589 142.716Z" fill="#F2F2F2"/>
<path d="M80.6588 142.716H77.4111C77.5614 141.769 77.7174 140.829 77.8677 139.882H81.0344C80.9072 140.829 80.7859 141.769 80.6588 142.716Z" fill="#F2F2F2"/>
<path d="M84.9566 142.716H81.709C81.8246 141.769 81.9401 140.829 82.0615 139.882H85.2282C85.1358 140.829 85.0491 141.769 84.9624 142.716H84.9566Z" fill="#F2F2F2"/>
<path d="M89.2593 142.716H86.0117C86.0926 141.769 86.1735 140.829 86.2544 139.882H89.4212C89.3691 140.829 89.3171 141.769 89.2593 142.716Z" fill="#F2F2F2"/>
<path d="M93.5582 142.716H90.3105C90.3568 141.769 90.3972 140.829 90.4434 139.882H93.6102C93.5929 140.829 93.5755 141.769 93.5582 142.716Z" fill="#F2F2F2"/>
<path d="M97.856 142.716H94.6084C94.6142 141.769 94.6257 140.829 94.6315 139.882H97.7982C97.8156 140.829 97.8387 141.769 97.856 142.716Z" fill="#F2F2F2"/>
<path d="M102.148 142.716H98.9002C98.8713 141.769 98.8424 140.829 98.8135 139.882H101.98C102.038 140.829 102.09 141.769 102.148 142.716Z" fill="#F2F2F2"/>
<path d="M106.448 142.716H103.2C103.137 141.769 103.073 140.829 103.004 139.882H106.171C106.263 140.829 106.356 141.769 106.448 142.716Z" fill="#F2F2F2"/>
<path d="M110.748 142.716H107.501C107.402 141.769 107.298 140.829 107.2 139.882H110.367C110.494 140.829 110.621 141.769 110.754 142.716H110.748Z" fill="#F2F2F2"/>
<path d="M115.049 142.716H111.801C111.662 141.769 111.529 140.829 111.391 139.882H114.557C114.719 140.829 114.887 141.769 115.049 142.716Z" fill="#F2F2F2"/>
<path d="M119.349 142.716H116.101C115.928 141.769 115.754 140.829 115.581 139.882H118.748C118.95 140.829 119.147 141.769 119.349 142.716Z" fill="#F2F2F2"/>
<path d="M123.64 142.716H120.393C120.185 141.769 119.977 140.829 119.763 139.882H122.929C123.166 140.829 123.403 141.769 123.64 142.716Z" fill="#F2F2F2"/>
<path d="M127.939 142.716H124.692C124.449 141.769 124.201 140.829 123.952 139.882H127.119C127.39 140.829 127.662 141.769 127.939 142.716Z" fill="#F2F2F2"/>
<path d="M132.238 142.716H128.99C128.707 141.769 128.424 140.829 128.146 139.882H131.313C131.625 140.829 131.932 141.769 132.244 142.716H132.238Z" fill="#F2F2F2"/>
<path d="M136.537 142.716H133.289C132.972 141.769 132.654 140.829 132.336 139.882H135.503C135.849 140.829 136.196 141.769 136.537 142.716Z" fill="#F2F2F2"/>
<path d="M140.838 142.716H137.591C137.232 141.769 136.88 140.829 136.527 139.882H139.694C140.075 140.829 140.457 141.769 140.838 142.716Z" fill="#F2F2F2"/>
<path d="M145.138 142.716H141.89C141.497 141.769 141.11 140.829 140.717 139.882H143.884C144.3 140.829 144.721 141.769 145.138 142.716Z" fill="#F2F2F2"/>
<path d="M149.433 142.716H146.185C145.758 141.769 145.33 140.829 144.902 139.882H148.069C148.526 140.829 148.976 141.769 149.433 142.716Z" fill="#F2F2F2"/>
<path d="M153.728 142.716H150.481C150.018 141.769 149.556 140.829 149.088 139.882H152.255C152.746 140.829 153.237 141.769 153.728 142.716Z" fill="#F2F2F2"/>
<path d="M158.029 142.716H154.782C154.285 141.769 153.782 140.829 153.285 139.882H156.452C156.978 140.829 157.504 141.769 158.035 142.716H158.029Z" fill="#F2F2F2"/>
<path d="M35.6542 146.629H32.291C32.8053 145.683 33.3196 144.742 33.8397 143.795H37.1162C36.6308 144.742 36.1396 145.683 35.6542 146.629Z" fill="#F2F2F2"/>
<path d="M40.0985 146.629H36.7354C37.215 145.682 37.6946 144.742 38.1742 143.795H41.4508C41 144.742 40.5435 145.682 40.0928 146.629H40.0985Z" fill="#F2F2F2"/>
<path d="M44.5478 146.629H41.1846C41.6295 145.683 42.0687 144.742 42.5137 143.795H45.7902C45.3741 144.742 44.9581 145.683 44.542 146.629H44.5478Z" fill="#F2F2F2"/>
<path d="M48.997 146.629H45.6338C46.0441 145.683 46.4486 144.742 46.8531 143.795H50.1296C49.7482 144.742 49.3726 145.683 48.9912 146.629H48.997Z" fill="#F2F2F2"/>
<path d="M53.4452 146.629H50.082C50.4519 145.682 50.8217 144.742 51.1915 143.795H54.4738C54.1271 144.742 53.7862 145.682 53.4452 146.629Z" fill="#F2F2F2"/>
<path d="M57.8944 146.629H54.5312C54.8664 145.682 55.2016 144.742 55.5367 143.795H58.8133C58.507 144.742 58.2007 145.682 57.8944 146.629Z" fill="#F2F2F2"/>
<path d="M62.3476 146.629H58.9844C59.2849 145.682 59.5796 144.742 59.8801 143.795H63.1566C62.885 144.742 62.6134 145.682 62.3476 146.629Z" fill="#F2F2F2"/>
<path d="M66.789 146.629H63.4258C63.6858 145.682 63.9516 144.742 64.2117 143.795H67.4882C67.2513 144.742 67.0201 145.682 66.7832 146.629H66.789Z" fill="#F2F2F2"/>
<path d="M71.2372 146.629H67.874C68.0994 145.682 68.3248 144.742 68.5501 143.795H71.8266C71.6302 144.742 71.4279 145.682 71.2314 146.629H71.2372Z" fill="#F2F2F2"/>
<path d="M75.6903 146.629H72.3271C72.5178 145.682 72.7028 144.742 72.8934 143.795H76.1758C76.014 144.742 75.8522 145.682 75.6903 146.629Z" fill="#F2F2F2"/>
<path d="M80.1386 146.629H76.7754C76.9314 145.683 77.0817 144.742 77.2319 143.795H80.5142C80.3871 144.742 80.2599 145.683 80.1386 146.629Z" fill="#F2F2F2"/>
<path d="M84.5878 146.629H81.2246C81.3402 145.683 81.4557 144.742 81.5771 143.795H84.8536C84.7612 144.742 84.6745 145.683 84.5878 146.629Z" fill="#F2F2F2"/>
<path d="M89.038 146.629H85.6748C85.7557 145.683 85.8366 144.742 85.9175 143.795H89.194C89.142 144.742 89.09 145.683 89.0322 146.629H89.038Z" fill="#F2F2F2"/>
<path d="M93.4853 146.629H90.1221C90.1683 145.682 90.2087 144.742 90.255 143.795H93.5315C93.5142 144.742 93.4968 145.682 93.4795 146.629H93.4853Z" fill="#F2F2F2"/>
<path d="M97.9384 146.629H94.5752C94.581 145.682 94.5925 144.742 94.5983 143.795H97.8748C97.8922 144.742 97.9153 145.682 97.9326 146.629H97.9384Z" fill="#F2F2F2"/>
<path d="M102.381 146.629H99.0174C98.9885 145.683 98.9596 144.742 98.9307 143.795H102.207C102.265 144.742 102.317 145.683 102.375 146.629H102.381Z" fill="#F2F2F2"/>
<path d="M106.831 146.629H103.468C103.404 145.682 103.341 144.742 103.277 143.795H106.554C106.646 144.742 106.739 145.682 106.831 146.629Z" fill="#F2F2F2"/>
<path d="M111.282 146.629H107.919C107.815 145.682 107.716 144.742 107.618 143.795H110.895C111.022 144.742 111.149 145.682 111.276 146.629H111.282Z" fill="#F2F2F2"/>
<path d="M115.731 146.629H112.368C112.23 145.682 112.097 144.742 111.958 143.795H115.235C115.396 144.742 115.564 145.682 115.726 146.629H115.731Z" fill="#F2F2F2"/>
<path d="M120.177 146.629H116.814C116.641 145.682 116.467 144.742 116.294 143.795H119.57C119.773 144.742 119.975 145.682 120.171 146.629H120.177Z" fill="#F2F2F2"/>
<path d="M124.627 146.629H121.264C121.056 145.682 120.842 144.742 120.634 143.795H123.91C124.147 144.742 124.384 145.682 124.621 146.629H124.627Z" fill="#F2F2F2"/>
<path d="M129.073 146.629H125.709C125.467 145.683 125.218 144.742 124.97 143.795H128.246C128.518 144.742 128.795 145.683 129.067 146.629H129.073Z" fill="#F2F2F2"/>
<path d="M133.521 146.629H130.158C129.875 145.682 129.592 144.742 129.314 143.795H132.591C132.903 144.742 133.209 145.682 133.521 146.629Z" fill="#F2F2F2"/>
<path d="M137.972 146.629H134.609C134.291 145.683 133.973 144.742 133.655 143.795H136.932C137.278 144.742 137.625 145.683 137.966 146.629H137.972Z" fill="#F2F2F2"/>
<path d="M142.422 146.629H139.058C138.706 145.683 138.348 144.742 137.995 143.795H141.272C141.653 144.742 142.034 145.683 142.416 146.629H142.422Z" fill="#F2F2F2"/>
<path d="M146.871 146.629H143.508C143.115 145.683 142.728 144.742 142.335 143.795H145.612C146.033 144.742 146.449 145.683 146.865 146.629H146.871Z" fill="#F2F2F2"/>
<path d="M151.316 146.629H147.953C147.525 145.682 147.098 144.742 146.67 143.795H149.946C150.403 144.742 150.854 145.682 151.31 146.629H151.316Z" fill="#F2F2F2"/>
<path d="M155.763 146.629H152.4C151.937 145.682 151.475 144.742 151.007 143.795H154.283C154.775 144.742 155.266 145.682 155.757 146.629H155.763Z" fill="#F2F2F2"/>
<path d="M160.213 146.629H156.85C156.347 145.683 155.85 144.742 155.354 143.795H158.63C159.156 144.742 159.682 145.683 160.213 146.629Z" fill="#F2F2F2"/>
<path d="M33.6273 150.548H30.1543C30.6686 149.601 31.1887 148.661 31.703 147.714H35.0951C34.6097 148.655 34.1185 149.601 33.6331 150.548H33.6273Z" fill="#F2F2F2"/>
<path d="M38.2259 150.548H34.7529C35.2326 149.602 35.7122 148.661 36.1918 147.714H39.5839C39.1332 148.655 38.6824 149.602 38.2259 150.548Z" fill="#F2F2F2"/>
<path d="M42.8255 150.548H39.3525C39.7975 149.602 40.2367 148.661 40.6816 147.714H44.0737C43.6576 148.655 43.2416 149.602 42.8255 150.548Z" fill="#F2F2F2"/>
<path d="M47.4251 150.548H43.9521C44.3567 149.602 44.7669 148.661 45.1714 147.714H48.5635C48.1822 148.655 47.8065 149.602 47.4251 150.548Z" fill="#F2F2F2"/>
<path d="M52.0238 150.548H48.5508C48.9206 149.601 49.2905 148.661 49.6603 147.714H53.0524C52.7114 148.655 52.3647 149.601 52.0238 150.548Z" fill="#F2F2F2"/>
<path d="M56.6195 150.548H53.1465C53.4816 149.602 53.8168 148.661 54.152 147.714H57.5441C57.2378 148.655 56.9315 149.602 56.6252 150.548H56.6195Z" fill="#F2F2F2"/>
<path d="M61.2181 150.548H57.7451C58.0456 149.601 58.3403 148.661 58.6408 147.714H62.0329C61.7613 148.655 61.4897 149.601 61.2239 150.548H61.2181Z" fill="#F2F2F2"/>
<path d="M65.8167 150.548H62.3438C62.6038 149.601 62.8696 148.661 63.1297 147.714H66.5217C66.2848 148.655 66.0537 149.601 65.8167 150.548Z" fill="#F2F2F2"/>
<path d="M70.4202 150.548H66.9473C67.1726 149.601 67.398 148.661 67.6234 147.714H71.0154C70.819 148.655 70.6167 149.601 70.4202 150.548Z" fill="#F2F2F2"/>
<path d="M75.0189 150.548H71.5459C71.7366 149.602 71.9273 148.661 72.1122 147.714H75.5043C75.3425 148.655 75.1807 149.602 75.0189 150.548Z" fill="#F2F2F2"/>
<path d="M79.6185 150.548H76.1455C76.2958 149.602 76.4518 148.661 76.602 147.714H79.9941C79.867 148.655 79.7399 149.602 79.6185 150.548Z" fill="#F2F2F2"/>
<path d="M84.2171 150.548H80.7441C80.8597 149.601 80.9753 148.661 81.0966 147.714H84.4887C84.3963 148.655 84.3096 149.601 84.2229 150.548H84.2171Z" fill="#F2F2F2"/>
<path d="M88.8158 150.548H85.3428C85.4237 149.601 85.5046 148.661 85.5855 147.714H88.9776C88.9256 148.655 88.8736 149.601 88.8158 150.548Z" fill="#F2F2F2"/>
<path d="M93.4124 150.548H89.9395C89.9857 149.602 90.0262 148.661 90.0724 147.714H93.4645C93.4471 148.655 93.4298 149.602 93.4124 150.548Z" fill="#F2F2F2"/>
<path d="M98.0111 150.548H94.5381C94.5439 149.601 94.5554 148.661 94.5612 147.714H97.9533C97.9706 148.655 97.9937 149.601 98.0111 150.548Z" fill="#F2F2F2"/>
<path d="M102.61 150.548H99.1374C99.1085 149.601 99.0797 148.661 99.0508 147.714H102.443C102.501 148.655 102.553 149.601 102.61 150.548Z" fill="#F2F2F2"/>
<path d="M107.212 150.548H103.739C103.675 149.602 103.611 148.661 103.548 147.714H106.94C107.032 148.655 107.125 149.602 107.217 150.548H107.212Z" fill="#F2F2F2"/>
<path d="M111.812 150.548H108.339C108.24 149.602 108.136 148.661 108.038 147.714H111.43C111.557 148.655 111.69 149.602 111.817 150.548H111.812Z" fill="#F2F2F2"/>
<path d="M116.412 150.548H112.939C112.8 149.602 112.667 148.661 112.528 147.714H115.92C116.088 148.655 116.25 149.602 116.412 150.548Z" fill="#F2F2F2"/>
<path d="M121.011 150.548H117.538C117.364 149.602 117.191 148.661 117.018 147.714H120.41C120.612 148.655 120.808 149.602 121.011 150.548Z" fill="#F2F2F2"/>
<path d="M125.604 150.548H122.131C121.923 149.601 121.709 148.661 121.501 147.714H124.893C125.13 148.655 125.367 149.601 125.604 150.548Z" fill="#F2F2F2"/>
<path d="M130.205 150.548H126.732C126.489 149.602 126.241 148.661 125.998 147.714H129.39C129.662 148.655 129.939 149.602 130.211 150.548H130.205Z" fill="#F2F2F2"/>
<path d="M134.806 150.548H131.333C131.05 149.601 130.767 148.661 130.489 147.714H133.881C134.193 148.655 134.5 149.601 134.812 150.548H134.806Z" fill="#F2F2F2"/>
<path d="M139.406 150.548H135.933C135.615 149.601 135.297 148.661 134.979 147.714H138.372C138.718 148.655 139.065 149.601 139.406 150.548Z" fill="#F2F2F2"/>
<path d="M144.006 150.548H140.533C140.18 149.601 139.822 148.661 139.47 147.714H142.862C143.243 148.655 143.625 149.601 144.006 150.548Z" fill="#F2F2F2"/>
<path d="M148.606 150.548H145.133C144.74 149.601 144.353 148.661 143.96 147.714H147.352C147.768 148.655 148.19 149.601 148.606 150.548Z" fill="#F2F2F2"/>
<path d="M153.206 150.548H149.733C149.305 149.601 148.878 148.661 148.45 147.714H151.842C152.299 148.655 152.75 149.601 153.206 150.548Z" fill="#F2F2F2"/>
<path d="M157.806 150.548H154.333C153.871 149.601 153.409 148.661 152.94 147.714H156.333C156.824 148.655 157.315 149.601 157.806 150.548Z" fill="#F2F2F2"/>
<path d="M162.4 150.548H158.927C158.43 149.601 157.928 148.661 157.431 147.714H160.823C161.349 148.655 161.874 149.601 162.406 150.548H162.4Z" fill="#F2F2F2"/>
<path d="M31.6032 154.461H28.0146C28.529 153.515 29.0433 152.574 29.5633 151.627H33.071C32.5856 152.574 32.0944 153.515 31.609 154.461H31.6032Z" fill="#F2F2F2"/>
<path d="M36.3522 154.461H32.7637C33.2433 153.515 33.7229 152.574 34.2026 151.627H37.7102C37.2595 152.574 36.803 153.515 36.3522 154.461Z" fill="#F2F2F2"/>
<path d="M41.1052 154.461H37.5166C37.9616 153.515 38.4008 152.574 38.8457 151.627H42.3534C41.9373 152.574 41.5212 153.515 41.1052 154.461Z" fill="#F2F2F2"/>
<path d="M88.5923 154.461H42.2588C42.6633 153.515 43.0736 152.574 43.4781 151.627H88.7483C88.6963 152.574 88.6443 153.515 88.5865 154.461H88.5923Z" fill="#F2F2F2"/>
<path d="M93.3425 154.461H89.7539C89.8001 153.515 89.8406 152.574 89.8868 151.627H93.3945C93.3772 152.574 93.3598 153.515 93.3425 154.461Z" fill="#F2F2F2"/>
<path d="M98.0924 154.461H94.5039C94.5097 153.515 94.5212 152.574 94.527 151.627H98.0347C98.052 152.574 98.0751 153.515 98.0924 154.461Z" fill="#F2F2F2"/>
<path d="M102.842 154.461H99.2537C99.2248 153.515 99.1959 152.574 99.167 151.627H102.675C102.732 152.574 102.784 153.515 102.842 154.461Z" fill="#F2F2F2"/>
<path d="M107.593 154.461H104.004C103.941 153.515 103.877 152.574 103.808 151.627H107.315C107.408 152.574 107.5 153.515 107.593 154.461Z" fill="#F2F2F2"/>
<path d="M112.343 154.461H108.755C108.656 153.515 108.552 152.574 108.454 151.627H111.962C112.089 152.574 112.216 153.515 112.343 154.461Z" fill="#F2F2F2"/>
<path d="M117.095 154.461H113.506C113.367 153.515 113.234 152.574 113.096 151.627H116.603C116.765 152.574 116.933 153.515 117.095 154.461Z" fill="#F2F2F2"/>
<path d="M121.844 154.461H118.255C118.082 153.515 117.909 152.574 117.735 151.627H121.243C121.445 152.574 121.642 153.515 121.844 154.461Z" fill="#F2F2F2"/>
<path d="M126.588 154.461H122.999C122.791 153.515 122.583 152.574 122.369 151.627H125.877C126.114 152.574 126.351 153.515 126.588 154.461Z" fill="#F2F2F2"/>
<path d="M131.338 154.461H127.749C127.507 153.515 127.258 152.574 127.01 151.627H130.517C130.789 152.574 131.061 153.515 131.338 154.461Z" fill="#F2F2F2"/>
<path d="M136.089 154.461H132.501C132.218 153.515 131.935 152.574 131.657 151.627H135.165C135.477 152.574 135.783 153.515 136.095 154.461H136.089Z" fill="#F2F2F2"/>
<path d="M140.839 154.461H137.25C136.933 153.515 136.615 152.574 136.297 151.627H139.805C140.151 152.574 140.498 153.515 140.839 154.461Z" fill="#F2F2F2"/>
<path d="M145.589 154.461H142.001C141.648 153.515 141.29 152.574 140.938 151.627H144.445C144.827 152.574 145.208 153.515 145.589 154.461Z" fill="#F2F2F2"/>
<path d="M150.34 154.461H146.751C146.358 153.515 145.971 152.574 145.578 151.627H149.086C149.502 152.574 149.924 153.515 150.34 154.461Z" fill="#F2F2F2"/>
<path d="M155.089 154.461H151.501C151.073 153.515 150.645 152.574 150.218 151.627H153.725C154.182 152.574 154.633 153.515 155.089 154.461Z" fill="#F2F2F2"/>
<path d="M159.84 154.461H156.251C155.789 153.515 155.326 152.574 154.858 151.627H158.366C158.857 152.574 159.348 153.515 159.84 154.461Z" fill="#F2F2F2"/>
<path d="M164.588 154.461H161C160.503 153.515 160 152.574 159.503 151.627H163.011C163.536 152.574 164.062 153.515 164.594 154.461H164.588Z" fill="#F2F2F2"/>
<path d="M148.818 159.996V162.357C148.818 162.691 149.084 162.957 149.419 162.957C149.754 162.957 150.02 162.691 150.02 162.357V159.996H148.818Z" fill="#F2F2F2"/>
<path d="M150.714 159.996V162.357C150.714 162.691 150.985 162.957 151.315 162.957C151.644 162.957 151.916 162.691 151.916 162.357V159.996H150.714Z" fill="#F2F2F2"/>
<path d="M152.617 159.996V162.357C152.617 162.691 152.889 162.957 153.218 162.957C153.548 162.957 153.819 162.691 153.819 162.357V159.996H152.617Z" fill="#F2F2F2"/>
<path d="M97.3266 59.1432C97.3266 60.1186 96.5349 60.9094 95.5583 60.9094C94.5817 60.9094 93.79 60.1186 93.79 59.1432C93.79 58.1678 94.5817 57.3771 95.5583 57.3771C96.5349 57.3771 97.3266 58.1678 97.3266 59.1432Z" fill="#4D4D4D"/>
<path d="M96.863 59.1432C96.863 59.8646 96.2793 60.4476 95.557 60.4476C94.8346 60.4476 94.251 59.8646 94.251 59.1432C94.251 58.4217 94.8346 57.8388 95.557 57.8388C96.2793 57.8388 96.863 58.4217 96.863 59.1432Z" fill="#666666"/>
<path d="M96.5567 58.8662C96.5567 59.2529 96.2447 59.5645 95.8633 59.5645C95.4819 59.5645 95.1641 59.2529 95.1641 58.8662C95.1641 58.4795 95.4761 58.1736 95.8633 58.1736C96.2504 58.1736 96.5567 58.4852 96.5567 58.8662Z" fill="#E6E6E6"/>
</g>
<defs>
<clipPath id="clip0_38_2149">
<rect width="173" height="165" fill="white"/>
</clipPath>
</defs>
</svg>
