<svg width="212" height="153" viewBox="0 0 212 153" fill="none" xmlns="http://www.w3.org/2000/svg">
<g id="Frame" clip-path="url(#clip0_42_2339)">
<g id="Group">
<g id="Layer 1">
<g id="Group_2">
<path id="Vector" d="M152.164 153L163.967 152.471C163.967 152.471 190.988 141.179 188.266 100.48C185.542 59.7814 139.03 34.8544 124.894 31.5934C110.757 28.3324 100.174 27.8076 96.1209 38.0902C92.0679 48.3728 88.3057 52.7362 82.007 52.7159C75.7082 52.6957 36.5007 49.5734 23.2601 69.5773C11.7399 86.9822 6.37266 114.864 35.0245 152.423L152.165 153.001L152.164 153Z" fill="#DEF5FF"/>
<g id="Group_3">
<g id="Group_4">
<path id="Vector_2" d="M79.6459 152.979C78.9441 152.414 67.4344 130 59.8544 140.598C59.8544 140.598 48.4849 101.739 32.9044 103.575C17.3239 105.412 30.5185 134.239 30.5185 134.239C30.5185 134.239 17.1837 128.728 20.2722 143.283C20.2722 143.283 3.28807 140.174 4.55153 152.468L79.6468 152.979H79.6459Z" fill="#7FC6A6"/>
<path id="Vector_3" d="M17.1795 122.475C18.5221 121.354 17.9261 118.401 15.8481 115.877C13.7702 113.354 10.9973 112.217 9.65468 113.337C8.31205 114.458 8.90812 117.412 10.986 119.935C13.064 122.458 15.8369 123.596 17.1795 122.475Z" fill="#7FC6A6"/>
<path id="Vector_4" d="M13.467 129.852C14.2618 129.189 13.909 127.44 12.6789 125.946C11.4487 124.452 9.80721 123.779 9.01239 124.443C8.21757 125.106 8.57045 126.855 9.80056 128.348C11.0307 129.842 12.6722 130.515 13.467 129.852Z" fill="#7FC6A6"/>
</g>
<g id="Group_5">
<path id="Vector_5" d="M31.1354 137.219C31.1749 137.21 31.2119 137.187 31.2361 137.15C31.2861 137.075 31.2659 136.973 31.191 136.922C31.0548 136.831 27.8229 134.685 24.9865 135.305C24.9865 135.305 24.9857 135.305 24.9849 135.305C24.8971 135.324 24.8415 135.412 24.86 135.5C24.8793 135.589 24.9656 135.645 25.0542 135.626C25.0542 135.626 25.055 135.626 25.0558 135.626C27.756 135.036 30.9783 137.174 31.0105 137.196C31.0492 137.222 31.0943 137.229 31.1354 137.219Z" fill="black"/>
<path id="Vector_6" d="M28.9635 137.464C29.0038 137.455 29.0401 137.432 29.065 137.394C29.115 137.319 29.094 137.217 29.0191 137.167C28.9571 137.126 27.464 136.153 24.8138 136.319C24.7235 136.324 24.6558 136.402 24.6615 136.493C24.6671 136.584 24.7445 136.652 24.8339 136.646C27.3761 136.487 28.8249 137.432 28.8394 137.441C28.8773 137.466 28.9224 137.473 28.9643 137.464H28.9635Z" fill="black"/>
</g>
<path id="Vector_7" d="M69.4393 143.811C69.4804 143.811 69.5207 143.795 69.5529 143.765C69.6174 143.701 69.6198 143.598 69.5569 143.533C69.4433 143.414 66.7367 140.628 63.8343 140.628C63.7408 140.629 63.6699 140.701 63.6699 140.792C63.6699 140.882 63.7432 140.955 63.8327 140.955C63.8327 140.955 63.8335 140.955 63.8343 140.955C66.5997 140.955 69.2959 143.732 69.3225 143.761C69.3547 143.794 69.3974 143.811 69.4401 143.811H69.4393Z" fill="black"/>
<path id="Vector_8" d="M67.2653 143.587C67.3064 143.587 67.3475 143.572 67.3789 143.54C67.4434 143.477 67.445 143.373 67.3821 143.308C67.3298 143.254 66.076 141.985 63.4507 141.582C63.3605 141.568 63.2783 141.63 63.2646 141.719C63.2509 141.809 63.3122 141.892 63.4008 141.906C65.91 142.291 67.1356 143.525 67.1477 143.537C67.1799 143.57 67.2218 143.587 67.2645 143.587H67.2653Z" fill="black"/>
</g>
<g id="Group_6">
<path id="Vector_9" d="M155.396 110.883C155.396 110.883 165.53 93.2154 171.567 103.675C171.567 103.675 182.799 83.3221 191.924 90.5303C201.049 97.7386 187.151 135.052 187.151 135.052C187.151 135.052 202.173 120.495 197.259 142.12C197.259 142.12 203.577 137.299 207.649 138.861C211.72 140.423 208.21 152.586 208.21 152.586H146.734L155.396 110.884V110.883Z" fill="#7FC6A6"/>
<g id="Group_7">
<path id="Vector_10" d="M191.588 97.2616C191.576 97.3435 191.506 97.4068 191.422 97.4068C191.328 97.4068 191.253 97.3306 191.252 97.2373C191.25 94.8581 189.876 93.4393 189.862 93.4255C189.797 93.359 189.797 93.2511 189.862 93.1854C189.929 93.1189 190.035 93.1189 190.101 93.1854C190.161 93.2462 191.588 94.7112 191.59 97.2373C191.59 97.2454 191.59 97.2543 191.588 97.2624V97.2616Z" fill="black"/>
<path id="Vector_11" d="M190.694 99.146C190.682 99.2304 190.609 99.2936 190.522 99.2912C190.428 99.288 190.356 99.2101 190.358 99.116C190.435 96.6613 189.376 94.9659 189.365 94.9489C189.315 94.8702 189.338 94.7648 189.416 94.7145C189.494 94.6642 189.599 94.6869 189.649 94.7656C189.695 94.8378 190.776 96.5624 190.695 99.1273C190.695 99.1338 190.694 99.1403 190.693 99.1468L190.694 99.146Z" fill="black"/>
</g>
</g>
<g id="Group_8">
<g id="Group_9">
<path id="Vector_12" d="M122.399 82.5884L104.519 93.3787L127.133 131.359L145.014 120.569L122.399 82.5884Z" fill="#53A07C"/>
<path id="Vector_13" d="M129.728 111.662C132.711 108.66 132.711 103.792 129.728 100.79C126.746 97.7878 121.911 97.7878 118.929 100.79C115.947 103.792 115.947 108.66 118.929 111.662C121.911 114.664 126.746 114.664 129.728 111.662Z" fill="#B9EDD6"/>
<path id="Vector_14" d="M123.222 79.8846L105.342 90.6749L127.957 128.655L145.837 117.865L123.222 79.8846Z" fill="#7FC6A6"/>
<path id="Vector_15" d="M131.518 110.582C134.501 107.58 134.501 102.712 131.518 99.71C128.536 96.7078 123.701 96.7078 120.719 99.71C117.737 102.712 117.737 107.58 120.719 110.582C123.701 113.584 128.536 113.584 131.518 110.582Z" fill="#B9EDD6"/>
<g id="Group_10">
<path id="Vector_16" d="M121.173 96.8414C124.292 94.9587 128.046 95.0641 130.979 96.7895L122.873 83.1794L108.402 91.9134L116.508 105.524C116.378 102.106 118.054 98.7242 121.173 96.8414Z" fill="#B9EDD6"/>
<path id="Vector_17" d="M131.063 113.45C127.944 115.333 124.191 115.227 121.258 113.502L128.308 125.34L142.779 116.606L135.729 104.768C135.858 108.185 134.182 111.567 131.063 113.45Z" fill="#B9EDD6"/>
</g>
<path id="Vector_18" d="M104.52 93.3695L105.342 90.6666L107.436 94.1831L104.52 93.3695Z" fill="#53A07C"/>
<path id="Vector_19" d="M145.84 117.854L145.017 120.557L142.185 120.059L145.84 117.854Z" fill="#53A07C"/>
<path id="Vector_20" d="M127.137 131.348L127.959 128.645L145.84 117.854L145.017 120.557L127.137 131.348Z" fill="#4B8C6B"/>
<path id="Vector_21" d="M134.09 98.1353L116.209 108.926L117.616 111.288L135.497 100.498L134.09 98.1353Z" fill="#217F7A"/>
<path id="Vector_22" d="M116.21 108.916L114.861 110.736L116.193 112.972L117.617 111.279L116.21 108.916Z" fill="#E23E3D"/>
</g>
<g id="Group_11">
<path id="Vector_23" d="M101.949 97.5458L90.5225 115.749L128.673 140.019L140.099 121.816L101.949 97.5458Z" fill="#53A07C"/>
<path id="Vector_24" d="M120.113 123.895C123.172 120.814 123.172 115.82 120.113 112.739C117.053 109.659 112.092 109.659 109.032 112.739C105.972 115.82 105.972 120.814 109.032 123.895C112.092 126.975 117.053 126.975 120.113 123.895Z" fill="#B9EDD6"/>
<path id="Vector_25" d="M101.462 94.6864L90.0361 112.889L128.186 137.16L139.613 118.957L101.462 94.6864Z" fill="#7FC6A6"/>
<path id="Vector_26" d="M123.106 119.09C124.535 114.978 122.383 110.478 118.299 109.039C114.214 107.6 109.745 109.767 108.315 113.879C106.885 117.99 109.038 122.49 113.122 123.93C117.206 125.369 121.676 123.202 123.106 119.09Z" fill="#B9EDD6"/>
<g id="Group_12">
<path id="Vector_27" d="M107.373 111.188C109.367 108.012 112.853 106.363 116.332 106.58L102.661 97.8821L93.4131 112.614L107.084 121.312C105.397 118.241 105.38 114.364 107.373 111.188Z" fill="#B9EDD6"/>
<path id="Vector_28" d="M124.056 121.802C122.063 124.978 118.576 126.627 115.098 126.411L126.989 133.977L136.237 119.245L124.346 111.679C126.033 114.749 126.05 118.627 124.056 121.802Z" fill="#B9EDD6"/>
</g>
<path id="Vector_29" d="M90.5238 115.754L90.0371 112.895L93.5696 115.143L90.5238 115.754Z" fill="#53A07C"/>
<path id="Vector_30" d="M139.613 118.964L140.1 121.823L137.277 122.685L139.613 118.964Z" fill="#53A07C"/>
<path id="Vector_31" d="M128.673 140.026L128.187 137.166L139.613 118.964L140.1 121.823L128.673 140.026Z" fill="#4B8C6B"/>
<path id="Vector_32" d="M119.795 106.349L108.369 124.552L110.742 126.062L122.169 107.859L119.795 106.349Z" fill="#3F9896"/>
<path id="Vector_33" d="M108.369 124.558L107.968 126.852L110.214 128.281L110.742 126.068L108.369 124.558Z" fill="#3F9896"/>
</g>
<g id="Group_13" style="mix-blend-mode:multiply" opacity="0.3">
<path id="Vector_34" d="M107.651 98.6292L139.613 118.964L140.1 121.823L138.381 124.561L145.017 120.556L104.449 92.9907L107.651 98.6292Z" fill="#4B8C6B"/>
</g>
<path id="Vector_35" d="M132.038 134.794C132.016 134.79 131.993 134.782 131.973 134.769C131.895 134.72 131.872 134.616 131.921 134.537L139.925 121.787L139.462 119.066L101.516 94.9237L90.1781 112.984C90.1289 113.062 90.0258 113.085 89.9476 113.036C89.8695 112.986 89.8469 112.883 89.8961 112.804L101.412 94.4597L139.766 118.861L140.276 121.858L132.203 134.717C132.167 134.774 132.102 134.803 132.038 134.793V134.794Z" fill="black"/>
<path id="Vector_36" d="M134.234 127.662C134.211 127.658 134.188 127.65 134.168 127.637C134.09 127.588 134.068 127.484 134.117 127.405L139.473 118.874C139.522 118.795 139.625 118.773 139.703 118.822C139.781 118.872 139.804 118.976 139.755 119.054L134.399 127.585C134.363 127.643 134.297 127.671 134.234 127.662Z" fill="black"/>
<g id="Group_14">
<path id="Vector_37" d="M101.349 100.547C101.262 100.534 101.199 100.455 101.207 100.366C101.215 100.274 101.295 100.205 101.387 100.214L104.412 100.477C104.502 100.489 104.572 100.566 104.563 100.659C104.555 100.751 104.475 100.82 104.383 100.811L101.358 100.548C101.358 100.548 101.352 100.548 101.348 100.547H101.349Z" fill="black"/>
<path id="Vector_38" d="M101.69 101.483C101.603 101.47 101.54 101.391 101.547 101.302C101.556 101.21 101.636 101.142 101.728 101.15L104.753 101.413C104.842 101.425 104.912 101.503 104.904 101.595C104.896 101.687 104.816 101.756 104.724 101.747L101.699 101.484C101.699 101.484 101.692 101.484 101.689 101.483H101.69Z" fill="black"/>
</g>
<g id="Group_15">
<path id="Vector_39" d="M123.327 91.1615C123.24 91.1485 123.177 91.0698 123.184 90.9806C123.192 90.8881 123.273 90.8199 123.365 90.828L126.39 91.0917C126.48 91.1006 126.549 91.1809 126.541 91.2734C126.533 91.3659 126.452 91.434 126.361 91.4259L123.336 91.1623C123.336 91.1623 123.329 91.1623 123.326 91.1615H123.327Z" fill="black"/>
<path id="Vector_40" d="M123.668 92.0984C123.581 92.0854 123.518 92.0067 123.525 91.9175C123.533 91.825 123.614 91.7569 123.705 91.765L126.73 92.0286C126.822 92.0384 126.89 92.1179 126.882 92.2103C126.874 92.3028 126.793 92.371 126.701 92.3628L123.676 92.0992C123.676 92.0992 123.67 92.0992 123.667 92.0984H123.668Z" fill="black"/>
</g>
<path id="Vector_41" d="M145.815 118.02C145.767 118.013 145.723 117.985 145.696 117.94L123.165 80.1058L105.483 90.7778L104.7 93.3476L107.795 98.5425C107.842 98.622 107.816 98.725 107.737 98.7728C107.658 98.8207 107.556 98.7947 107.509 98.7152L104.338 93.3914L105.202 90.5547L105.256 90.5214L123.28 79.6434L145.983 117.766C146.03 117.846 146.005 117.949 145.926 117.996C145.892 118.017 145.853 118.024 145.816 118.018L145.815 118.02Z" fill="black"/>
</g>
<g id="Group_16">
<path id="Vector_42" d="M85.7709 139.133C84.8402 131.609 78.4762 122.228 66.9931 118.405C55.5107 114.581 55.1635 102.374 55.1635 102.374L52.7743 105.684L50.643 103.068L48.7245 106.306L46.0284 103.777L44.3926 106.972L41.4137 104.486L39.6837 107.695L37.0818 105.151L35.7281 108.303L33.1263 105.759L32.1497 108.853L30.3842 106.741C30.3842 106.741 29.0208 120.81 40.5031 124.634C51.9855 128.458 56.5575 135.512 57.4881 143.036L85.7709 139.134V139.133Z" fill="white"/>
<g id="Group_17">
<path id="Vector_43" d="M54.969 110.404L34.5107 114.289L34.6456 115.008L55.1038 111.124L54.969 110.404Z" fill="#B3EDFF"/>
<path id="Vector_44" d="M56.1907 112.351L35.7324 116.235L35.8673 116.955L56.3255 113.071L56.1907 112.351Z" fill="#B3EDFF"/>
<path id="Vector_45" d="M57.7004 114.253L37.2422 118.137L37.377 118.857L57.8353 114.973L57.7004 114.253Z" fill="#B3EDFF"/>
<path id="Vector_46" d="M62.4709 118.178L42.0127 122.062L42.1475 122.782L62.6058 118.898L62.4709 118.178Z" fill="#B3EDFF"/>
<path id="Vector_47" d="M65.0725 119.459L44.6143 123.343L44.7491 124.063L65.2073 120.179L65.0725 119.459Z" fill="#B3EDFF"/>
<path id="Vector_48" d="M69.2502 120.936L48.792 124.82L48.9268 125.54L69.3851 121.656L69.2502 120.936Z" fill="#B3EDFF"/>
<path id="Vector_49" d="M75.1975 126.02L54.7393 129.904L54.8741 130.624L75.3323 126.74L75.1975 126.02Z" fill="#B3EDFF"/>
<path id="Vector_50" d="M77.9211 128.412L57.4629 132.296L57.5977 133.016L78.056 129.132L77.9211 128.412Z" fill="#B3EDFF"/>
<path id="Vector_51" d="M78.9895 130.203L58.5312 134.087L58.6661 134.807L79.1243 130.923L78.9895 130.203Z" fill="#B3EDFF"/>
</g>
</g>
<g id="Group_18">
<path id="Vector_52" d="M86.8116 147.82H47.5195V152.357H86.8116V147.82Z" fill="#FFC931"/>
<path id="Vector_53" d="M90.7667 143.283H51.4746V147.821H90.7667V143.283Z" fill="#FFC931"/>
<path id="Vector_54" d="M87.4786 138.745H48.1865V143.282H87.4786V138.745Z" fill="#FFC931"/>
<path id="Vector_55" d="M92.0343 134.212H52.7422V138.749H92.0343V134.212Z" fill="#FFC931"/>
<g id="Group_19" style="mix-blend-mode:multiply" opacity="0.5">
<path id="Vector_56" d="M87.4647 138.75V143.284H90.7531V147.821H86.7983V152.358H68.786C68.0624 152.358 67.4766 151.774 67.4766 151.054V149.125C67.4766 148.405 68.0632 147.821 68.786 147.821H70.1203C70.8439 147.821 71.4313 147.237 71.4313 146.516V144.588C71.4313 143.868 70.8439 143.284 70.1203 143.284H69.4531C68.7287 143.284 68.1421 142.7 68.1421 141.979V140.054C68.1421 139.334 68.7287 138.75 69.4531 138.75H71.3862C72.1106 138.75 72.6972 138.166 72.6972 137.445V135.516C72.6972 134.796 72.1106 134.212 71.3862 134.212H69.4531C69.2501 134.212 69.0583 134.166 68.8867 134.085H87.4655V134.212H92.0197V138.75H87.4655H87.4647Z" fill="#F99247"/>
</g>
<path id="Vector_57" d="M92.0206 134.051H52.7422V134.372H92.0206V134.051Z" fill="black"/>
<path id="Vector_58" d="M92.0206 138.589H52.7422V138.91H92.0206V138.589Z" fill="black"/>
<path id="Vector_59" d="M87.4649 143.123H48.1865V143.443H87.4649V143.123Z" fill="black"/>
<path id="Vector_60" d="M86.7979 147.66H47.5195V147.98H86.7979V147.66Z" fill="black"/>
</g>
<g id="Group_20">
<path id="Vector_61" d="M67.1512 58.1355C67.1512 58.1355 66.1544 58.9872 67.2583 61.1442L67.6354 60.8222L67.2051 59.6394L67.1512 58.1355Z" fill="black"/>
<path id="Vector_62" d="M71.4588 58.6238L72.2461 61.9789C72.2461 61.9789 72.5587 63.1024 71.6063 63.4756L72.1453 64.9454C72.346 65.4922 72.1381 66.1087 71.6409 66.4056C71.3984 66.5508 71.0995 66.6854 70.7441 66.769C69.6176 67.0334 68.8078 66.3261 68.6136 65.9229C68.4202 65.5198 68.2252 63.4212 68.2252 63.4212L67.9569 62.4308L67.1777 58.5314L71.4596 58.6238H71.4588Z" fill="#FE9F73"/>
<path id="Vector_63" d="M69.1323 60.9398C69.1202 60.9422 69.1082 60.9406 69.0969 60.9341C69.0743 60.9203 69.0663 60.8903 69.08 60.8676C69.0848 60.8595 69.5747 60.0426 70.2773 60.3833C70.3015 60.3947 70.3112 60.4239 70.2999 60.4482C70.2886 60.4725 70.2596 60.4823 70.2354 60.4709C69.6134 60.17 69.1815 60.887 69.163 60.9179C69.1557 60.93 69.1452 60.9373 69.1323 60.9406V60.9398Z" fill="black"/>
<path id="Vector_64" d="M71.0011 60.2016C70.9882 60.2048 70.9737 60.2016 70.9616 60.1935C70.9398 60.178 70.935 60.1472 70.9503 60.1253C70.9656 60.1042 71.3226 59.6135 71.6634 59.7919C71.6868 59.8041 71.6965 59.8333 71.6844 59.8576C71.6723 59.8812 71.6433 59.8909 71.6191 59.8779C71.3524 59.7384 71.0317 60.1781 71.0285 60.1821C71.0212 60.1918 71.0116 60.1983 71.0003 60.2008L71.0011 60.2016Z" fill="black"/>
<path id="Vector_65" d="M70.1268 60.9081C70.1453 60.9868 70.097 61.0647 70.0188 61.0834C69.9407 61.1012 69.8633 61.0525 69.8448 60.9747C69.8262 60.896 69.8746 60.8181 69.9528 60.8002C70.0309 60.7816 70.1083 60.8303 70.1268 60.9089V60.9081Z" fill="black"/>
<path id="Vector_66" d="M71.5907 60.4149C71.6092 60.4936 71.5609 60.5715 71.4827 60.5902C71.4045 60.608 71.3272 60.5593 71.3086 60.4815C71.2901 60.4028 71.3385 60.3249 71.4166 60.3062C71.4948 60.2884 71.5721 60.3371 71.5907 60.4149Z" fill="black"/>
<path id="Vector_67" d="M68.4945 61.3421C68.6048 61.8118 68.3156 62.2815 67.849 62.391C67.3825 62.5005 66.9143 62.2085 66.8047 61.7388C66.6943 61.2691 66.9836 60.7994 67.4502 60.6899C67.9167 60.5804 68.3849 60.8725 68.4945 61.3421Z" fill="#FE9F73"/>
<path id="Vector_68" d="M67.7097 62.0771C67.534 62.1185 67.3858 62.013 67.3157 61.8897C67.2335 61.7437 67.2496 61.5782 67.3576 61.4695C67.5171 61.3089 67.7049 61.3438 67.8048 61.3811C67.746 61.2935 67.6718 61.2359 67.5848 61.2115C67.3971 61.158 67.2061 61.274 67.2037 61.2748C67.1924 61.2821 67.1779 61.2781 67.1706 61.2667C67.1634 61.2553 67.1674 61.2407 67.1787 61.2334C67.1876 61.2286 67.389 61.1053 67.5977 61.1645C67.7178 61.1986 67.8153 61.2854 67.8862 61.4241L67.9256 61.5019L67.8515 61.4565C67.841 61.45 67.5937 61.3008 67.3914 61.5044C67.2794 61.6171 67.3028 61.7696 67.3568 61.8662C67.4132 61.9659 67.5357 62.0682 67.6976 62.0308C67.6992 62.0308 67.7008 62.03 67.7025 62.03C67.7153 62.0268 67.7282 62.0349 67.7315 62.0479C67.7347 62.0609 67.7266 62.0738 67.7137 62.0771C67.7121 62.0771 67.7105 62.0779 67.7089 62.0779L67.7097 62.0771Z" fill="#F07162"/>
<path id="Vector_69" d="M72.2847 61.407C72.2847 61.407 73.1243 63.607 71.6449 64.0402C69.5273 64.6591 69.0301 63.4756 68.6667 62.4973L68.1575 60.4214L68.085 59.8017C68.2767 59.9388 68.4202 60.1335 68.4943 60.3582C68.6555 60.8465 69.0809 62.1655 69.2187 62.1955C69.4129 62.2385 71.9003 61.2667 72.2855 61.4079L72.2847 61.407Z" fill="black"/>
<path id="Vector_70" d="M70.8478 61.7478C70.8381 61.7502 70.8276 61.7461 70.822 61.7364C70.8147 61.725 70.8188 61.7104 70.8301 61.7031L71.2636 61.4363L70.8534 60.3566C70.8486 60.3444 70.855 60.3298 70.8671 60.3249C70.8792 60.3201 70.8937 60.3266 70.8986 60.3387L71.3232 61.4565L70.855 61.7445C70.855 61.7445 70.8502 61.7469 70.8478 61.7478Z" fill="#F07162"/>
<path id="Vector_71" d="M70.5918 62.2936C70.6055 62.2871 71.516 62.0511 71.516 62.0511C71.516 62.0511 71.4902 62.4591 71.1526 62.5475C70.8142 62.636 70.5926 62.2936 70.5926 62.2936H70.5918Z" fill="#FBFDFC"/>
<path id="Vector_72" d="M68.0885 59.8406L67.5736 59.5535L67.3818 60.7118C67.3818 60.7118 67.9459 60.6745 68.0877 61.2367C68.2295 61.7988 68.132 62.752 69.4059 63.7895C70.6807 64.827 68.8838 61.9173 68.8484 61.8094C68.8129 61.7015 68.0877 59.8406 68.0877 59.8406H68.0885Z" fill="black"/>
<path id="Vector_73" d="M67.1515 58.1355C67.4988 57.5798 69.0088 56.9552 70.2868 57.3681V57.3665C71.7082 57.691 71.6058 59.0562 71.572 59.1032L71.5527 59.0943C71.5664 59.1219 71.5784 59.1503 71.5897 59.1787C71.5897 59.1787 71.5164 59.1057 71.3738 59.014L70.7823 58.7471C70.4641 58.6547 70.0547 58.6068 69.56 58.6895C69.0684 58.7715 68.6519 58.898 68.3295 59.0862C68.3054 59.3961 68.365 59.985 68.7365 61.0842C69.3029 62.7617 68.0661 60.8562 67.6068 60.1229C67.5834 60.286 67.5802 60.4628 67.6035 60.6599C67.6035 60.6599 66.4561 59.2484 67.1515 58.1355Z" fill="black"/>
<path id="Vector_74" d="M71.6807 59.5664C71.6807 59.5664 71.5526 58.8696 71.4841 58.7268C71.4156 58.5833 69.7815 58.5103 68.9693 58.8226C68.1571 59.1349 70.0007 59.6776 70.0192 59.6727C70.0377 59.6686 71.6807 59.5664 71.6807 59.5664Z" fill="#FE9F73"/>
<path id="Vector_75" d="M68.5064 59.117L67.5186 58.5524L68.5411 59.4764L68.5064 59.117Z" fill="#FE9F73"/>
<path id="Vector_76" d="M67.5028 132.767L63.3064 132.826L63.2451 128.867L67.4247 128.343L67.5028 132.767Z" fill="#FE9F73"/>
<path id="Vector_77" d="M77.0009 132.763L72.8052 132.823L72.7432 128.864L76.9227 128.341L77.0009 132.763Z" fill="#FE9F73"/>
<g id="Group_21">
<path id="Vector_78" d="M77.1057 97.1959C76.4651 98.0201 76.2991 97.2081 76.2991 97.2081C75.91 97.6153 75.7117 97.5382 75.6142 97.4036C75.5433 97.3046 75.528 97.1764 75.5651 97.0604C75.6827 96.6922 76.0453 95.5695 76.3137 94.8808C76.2508 94.407 75.4579 94.6074 75.0599 94.8459C74.8544 94.9684 74.5055 94.9976 74.8262 94.4589C75.0881 94.0193 75.9978 93.3265 75.9978 93.3265L75.5804 90.6885L79.2604 90.8597C79.2604 90.8597 79.4038 93.8919 79.4288 94.3486C79.4538 94.8053 79.0267 96.366 78.6536 96.852C77.976 97.7345 77.9067 97.2097 77.9067 97.2097C77.117 98.0606 77.1073 97.1959 77.1073 97.1959H77.1057Z" fill="#FE9F73"/>
<path id="Vector_79" d="M76.8441 96.2135C76.8441 96.19 76.8304 96.1689 76.8071 96.1608C76.778 96.1511 76.7474 96.1665 76.737 96.1949C76.5992 96.5972 76.2551 97.174 76.2519 97.1805C76.2366 97.2064 76.2446 97.2405 76.2704 97.2559C76.2962 97.2713 76.33 97.2632 76.3461 97.2373C76.3607 97.2129 76.6991 96.6451 76.8409 96.2314C76.8425 96.2257 76.8441 96.22 76.8441 96.2144V96.2135Z" fill="#F07162"/>
<path id="Vector_80" d="M77.5399 96.2249C77.5399 96.1989 77.5222 96.1754 77.4956 96.1697C77.4658 96.164 77.4368 96.1827 77.4311 96.2127C77.328 96.7205 77.0613 97.1626 77.0589 97.1667C77.0428 97.1926 77.0516 97.2267 77.0774 97.2421C77.1032 97.2575 77.137 97.2494 77.1531 97.2235C77.1644 97.2048 77.432 96.7611 77.5391 96.2338C77.5391 96.2305 77.5399 96.2273 77.5399 96.2241V96.2249Z" fill="#F07162"/>
<path id="Vector_81" d="M78.3318 96.3612C78.3318 96.336 78.3149 96.3125 78.2891 96.3068C78.2593 96.2995 78.2303 96.3182 78.223 96.3482C78.1207 96.7838 77.862 97.1756 77.8588 97.1797C77.8419 97.2048 77.8491 97.2389 77.8741 97.2559C77.8991 97.273 77.9337 97.2656 77.9507 97.2405C77.9619 97.2235 78.2238 96.8276 78.3302 96.3725C78.331 96.3685 78.3318 96.3644 78.3318 96.3612Z" fill="#F07162"/>
</g>
<path id="Vector_82" d="M79.5994 91.9969L79.5342 93.2794C79.5342 93.2794 78.8654 93.7264 77.6357 93.6931L77.9444 91.9969H79.5986H79.5994Z" fill="#E2F2F1"/>
<path id="Vector_83" d="M69.5723 88.0952C69.5723 88.0952 69.8084 114.225 71.7285 129.378C71.7285 129.378 74.61 130.307 77.8186 128.805L77.9435 90.1053L78.4052 84.3077L69.5723 88.0952Z" fill="#E02742"/>
<path id="Vector_84" d="M62.8356 88.3515C62.8356 88.3515 61.7212 114.236 62.9814 129.487C62.9814 129.487 65.7582 131.203 69.5719 129.325L72.5791 92.4983L74.2551 82.5474L62.8356 88.3515Z" fill="#EF3A4C"/>
<path id="Vector_85" d="M66.2196 130.275C64.4154 130.275 62.9634 129.576 62.9425 129.566L62.903 129.547L62.8949 129.503C61.8184 123.686 62.4961 95.0162 62.5025 94.7274C62.5033 94.6795 62.5428 94.6414 62.5911 94.6414H62.5936C62.6427 94.643 62.6806 94.6828 62.6798 94.7323C62.6725 95.0202 61.9997 123.525 63.0609 129.427C63.4187 129.59 66.1164 130.737 68.6006 129.608C68.6449 129.587 68.6973 129.608 68.7175 129.652C68.7376 129.696 68.7175 129.748 68.674 129.768C67.8488 130.144 67.0012 130.275 66.2204 130.275L66.2196 130.275Z" fill="black"/>
<path id="Vector_86" d="M73.895 129.79C73.3132 129.79 72.6896 129.733 72.0385 129.592C71.991 129.581 71.9603 129.534 71.9708 129.486C71.9813 129.438 72.0296 129.409 72.0756 129.419C75.007 130.06 77.3776 128.932 77.7305 128.752L77.8554 92.3433C77.8554 92.2946 77.944 92.19 77.944 92.1413C77.944 90.8807 77.944 92.2549 77.944 92.2549C77.9932 92.2549 78.0327 92.2946 78.0319 92.3433L77.9062 128.857L77.861 128.882C77.8409 128.893 76.1995 129.789 73.8942 129.789L73.895 129.79Z" fill="black"/>
<path id="Vector_87" d="M76.7451 65.8418C76.7451 65.8418 78.8393 66.696 79.189 68.3533C79.5387 70.0105 80.4517 90.0274 79.824 91.997H76.7532L76.7451 65.841V65.8418Z" fill="#4CB7D8"/>
<path id="Vector_88" d="M61.7503 77.3826L61.5892 90.2002C61.5892 90.2002 71.5204 93.0264 77.9432 89.651C77.9432 89.651 76.8127 67.1219 76.6105 66.1298C76.3719 64.9609 69.9644 64.8676 67.2908 65.1547C67.2908 65.1547 63.1475 65.0525 60.9316 66.2766L61.7495 77.3834L61.7503 77.3826Z" fill="#B9EDD6"/>
<path id="Vector_89" d="M61.584 73.8247L61.5896 94.0915C61.5896 94.0915 66.8771 95.1014 69.4419 94.089C69.4419 94.089 69.4177 65.8775 68.371 65.0176C68.2413 65.0209 65.6064 65.072 63.7249 65.3048C61.8434 65.5376 61.584 73.8247 61.584 73.8247Z" fill="#4CB7D8"/>
<path id="Vector_90" d="M72.6199 65.0168C72.6199 65.0168 73.1574 89.8287 73.682 93.5163C73.682 93.5163 75.8165 93.6575 78.5384 92.7108C78.5384 92.7108 78.0412 66.8266 77.3378 66.1363C76.6351 65.4452 72.6191 65.0177 72.6191 65.0177L72.6199 65.0168Z" fill="#4CB7D8"/>
<path id="Vector_91" d="M68.709 65.0533C68.709 65.0533 72.0312 64.9738 72.588 65.0785C72.588 65.0785 72.1513 66.3877 72.0787 66.4396C72.007 66.4924 69.8556 66.9312 69.8556 66.9312C69.8556 66.9312 69.1215 66.4997 69.0885 66.352C69.0555 66.2044 68.709 65.0533 68.709 65.0533Z" fill="#B9EDD6"/>
<path id="Vector_92" d="M61.5863 80.3483C61.5372 80.3483 61.4977 80.3086 61.4977 80.2599L61.4961 76.0815C61.4961 76.0328 61.5356 75.993 61.5847 75.993C61.6339 75.993 61.6734 76.0328 61.6734 76.0815L61.675 80.2599C61.675 80.3086 61.6355 80.3483 61.5863 80.3483Z" fill="black"/>
<path id="Vector_93" d="M69.4422 94.1766C69.3931 94.1766 69.3544 94.1377 69.3544 94.089C69.3931 76.1277 68.8919 69.8856 68.887 69.8248C68.883 69.7769 68.9193 69.7347 68.9676 69.7307C69.0151 69.7282 69.0587 69.7623 69.0627 69.8102C69.0675 69.871 69.5687 76.118 69.5308 94.089C69.5308 94.1369 69.4914 94.1758 69.4422 94.1758V94.1766Z" fill="black"/>
<path id="Vector_94" d="M78.5386 92.796H78.5369C78.4878 92.7952 78.4499 92.7563 78.4507 92.7084C78.6207 84.9989 77.2131 68.3273 77.1985 68.1594C77.1945 68.1123 77.2308 68.071 77.2791 68.0677C77.3307 68.0645 77.371 68.0985 77.3742 68.1456C77.3887 68.3135 78.7972 84.9932 78.6272 92.7116C78.6264 92.7579 78.5869 92.7952 78.5386 92.7952V92.796Z" fill="black"/>
<path id="Vector_95" d="M72.7364 70.1703C72.6888 70.1703 72.6494 70.1322 72.6477 70.0843L72.5293 64.9211L72.6268 64.9284C72.8065 64.9422 77.0457 65.2885 78.2979 66.7438C78.3301 66.7811 78.3253 66.8363 78.289 66.8687C78.2519 66.9004 78.1963 66.8963 78.1641 66.859C77.061 65.5765 73.3601 65.1742 72.7106 65.1133L72.8242 70.0794C72.825 70.1281 72.7863 70.1687 72.738 70.1695H72.7364V70.1703Z" fill="black"/>
<path id="Vector_96" d="M54.8289 83.4908C55.3679 80.7514 54.185 79.0212 53.3011 78.1086C52.9965 78.9847 52.779 79.8672 52.6871 80.7482C52.5638 81.9301 53.2004 83.4924 54.177 85.1237C54.4622 84.7173 54.6919 84.1852 54.8289 83.49V83.4908Z" fill="#FEC786"/>
<g id="Group_22">
<path id="Vector_97" d="M61.8555 67.4447C61.8741 67.4447 61.8918 67.4366 61.9039 67.4204C62.4832 66.6473 63.4292 66.3334 63.4389 66.3301C63.4703 66.3196 63.4872 66.2863 63.4776 66.2547C63.4671 66.223 63.4333 66.206 63.4018 66.2157C63.3615 66.2287 62.4099 66.5443 61.808 67.3482C61.7879 67.3749 61.7935 67.4122 61.8201 67.4325C61.8306 67.4406 61.8435 67.4447 61.8564 67.4447H61.8555Z" fill="#21111D"/>
<path id="Vector_98" d="M61.9688 67.9996C61.9874 67.9996 62.0051 67.9915 62.0172 67.9752C62.5965 67.2022 63.5425 66.8882 63.5522 66.885C63.5836 66.8745 63.6005 66.8412 63.5909 66.8096C63.5804 66.7779 63.5465 66.7609 63.5151 66.7706C63.4748 66.7836 62.5232 67.0991 61.9213 67.903C61.9011 67.9298 61.9068 67.9671 61.9334 67.9874C61.9438 67.9955 61.9567 67.9996 61.9696 67.9996H61.9688Z" fill="#21111D"/>
</g>
<path id="Vector_99" d="M64.4243 130.062C64.376 130.062 64.3365 130.023 64.3357 129.975L64.1777 119.591C64.1777 119.543 64.2156 119.502 64.2648 119.501H64.2664C64.3147 119.501 64.3542 119.54 64.355 119.588L64.5129 129.971C64.5129 130.02 64.4751 130.06 64.4259 130.061H64.4243V130.062Z" fill="black"/>
<path id="Vector_100" d="M74.0011 129.791C73.9543 129.791 73.9156 129.755 73.9132 129.708L73.3282 119.592C73.3258 119.543 73.3629 119.502 73.4112 119.499C73.4604 119.494 73.5015 119.533 73.5047 119.582L74.0897 129.698C74.0921 129.746 74.055 129.788 74.0067 129.791C74.0051 129.791 74.0035 129.791 74.0019 129.791H74.0011Z" fill="black"/>
<g id="Group_23">
<g id="Group_24">
<path id="Vector_101" d="M43.5791 80.1009L46.1834 97.7945L83.5054 92.2979L80.9011 74.6042L43.5791 80.1009Z" fill="#53A07C"/>
<path id="Vector_102" d="M64.2662 92.6443C67.8833 92.6443 70.8155 89.7113 70.8155 86.0932C70.8155 82.475 67.8833 79.542 64.2662 79.542C60.649 79.542 57.7168 82.475 57.7168 86.0932C57.7168 89.7113 60.649 92.6443 64.2662 92.6443Z" fill="#B9EDD6"/>
<path id="Vector_103" d="M44.9131 78.0956L47.5174 95.7893L84.8394 90.2927L82.2343 72.599L44.9131 78.0956Z" fill="#7FC6A6"/>
<path id="Vector_104" d="M64.0064 90.8734C67.6235 90.8734 70.5557 87.9404 70.5557 84.3223C70.5557 80.7042 67.6235 77.7711 64.0064 77.7711C60.3893 77.7711 57.457 80.7042 57.457 84.3223C57.457 87.9404 60.3893 90.8734 64.0064 90.8734Z" fill="#B9EDD6"/>
<path id="Vector_105" d="M83.5054 92.2979L84.8398 90.2927L81.3838 90.8013L83.5054 92.2979Z" fill="#53A07C"/>
<path id="Vector_106" d="M44.9135 78.0956L43.5791 80.1009L45.4461 81.7127L44.9135 78.0956Z" fill="#53A07C"/>
<path id="Vector_107" d="M46.1834 97.7946L47.5177 95.7893L44.9135 78.0956L43.5791 80.1009L46.1834 97.7946Z" fill="#4B8C6B"/>
<path id="Vector_108" d="M61.9795 75.5817L64.5846 93.2754L66.906 92.9339L64.3009 75.2402L61.9795 75.5817Z" fill="#223749"/>
<path id="Vector_109" d="M66.9051 92.9339L66.4386 94.8118L64.2412 95.1355L64.5837 93.2754L66.9051 92.9339Z" fill="#223749"/>
</g>
<path id="Vector_110" d="M45.3786 92.6654C45.3947 92.6702 45.4116 92.671 45.4294 92.6686C45.4962 92.6589 45.5422 92.5964 45.5325 92.5299L43.7074 80.1301L44.9854 78.2084L82.1317 72.7377L84.7183 90.3105C84.7279 90.3778 84.79 90.424 84.8568 90.4135C84.9237 90.4038 84.9697 90.3413 84.96 90.2748L82.338 72.4603L82.2171 72.4781L44.8419 77.9828L43.4512 80.0733L43.4584 80.1203L45.2908 92.5664C45.298 92.6159 45.3335 92.654 45.3786 92.6662V92.6654Z" fill="black"/>
<path id="Vector_111" d="M46.1019 86.506C46.118 86.5109 46.1349 86.5117 46.1526 86.5092C46.2195 86.4995 46.2654 86.437 46.2558 86.3705L45.035 78.0777C45.0253 78.0104 44.9625 77.9642 44.8964 77.9747C44.8295 77.9844 44.7836 78.0469 44.7933 78.1134L46.014 86.4062C46.0213 86.4557 46.0567 86.4938 46.1019 86.506Z" fill="black"/>
<path id="Vector_112" d="M72.3016 83.1907C71.8471 80.1041 69.7384 77.6697 67.0068 76.6549L78.0266 75.0317C78.0266 75.0317 78.0266 75.0374 78.0275 75.0398C78.2208 76.3532 79.4271 77.2658 80.7373 77.1035L82.1281 86.5498C80.8122 86.7599 79.9065 87.9897 80.1015 89.3119C80.1039 89.3265 80.1064 89.3411 80.1088 89.3557L69.1147 90.9748C71.4378 89.2154 72.7553 86.2773 72.3016 83.1899V83.1907Z" fill="#B9EDD6"/>
<path id="Vector_113" d="M61.2739 92.13L52.084 93.4838C51.8858 92.1543 50.6489 91.236 49.3186 91.4323C49.3073 91.434 49.2968 91.4364 49.2855 91.438L47.9004 82.0266C49.2251 81.8238 50.1388 80.5892 49.943 79.2621C49.9382 79.2312 49.9326 79.2012 49.9277 79.1712L59.166 77.8109C56.8429 79.5703 55.5255 82.5084 55.9791 85.5958C56.4336 88.6824 58.5423 91.1168 61.2739 92.1316V92.13Z" fill="#B9EDD6"/>
<g id="Group_25">
<path id="Vector_114" d="M80.3564 77.0662C80.4184 77.084 80.4845 77.05 80.5054 76.9883C80.5272 76.9242 80.4934 76.8545 80.4297 76.8326L78.0293 76.0076C77.9576 75.9808 77.8955 76.0198 77.8738 76.0838C77.852 76.1479 77.8859 76.2177 77.9495 76.2396L80.3499 77.0646C80.3499 77.0646 80.3548 77.0662 80.3564 77.067V77.0662Z" fill="black"/>
<path id="Vector_115" d="M79.7812 77.6616C79.8432 77.6794 79.9093 77.6454 79.9303 77.5837C79.952 77.5196 79.9182 77.4499 79.8545 77.428L77.4541 76.603C77.3824 76.5738 77.3203 76.6152 77.2986 76.6792C77.2768 76.7433 77.3107 76.8131 77.3743 76.835L79.7747 77.66C79.7747 77.66 79.7796 77.6616 79.7812 77.6624V77.6616Z" fill="black"/>
</g>
</g>
<g id="Group_26">
<path id="Vector_116" d="M66.6418 95.8176C67.6764 95.9547 67.2252 95.2595 67.2252 95.2595C67.7884 95.2766 67.8754 95.0827 67.8496 94.918C67.8311 94.798 67.7521 94.6958 67.6442 94.639C67.3025 94.4589 66.2558 93.9138 65.5822 93.612C65.2945 93.2299 66.0004 92.8162 66.4516 92.7067C66.6837 92.6499 66.9536 92.4252 66.3469 92.2671C65.8513 92.1373 64.7176 92.2825 64.7176 92.2825L63.164 90.1101L60.6621 92.8154C60.6621 92.8154 62.687 95.0762 62.99 95.4185C63.293 95.7609 64.691 96.5737 65.2985 96.658C66.4 96.8113 66.0818 96.3887 66.0818 96.3887C67.2413 96.4406 66.6418 95.8184 66.6418 95.8184V95.8176Z" fill="#FE9F73"/>
<path id="Vector_117" d="M66.1387 94.9334C66.1217 94.9172 66.1169 94.8912 66.1282 94.8693C66.1419 94.8426 66.1749 94.8312 66.2015 94.845C66.5826 95.0348 67.2321 95.2044 67.2385 95.2068C67.2675 95.2141 67.2853 95.2441 67.278 95.2741C67.27 95.3033 67.2402 95.3212 67.2111 95.3139C67.1837 95.3066 66.544 95.1395 66.1532 94.944C66.1475 94.9415 66.1435 94.9383 66.1395 94.9342L66.1387 94.9334Z" fill="#F07162"/>
<path id="Vector_118" d="M65.6511 95.4307C65.6326 95.4129 65.6293 95.3828 65.6438 95.3609C65.6608 95.3358 65.6946 95.3293 65.7204 95.3464C66.1499 95.6351 66.6503 95.7633 66.6551 95.7649C66.6849 95.7722 66.7026 95.8022 66.6954 95.8314C66.6881 95.8606 66.6583 95.8785 66.6285 95.8712C66.6076 95.8655 66.1055 95.7373 65.6591 95.4372C65.6567 95.4356 65.6535 95.4332 65.6511 95.4307Z" fill="#F07162"/>
<path id="Vector_119" d="M65.1832 96.0829C65.1655 96.065 65.1615 96.0366 65.1752 96.0139C65.1913 95.988 65.2251 95.9807 65.2509 95.9969C65.6288 96.2354 66.0889 96.3327 66.0938 96.3343C66.1236 96.3408 66.1429 96.37 66.1365 96.3992C66.13 96.4292 66.101 96.4479 66.0712 96.4422C66.0519 96.4382 65.5869 96.34 65.1921 96.0902C65.1889 96.0877 65.1857 96.0853 65.1832 96.0829Z" fill="#F07162"/>
</g>
<path id="Vector_120" d="M65.3466 65.2131C65.3466 65.2131 61.0301 64.8205 58.8778 68.3914C56.9109 71.6532 53.1568 76.2372 52.6871 80.749C52.3075 84.3961 59.1526 91.6644 60.9398 93.402L64.1025 90.0266C64.1025 90.0266 59.064 82.038 58.6724 81.0524C58.3162 80.1561 65.6802 70.4315 65.6802 70.4315L65.3466 65.2131Z" fill="#4CB7D8"/>
<path id="Vector_121" d="M61.0166 93.3209L61.6967 94.0793C61.6967 94.0793 64.2308 91.8924 64.4138 91.6044C64.3702 91.5606 63.6515 90.5093 63.6515 90.5093L61.0166 93.3209Z" fill="#E2F2F1"/>
<path id="Vector_122" d="M60.9399 93.4904C60.919 93.4904 60.8988 93.4831 60.8819 93.4685C60.8448 93.436 60.8416 93.3809 60.873 93.3436C61.595 92.5153 63.6473 90.373 63.9898 90.0161C62.23 87.3124 58.5838 81.106 58.583 80.9316C58.583 80.8829 58.6225 80.8431 58.6708 80.8431C58.7135 80.8431 58.7498 80.874 58.7579 80.9137C58.861 81.1871 62.2791 87.0739 64.1759 89.9779L64.2146 90.0372L64.1662 90.0875C64.1429 90.1126 61.7884 92.5624 61.0068 93.4596C60.9891 93.4798 60.9649 93.4896 60.9399 93.4896V93.4904Z" fill="black"/>
<path id="Vector_123" d="M56.9509 81.6941C56.9018 81.6941 56.8623 81.6543 56.8623 81.6056C56.8623 81.557 56.9018 81.5172 56.9509 81.5172C57.4884 81.5172 58.411 80.9843 58.5939 80.8756C58.8864 79.6791 63.0305 73.8345 63.2094 73.583C63.2376 73.5432 63.2924 73.5335 63.3327 73.5619C63.3722 73.5903 63.3818 73.6454 63.3536 73.6852C63.3101 73.7468 58.9565 79.8859 58.7591 80.9478L58.7519 80.9867L58.7188 81.007C58.6737 81.0354 57.5972 81.6941 56.9517 81.6941H56.9509Z" fill="black"/>
<path id="Vector_124" d="M54.8262 74.8809C54.8101 74.8809 54.7932 74.876 54.7786 74.8671C54.7376 74.8403 54.7263 74.786 54.7521 74.7446L59.4997 67.3944C61.9275 64.7953 64.9016 65.1393 64.9314 65.1433C64.9798 65.1498 65.0144 65.1936 65.008 65.2423C65.0015 65.291 64.9564 65.3242 64.9097 65.3186C64.8807 65.3153 61.9976 64.9852 59.6351 67.5096L54.9011 74.8403C54.8842 74.8663 54.856 74.8809 54.827 74.8809H54.8262Z" fill="black"/>
<g id="Group_27">
<path id="Vector_125" d="M72.5903 133.174H76.3339L77.8512 131.518L80.6279 133.171H81.2258C81.4321 133.171 81.6206 133.31 81.6593 133.513C81.7117 133.785 81.5046 134.023 81.2419 134.024L72.5379 134.026C72.4742 134.026 72.4219 133.974 72.4219 133.91V133.343C72.4219 133.25 72.4976 133.174 72.5911 133.174H72.5903Z" fill="#EF3A4C"/>
<path id="Vector_126" d="M72.623 133.179V131.641C72.623 131.641 73.2532 130.792 74.2128 131.225C74.2128 131.225 75.6649 132.255 76.9444 131.008L80.1232 132.417C80.1232 132.417 80.9951 132.708 81.2312 133.175L72.623 133.178V133.179Z" fill="#4CB7D8"/>
<path id="Vector_127" d="M72.6545 131.641H72.5908V133.17H72.6545V131.641Z" fill="black"/>
<path id="Vector_128" d="M75.5142 131.658C75.6359 131.658 75.7092 131.647 75.7116 131.647L75.7019 131.584C75.6947 131.585 74.9445 131.69 74.2306 131.199L74.1943 131.252C74.7052 131.604 75.2354 131.658 75.5134 131.658H75.5142Z" fill="black"/>
<path id="Vector_129" d="M73.3973 132.891L73.4328 132.839L73.0267 132.565L72.9912 132.617L73.3973 132.891Z" fill="black"/>
<path id="Vector_130" d="M73.6874 132.814L73.7228 132.761L73.3167 132.487L73.2812 132.54L73.6874 132.814Z" fill="black"/>
<path id="Vector_131" d="M81.2119 133.188L81.2699 133.16C81.2627 133.145 81.0886 132.788 80.4376 132.51C79.7986 132.238 76.9856 130.991 76.9574 130.979L76.9316 131.037C76.9598 131.05 79.7728 132.297 80.4126 132.569C81.0387 132.836 81.2103 133.184 81.2119 133.188Z" fill="black"/>
<path id="Vector_132" d="M81.5376 133.949C81.6408 133.862 81.6996 133.734 81.6996 133.6C81.6996 133.347 81.4941 133.141 81.2419 133.142L72.6354 133.145C72.5 133.145 72.3896 133.255 72.3896 133.39V133.815H72.4533V133.39C72.4533 133.29 72.5347 133.209 72.6346 133.209L81.2411 133.206C81.4587 133.206 81.6351 133.383 81.6351 133.6C81.6351 133.716 81.5844 133.826 81.4957 133.901L81.5368 133.95L81.5376 133.949Z" fill="black"/>
</g>
<g id="Group_28">
<path id="Vector_133" d="M63.0493 133.177H66.7929L68.3102 131.521L71.0869 133.175H71.6848C71.8911 133.175 72.0796 133.313 72.1183 133.516C72.1707 133.789 71.9636 134.026 71.7009 134.026L62.9969 134.029C62.9332 134.029 62.8809 133.977 62.8809 133.913V133.346C62.8809 133.252 62.9566 133.176 63.0501 133.176L63.0493 133.177Z" fill="#EF3A4C"/>
<path id="Vector_134" d="M63.082 133.181V131.644C63.082 131.644 63.7121 130.794 64.6718 131.228C64.6718 131.228 66.1238 132.258 67.4034 131.01L70.5822 132.419C70.5822 132.419 71.4541 132.711 71.6902 133.178L63.082 133.18V133.181Z" fill="#4CB7D8"/>
<path id="Vector_135" d="M63.1135 131.645H63.0498V133.174H63.1135V131.645Z" fill="black"/>
<path id="Vector_136" d="M65.9732 131.66C66.0949 131.66 66.1682 131.649 66.1706 131.649L66.1609 131.586C66.1537 131.587 65.4035 131.692 64.6896 131.202L64.6533 131.254C65.1642 131.607 65.6944 131.66 65.9724 131.66H65.9732Z" fill="black"/>
<path id="Vector_137" d="M63.8563 132.894L63.8918 132.841L63.4856 132.568L63.4502 132.62L63.8563 132.894Z" fill="black"/>
<path id="Vector_138" d="M64.1463 132.817L64.1818 132.764L63.7757 132.49L63.7402 132.543L64.1463 132.817Z" fill="black"/>
<path id="Vector_139" d="M71.6709 133.191L71.7289 133.163C71.7217 133.148 71.5476 132.791 70.8966 132.513C70.2576 132.241 67.4446 130.994 67.4164 130.982L67.3906 131.04C67.4188 131.052 70.2318 132.3 70.8716 132.573C71.4977 132.84 71.6693 133.188 71.6709 133.191Z" fill="black"/>
<path id="Vector_140" d="M71.9966 133.952C72.0998 133.865 72.1586 133.737 72.1586 133.603C72.1586 133.351 71.9531 133.145 71.7009 133.145L63.0944 133.148C62.959 133.148 62.8486 133.258 62.8486 133.394V133.819H62.9123V133.394C62.9123 133.293 62.9937 133.212 63.0936 133.212L71.7001 133.209C71.9177 133.209 72.0941 133.386 72.0941 133.604C72.0941 133.72 72.0434 133.829 71.9547 133.905L71.9958 133.953L71.9966 133.952Z" fill="black"/>
</g>
</g>
<g id="Group_29">
<path id="Vector_141" d="M103.224 152.581H143.224V147.962H103.224V152.581Z" fill="#FFC931"/>
<path id="Vector_142" d="M99.1969 147.961H139.197V143.342H99.1969V147.961Z" fill="#FFC931"/>
<path id="Vector_143" d="M102.545 143.341H142.545V138.722H102.545V143.341Z" fill="#FFC931"/>
<path id="Vector_144" d="M97.9068 138.727H137.907V134.108H97.9068V138.727Z" fill="#FFC931"/>
<path id="Vector_145" d="M102.545 134.111H142.545V129.493H102.545V134.111Z" fill="#FFC931"/>
<g id="Vector_146" style="mix-blend-mode:multiply" opacity="0.5">
<path d="M121.575 147.961H120.216C119.48 147.961 118.882 147.366 118.882 146.633V144.669C118.882 143.936 119.479 143.341 120.216 143.341H120.896C121.632 143.341 122.23 142.747 122.23 142.013V140.053C122.23 139.32 121.633 138.725 120.896 138.725H118.927C118.191 138.725 117.593 138.131 117.593 137.398V135.434C117.593 134.7 118.19 134.106 118.927 134.106H120.896C121.632 134.106 122.23 133.511 122.23 132.778V130.818C122.23 130.086 121.634 129.493 120.9 129.49H102.559V134.105H97.9229V138.724H102.559V143.339H99.2121V147.958H103.239V152.577H121.575C122.311 152.577 122.909 151.982 122.909 151.249V149.285C122.909 148.551 122.312 147.957 121.575 147.957V147.961Z" fill="#F99247"/>
</g>
<path id="Vector_147" d="M142.544 129.329H102.559V129.656H142.544V129.329Z" fill="black"/>
<path id="Vector_148" d="M137.908 133.944H97.9219V134.27H137.908V133.944Z" fill="black"/>
<path id="Vector_149" d="M137.908 138.564H97.9219V138.89H137.908V138.564Z" fill="black"/>
<path id="Vector_150" d="M142.544 143.179H102.559V143.505H142.544V143.179Z" fill="black"/>
<path id="Vector_151" d="M143.223 147.798H103.237V148.124H143.223V147.798Z" fill="black"/>
</g>
<g id="Group_30">
<path id="Vector_152" d="M172.564 147.827H133.015V152.447H172.564V147.827Z" fill="#FFC931"/>
<path id="Vector_153" d="M168.581 143.207H129.035V147.827H168.581V143.207Z" fill="#FFC931"/>
<path id="Vector_154" d="M171.892 138.588H132.343V143.207H171.892V138.588Z" fill="#FFC931"/>
<path id="Vector_155" d="M167.307 133.975H127.761V138.592H167.307V133.975Z" fill="#FFC931"/>
<path id="Vector_156" d="M171.892 129.359H132.343V133.979H171.892V129.359Z" fill="#FFC931"/>
<path id="Vector_157" d="M168.581 124.74H129.035V129.36H168.581V124.74Z" fill="#FFC931"/>
<path id="Vector_158" d="M173.533 120.12H133.987V124.74H173.533V120.12Z" fill="#FFC931"/>
<path id="Vector_159" d="M168.581 115.5H129.035V120.12H168.581V115.5Z" fill="#FFC931"/>
<path id="Vector_160" d="M171.219 110.884H131.67V115.5H171.219V110.884Z" fill="#FFC931"/>
<path id="Vector_161" d="M168.581 106.264H129.035V110.884H168.581V106.264Z" fill="#FFC931"/>
<g id="Group_31" style="mix-blend-mode:multiply" opacity="0.3">
<path id="Vector_162" d="M127.772 133.975V138.592H132.357V143.208H129.05V147.828H133.029V152.448H151.158C151.889 152.448 152.479 151.852 152.479 151.12V149.154C152.479 148.655 152.204 148.219 151.797 147.99C151.61 147.886 151.389 147.828 151.158 147.828H149.815C149.583 147.828 149.366 147.769 149.18 147.666C148.772 147.437 148.497 147 148.497 146.502V144.535C148.497 144.036 148.773 143.6 149.18 143.371C149.366 143.267 149.583 143.209 149.815 143.209H150.487C150.718 143.209 150.935 143.15 151.121 143.047C151.532 142.818 151.808 142.382 151.808 141.883V139.924C151.808 139.421 151.532 138.985 151.121 138.756C150.935 138.652 150.718 138.593 150.487 138.593H148.541C148.519 138.593 148.493 138.593 148.47 138.589C148.265 138.582 148.074 138.523 147.905 138.43C147.497 138.205 147.222 137.768 147.222 137.266V135.304C147.222 134.801 147.498 134.365 147.905 134.14C148.074 134.047 148.264 133.988 148.47 133.981C148.492 133.977 148.518 133.977 148.541 133.977H150.487C150.718 133.977 150.938 133.918 151.126 133.811C151.533 133.585 151.808 133.149 151.808 132.646V130.687C151.808 130.189 151.532 129.752 151.121 129.523C150.935 129.42 150.718 129.361 150.487 129.361H149.815C149.583 129.361 149.366 129.302 149.18 129.199C148.772 128.97 148.497 128.534 148.497 128.035V126.069C148.497 125.57 148.773 125.133 149.18 124.904C149.366 124.801 149.583 124.742 149.815 124.742H152.131C152.362 124.742 152.579 124.683 152.766 124.58C153.174 124.351 153.449 123.915 153.449 123.416V121.45C153.449 120.951 153.173 120.514 152.766 120.286C152.579 120.182 152.362 120.123 152.131 120.123H149.815C149.583 120.123 149.366 120.064 149.18 119.961C148.772 119.732 148.497 119.296 148.497 118.797V116.835C148.497 116.465 148.644 116.132 148.882 115.892C148.97 115.804 149.069 115.73 149.18 115.667C149.366 115.563 149.583 115.504 149.815 115.504C150.046 115.504 150.266 115.445 150.453 115.342C150.861 115.117 151.136 114.68 151.136 114.178V112.216C151.136 111.846 150.989 111.517 150.751 111.277C150.663 111.189 150.564 111.115 150.453 111.052C150.267 110.948 150.046 110.89 149.815 110.89C149.583 110.89 149.363 110.83 149.176 110.723C148.772 110.498 148.496 110.061 148.496 109.559V107.597C148.496 106.865 147.906 106.27 147.178 106.27H129.05V110.89H131.685V115.505H129.05V120.125H134.002V124.745H129.05V129.364H132.357V133.981H127.772V133.975Z" fill="#F99247"/>
</g>
<path id="Vector_163" d="M171.22 110.719H131.687V111.045H171.22V110.719Z" fill="black"/>
<path id="Vector_164" d="M168.579 115.337H129.049V115.663H168.579V115.337Z" fill="black"/>
<path id="Vector_165" d="M173.535 119.958H134.002V120.284H173.535V119.958Z" fill="black"/>
<path id="Vector_166" d="M168.579 124.577H129.049V124.902H168.579V124.577Z" fill="black"/>
<path id="Vector_167" d="M171.89 129.196H132.357V129.522H171.89V129.196Z" fill="black"/>
<path id="Vector_168" d="M167.307 133.809H127.772V134.137H167.307V133.809Z" fill="black"/>
<path id="Vector_169" d="M167.307 138.429H127.772V138.754H167.307V138.429Z" fill="black"/>
<path id="Vector_170" d="M171.89 143.045H132.357V143.371H171.89V143.045Z" fill="black"/>
<path id="Vector_171" d="M172.562 147.664H133.029V147.99H172.562V147.664Z" fill="black"/>
</g>
<path id="Vector_172" d="M138.499 112.581C138.586 113.344 139.286 113.549 139.286 113.549C139.286 113.549 138.586 113.753 138.499 114.516C138.413 113.753 137.713 113.549 137.713 113.549C137.713 113.549 138.412 113.344 138.499 112.581Z" fill="#E6FDFF"/>
<path id="Vector_173" d="M155.018 131.747C155.217 133.503 156.826 133.974 156.826 133.974C156.826 133.974 155.217 134.445 155.018 136.2C154.819 134.444 153.21 133.974 153.21 133.974C153.21 133.974 154.819 133.502 155.018 131.747Z" fill="#E6FDFF"/>
<path id="Vector_174" d="M101.186 134.819C101.327 136.062 102.466 136.396 102.466 136.396C102.466 136.396 101.327 136.729 101.186 137.973C101.045 136.729 99.9053 136.396 99.9053 136.396C99.9053 136.396 101.045 136.062 101.186 134.819Z" fill="#E6FDFF"/>
<path id="Vector_175" d="M165.767 112.275C165.87 113.188 166.706 113.432 166.706 113.432C166.706 113.432 165.87 113.677 165.767 114.589C165.664 113.676 164.827 113.432 164.827 113.432C164.827 113.432 165.664 113.187 165.767 112.275Z" fill="#E6FDFF"/>
<path id="Vector_176" d="M166.998 139.576C167.143 140.857 168.317 141.201 168.317 141.201C168.317 141.201 167.143 141.545 166.998 142.826C166.853 141.545 165.679 141.201 165.679 141.201C165.679 141.201 166.853 140.857 166.998 139.576Z" fill="#E6FDFF"/>
<g id="Group_32">
<path id="Vector_177" d="M156.42 60.0856C156.42 60.0856 158.167 61.3827 157.586 68.7223C157.006 76.0619 153.966 67.0602 153.89 66.9069C153.815 66.7535 156.419 60.0856 156.419 60.0856H156.42Z" fill="#49263E"/>
<path id="Vector_178" d="M143.229 104.854L147.747 104.915L147.809 100.962L143.308 100.437L143.229 104.854Z" fill="#FE9F73"/>
<g id="Group_33">
<path id="Vector_179" d="M138.562 105.597H147.897V103.68C147.897 103.68 147.218 102.761 146.184 103.23C146.184 103.23 144.62 104.347 143.242 102.996L139.82 104.524C139.82 104.524 138.562 104.946 138.562 105.597Z" fill="#B5D6FB"/>
<path id="Vector_180" d="M147.931 103.68H147.862V105.309H147.931V103.68Z" fill="black"/>
<path id="Vector_181" d="M144.783 103.698C144.652 103.698 144.573 103.687 144.57 103.687L144.581 103.619C144.589 103.62 145.397 103.734 146.165 103.202L146.204 103.259C145.653 103.64 145.082 103.699 144.783 103.699V103.698Z" fill="black"/>
<path id="Vector_182" d="M147.463 104.695L147.025 104.991L147.064 105.048L147.502 104.752L147.463 104.695Z" fill="black"/>
<path id="Vector_183" d="M147.149 104.612L146.712 104.909L146.75 104.966L147.187 104.669L147.149 104.612Z" fill="black"/>
<path id="Vector_184" d="M138.354 105.344H148.035C148.079 105.344 148.115 105.38 148.115 105.425V106.189C148.115 106.232 148.079 106.269 148.035 106.269H138.354C138.245 106.269 138.156 106.18 138.156 106.07V105.544C138.156 105.434 138.245 105.345 138.354 105.345V105.344Z" fill="#472A31"/>
<path id="Vector_185" d="M138.646 105.36L138.584 105.33C138.591 105.314 138.78 104.926 139.48 104.626C140.169 104.33 143.197 102.978 143.228 102.964L143.256 103.027C143.225 103.041 140.196 104.394 139.507 104.69C138.833 104.979 138.648 105.356 138.646 105.36V105.36Z" fill="black"/>
<path id="Vector_186" d="M138.296 106.185C138.186 106.091 138.122 105.953 138.122 105.807C138.122 105.533 138.344 105.31 138.615 105.31H147.885C148.031 105.31 148.149 105.429 148.149 105.576V106.037H148.081V105.576C148.081 105.468 147.993 105.379 147.885 105.379H138.615C138.381 105.379 138.191 105.571 138.191 105.807C138.191 105.932 138.245 106.051 138.34 106.133L138.296 106.185Z" fill="black"/>
</g>
<path id="Vector_187" d="M152.416 104.854L156.934 104.915L156.995 100.962L152.494 100.437L152.416 104.854Z" fill="#FE9F73"/>
<path id="Vector_188" d="M150.705 60.2486C150.705 60.2486 150.153 86.4687 148.251 101.601C148.251 101.601 145.718 102.404 142.534 100.905L142.399 62.2588L141.938 56.4693L150.704 60.2486H150.705Z" fill="#3A1F33"/>
<path id="Vector_189" d="M157.399 63.1202C157.399 63.1202 158.503 86.3495 157.257 101.58C157.257 101.58 154.891 103.081 151.646 101.782L147.723 64.6461L146.057 54.7098L157.399 63.1202Z" fill="#49263E"/>
<path id="Vector_190" d="M154.044 102.369C155.834 102.369 157.275 101.67 157.296 101.661L157.335 101.641L157.343 101.597C158.409 95.7876 157.729 67.1583 157.722 66.8696C157.721 66.8217 157.681 66.7836 157.634 66.7836H157.632C157.583 66.7852 157.545 66.8249 157.546 66.8736C157.553 67.1616 158.229 95.627 157.179 101.52C156.823 101.683 154.147 102.83 151.682 101.702C151.639 101.682 151.587 101.702 151.566 101.746C151.546 101.79 151.566 101.842 151.61 101.863C152.429 102.237 153.27 102.368 154.044 102.368V102.369Z" fill="black"/>
<path id="Vector_191" d="M146.428 101.887C147.005 101.887 147.623 101.83 148.27 101.688C148.317 101.678 148.347 101.631 148.337 101.584C148.326 101.536 148.278 101.507 148.233 101.516C145.324 102.156 142.972 101.032 142.622 100.852L142.487 65.8402C142.487 65.7915 142.448 65.7526 142.4 65.7526C142.351 65.7526 142.312 65.7923 142.313 65.841L142.448 100.957L142.493 100.983C142.513 100.994 144.142 101.888 146.429 101.888L146.428 101.887Z" fill="black"/>
<path id="Vector_192" d="M155.825 102.156C155.873 102.156 155.912 102.117 155.913 102.07L156.067 91.7001C156.067 91.6514 156.029 91.6117 155.981 91.6108H155.979C155.931 91.6108 155.892 91.6498 155.891 91.6976L155.737 102.067C155.737 102.116 155.775 102.155 155.824 102.156H155.825Z" fill="black"/>
<path id="Vector_193" d="M146.322 101.888C146.368 101.888 146.407 101.851 146.41 101.804L146.987 91.7025C146.99 91.6538 146.953 91.6124 146.905 91.6092C146.857 91.6043 146.816 91.6432 146.812 91.6919L146.235 101.794C146.233 101.842 146.269 101.884 146.318 101.887C146.319 101.887 146.321 101.887 146.322 101.887V101.888Z" fill="black"/>
<g id="Group_34">
<path id="Vector_194" d="M147.747 105.597H157.082V103.68C157.082 103.68 156.403 102.761 155.369 103.23C155.369 103.23 153.805 104.347 152.427 102.996L149.004 104.524C149.004 104.524 147.747 104.946 147.747 105.597Z" fill="#B5D6FB"/>
<path id="Vector_195" d="M157.116 103.68H157.048V105.309H157.116V103.68Z" fill="black"/>
<path id="Vector_196" d="M153.969 103.698C153.837 103.698 153.758 103.687 153.756 103.687L153.766 103.619C153.774 103.62 154.583 103.734 155.35 103.202L155.389 103.259C154.839 103.64 154.268 103.699 153.969 103.699V103.698Z" fill="black"/>
<path id="Vector_197" d="M156.648 104.695L156.21 104.992L156.248 105.049L156.686 104.752L156.648 104.695Z" fill="black"/>
<path id="Vector_198" d="M156.334 104.583L155.897 104.88L155.936 104.937L156.373 104.64L156.334 104.583Z" fill="black"/>
<path id="Vector_199" d="M147.539 105.344H157.221C157.264 105.344 157.3 105.38 157.3 105.425V106.189C157.3 106.232 157.265 106.269 157.221 106.269H147.539C147.43 106.269 147.342 106.18 147.342 106.07V105.544C147.342 105.434 147.43 105.345 147.539 105.345V105.344Z" fill="#683D46"/>
<path id="Vector_200" d="M147.832 105.36L147.77 105.33C147.777 105.314 147.965 104.926 148.666 104.626C149.354 104.33 152.383 102.978 152.413 102.964L152.441 103.027C152.411 103.041 149.382 104.394 148.693 104.69C148.019 104.979 147.834 105.356 147.832 105.36V105.36Z" fill="black"/>
<path id="Vector_201" d="M147.482 106.185C147.371 106.091 147.308 105.953 147.308 105.807C147.308 105.533 147.529 105.31 147.801 105.31H157.07C157.216 105.31 157.335 105.429 157.335 105.576V106.037H157.266V105.576C157.266 105.468 157.178 105.379 157.07 105.379H147.801C147.566 105.379 147.376 105.571 147.376 105.807C147.376 105.932 147.431 106.051 147.526 106.133L147.482 106.185Z" fill="black"/>
</g>
<g id="Group_35">
<path id="Vector_202" d="M157.756 21.3587C162.593 16.4887 162.593 8.59286 157.756 3.72286C152.918 -1.14713 145.075 -1.14714 140.238 3.72286C135.4 8.59286 135.4 16.4887 140.238 21.3587C145.075 26.2287 152.918 26.2287 157.756 21.3587Z" fill="#F97923"/>
<path id="Vector_203" d="M156.573 20.1673C160.757 15.9553 160.757 9.12624 156.573 4.91422C152.389 0.702191 145.605 0.702195 141.421 4.91422C137.237 9.12625 137.237 15.9553 141.421 20.1673C145.605 24.3793 152.389 24.3793 156.573 20.1673Z" fill="#FFC931"/>
<path id="Vector_204" d="M152.821 13.0512C152.382 12.5248 151.56 12.0153 150.356 11.5221C150.104 11.4191 149.756 11.2844 149.315 11.1165C147.876 10.5706 147.153 9.98168 147.144 9.34814C147.138 8.9393 147.279 8.6132 147.569 8.37065C147.858 8.12811 148.255 8.00319 148.762 7.99588C149.285 7.98858 149.727 8.10945 150.086 8.3593C150.446 8.60995 150.76 9.01312 151.03 9.56959L153.141 8.75759C152.799 7.86042 152.274 7.18632 151.563 6.73692C151.097 6.44246 150.556 6.24777 149.941 6.15286L149.918 4.50128L147.85 4.53048L147.873 6.18774C147.132 6.33214 146.503 6.6266 145.988 7.07275C145.247 7.7144 144.885 8.53938 144.899 9.54769C144.907 10.1423 145.04 10.672 145.297 11.1392C145.554 11.6065 145.922 11.9877 146.399 12.2838C146.882 12.5913 147.736 12.9604 148.962 13.3911C149.141 13.4503 149.278 13.499 149.374 13.5363C150.073 13.7845 150.558 14.0368 150.829 14.2931C151.1 14.5495 151.238 14.8715 151.243 15.2585C151.249 15.746 151.075 16.1354 150.717 16.4266C150.358 16.7178 149.868 16.8679 149.245 16.876C148.694 16.8841 148.214 16.7381 147.806 16.4379C147.399 16.1378 147.026 15.6576 146.688 14.9948L144.58 15.9747C145.001 16.9555 145.611 17.692 146.412 18.1852C146.895 18.4837 147.442 18.6874 148.051 18.7993L148.076 20.5774L150.143 20.5482L150.119 18.8439C151.059 18.7206 151.823 18.3945 152.408 17.8648C153.15 17.1931 153.513 16.2797 153.497 15.1254C153.485 14.268 153.259 13.5761 152.821 13.0496V13.0512Z" fill="#F97923"/>
<g id="Group_36" style="mix-blend-mode:multiply" opacity="0.2">
<path id="Vector_205" d="M156.596 4.93933C153.229 13.3968 144.263 16.3812 139.428 17.3951C141.217 20.9619 144.913 23.385 149.148 23.3249C155.064 23.2406 159.792 18.3442 159.709 12.3885C159.668 9.47793 158.485 6.85293 156.596 4.93933Z" fill="#F97923"/>
</g>
<path id="Vector_206" d="M142.854 23.4588C144.759 24.549 146.925 25.1144 149.173 25.082C149.213 25.082 149.244 25.0487 149.244 25.0098C149.244 24.97 149.211 24.9384 149.172 24.9392C145.883 24.9863 142.772 23.7403 140.413 21.4316C138.055 19.123 136.73 16.0283 136.683 12.7162C136.587 5.88032 142.033 0.240127 148.825 0.142785C148.864 0.142785 148.895 0.109526 148.895 0.0705887C148.895 0.0308404 148.862 -0.000795931 148.823 1.52577e-05C141.954 0.097358 136.445 5.80326 136.541 12.7178C136.588 16.068 137.928 19.1984 140.315 21.5338C141.088 22.2907 141.942 22.9356 142.855 23.458L142.854 23.4588Z" fill="#21111D"/>
<path id="Vector_207" d="M149.113 23.3874C149.123 23.3939 149.136 23.3971 149.149 23.3963C155.095 23.312 159.864 18.3726 159.781 12.3869C159.697 6.4011 154.79 1.59886 148.845 1.68404C148.805 1.68404 148.774 1.7173 148.774 1.75623C148.774 1.79598 148.807 1.82762 148.846 1.82681C151.689 1.78625 154.377 2.8627 156.415 4.85741C158.453 6.85212 159.598 9.52661 159.638 12.3885C159.721 18.2956 155.014 23.1692 149.147 23.2527C149.107 23.2527 149.076 23.286 149.077 23.3249C149.077 23.3517 149.091 23.3744 149.113 23.3866V23.3874Z" fill="#21111D"/>
<path id="Vector_208" d="M141.489 6.36133C141.489 6.36133 141.493 6.36376 141.496 6.36538C141.532 6.3808 141.574 6.36376 141.589 6.32807C141.598 6.30779 142.484 4.27414 144.43 3.53515C144.467 3.52136 144.485 3.47998 144.471 3.44267C144.457 3.40617 144.416 3.3867 144.379 3.4013C142.376 4.16219 141.467 6.2502 141.458 6.27129C141.443 6.30536 141.457 6.34429 141.488 6.36214L141.489 6.36133Z" fill="#21111D"/>
<path id="Vector_209" d="M142.477 7.14008C142.477 7.14008 142.482 7.14251 142.484 7.14332C142.52 7.15873 142.562 7.1417 142.578 7.10601C142.586 7.08573 143.472 5.05208 145.418 4.31389C145.455 4.3001 145.474 4.25873 145.459 4.22142C145.445 4.18491 145.404 4.16545 145.367 4.18005C143.364 4.94094 142.455 7.02894 142.446 7.05003C142.432 7.0841 142.445 7.12304 142.476 7.14089L142.477 7.14008Z" fill="#21111D"/>
<path id="Vector_210" d="M145.953 7.13603C145.978 7.15063 146.011 7.1482 146.034 7.12792C146.536 6.69231 147.16 6.40028 147.887 6.25913L147.946 6.24778L147.922 4.53049C147.922 4.49074 147.889 4.4591 147.85 4.45992C147.81 4.45992 147.779 4.49317 147.78 4.53211L147.802 6.13015C147.076 6.28022 146.45 6.57874 145.943 7.01922C145.913 7.04517 145.91 7.0906 145.935 7.12062C145.941 7.1271 145.947 7.13197 145.954 7.13603H145.953Z" fill="#21111D"/>
<path id="Vector_211" d="M147.109 9.41064C147.119 9.41713 147.132 9.42037 147.145 9.41956C147.184 9.41956 147.216 9.3863 147.215 9.34736C147.209 8.95718 147.34 8.65623 147.614 8.42666C147.889 8.19629 148.275 8.07542 148.763 8.06893C149.268 8.06163 149.7 8.18006 150.046 8.42018C150.394 8.66191 150.703 9.05939 150.967 9.60289L150.996 9.66211L153.233 8.80143L153.208 8.7341C152.862 7.82638 152.322 7.13444 151.602 6.67855C151.13 6.38003 150.575 6.18048 149.952 6.08395C149.914 6.07827 149.877 6.10504 149.871 6.14398C149.865 6.18292 149.892 6.21942 149.931 6.22591C150.534 6.3192 151.071 6.51226 151.526 6.80023C152.202 7.22773 152.714 7.87343 153.049 8.71869L151.066 9.48121C150.798 8.94583 150.482 8.54915 150.127 8.30255C149.756 8.04459 149.297 7.91886 148.761 7.92616C148.24 7.93346 147.823 8.06487 147.523 8.31715C147.218 8.57268 147.067 8.92068 147.072 9.35061C147.072 9.37738 147.087 9.40009 147.109 9.41226V9.41064Z" fill="#21111D"/>
<path id="Vector_212" d="M150.108 20.6131C150.119 20.6196 150.131 20.6229 150.144 20.6221C150.184 20.6221 150.215 20.5888 150.214 20.5499L150.191 18.9088C151.115 18.7774 151.876 18.4448 152.456 17.92C153.211 17.2362 153.585 16.296 153.568 15.1263C153.568 15.0865 153.535 15.0549 153.496 15.0557C153.457 15.0557 153.425 15.0889 153.426 15.1279C153.442 16.2554 153.084 17.1591 152.361 17.8137C151.79 18.3304 151.032 18.6541 150.11 18.7758L150.047 18.7839L150.072 20.5523C150.072 20.5791 150.086 20.6018 150.108 20.6139V20.6131Z" fill="#21111D"/>
<path id="Vector_213" d="M146.494 18.3199C146.953 18.5827 147.471 18.7685 148.037 18.8723C148.076 18.8796 148.113 18.8537 148.12 18.8147C148.128 18.7758 148.102 18.7385 148.063 18.7312C147.465 18.6209 146.924 18.4189 146.448 18.126C145.682 17.6539 145.085 16.9433 144.673 16.0121L146.656 15.0898C146.99 15.7282 147.362 16.2011 147.764 16.4972C148.183 16.8046 148.681 16.9571 149.245 16.9482C149.882 16.9393 150.392 16.7827 150.761 16.4826C151.135 16.1784 151.321 15.7663 151.314 15.2577C151.308 14.8529 151.161 14.5106 150.877 14.2413C150.848 14.2145 150.803 14.2153 150.776 14.2445C150.75 14.2737 150.75 14.3183 150.779 14.3459C151.034 14.5876 151.166 14.8951 151.172 15.2601C151.178 15.729 151.015 16.0924 150.672 16.3714C150.328 16.6505 149.848 16.7965 149.244 16.8054C148.71 16.8127 148.241 16.67 147.848 16.3812C147.451 16.0891 147.082 15.6122 146.751 14.9632L146.719 14.9024L144.486 15.9407L144.514 16.0048C144.938 16.9944 145.564 17.7497 146.373 18.2485C146.413 18.2729 146.452 18.2964 146.493 18.3199H146.494Z" fill="#21111D"/>
</g>
<g id="Group_37">
<path id="Vector_214" d="M145.354 35.4108C145.354 35.4108 144.37 34.0489 145.808 32.4176C147.247 30.7863 147.984 32.867 148.688 32.9221C149.393 32.9773 150.538 32.4784 151.247 33.6287C151.955 34.7789 151.899 35.7475 152.637 35.7929C153.376 35.8383 156.042 37.133 155.942 39.5982C155.841 42.0634 153.552 42.4163 153.552 42.4163C153.552 42.4163 144.747 44.6779 143.662 42.4787C142.576 40.2796 143.224 39.0912 144.187 38.0675C144.779 37.438 146.088 36.7428 145.353 35.4108H145.354Z" fill="#2F0E1B"/>
<g id="Group_38">
<path id="Vector_215" d="M146.426 35.9438C146.426 35.9438 146.343 39.2843 146.979 39.9438C146.979 39.9438 147.294 40.2975 147.937 40.2301L148.188 42.2824L151.065 41.9255L150.241 35.1918L146.426 35.9446V35.9438Z" fill="#FE9F73"/>
<path id="Vector_216" d="M147.682 38.4025C147.694 38.4009 147.704 38.3912 147.705 38.3782C147.707 38.3636 147.696 38.3506 147.681 38.349C147.508 38.3336 147.376 38.1373 147.337 38.0732C147.561 37.9142 147.687 37.7292 147.711 37.5208C147.75 37.1817 147.506 36.9099 147.497 36.8986C147.487 36.888 147.47 36.8872 147.46 36.897C147.449 36.9067 147.448 36.9237 147.458 36.9343C147.46 36.9367 147.696 37.2003 147.659 37.5151C147.636 37.713 147.511 37.8907 147.288 38.0432L147.269 38.057L147.28 38.078C147.286 38.0902 147.443 38.3814 147.678 38.4025C147.679 38.4025 147.682 38.4025 147.684 38.4025H147.682Z" fill="#F07162"/>
<path id="Vector_217" d="M148.038 41.0551L147.938 40.2293C147.938 40.2293 149.314 39.9754 150.099 39.3305C150.099 39.3305 149.081 40.5911 148.039 41.0551H148.038Z" fill="#F07162"/>
<path id="Vector_218" d="M149.118 36.8126C149.13 36.811 149.143 36.8045 149.152 36.7931C149.171 36.7704 149.168 36.7372 149.145 36.7185C149.138 36.712 148.381 36.1036 147.828 36.6788C147.807 36.6998 147.807 36.7331 147.828 36.7542C147.849 36.7745 147.883 36.7745 147.903 36.7534C148.389 36.2496 149.051 36.7793 149.078 36.8021C149.089 36.8118 149.104 36.815 149.118 36.8134V36.8126Z" fill="#2F0E1B"/>
<path id="Vector_219" d="M147.282 36.9229C147.296 36.9213 147.31 36.9132 147.319 36.8994C147.335 36.875 147.329 36.8418 147.304 36.8256C147.283 36.811 146.767 36.467 146.502 36.759C146.482 36.7809 146.484 36.8142 146.505 36.8345C146.527 36.8539 146.56 36.8531 146.58 36.8312C146.783 36.6065 147.241 36.9115 147.246 36.914C147.257 36.9213 147.269 36.9237 147.282 36.9229Z" fill="#2F0E1B"/>
<path id="Vector_220" d="M146.732 37.4064C146.741 37.4875 146.815 37.5451 146.896 37.5353C146.976 37.5256 147.034 37.4518 147.024 37.3699C147.014 37.2887 146.941 37.2311 146.86 37.2409C146.779 37.2506 146.722 37.3244 146.732 37.4064Z" fill="#010103"/>
<path id="Vector_221" d="M148.181 37.2044C148.19 37.2855 148.264 37.3431 148.345 37.3334C148.426 37.3236 148.483 37.2498 148.473 37.1679C148.464 37.0868 148.39 37.0292 148.309 37.0389C148.228 37.0486 148.171 37.1225 148.181 37.2044Z" fill="#010103"/>
<path id="Vector_222" d="M149.959 37.6449C150.015 38.0999 150.427 38.4236 150.879 38.3676C151.331 38.3117 151.652 37.8972 151.597 37.4421C151.541 36.987 151.129 36.6633 150.677 36.7193C150.225 36.7753 149.904 37.1898 149.959 37.6449Z" fill="#FE9F73"/>
<path id="Vector_223" d="M150.901 38.0448C151.073 38.0237 151.172 37.8793 151.194 37.7446C151.22 37.5856 151.15 37.4421 151.017 37.3804C150.826 37.292 150.673 37.3764 150.593 37.4429C150.617 37.3504 150.663 37.2798 150.73 37.232C150.88 37.1233 151.085 37.1638 151.088 37.1638C151.102 37.1671 151.116 37.1573 151.119 37.1427C151.122 37.1281 151.113 37.1143 151.098 37.1111C151.088 37.1095 150.868 37.0657 150.699 37.1882C150.602 37.2587 150.544 37.3691 150.526 37.5167L150.515 37.6116L150.573 37.537C150.581 37.528 150.751 37.3155 150.996 37.4291C151.131 37.4924 151.159 37.6343 151.143 37.7365C151.125 37.8444 151.05 37.975 150.892 37.9929C150.877 37.9945 150.867 38.0075 150.868 38.0221C150.87 38.0367 150.883 38.0472 150.897 38.0456C150.899 38.0456 150.901 38.0456 150.902 38.0456L150.901 38.0448Z" fill="#F07162"/>
</g>
<path id="Vector_224" d="M146.427 35.9438C146.427 35.9438 146.52 34.6443 148.19 34.2954C149.859 33.9466 150.241 35.191 150.241 35.191L148.365 35.8229L146.55 35.9194L146.427 35.9438Z" fill="#FE9F73"/>
<path id="Vector_225" d="M146.295 34.869C146.295 34.869 147.47 35.7726 148.803 35.3695C148.803 35.3695 149.462 36.9862 150.437 36.7874C151.412 36.5879 150.592 34.336 150.592 34.336C150.592 34.336 148.659 33.8095 148.542 33.8242C148.425 33.8388 146.458 33.9637 146.458 33.9637L146.295 34.869Z" fill="#2F0E1B"/>
<path id="Vector_226" d="M147.468 38.8C147.481 38.7927 148.423 38.4771 148.423 38.4771C148.423 38.4771 148.424 38.9087 148.075 39.0263C147.725 39.1447 147.468 38.8 147.468 38.8Z" fill="#FBFDFA"/>
</g>
<g id="Group_39">
<path id="Vector_227" d="M159.496 43.7864C159.496 43.7864 164.175 38.2849 163.679 36.7817C163.184 35.2786 157.226 24.7559 157.226 24.7559L154.278 25.8356L159.203 36.6098L156.787 39.6104L159.497 43.7864H159.496Z" fill="#FE9F73"/>
<g id="Group_40">
<path id="Vector_228" d="M155.749 22.5073C155.693 22.6841 154.952 23.5326 154.657 23.8287C154.657 23.8311 154.657 23.8319 154.657 23.8319C153.868 24.5912 153.958 25.8859 154.845 26.5275L155.301 26.8569C155.301 26.8569 157.059 25.1112 157.292 24.8354C157.525 24.5596 158.003 23.372 158.001 22.8861C157.997 22.0051 157.703 22.302 157.703 22.302C157.615 21.387 157.196 21.9273 157.196 21.9273C157.188 21.1007 156.697 21.5322 156.697 21.5322C156.647 21.0844 156.483 21.0414 156.358 21.0812C156.267 21.1104 156.198 21.1834 156.167 21.2734C156.092 21.486 155.906 22.0173 155.748 22.5073H155.749Z" fill="#FE9F73"/>
<path id="Vector_229" d="M156.564 22.4205C156.554 22.4351 156.534 22.4424 156.516 22.4359C156.493 22.4286 156.481 22.4034 156.488 22.3807C156.594 22.0611 156.654 21.5322 156.654 21.5273C156.657 21.5038 156.679 21.486 156.702 21.4892C156.725 21.4916 156.743 21.5135 156.74 21.5371C156.737 21.559 156.679 22.0798 156.57 22.4083C156.568 22.4123 156.567 22.4164 156.563 22.4205H156.564Z" fill="#F07162"/>
<path id="Vector_230" d="M157.005 22.7474C156.993 22.7636 156.971 22.7701 156.951 22.7604C156.93 22.7498 156.921 22.7239 156.931 22.702C157.108 22.3329 157.153 21.9265 157.154 21.9224C157.156 21.8981 157.178 21.881 157.201 21.8835C157.225 21.8859 157.242 21.9078 157.24 21.9313C157.238 21.9484 157.194 22.3564 157.009 22.7401C157.009 22.7425 157.007 22.745 157.005 22.7466V22.7474Z" fill="#F07162"/>
<path id="Vector_231" d="M157.565 23.0418C157.553 23.058 157.531 23.0645 157.513 23.0556C157.491 23.0459 157.481 23.0199 157.491 22.998C157.635 22.6743 157.659 22.3028 157.66 22.2996C157.662 22.2752 157.682 22.2574 157.706 22.259C157.73 22.2606 157.748 22.2809 157.746 22.3053C157.746 22.3207 157.721 22.6962 157.57 23.0337C157.568 23.0369 157.567 23.0394 157.565 23.0418Z" fill="#F07162"/>
</g>
</g>
<g id="Group_41">
<path id="Vector_232" d="M139.714 42.4284C139.714 42.4284 136.568 39.3849 136.872 37.8306C137.176 36.2764 141.768 25.082 141.768 25.082L144.828 25.7788L141.292 37.0924L143.202 39.6225L139.715 42.4284H139.714Z" fill="#FE9F73"/>
<g id="Group_42">
<path id="Vector_233" d="M142.951 22.6638C143.029 22.8325 143.871 23.5796 144.2 23.836C144.2 23.8384 144.2 23.8392 144.2 23.8392C145.078 24.4922 145.151 25.7877 144.351 26.5364L143.94 26.9217C143.94 26.9217 141.978 25.4137 141.712 25.1695C141.446 24.9254 140.824 23.8076 140.766 23.3257C140.658 22.4513 140.987 22.7084 140.987 22.7084C140.961 21.7893 141.442 22.272 141.442 22.272C141.347 21.4502 141.888 21.8169 141.888 21.8169C141.882 21.3667 142.038 21.3026 142.168 21.3269C142.261 21.344 142.338 21.4081 142.381 21.4932C142.483 21.6944 142.733 22.1982 142.95 22.6638H142.951Z" fill="#FE9F73"/>
<path id="Vector_234" d="M142.132 22.6808C142.145 22.6938 142.165 22.6987 142.182 22.6898C142.203 22.6792 142.212 22.6533 142.202 22.6314C142.057 22.3272 141.931 21.8113 141.93 21.8056C141.925 21.7821 141.901 21.7683 141.878 21.7731C141.855 21.7788 141.841 21.8023 141.846 21.8259C141.851 21.8478 141.975 22.3564 142.124 22.6687C142.125 22.6727 142.129 22.6768 142.131 22.68L142.132 22.6808Z" fill="#F07162"/>
<path id="Vector_235" d="M141.734 23.0613C141.748 23.0759 141.771 23.0791 141.789 23.0678C141.809 23.0548 141.814 23.028 141.802 23.0077C141.579 22.6638 141.485 22.2663 141.483 22.2622C141.478 22.2387 141.454 22.2241 141.431 22.2298C141.408 22.2355 141.393 22.259 141.399 22.2825C141.403 22.2996 141.498 22.6987 141.728 23.0556C141.73 23.058 141.731 23.0596 141.733 23.0621L141.734 23.0613Z" fill="#F07162"/>
<path id="Vector_236" d="M141.216 23.4247C141.229 23.4393 141.252 23.4425 141.27 23.432C141.29 23.4198 141.296 23.393 141.284 23.3719C141.101 23.0694 141.029 22.7043 141.029 22.7003C141.025 22.6767 141.002 22.6613 140.979 22.6654C140.955 22.6702 140.94 22.693 140.944 22.7165C140.947 22.7319 141.019 23.101 141.21 23.4174C141.212 23.4198 141.213 23.4222 141.216 23.4247Z" fill="#F07162"/>
</g>
</g>
<path id="Vector_237" d="M137.788 41.1411C137.788 41.1411 139.314 38.3035 142.05 37.3309L145.671 41.283L153.348 41.3382L157.744 37.8136C157.744 37.8136 160.061 38.6929 161.556 41.7016L156.724 46.9541C156.724 46.9541 154.709 51.7409 154.718 52.269C154.727 52.7971 157.955 63.3247 157.955 63.3247C157.955 63.3247 148.394 67.6524 142.3 64.0645C142.3 64.0645 141.055 50.662 142.297 46.6807L137.787 41.1411H137.788Z" fill="#FEC786"/>
<path id="Vector_238" d="M152.411 41.3317C152.411 41.3317 151.931 42.8129 149.485 42.9817C147.039 43.1504 146.259 41.2871 146.259 41.2871C146.259 41.2871 150.019 41.1541 152.411 41.3317Z" fill="#FE9F73"/>
<path id="Vector_239" d="M142.018 61.1791C141.543 57.7047 141.664 50.434 141.907 48.1197C142.028 46.9605 142.523 45.9522 142.916 45.3098C143.342 44.6146 143.734 44.1984 143.75 44.1814L143.849 44.2763C143.833 44.2925 142.27 45.9652 142.042 48.1343C141.801 50.443 141.68 57.695 142.154 61.1604L142.018 61.1791Z" fill="black"/>
<path id="Vector_240" d="M142.246 46.7237L137.708 41.1492L137.729 41.1086C137.733 41.1013 138.11 40.3753 138.824 39.5446C139.484 38.7764 140.576 37.7584 142.03 37.2652L142.074 37.3958C140.65 37.8785 139.578 38.8778 138.93 39.6322C138.32 40.3412 137.959 40.9723 137.872 41.1329L142.353 46.6369L142.247 46.7237H142.246Z" fill="black"/>
<path id="Vector_241" d="M156.613 59.3823C156.529 59.1211 154.556 52.9739 154.652 52.2593C154.747 51.5511 155.837 48.931 155.883 48.8198L156.009 48.8734C155.997 48.9001 154.879 51.5876 154.787 52.2787C154.714 52.8263 156.035 57.1378 156.744 59.3409L156.614 59.3831L156.613 59.3823Z" fill="black"/>
<path id="Vector_242" d="M139.31 37.8639C139.261 37.8639 139.217 37.833 139.202 37.7844C139.182 37.7243 139.216 37.6594 139.275 37.64L141.307 36.978C141.367 36.9586 141.431 36.9918 141.451 37.0519C141.47 37.1119 141.437 37.1768 141.377 37.1963L139.345 37.8582C139.334 37.8622 139.322 37.8639 139.311 37.8639H139.31Z" fill="#F07162"/>
<path id="Vector_243" d="M160.961 37.2701C160.949 37.2701 160.937 37.2684 160.925 37.2644L159.14 36.6617C159.081 36.6414 159.048 36.5765 159.069 36.5165C159.089 36.4564 159.153 36.424 159.213 36.4443L160.998 37.047C161.057 37.0673 161.089 37.1322 161.069 37.1922C161.053 37.2401 161.009 37.2701 160.961 37.2701Z" fill="#F07162"/>
</g>
<path id="Vector_244" d="M212 152.342H0V152.941H212V152.342Z" fill="black"/>
<path id="Vector_245" d="M115.474 50.2937H130.94C130.992 50.0082 130.897 49.6959 130.607 49.4955C129.93 49.0307 128.954 49.2384 128.954 49.2384C128.954 49.2384 130.023 44.7347 126.999 44.192C123.974 43.6501 122.978 46.7464 122.978 46.7464C123.026 44.69 118.099 40.8199 115.266 44.8717C114.531 45.9239 114.246 46.8527 114.228 47.6509C114.204 48.7265 114.701 49.6805 115.475 50.2929L115.474 50.2937Z" fill="white"/>
<path id="Vector_246" d="M112.259 66.7608C112.338 66.4558 112.275 66.1127 112.015 65.8418C111.638 65.45 111.001 65.1352 109.936 65.0768C109.936 65.0768 110.202 58.4332 105.215 58.0698C99.4952 57.6528 99.525 64.1756 99.525 64.1756C99.525 64.1756 96.891 61.7339 95.0659 64.9081C95.0659 64.9081 91.8017 63.0748 90.2215 66.5775C90.1941 66.6384 90.1796 66.7 90.1748 66.7617H112.26L112.259 66.7608Z" fill="white"/>
</g>
</g>
</g>
</g>
<defs>
<clipPath id="clip0_42_2339">
<rect width="212" height="153" fill="white"/>
</clipPath>
</defs>
</svg>
