<svg width="172" height="121" viewBox="0 0 172 121" fill="none" xmlns="http://www.w3.org/2000/svg">
<g id="OBJECTS" clip-path="url(#clip0_43_2629)">
<g id="Group">
<path id="Vector" d="M24.2588 117.148C27.5567 111.506 30.02 105.489 29.6623 99.0656C29.2355 91.3875 24.8331 84.6108 21.055 77.9192C15.57 68.2049 11.086 57.5955 10.5839 46.4376C10.085 35.2797 14.1391 23.4662 23.0413 16.7746C28.5797 12.6141 35.4705 10.7197 42.2797 9.50624C49.183 8.27383 56.3939 7.6655 63.1247 9.63547C72.4818 12.3745 79.6801 19.665 87.4809 25.5339C99.8348 34.8258 114.545 40.928 129.827 43.0934C138.242 44.2879 147.452 44.5559 153.995 50.0024C162.021 56.6845 162.994 68.7565 161.196 79.0697C159.398 89.3828 155.473 99.4974 156.059 109.956C156.279 113.886 157.318 118.075 160.321 120.6" stroke="#8EE4FD" stroke-width="2.54" stroke-linecap="round" stroke-linejoin="round"/>
<g id="Group_2">
<path id="Vector_2" d="M156.103 43.3329C157.573 43.3329 158.764 42.1362 158.764 40.66C158.764 39.1839 157.573 37.9872 156.103 37.9872C154.634 37.9872 153.442 39.1839 153.442 40.66C153.442 42.1362 154.634 43.3329 156.103 43.3329Z" fill="#8EE4FD"/>
<path id="Vector_3" d="M92.9576 19.7164C93.3431 18.292 92.5061 16.8233 91.088 16.436C89.6699 16.0487 88.2077 16.8895 87.8221 18.314C87.4366 19.7384 88.2736 21.2071 89.6917 21.5944C91.1099 21.9817 92.572 21.1409 92.9576 19.7164Z" fill="#8EE4FD"/>
<path id="Vector_4" d="M18.29 48.2783C18.29 49.2365 17.5149 50.015 16.561 50.015C15.6071 50.015 14.832 49.2365 14.832 48.2783C14.832 47.3201 15.6071 46.5416 16.561 46.5416C17.5149 46.5416 18.29 47.3201 18.29 48.2783Z" fill="#8EE4FD"/>
<path id="Vector_5" d="M4.18901 73.7996C5.36399 73.7996 6.31649 72.8428 6.31649 71.6626C6.31649 70.4823 5.36399 69.5256 4.18901 69.5256C3.01403 69.5256 2.06152 70.4823 2.06152 71.6626C2.06152 72.8428 3.01403 73.7996 4.18901 73.7996Z" fill="#8EE4FD"/>
<path id="Vector_6" d="M91.453 18.483C93.0699 18.483 94.3807 17.1663 94.3807 15.5422C94.3807 13.9181 93.0699 12.6014 91.453 12.6014C89.8361 12.6014 88.5254 13.9181 88.5254 15.5422C88.5254 17.1663 89.8361 18.483 91.453 18.483Z" stroke="#8EE4FD" stroke-width="1.27" stroke-miterlimit="10"/>
<path id="Vector_7" d="M159.028 43.8687C160.203 43.8687 161.155 42.9119 161.155 41.7317C161.155 40.5514 160.203 39.5947 159.028 39.5947C157.853 39.5947 156.9 40.5514 156.9 41.7317C156.9 42.9119 157.853 43.8687 159.028 43.8687Z" stroke="#8EE4FD" stroke-width="1.27" stroke-miterlimit="10"/>
<path id="Vector_8" d="M171.748 83.1268C172.098 81.3152 170.919 79.5623 169.115 79.2114C167.312 78.8606 165.567 80.0448 165.217 81.8563C164.868 83.6679 166.047 85.4209 167.85 85.7717C169.654 86.1225 171.399 84.9383 171.748 83.1268Z" stroke="#8EE4FD" stroke-width="1.27" stroke-miterlimit="10"/>
<path id="Vector_9" d="M2.85819 71.6626C4.32778 71.6626 5.51912 70.4659 5.51912 68.9897C5.51912 67.5136 4.32778 66.3169 2.85819 66.3169C1.3886 66.3169 0.197266 67.5136 0.197266 68.9897C0.197266 70.4659 1.3886 71.6626 2.85819 71.6626Z" stroke="#8EE4FD" stroke-width="1.27" stroke-miterlimit="10"/>
</g>
</g>
<g id="Group_3">
<g id="Group_4">
<path id="Vector_10" d="M48.3867 20.5097H6.35156V35.4751H48.3867V20.5097Z" fill="#FCB13A"/>
<g id="Group_5">
<path id="Vector_11" d="M36.4812 25.4173H23.71V27.0216H36.4812V25.4173Z" fill="white"/>
<path id="Vector_12" d="M44.7275 28.9601H23.71V30.5644H44.7275V28.9601Z" fill="white"/>
</g>
<g id="Group_6">
<path id="Vector_13" d="M19.7606 32.0078C21.9688 29.7897 21.9688 26.1935 19.7606 23.9753C17.5524 21.7572 13.9721 21.7572 11.7639 23.9753C9.55573 26.1935 9.55573 29.7897 11.7639 32.0078C13.9721 34.2259 17.5524 34.2259 19.7606 32.0078Z" fill="white"/>
<g id="Group_7">
<path id="Vector_14" d="M15.7346 31.1318L12.1543 28.4715L12.8635 27.507L15.402 29.3887L17.724 25.6096L18.7407 26.2399L15.7346 31.1318Z" fill="#00A2DD"/>
<path id="Vector_15" d="M16.8926 25.3259L19.3684 26.8577L18.8945 24.8499L16.8926 25.3259Z" fill="#00A2DD"/>
</g>
</g>
</g>
<g id="Group_8">
<path id="Vector_16" d="M167.859 55.8304H132.341V73.4687H167.859V55.8304Z" fill="#C6F1FE"/>
<g id="Group_9">
<path id="Vector_17" d="M143.198 58.2858H134.77V71.0133H143.198V58.2858Z" fill="#F64652"/>
<g id="Group_10">
<path id="Vector_18" d="M165.433 64.6495H144.908V71.0133H165.433V64.6495Z" fill="#00A2DD"/>
<path id="Vector_19" d="M165.433 58.2858H144.908V63.0925H165.433V58.2858Z" fill="#00A2DD"/>
</g>
</g>
</g>
</g>
<g id="Group_11">
<g id="Group_12">
<path id="Vector_20" d="M132.13 42.4913C128.97 37.6405 120.256 23.3023 120.799 13.5123C120.83 12.9481 121.53 12.7149 121.894 13.1436C124.73 16.5098 133.021 27.57 133.272 42.132C133.281 42.7592 132.475 43.0177 132.133 42.4913H132.13Z" fill="#2CD0D1"/>
<path id="Vector_21" d="M121.847 14.1459L131.496 34.3971" stroke="#0B334C" stroke-linecap="round" stroke-linejoin="round"/>
</g>
<g id="Group_13">
<path id="Vector_22" d="M134.013 41.8767C128.976 39.0462 114.642 30.3942 110.607 21.4615C110.375 20.9478 110.89 20.4151 111.407 20.6263C115.474 22.2905 127.922 28.2351 134.854 41.0288C135.152 41.5804 134.555 42.1824 134.009 41.8767H134.013Z" fill="#2FDDDE"/>
<path id="Vector_23" d="M112.119 22.0258L127.73 33.3728" stroke="#0B334C" stroke-linecap="round" stroke-linejoin="round"/>
</g>
<g id="Group_14">
<path id="Vector_24" d="M128.807 42.5544C132.999 38.5703 145.5 27.4124 155.19 26.2115C155.746 26.1422 156.1 26.7946 155.746 27.2296C152.95 30.6337 143.586 40.7893 129.362 43.6197C128.747 43.7426 128.355 42.9893 128.807 42.5575V42.5544Z" fill="#2FDDDE"/>
<path id="Vector_25" d="M154.951 26.6749L138.007 39.2826" stroke="#0B334C" stroke-linecap="round" stroke-linejoin="round"/>
</g>
<g id="Group_15">
<path id="Vector_26" d="M143.15 43.6229C143.674 42.1446 143.856 40.2818 142.72 39.2039C142.165 38.6743 141.383 38.4411 140.809 37.9305C139.877 37.0984 139.683 35.6642 140.006 34.457C140.329 33.2467 141.076 32.2034 141.81 31.1916C142.519 30.2145 143.225 29.2406 143.935 28.2635C144.503 27.4818 145.077 26.6844 145.384 25.7671C145.692 24.8499 145.689 23.7783 145.149 22.9777C144.669 22.2653 143.825 21.8461 143.404 21.096C143.018 20.4088 143.05 19.5515 143.16 18.795C143.266 18.0512 143.454 17.3231 143.705 16.617C144.368 14.7416 145.347 12.6015 145.033 10.496C144.989 10.1934 144.907 9.89079 144.797 9.60081C144.38 7.85463 142.952 6.32909 140.69 7.00045C140.254 7.12968 139.84 7.34717 139.482 7.62769C137.499 9.18791 137.144 11.9143 136.639 14.1333C136.47 14.8772 136.237 15.6021 135.924 16.2955C135.61 16.9921 135.177 17.7297 134.486 18.0985C133.73 18.5019 132.795 18.401 132.007 18.7414C131.123 19.126 130.548 20.0274 130.316 20.9667C130.084 21.906 130.14 22.8894 130.2 23.8539C130.275 25.0579 130.348 26.2651 130.423 27.4692C130.501 28.7205 130.573 30.0034 130.197 31.1979C129.82 32.3925 128.888 33.4926 127.658 33.6911C126.902 33.8141 126.118 33.5871 125.365 33.7321C123.83 34.0284 122.986 35.6958 122.635 37.2276C122.584 37.4482 122.54 37.672 122.5 37.8958C121.759 42.1163 124.31 46.2233 128.374 47.5219L132.491 48.8394C136.827 50.2262 141.565 48.0041 143.122 43.708C143.131 43.6796 143.141 43.6513 143.153 43.6229H143.15Z" fill="#2CD0D1"/>
<g id="Group_16">
<path id="Vector_27" d="M142.165 7.92084L131.025 45.823" stroke="#0B334C" stroke-linecap="round" stroke-linejoin="round"/>
<path id="Vector_28" d="M137.615 13.5944L138.949 18.8739" stroke="#0B334C" stroke-linecap="round" stroke-linejoin="round"/>
<path id="Vector_29" d="M136.674 16.6675L138.007 21.947" stroke="#0B334C" stroke-linecap="round" stroke-linejoin="round"/>
<path id="Vector_30" d="M143.106 23.4189L137.016 25.4677" stroke="#0B334C" stroke-linecap="round" stroke-linejoin="round"/>
<path id="Vector_31" d="M142.742 24.8373L136.648 26.8861" stroke="#0B334C" stroke-linecap="round" stroke-linejoin="round"/>
<path id="Vector_32" d="M131.81 25.9657L134.844 32.7424" stroke="#0B334C" stroke-linecap="round" stroke-linejoin="round"/>
<path id="Vector_33" d="M131.38 27.2013L134.414 33.978" stroke="#0B334C" stroke-linecap="round" stroke-linejoin="round"/>
</g>
</g>
</g>
<g id="Group_17">
<g id="Group_18">
<g id="Group_19">
<path id="Vector_34" d="M34.181 32.9662H136.875C138.6 32.9662 140 34.372 140 36.1055V98.7063H31.0557V36.1087C31.0557 34.3751 32.4552 32.9693 34.181 32.9693V32.9662Z" fill="#8EE4FD"/>
<g id="Group_20">
<path id="Vector_35" d="M34.7266 41.6088H42.361" stroke="#0B334C" stroke-linecap="round" stroke-linejoin="round"/>
<path id="Vector_36" d="M43.7734 41.6088H51.411" stroke="#0B334C" stroke-linecap="round" stroke-linejoin="round"/>
<path id="Vector_37" d="M52.8223 41.6088H60.4567" stroke="#0B334C" stroke-linecap="round" stroke-linejoin="round"/>
</g>
</g>
<g id="Group_21">
<path id="Vector_38" d="M34.181 32.9662H136.875C138.6 32.9662 140 34.372 140 36.1055V38.5766H31.0557V36.1055C31.0557 34.372 32.4552 32.9662 34.181 32.9662Z" fill="#1F5B99"/>
<g id="Group_22">
<path id="Vector_39" d="M123.843 35.7242C123.843 36.3924 123.303 36.9314 122.641 36.9314C121.979 36.9314 121.439 36.3892 121.439 35.7242C121.439 35.0591 121.979 34.517 122.641 34.517C123.303 34.517 123.843 35.0591 123.843 35.7242Z" stroke="#0B334C" stroke-linecap="round" stroke-linejoin="round"/>
<path id="Vector_40" d="M129.492 35.7242C129.492 36.3924 128.952 36.9314 128.29 36.9314C127.628 36.9314 127.088 36.3892 127.088 35.7242C127.088 35.0591 127.628 34.517 128.29 34.517C128.952 34.517 129.492 35.0591 129.492 35.7242Z" stroke="#0B334C" stroke-linecap="round" stroke-linejoin="round"/>
<path id="Vector_41" d="M135.14 35.7242C135.14 36.3924 134.6 36.9314 133.938 36.9314C133.276 36.9314 132.736 36.3892 132.736 35.7242C132.736 35.0591 133.276 34.517 133.938 34.517C134.6 34.517 135.14 35.0591 135.14 35.7242Z" stroke="#0B334C" stroke-linecap="round" stroke-linejoin="round"/>
</g>
</g>
</g>
<path id="Vector_42" d="M85.5262 57.9548C81.0139 57.9548 77.3457 54.267 77.3457 49.7377C77.3457 45.2083 81.017 41.5206 85.5262 41.5206C87.343 41.5206 89.0626 42.1068 90.5029 43.2132L89.7372 44.2155C88.5197 43.2794 87.0669 42.7813 85.5293 42.7813C81.7136 42.7813 78.6071 45.9018 78.6071 49.7345C78.6071 53.5673 81.7136 56.6877 85.5293 56.6877C89.345 56.6877 92.4515 53.5673 92.4515 49.7345C92.4515 49.2617 92.4044 48.7921 92.3103 48.3319L93.5435 48.0798C93.6533 48.6219 93.7098 49.1798 93.7098 49.7345C93.7098 54.267 90.0384 57.9517 85.5293 57.9517L85.5262 57.9548Z" fill="#1F5B99"/>
<g id="Group_23">
<g id="Group_24">
<path id="Vector_43" d="M118.151 67.2404H52.9019C51.3047 67.2404 50.0088 65.9387 50.0088 64.3343C50.0088 62.73 51.3047 61.4282 52.9019 61.4282H118.151C119.748 61.4282 121.044 62.73 121.044 64.3343C121.044 65.9387 119.748 67.2404 118.151 67.2404Z" fill="white"/>
<path id="Vector_44" d="M60.9859 67.2404H52.9058C51.3086 67.2404 50.0127 65.9387 50.0127 64.3343C50.0127 62.73 51.3086 61.4282 52.9058 61.4282H60.9859V67.2404Z" fill="#F64652"/>
</g>
<g id="Group_25">
<path id="Vector_45" d="M56.4196 64.0097C56.4196 64.9647 55.6477 65.7369 54.7 65.7369C53.7524 65.7369 52.9805 64.9616 52.9805 64.0097C52.9805 63.0578 53.7524 62.2824 54.7 62.2824C55.6477 62.2824 56.4196 63.0578 56.4196 64.0097Z" stroke="white" stroke-width="1.27" stroke-miterlimit="10"/>
<path id="Vector_46" d="M57.5929 66.3894L56.1338 64.9237" stroke="white" stroke-width="1.27" stroke-miterlimit="10"/>
</g>
</g>
<g id="Group_26">
<g id="Group_27">
<g id="Group_28">
<path id="Vector_47" d="M60.1842 75.7255H39.0349C38.7039 75.7255 38.4355 75.995 38.4355 76.3275V87.6839C38.4355 88.0164 38.7039 88.286 39.0349 88.286H60.1842C60.5152 88.286 60.7836 88.0164 60.7836 87.6839V76.3275C60.7836 75.995 60.5152 75.7255 60.1842 75.7255Z" fill="#FCB13A"/>
<path id="Vector_48" d="M60.7836 90.9588H38.4355V93.6317H60.7836V90.9588Z" fill="#1F5B99"/>
</g>
<g id="Group_29">
<path id="Vector_49" d="M40.3213 86.7856V84.6833H45.6557V86.7856" stroke="#0B334C" stroke-linecap="round" stroke-linejoin="round"/>
<path id="Vector_50" d="M46.9111 86.7856V84.6833H52.2455V86.7856" stroke="#0B334C" stroke-linecap="round" stroke-linejoin="round"/>
<path id="Vector_51" d="M53.5 86.7856V84.6833H58.8344V86.7856" stroke="#0B334C" stroke-linecap="round" stroke-linejoin="round"/>
</g>
</g>
<g id="Group_30">
<g id="Group_31">
<path id="Vector_52" d="M96.1002 75.7255H74.9509C74.6199 75.7255 74.3516 75.995 74.3516 76.3275V87.6839C74.3516 88.0164 74.6199 88.286 74.9509 88.286H96.1002C96.4312 88.286 96.6996 88.0164 96.6996 87.6839V76.3275C96.6996 75.995 96.4312 75.7255 96.1002 75.7255Z" fill="#00A2DD"/>
<path id="Vector_53" d="M96.6996 90.9588H74.3516V93.6317H96.6996V90.9588Z" fill="#1F5B99"/>
</g>
<g id="Group_32">
<path id="Vector_54" d="M81.4279 84.6833C81.4279 85.4965 80.772 86.1552 79.9625 86.1552C79.1529 86.1552 78.4971 85.4965 78.4971 84.6833C78.4971 83.8701 79.1529 83.2113 79.9625 83.2113C80.772 83.2113 81.4279 83.8701 81.4279 84.6833Z" stroke="#0B334C" stroke-miterlimit="10"/>
<path id="Vector_55" d="M83.4169 83.0033C84.9766 83.0033 86.241 81.7332 86.241 80.1665C86.241 78.5998 84.9766 77.3298 83.4169 77.3298C81.8572 77.3298 80.5928 78.5998 80.5928 80.1665C80.5928 81.7332 81.8572 83.0033 83.4169 83.0033Z" stroke="#0B334C" stroke-miterlimit="10"/>
<path id="Vector_56" d="M91.0513 79.2209C91.0513 79.8576 90.5366 80.3777 89.8997 80.3777C89.2627 80.3777 88.748 79.8608 88.748 79.2209C88.748 78.5811 89.2627 78.0641 89.8997 78.0641C90.5366 78.0641 91.0513 78.5811 91.0513 79.2209Z" stroke="#0B334C" stroke-miterlimit="10"/>
<path id="Vector_57" d="M89.8501 86.1552C90.9194 86.1552 91.7862 85.2846 91.7862 84.2105C91.7862 83.1364 90.9194 82.2657 89.8501 82.2657C88.7809 82.2657 87.9141 83.1364 87.9141 84.2105C87.9141 85.2846 88.7809 86.1552 89.8501 86.1552Z" stroke="#0B334C" stroke-miterlimit="10"/>
</g>
</g>
<g id="Group_33">
<g id="Group_34">
<path id="Vector_58" d="M132.016 75.7255H110.867C110.536 75.7255 110.268 75.995 110.268 76.3275V87.6839C110.268 88.0164 110.536 88.286 110.867 88.286H132.016C132.347 88.286 132.616 88.0164 132.616 87.6839V76.3275C132.616 75.995 132.347 75.7255 132.016 75.7255Z" fill="#F64652"/>
<path id="Vector_59" d="M132.616 90.9588H110.268V93.6317H132.616V90.9588Z" fill="#1F5B99"/>
</g>
<g id="Group_35">
<path id="Vector_60" d="M112.913 86.5744V77.541H115.841" stroke="#0B334C" stroke-linecap="round" stroke-linejoin="round"/>
<path id="Vector_61" d="M117.827 77.541V86.5744H121.175" stroke="#0B334C" stroke-linecap="round" stroke-linejoin="round"/>
<path id="Vector_62" d="M122.744 86.5744V77.541H130.275" stroke="#0B334C" stroke-linecap="round" stroke-linejoin="round"/>
</g>
</g>
</g>
</g>
<g id="Group_36">
<g id="Group_37">
<g id="Group_38">
<path id="Vector_63" d="M20.6475 108.884C20.9833 109.596 22.069 109.338 22.0596 108.55C22.0062 104.232 20.3463 99.8788 17.7826 96.3518C16.8475 95.069 15.7995 93.8681 14.924 92.5442C13.7034 90.7067 12.8373 88.6705 12.0779 86.5871C11.8081 85.8432 10.7381 85.9693 10.6345 86.751C9.79356 93.0612 11.8489 99.7527 16.4176 104.175C17.428 105.152 18.542 106.028 19.4582 107.094C19.9823 107.702 20.3651 108.288 20.6475 108.884Z" fill="#2CD0D1"/>
<path id="Vector_64" d="M24.6292 108.707C22.668 107.264 21.2999 105.029 20.8983 102.618C20.4966 100.207 21.0677 97.6472 22.4546 95.6394C23.4243 94.2368 24.7516 93.121 25.8059 91.7783C28.3696 88.5192 29.0819 83.9142 27.7388 80.0027C27.5945 79.5771 28.084 79.2178 28.4355 79.4952C30.5943 81.2067 31.9436 83.577 32.4017 86.4074C32.9446 89.7579 32.2041 93.244 30.6853 96.273C29.0756 99.4785 26.5339 102.577 26.8822 106.148C26.9669 107.021 27.218 107.948 26.8414 108.739C26.4649 109.53 24.8457 109.555 24.6323 108.704L24.6292 108.707Z" fill="#2CD0D1"/>
<path id="Vector_65" d="M21.6451 106.394C21.6514 106.678 21.3156 106.835 21.1116 106.637C18.6013 104.219 17.3462 100.626 17.3273 97.1145C17.3117 93.8964 18.2311 90.7539 18.7268 87.5736C19.1473 84.8692 19.2226 81.9726 18.2248 79.4668C18.1024 79.1579 18.4915 78.8963 18.7331 79.1232C21.1399 81.3611 22.5394 84.4469 23.1983 87.7407C23.9546 91.5261 23.6784 95.4472 23.1356 99.2705C22.7904 101.704 21.6011 103.986 21.6419 106.394H21.6451Z" fill="#2CD0D1"/>
</g>
<path id="Vector_66" d="M24.3444 103.63C24.04 101.647 24.7555 99.6424 25.7156 97.8836C26.6758 96.1248 27.8933 94.5079 28.7312 92.686C30.0679 89.7736 30.3597 86.3916 29.5407 83.2964" stroke="#0B334C" stroke-linecap="round" stroke-linejoin="round"/>
<path id="Vector_67" d="M20.0518 98.4068C20.0518 98.4068 22.6656 89.7926 20.0518 82.4359" stroke="#0B334C" stroke-linecap="round" stroke-linejoin="round"/>
<path id="Vector_68" d="M11.7207 89.6791C13.0637 95.3967 16.8386 100.493 21.9 103.431" stroke="#0B334C" stroke-linecap="round" stroke-linejoin="round"/>
</g>
<g id="Group_39">
<path id="Vector_69" d="M26.3081 120.6H17.7197C17.4342 120.6 17.1926 120.392 17.1486 120.108L14.9364 105.902C14.8831 105.549 15.1529 105.231 15.5075 105.231H28.5235C28.8781 105.231 29.1479 105.549 29.0946 105.902L26.8824 120.108C26.8384 120.392 26.5968 120.6 26.3113 120.6H26.3081Z" fill="#0B334C"/>
<path id="Vector_70" d="M16.1289 107.705H28.0529" stroke="white" stroke-linecap="round" stroke-linejoin="round"/>
</g>
</g>
<g id="Group_40">
<g id="Group_41">
<g id="Group_42">
<path id="Vector_71" d="M124.451 110.977L123.993 119.342L125.647 119.216C125.647 119.216 126.99 115.456 128.254 110.974H124.448L124.451 110.977Z" fill="#CC6F49"/>
<path id="Vector_72" d="M124.062 118.835C124.062 118.835 124.953 119.5 125.82 118.835L125.904 119.276C125.98 119.66 125.983 120.067 125.914 120.477L125.892 120.6H120.636C120.698 120.218 120.993 119.878 121.373 119.749L124.059 118.835H124.062Z" fill="#0B334C"/>
</g>
<g id="Group_43">
<path id="Vector_73" d="M136.184 110.977L137.059 119.342L138.694 119.216C138.694 119.216 139.409 115.456 139.927 110.974H136.187L136.184 110.977Z" fill="#CC6F49"/>
<path id="Vector_74" d="M137.041 118.835C137.041 118.835 138.042 119.5 138.798 118.835L138.958 119.276C139.096 119.66 139.168 120.067 139.168 120.477V120.6H133.912C133.912 120.218 134.151 119.878 134.508 119.749L137.044 118.835H137.041Z" fill="#0B334C"/>
</g>
</g>
<g id="Group_44">
<g id="Group_45">
<path id="Vector_75" d="M134.013 65.7684C133.046 65.5825 132.058 65.4627 131.095 65.2547C130.963 66.2129 130.812 67.1679 130.624 68.1072C129.008 67.5461 127.398 66.8779 125.81 66.1561C124.772 65.6833 123.742 65.1853 122.72 64.6684C121.697 64.161 120.67 63.6094 119.685 63.0704L119.66 63.0546C119.66 63.0546 119.641 63.0452 119.632 63.042C119.4 62.6039 118.86 61.6457 118.656 61.6835C118.389 61.734 118.496 62.6196 118.496 62.6196C118.496 62.6196 116.805 61.5637 116.619 61.7245C116.434 61.8852 117.743 62.8308 117.743 62.8308C117.743 62.8308 116.522 62.2792 116.324 62.4684C116.127 62.6575 117.668 63.4045 117.668 63.4045C117.668 63.4045 116.331 63.1429 116.255 63.4265C116.18 63.7102 117.809 63.9435 117.809 63.9435C117.809 63.9435 116.839 63.9687 116.823 64.183C116.811 64.3469 118.097 64.5959 118.694 64.7031C120.561 66.1593 122.478 67.4642 124.502 68.6745C125.01 68.9866 125.528 69.2766 126.049 69.5728C126.576 69.8597 127.097 70.1496 127.637 70.4176C128.339 70.7832 129.058 71.1173 129.795 71.4325C130.178 71.5995 130.564 71.7603 130.956 71.9147C130.963 71.9147 130.969 71.921 130.978 71.9242C132.108 72.3749 133.385 71.7697 133.781 70.613C133.969 70.0645 134.148 69.5193 134.258 69.1379C134.292 69.0149 134.327 68.8952 134.361 68.7722C134.612 67.8424 134.822 66.9063 135.007 65.9702C134.678 65.904 134.349 65.8378 134.022 65.7747L134.013 65.7684Z" fill="#CC6F49"/>
<g id="Group_46">
<path id="Vector_76" d="M130.969 65.1602L130.868 65.8504L134.988 66.7172L135.104 65.5352L130.969 65.1602Z" fill="#00A2DD"/>
<path id="Vector_77" d="M130.831 65.261C130.831 65.261 130.517 56.8705 132.83 56.2401C135.142 55.6097 135.927 57.0281 136.005 58.0115C136.084 58.9949 135.104 66.1278 135.104 66.1278L130.831 65.261Z" fill="#FCB13A"/>
</g>
</g>
<path id="Vector_78" d="M140.063 57.9706C140.047 57.7783 140.026 57.5325 140 57.2709C139.919 56.4293 139.282 55.7737 138.491 55.7201L137.628 55.6602C137.327 55.5373 137.114 55.241 137.114 54.8911V51.0804H134.129V54.8911C134.129 55.2253 133.932 55.5121 133.646 55.6445C133.066 55.6697 132.52 55.9502 132.137 56.4198L131.428 57.2961C131.258 57.5041 131.12 57.731 131.001 57.9674H140.063V57.9706Z" fill="#CC6F49"/>
<g id="Group_47">
<g id="Group_48">
<path id="Vector_79" d="M139.708 69.056C139.394 68.4256 138.82 63.0673 138.845 62.9885C138.851 62.9727 138.861 62.8277 138.857 62.6134C139.212 61.1793 140.188 57.0975 139.927 56.5144C139.614 55.8052 138.123 55.4112 137.358 55.3923C136.802 55.3765 134.508 56.9115 134.16 57.854C133.172 56.5837 134.091 55.1149 134.091 55.1149C132.155 55.8241 130.238 58.1566 130.448 60.4921C130.658 62.8309 129.168 71.7351 129.168 71.7351C129.168 71.7351 122.945 112.947 122.995 114.129C123.049 115.311 130.031 114.655 131.493 116.31C132.958 117.965 139.887 116.048 139.887 116.048C139.887 116.048 141.951 84.5037 142.24 80.0374C142.529 75.571 140.018 69.6895 139.705 69.0591L139.708 69.056Z" fill="#FCB13A"/>
<g id="Group_49">
<path id="Vector_80" d="M133.25 57.315C133.25 57.315 133.799 58.207 134.034 58.3646C134.27 58.5222 135.76 56.1834 136.727 55.947" stroke="#0B334C" stroke-width="0.75" stroke-linecap="round" stroke-linejoin="round"/>
<path id="Vector_81" d="M131.235 115.282L133.746 94.4291" stroke="#0B334C" stroke-width="0.75" stroke-linecap="round" stroke-linejoin="round"/>
<path id="Vector_82" d="M140.232 83.6053C140.232 83.6053 140.756 90.3284 139.918 97.1051C139.08 103.882 138.56 116.017 138.56 116.017" stroke="#0B334C" stroke-width="0.75" stroke-linecap="round" stroke-linejoin="round"/>
<path id="Vector_83" d="M130.319 81.1374C130.319 81.1374 132.281 84.9985 135.026 86.0229L130.319 81.1374Z" fill="#0B334C"/>
</g>
</g>
<g id="Group_50">
<path id="Vector_84" d="M134.098 55.1149C134.098 55.1149 128.44 65.6929 135.657 72.2741C142.874 78.8554 142.482 78.1052 142.482 78.1052C142.482 78.1052 142.404 82.4801 142.131 84.1727C142.131 84.1727 129.934 80.5858 128.559 74.2063C127.185 67.8267 130.332 57.9674 131.39 56.8233C132.447 55.6791 134.101 55.1149 134.101 55.1149H134.098Z" fill="#00A2DD"/>
<g id="Group_51">
<path id="Vector_85" d="M132.492 56.3946C132.492 56.3946 128.412 65.5352 133.693 71.5775" stroke="#0B334C" stroke-width="0.75" stroke-linecap="round" stroke-linejoin="round"/>
<path id="Vector_86" d="M133.536 75.7255C133.536 75.7255 137.355 79.9806 141.641 80.715" stroke="#0B334C" stroke-width="0.75" stroke-linecap="round" stroke-linejoin="round"/>
</g>
</g>
</g>
<g id="Group_52">
<g id="Group_53">
<path id="Vector_87" d="M105.06 39.04C106.726 38.3087 108.558 37.8864 110.488 37.8517C118.336 37.7099 124.838 44.0075 124.982 51.8905C125.051 55.7106 123.636 59.3291 120.997 62.0776C118.358 64.8261 114.809 66.38 111.006 66.4493C103.158 66.5911 96.6565 60.2936 96.5121 52.4105C96.4054 46.4628 99.945 41.2873 105.06 39.04ZM115.151 62.2667C116.45 61.6962 117.639 60.8672 118.656 59.8113C120.693 57.6901 121.785 54.8974 121.731 51.9504C121.621 45.8671 116.604 41.0068 110.545 41.1171C104.485 41.2274 99.65 46.2674 99.7598 52.3538C99.8697 58.4371 104.887 63.2974 110.946 63.187C112.418 63.1587 113.843 62.8466 115.151 62.2698V62.2667Z" fill="#0B334C"/>
<path id="Vector_88" d="M119.163 61.165L116.906 63.5155L130.788 76.9626L133.045 74.6121L119.163 61.165Z" fill="#0B334C"/>
<path id="Vector_89" d="M126.319 67.1269L123.096 70.4847L130.303 77.4665L133.527 74.1086L126.319 67.1269Z" fill="#1F5B99"/>
</g>
<g id="Group_54">
<g id="Group_55">
<path id="Vector_90" d="M144.058 67.1112C143.96 66.7046 143.86 66.3043 143.747 65.904C143.644 65.5132 143.534 65.1255 143.418 64.741C142.156 65.0971 140.907 65.551 139.64 65.8946C139.95 66.7361 140.242 67.5777 140.496 68.4287C139.125 69.3617 137.675 70.2317 136.197 71.0543C135.203 71.6091 134.189 72.1417 133.166 72.6618C132.146 73.1819 131.101 73.683 130.075 74.1527L130.05 74.1653C130.05 74.1653 130.031 74.1747 130.025 74.1779C129.536 74.1054 128.447 73.9667 128.356 74.1558C128.237 74.4017 129.008 74.8429 129.008 74.8429C129.008 74.8429 127.157 75.5774 127.176 75.8201C127.195 76.0659 128.729 75.571 128.729 75.571C128.729 75.571 127.562 76.2267 127.593 76.4977C127.625 76.7688 129.14 75.9745 129.14 75.9745C129.14 75.9745 128.133 76.8949 128.318 77.1281C128.5 77.3582 129.658 76.1825 129.658 76.1825C129.658 76.1825 129.099 76.98 129.263 77.1187C129.385 77.2258 130.348 76.3401 130.791 75.9241C133.069 75.2842 135.259 74.5151 137.431 73.6074C137.98 73.3804 138.526 73.1378 139.069 72.8951C139.608 72.6366 140.154 72.3876 140.691 72.1134C140.907 72.0062 141.127 71.8959 141.343 71.7824C142.197 71.3348 143.032 70.8494 143.869 70.3357C143.869 70.3357 143.876 70.3357 143.876 70.3325C144.318 70.0551 144.541 69.5288 144.45 69.0119C144.337 68.3752 144.202 67.7416 144.061 67.1081L144.058 67.1112Z" fill="#CC6F49"/>
<path id="Vector_91" d="M140.989 67.9528L140.493 68.4256L141.278 68.2144" stroke="#0B334C" stroke-width="0.75" stroke-linecap="round" stroke-linejoin="round"/>
</g>
<g id="Group_56">
<g id="Group_57">
<path id="Vector_92" d="M139.42 65.7527L139.756 66.6384L143.913 65.5163L143.462 64.4131L139.42 65.7527Z" fill="#00A2DD"/>
<path id="Vector_93" d="M139.42 66.1278C139.42 66.1278 135.497 59.1935 136.166 57.46C136.834 55.7264 138.676 54.9006 139.931 56.5144C141.186 58.1282 143.813 64.9048 143.813 64.9048L139.42 66.1278Z" fill="#FCB13A"/>
</g>
<g id="Group_58">
<path id="Vector_94" d="M139.056 65.5604C139.056 65.5604 137.54 62.2761 137.173 60.8861" stroke="#0B334C" stroke-width="0.75" stroke-linecap="round" stroke-linejoin="round"/>
<path id="Vector_95" d="M143.239 64.4068L139.448 65.4816" stroke="#0B334C" stroke-width="0.75" stroke-linecap="round" stroke-linejoin="round"/>
</g>
</g>
</g>
</g>
</g>
<g id="Group_59">
<g id="Group_60">
<path id="Vector_96" d="M135.887 45.8797C134.299 45.3943 132.623 46.3273 132.206 47.9411C132.018 48.6692 131.851 49.4193 131.767 50.0466C131.679 50.2389 131.572 50.4059 131.443 50.5162C131.384 50.5698 131.315 50.6171 131.268 50.6833C131.221 50.7495 131.195 50.8377 131.233 50.9102C131.255 50.9512 131.293 50.9827 131.33 51.0111C131.481 51.1277 131.635 51.2475 131.785 51.3641C131.829 51.5343 131.886 51.6951 131.958 51.8463C132.209 52.3916 132.611 52.8361 132.943 53.1418C133.307 53.4791 133.8 53.6272 134.286 53.5515C134.933 53.4507 135.861 53.1891 136.458 52.5051C136.9 51.9976 137.386 50.8094 137.794 49.6431C138.344 48.0735 137.471 46.3588 135.887 45.8703V45.8797Z" fill="#CC6F49"/>
<g id="Group_61">
<path id="Vector_97" d="M133.109 51.1907C133.109 51.5753 133.42 51.8873 133.803 51.8873C134.186 51.8873 134.496 51.5753 134.496 51.1907C134.496 50.8062 134.186 50.4941 133.803 50.4941C133.42 50.4941 133.109 50.8062 133.109 51.1907Z" fill="#C4533A"/>
<path id="Vector_98" d="M132.532 48.7858C132.623 48.7385 132.711 48.7196 132.805 48.7133C132.899 48.7102 132.996 48.7165 133.087 48.748C133.181 48.7764 133.269 48.8268 133.338 48.893C133.414 48.956 133.458 49.0443 133.495 49.1262C133.508 49.1546 133.495 49.1861 133.467 49.1987C133.445 49.2082 133.423 49.2019 133.407 49.1861H133.404C133.294 49.0663 133.169 48.997 133.031 48.9718C132.893 48.9497 132.742 48.9623 132.595 48.9718H132.582C132.529 48.9749 132.482 48.9339 132.479 48.8772C132.479 48.8362 132.497 48.8016 132.532 48.7827V48.7858Z" fill="#0B334C"/>
<path id="Vector_99" d="M132.89 50.4153C133.035 50.4153 133.153 50.2262 133.153 49.993C133.153 49.7597 133.035 49.5706 132.89 49.5706C132.744 49.5706 132.626 49.7597 132.626 49.993C132.626 50.2262 132.744 50.4153 132.89 50.4153Z" fill="#0B334C"/>
<g id="Group_62">
<path id="Vector_100" d="M132.815 52.0134C132.943 51.9377 133.066 51.9031 133.191 51.84C133.16 51.9094 133.091 51.9503 133.025 51.9787C132.956 52.0039 132.887 52.0228 132.812 52.0134H132.815Z" fill="#0B334C"/>
<path id="Vector_101" d="M132.184 51.7802C132.297 51.7928 132.406 51.8022 132.516 51.7959C132.623 51.7896 132.73 51.7802 132.821 51.736C132.918 51.7045 132.999 51.6415 133.068 51.5627C133.144 51.487 133.191 51.3893 133.25 51.2885C133.241 51.4019 133.213 51.5185 133.144 51.6194C133.081 51.7234 132.977 51.8022 132.865 51.8495C132.632 51.9283 132.378 51.8968 132.184 51.777V51.7802Z" fill="#0B334C"/>
</g>
</g>
</g>
<g id="Group_63">
<path id="Vector_102" d="M137.932 47.0491C137.807 46.8505 137.647 46.6582 137.44 46.466C136.106 45.2241 132.89 45.0413 131.967 46.9923C131.045 48.9434 131.939 49.0474 131.939 49.0474L132.319 47.629C132.319 47.629 133.495 49.6589 135.046 49.7377C135.046 49.7377 135.457 49.2271 135.927 49.4036C136.398 49.5801 136.2 50.822 135.281 50.8409C135.281 50.8409 135.268 51.0079 135.281 51.2222C135.271 52.212 135.162 54.8438 134.321 55.7138C134.321 55.7138 138.635 56.3977 139.523 54.2954C139.523 54.2954 139.137 48.3508 137.929 47.0522L137.932 47.0491Z" fill="#0B334C"/>
<g id="Group_64">
<path id="Vector_103" d="M138.03 46.8757C136.401 48.8646 132.03 48.5715 132.03 48.5715L131.591 47.6763" stroke="white" stroke-width="0.25" stroke-linecap="round" stroke-linejoin="round"/>
<path id="Vector_104" d="M132.237 49.0979C132.218 49.2334 132.09 49.328 131.955 49.309C131.82 49.2901 131.726 49.1609 131.745 49.0254C131.763 48.8898 131.927 48.5021 132.062 48.5211C132.196 48.54 132.256 48.9592 132.237 49.0979Z" fill="#FCB13A"/>
</g>
</g>
</g>
</g>
<g id="Group_65">
<g id="Group_66">
<g id="Group_67">
<path id="Vector_105" d="M55.8823 32.9536C55.9231 32.0237 56.0706 27.7875 55.5591 26.8073L43.949 23.5229C43.949 23.5229 40.3498 25.619 40.1113 32.9536H55.8792H55.8823Z" fill="#00A2DD"/>
<g id="Group_68">
<path id="Vector_106" d="M48.082 27.0941C48.082 27.0941 53.2595 28.3297 55.1423 27.9861" stroke="#0B334C" stroke-width="0.75" stroke-linecap="round" stroke-linejoin="round"/>
<path id="Vector_107" d="M53.8872 28.0681C53.8872 28.0681 53.8088 30.6148 55.5597 31.0372" stroke="#0B334C" stroke-width="0.75" stroke-linecap="round" stroke-linejoin="round"/>
</g>
</g>
<g id="Group_69">
<g id="Group_70">
<path id="Vector_108" d="M54.4832 9.83407L55.3712 6.12738L52.4718 5.4245L51.5838 9.13119C51.4771 9.57561 51.0315 9.85298 50.5859 9.74266C52.2271 14.168 55.1233 10.8427 55.1233 10.8427L55.0951 10.8364C54.6526 10.7292 54.3765 10.2816 54.4863 9.83407H54.4832Z" fill="#FFCBA1"/>
<path id="Vector_109" d="M54.816 8.46296L54.6685 9.07759C54.5242 9.05552 54.383 9.01455 54.2512 8.95151C53.655 8.68044 52.8329 8.17298 52.4438 7.35347C52.3496 7.15805 52.268 6.88699 52.2021 6.57179L52.2241 6.47723C52.2524 6.56549 52.2869 6.64744 52.3214 6.71993C52.7105 7.53944 53.5326 8.0469 54.1288 8.31797C54.3485 8.41883 54.5838 8.46611 54.816 8.46296Z" fill="#0B334C"/>
</g>
<g id="Group_71">
<path id="Vector_110" d="M64.7472 38.75C64.7534 36.3797 64.6154 34.0536 64.3361 31.7054C64.2702 31.1128 64.1823 30.5202 64.0976 29.9245C64.0003 29.332 63.9093 28.7394 63.7901 28.1468C63.5767 26.9585 63.2849 25.7766 62.9491 24.5914C62.6071 23.4 62.1772 22.2432 61.716 21.1054C61.2453 19.977 60.7181 18.877 60.1627 17.799C59.965 17.4208 59.7579 17.0488 59.5508 16.6801C58.5749 17.7076 57.5112 18.6815 56.5918 19.646C56.6138 19.6839 56.6389 19.7217 56.664 19.7627C57.8062 21.6916 58.8417 23.6679 59.6293 25.7104C60.4169 27.7749 61.0288 29.9687 61.5497 32.1908C61.8101 33.3034 62.0454 34.4287 62.2651 35.557C62.4879 36.6823 62.6793 37.8328 62.855 38.9485L62.8613 38.9769C62.8613 38.9769 62.8676 38.9958 62.8676 39.0053C62.6636 39.456 62.2337 40.4741 62.3906 40.6159C62.5914 40.7987 63.2284 40.1746 63.2284 40.1746C63.2284 40.1746 63.4261 42.1635 63.6677 42.214C63.9062 42.2644 63.8529 40.6443 63.8529 40.6443C63.8529 40.6443 64.1635 41.9523 64.4302 41.9933C64.7001 42.0374 64.3486 40.3543 64.3486 40.3543C64.3486 40.3543 64.9574 41.5773 65.2304 41.4638C65.5003 41.3503 64.6907 39.913 64.6907 39.913C64.6907 39.913 65.3026 40.6695 65.4814 40.5497C65.6163 40.4583 65.0296 39.2826 64.7503 38.7437L64.7472 38.75Z" fill="#FFCBA1"/>
<path id="Vector_111" d="M56.7357 11.8986C56.7357 11.8986 59.7951 16.5477 60.1466 17.4523L56.971 20.6042C56.971 20.6042 54.4607 16.5067 53.6762 15.4414C52.8918 14.376 54.5768 11.1862 56.7357 11.8954V11.8986Z" fill="#F64652"/>
</g>
<g id="Group_72">
<path id="Vector_112" d="M50.9591 9.47158C50.9591 9.47158 53.8083 10.496 54.9065 10.5495C54.9065 10.5495 56.2652 10.9435 57.1564 12.5447C58.0444 14.1459 55.7193 27.1477 55.7193 27.1477C55.7193 27.1477 46.3307 27.0689 43.8486 23.6553L47.7647 10.89C47.9938 10.1429 48.6308 9.5882 49.4027 9.49364C49.8608 9.43691 50.4005 9.41169 50.9591 9.47158Z" fill="#F64652"/>
<g id="Group_73">
<path id="Vector_113" d="M50.5664 9.65442C50.5664 9.65442 52.5809 11.5992 55.0379 10.89" stroke="#0B334C" stroke-width="0.75" stroke-linecap="round" stroke-linejoin="round"/>
<path id="Vector_114" d="M56.8138 20.0558C56.8138 20.0558 57.2437 17.1403 56.7354 14.9749" stroke="#0B334C" stroke-width="0.75" stroke-linecap="round" stroke-linejoin="round"/>
<path id="Vector_115" d="M46.4338 15.2144L48.1063 14.6187L45.9443 16.8503L46.4338 15.2144Z" fill="#0B334C"/>
<path id="Vector_116" d="M49.2832 21.2378C49.2832 21.2378 52.0289 20.765 53.5978 19.0314L49.2832 21.2378Z" fill="#0B334C"/>
</g>
</g>
</g>
<g id="Group_74">
<g id="Group_75">
<path id="Vector_117" d="M54.6586 0.491699C53.1242 0.526371 51.9004 1.73672 51.8063 3.23389C51.7843 3.23389 51.7624 3.23389 51.7435 3.23704C51.298 3.30639 50.9905 3.72559 51.0595 4.17317C51.1191 4.57347 51.5459 5.11875 51.9538 5.18494C52.0385 5.82479 52.1578 6.37953 52.3209 6.72309C52.71 7.5426 53.5321 8.05006 54.1283 8.32113C54.5771 8.526 55.0917 8.51655 55.531 8.29276C55.9358 8.08788 56.441 7.76954 56.8301 7.31251C57.0058 7.11078 57.1564 6.88069 57.2694 6.61908C57.3258 6.48355 57.376 6.31649 57.4168 6.12422C57.5675 5.44025 57.6334 4.44739 57.649 3.48289C57.6804 1.81552 56.3217 0.46018 54.6618 0.494851L54.6586 0.491699Z" fill="#FFCBA1"/>
<g id="Group_76">
<path id="Vector_118" d="M55.5372 4.6554C55.556 4.92961 55.5968 5.16286 55.5936 5.43393C55.5842 5.56316 55.5874 5.7113 55.4932 5.85944C55.3897 6.01073 55.2265 6.03279 55.0947 6.02964C55.2014 5.93824 55.2987 5.84998 55.3175 5.76488C55.3426 5.67978 55.3363 5.5537 55.3395 5.42762C55.3458 5.30154 55.3489 5.16916 55.374 5.03678C55.396 4.9044 55.4493 4.76571 55.534 4.65855L55.5372 4.6554Z" fill="#0B334C"/>
<g id="Group_77">
<path id="Vector_119" d="M54.9695 3.86426C54.8283 3.82329 54.6839 3.77286 54.5459 3.7634C54.4046 3.75394 54.2697 3.79177 54.1348 3.87687H54.1285C54.1034 3.89578 54.0689 3.88948 54.0532 3.86426C54.0406 3.84535 54.0438 3.82014 54.0532 3.80122C54.1065 3.72873 54.1724 3.65308 54.2603 3.60896C54.345 3.56168 54.4423 3.53331 54.5396 3.527C54.6368 3.51755 54.7341 3.53331 54.822 3.55852C54.913 3.58689 54.9946 3.62787 55.0699 3.69406C55.1107 3.72873 55.1169 3.79177 55.0824 3.83274C55.0573 3.86426 55.0165 3.87372 54.9789 3.86426H54.9663H54.9695Z" fill="#0B334C"/>
<path id="Vector_120" d="M56.4283 4.025C56.5256 4.00294 56.6166 4.00294 56.7107 4.0187C56.8017 4.03761 56.8959 4.06598 56.9775 4.11956C57.0622 4.16684 57.1375 4.23934 57.1877 4.32129C57.2473 4.40008 57.2693 4.49779 57.285 4.58605C57.2912 4.61442 57.2724 4.64278 57.241 4.64909C57.2191 4.65224 57.1971 4.64278 57.1846 4.62387V4.61757C57.0998 4.47888 56.9963 4.38432 56.8676 4.32759C56.739 4.27401 56.5884 4.25194 56.444 4.22358H56.4315C56.3781 4.21097 56.3405 4.16054 56.353 4.10695C56.3593 4.06598 56.3907 4.03761 56.4283 4.02815V4.025Z" fill="#0B334C"/>
</g>
<g id="Group_78">
<path id="Vector_121" d="M56.7482 5.34257C56.6949 5.56951 56.5348 5.7271 56.3936 5.69243C56.2524 5.65776 56.1834 5.44658 56.2367 5.21964C56.2901 4.9927 56.4501 4.8351 56.5913 4.86977C56.7325 4.90445 56.8016 5.11563 56.7482 5.34257Z" fill="#0B334C"/>
<path id="Vector_122" d="M54.7023 4.84769C54.649 5.07463 54.4889 5.23223 54.3477 5.19756C54.2065 5.16289 54.1375 4.95171 54.1908 4.72477C54.2442 4.49783 54.4042 4.34023 54.5454 4.3749C54.6866 4.40957 54.7557 4.62075 54.7023 4.84769Z" fill="#0B334C"/>
</g>
<g id="Group_79">
<path id="Vector_123" d="M54.4894 6.43941C54.4141 6.42995 54.3514 6.39528 54.2917 6.3543C54.2353 6.31018 54.1788 6.25344 54.1631 6.1778C54.2729 6.2692 54.3827 6.33224 54.4894 6.43625V6.43941Z" fill="#0B334C"/>
<path id="Vector_124" d="M55.1542 6.36063C54.9346 6.42997 54.6835 6.40476 54.4764 6.27237C54.376 6.19988 54.2944 6.09902 54.2568 5.9824C54.2129 5.86893 54.2128 5.746 54.2317 5.63568C54.2662 5.746 54.2882 5.85317 54.3446 5.94457C54.3948 6.03598 54.4576 6.11793 54.5455 6.17151C54.6271 6.23455 54.7275 6.26922 54.8279 6.30074C54.9314 6.32911 55.0413 6.34802 55.1542 6.36378V6.36063Z" fill="#0B334C"/>
</g>
</g>
</g>
<path id="Vector_125" d="M55.2956 0.394009C54.5896 0.242716 53.8616 0.296299 53.1901 0.529542C53.2309 0.318362 53.2089 0.0725105 53.0709 0.0126236C52.8512 -0.0850867 52.8544 0.627253 52.8544 0.627253C52.8544 0.627253 52.0699 0.122942 51.8753 0.434984C51.7592 0.620949 52.1577 0.772242 52.5249 0.835281C52.324 0.948751 52.1295 1.07798 51.9475 1.22927C51.2258 1.83445 50.5292 2.80525 50.6359 4.26144C50.8524 7.17699 52.2205 6.48357 52.2205 6.48357L52.0103 5.18812C52.0103 5.18812 51.3984 5.0778 51.1473 4.3497C51.0124 3.95571 51.1348 3.49552 51.5082 3.30956C51.5929 3.26543 51.6933 3.24021 51.8032 3.24021C52.3209 3.24021 52.2048 4.36231 52.2048 4.36231C52.2048 4.36231 53.0489 4.63968 53.733 3.00382C53.733 3.00382 57.1438 3.93049 57.4388 4.73739L57.4074 6.1274C57.4074 6.1274 57.831 5.11247 57.9283 3.9494C58.0068 3.01012 57.4984 0.873104 55.2893 0.400313L55.2956 0.394009Z" fill="#0B334C"/>
</g>
</g>
<g id="Group_80">
<g id="Group_81">
<path id="Vector_126" d="M61.217 74.7074C59.0896 74.9785 56.8805 74.843 54.6871 74.2409C45.7661 71.7856 40.4945 62.4968 42.9389 53.5358C44.1219 49.1956 46.9177 45.5772 50.8118 43.3487C54.7059 41.1203 59.2276 40.5467 63.5516 41.7381C72.4726 44.1935 77.7443 53.4791 75.2999 62.4401C73.4579 69.1978 67.7439 73.8722 61.2202 74.7074H61.217ZM57.4798 45.0823C55.8199 45.2935 54.2039 45.8356 52.7071 46.6929C49.7042 48.4139 47.5453 51.2065 46.6322 54.5539C44.7463 61.4693 48.813 68.6368 55.6975 70.5311C62.5852 72.4254 69.7176 68.3405 71.6034 61.4251C73.4893 54.5098 69.4226 47.3422 62.5381 45.4479C60.8656 44.9877 59.1523 44.868 57.4798 45.0823Z" fill="#0B334C"/>
<path id="Vector_127" d="M44.659 23.2618L41.333 25.1658L52.5852 44.9975L55.9112 43.0934L44.659 23.2618Z" fill="#0B334C"/>
<path id="Vector_128" d="M45.3748 22.8521L40.623 25.5724L46.4651 35.8689L51.2169 33.1486L45.3748 22.8521Z" fill="#2CD0D1"/>
</g>
<g id="Group_82">
<g id="Group_83">
<path id="Vector_129" d="M44.4635 29.6377C44.4635 29.6283 44.4604 29.622 44.4572 29.6125L44.4478 29.5842C44.0838 28.5157 43.7198 27.4062 43.3966 26.3061C43.064 25.2061 42.7502 24.0998 42.4647 22.9934C41.9689 21.0613 41.5421 19.1197 41.2691 17.197C42.0913 16.7747 42.9322 16.3807 43.7826 16.0024C44.5953 15.6368 45.4237 15.2996 46.2584 14.9749C46.0324 14.3477 45.8253 13.7141 45.6371 13.0711C45.4708 12.5069 45.386 11.6685 45.2166 10.9026C44.1497 11.3533 43.0985 11.8356 42.0599 12.3682C41.6896 12.5605 41.3162 12.7559 40.9491 12.9577C40.2525 13.339 39.5653 13.7362 38.8875 14.1585L38.853 14.1806C37.9461 14.7637 37.4754 15.848 37.6951 16.907C37.6951 16.9133 37.6951 16.9197 37.6982 16.926C37.8426 17.6162 37.9995 18.3002 38.1783 18.9747C38.307 19.4759 38.4482 19.9739 38.6051 20.4656C38.7745 21.0455 38.9691 21.6129 39.1573 22.1802C39.3582 22.7476 39.5559 23.3118 39.7724 23.8665C40.6165 26.076 41.5735 28.2005 42.678 30.2965C42.678 30.9048 42.7063 32.216 42.8695 32.2318C43.0797 32.2539 43.2711 31.2988 43.2711 31.2988C43.2711 31.2988 43.2209 32.9504 43.5127 32.9252C43.8046 32.9 43.7763 31.5321 43.7763 31.5321C43.7763 31.5321 44.247 33.1837 44.4666 33.0198C44.6863 32.8559 44.3537 31.5541 44.3537 31.5541C44.3537 31.5541 45.0566 33.0103 45.2448 32.8559C45.4331 32.7014 44.6863 30.8481 44.6863 30.8481C44.6863 30.8481 45.5398 31.1034 45.6308 30.8481C45.703 30.6495 44.8526 29.9529 44.4635 29.6472V29.6377Z" fill="#FFCBA1"/>
<path id="Vector_130" d="M40.7139 16.844C40.7139 16.844 41.2818 17.2979 41.2442 17.197C41.2065 17.0962 40.9712 16.2325 40.9712 16.2325" stroke="#0B334C" stroke-width="0.75" stroke-linecap="round" stroke-linejoin="round"/>
</g>
<path id="Vector_131" d="M44.8115 10.7954C44.8115 10.7954 49.851 8.47559 51.0591 9.7742C52.264 11.0728 51.9126 13.2382 50.5005 13.6322C49.0885 14.0262 45.7152 15.5233 45.7152 15.5233L44.8147 10.7954H44.8115Z" fill="#F64652"/>
</g>
</g>
</g>
</g>
<defs>
<clipPath id="clip0_43_2629">
<rect width="172" height="121" fill="white"/>
</clipPath>
</defs>
</svg>
