<svg width="150" height="156" viewBox="0 0 150 156" fill="none" xmlns="http://www.w3.org/2000/svg">
<g id="Objects" clip-path="url(#clip0_43_2844)">
<g id="Group" opacity="0.2">
<path id="Vector" d="M14.3271 128.755C21.9836 128.755 28.1904 122.57 28.1904 114.941C28.1904 107.312 21.9836 101.128 14.3271 101.128C6.67067 101.128 0.463867 107.312 0.463867 114.941C0.463867 122.57 6.67067 128.755 14.3271 128.755Z" stroke="#B6EAFD" stroke-width="4" stroke-linecap="round" stroke-linejoin="round"/>
</g>
<g id="Group_2" opacity="0.2">
<path id="Vector_2" d="M119.57 35.3772C126.971 35.3772 132.971 29.3988 132.971 22.0241C132.971 14.6493 126.971 8.6709 119.57 8.6709C112.169 8.6709 106.169 14.6493 106.169 22.0241C106.169 29.3988 112.169 35.3772 119.57 35.3772Z" stroke="#B6EAFD" stroke-width="4" stroke-linecap="round" stroke-linejoin="round"/>
</g>
<path id="Vector_3" d="M122.805 116.493C123.613 116.493 124.268 115.841 124.268 115.036C124.268 114.231 123.613 113.578 122.805 113.578C121.998 113.578 121.343 114.231 121.343 115.036C121.343 115.841 121.998 116.493 122.805 116.493Z" fill="#4FC6FD"/>
<path id="Vector_4" d="M29.6897 34.4266C30.3111 34.4266 30.8149 33.9246 30.8149 33.3053C30.8149 32.6861 30.3111 32.1841 29.6897 32.1841C29.0682 32.1841 28.5645 32.6861 28.5645 33.3053C28.5645 33.9246 29.0682 34.4266 29.6897 34.4266Z" fill="#4FC6FD"/>
<path id="Vector_5" d="M34.4106 121.482C34.4106 122.173 33.8492 122.732 33.156 122.732C32.4628 122.732 31.9014 122.173 31.9014 121.482C31.9014 120.791 32.4628 120.232 33.156 120.232C33.8492 120.232 34.4106 120.791 34.4106 121.482Z" fill="#4FC6FD"/>
<path id="Vector_6" d="M94.616 23.866C95.3089 23.866 95.8706 23.3063 95.8706 22.6159C95.8706 21.9254 95.3089 21.3657 94.616 21.3657C93.923 21.3657 93.3613 21.9254 93.3613 22.6159C93.3613 23.3063 93.923 23.866 94.616 23.866Z" fill="#4FC6FD"/>
<path id="Vector_7" d="M4.37351 74.9763C4.37351 75.667 3.81205 76.2265 3.11888 76.2265C2.42572 76.2265 1.86426 75.667 1.86426 74.9763C1.86426 74.2856 2.42572 73.7262 3.11888 73.7262C3.81205 73.7262 4.37351 74.2856 4.37351 74.9763Z" fill="#4FC6FD"/>
<path id="Vector_8" d="M133.434 52.0526C134.127 52.0526 134.689 51.4929 134.689 50.8024C134.689 50.112 134.127 49.5523 133.434 49.5523C132.741 49.5523 132.18 50.112 132.18 50.8024C132.18 51.4929 132.741 52.0526 133.434 52.0526Z" fill="#4FC6FD"/>
<path id="Vector_9" d="M19.9615 105.565C22.2624 103.272 22.2624 99.5547 19.9615 97.2621C17.6606 94.9694 13.93 94.9694 11.6291 97.2621C9.32816 99.5547 9.32816 103.272 11.6291 105.565C13.93 107.857 17.6606 107.857 19.9615 105.565Z" fill="#60C1FD"/>
<path id="Vector_10" d="M110.151 27.1713C112.574 24.7573 112.574 20.8433 110.151 18.4292C107.729 16.0152 103.801 16.0152 101.378 18.4292C98.9552 20.8433 98.9552 24.7573 101.378 27.1713C103.801 29.5854 107.729 29.5854 110.151 27.1713Z" fill="#60C1FD"/>
<path id="Vector_11" d="M143.001 88.6809C145.063 86.6265 145.063 83.2956 143.001 81.2412C140.94 79.1868 137.597 79.1868 135.535 81.2412C133.473 83.2956 133.473 86.6265 135.535 88.6809C137.597 90.7353 140.94 90.7354 143.001 88.6809Z" fill="#60C1FD"/>
<path id="Vector_12" d="M129.735 128.875C131.616 127.001 131.616 123.961 129.735 122.087C127.854 120.212 124.803 120.212 122.922 122.087C121.041 123.961 121.041 127.001 122.922 128.875C124.803 130.75 127.854 130.75 129.735 128.875Z" fill="#60C1FD"/>
<path id="Vector_13" d="M29.2283 135.296C30.7966 135.296 32.068 134.029 32.068 132.466C32.068 130.904 30.7966 129.637 29.2283 129.637C27.66 129.637 26.3887 130.904 26.3887 132.466C26.3887 134.029 27.66 135.296 29.2283 135.296Z" stroke="#7BCCFD" stroke-width="4" stroke-linecap="round" stroke-linejoin="round"/>
<path id="Vector_14" d="M86.951 19.8854C88.5193 19.8854 89.7906 18.6186 89.7906 17.0559C89.7906 15.4932 88.5193 14.2264 86.951 14.2264C85.3827 14.2264 84.1113 15.4932 84.1113 17.0559C84.1113 18.6186 85.3827 19.8854 86.951 19.8854Z" stroke="#7BCCFD" stroke-width="4" stroke-linecap="round" stroke-linejoin="round"/>
<path id="Vector_15" d="M30.3849 27.5012C32.655 27.5012 34.4953 25.6675 34.4953 23.4055C34.4953 21.1435 32.655 19.3098 30.3849 19.3098C28.1147 19.3098 26.2744 21.1435 26.2744 23.4055C26.2744 25.6675 28.1147 27.5012 30.3849 27.5012Z" stroke="#7BCCFD" stroke-width="4" stroke-linecap="round" stroke-linejoin="round"/>
<path id="Vector_16" d="M142.81 65.3895C143.37 62.1129 141.158 59.0045 137.87 58.4468C134.581 57.8891 131.462 60.0932 130.902 63.3698C130.342 66.6463 132.554 69.7547 135.843 70.3124C139.131 70.8701 142.251 68.666 142.81 65.3895Z" stroke="#7BCCFD" stroke-width="4" stroke-linecap="round" stroke-linejoin="round"/>
<path id="Vector_17" d="M11.0298 68.2929C13.7057 68.2929 15.875 66.1314 15.875 63.465C15.875 60.7987 13.7057 58.6371 11.0298 58.6371C8.35385 58.6371 6.18457 60.7987 6.18457 63.465C6.18457 66.1314 8.35385 68.2929 11.0298 68.2929Z" stroke="#7BCCFD" stroke-width="4" stroke-linecap="round" stroke-linejoin="round"/>
<path id="Vector_18" d="M13.1966 46.092L13.7488 48.5002L16.1656 49.0504L13.7488 49.6029L13.1966 52.0088L12.6421 49.6029L10.2275 49.0504L12.6421 48.5002L13.1966 46.092Z" fill="#B6E3FD"/>
<path id="Vector_19" d="M120.405 24.681L120.957 27.0892L123.374 27.6394L120.957 28.192L120.405 30.5979L119.85 28.192L117.436 27.6394L119.85 27.0892L120.405 24.681Z" fill="#B6E3FD"/>
<path id="Vector_20" d="M116.306 123.352L116.736 125.228L118.619 125.658L116.736 126.087L116.306 127.963L115.874 126.087L113.991 125.658L115.874 125.228L116.306 123.352Z" fill="#B6E3FD"/>
<path id="Vector_21" d="M76.1154 12.0761L76.4227 13.4206L77.7744 13.7291L76.4227 14.0376L76.1154 15.3822L75.8058 14.0376L74.4541 13.7291L75.8058 13.4206L76.1154 12.0761Z" fill="#DBF1FF"/>
<path id="Vector_22" d="M131.202 75.0131L131.509 76.3576L132.861 76.6661L131.509 76.9723L131.202 78.3191L130.892 76.9723L129.543 76.6661L130.892 76.3576L131.202 75.0131Z" fill="#DBF1FF"/>
<path id="Vector_23" d="M38.8553 129.347L39.1649 130.691L40.5142 131L39.1649 131.306L38.8553 132.653L38.548 131.306L37.1963 131L38.548 130.691L38.8553 129.347Z" fill="#DBF1FF"/>
<path id="Vector_24" d="M8.81815 88.3662L9.12777 89.7107L10.4771 90.0192L9.12777 90.3254L8.81815 91.6723L8.51085 90.3254L7.15918 90.0192L8.51085 89.7107L8.81815 88.3662Z" fill="#DBF1FF"/>
<path id="Vector_25" d="M141.442 51.7603L141.752 53.1048L143.101 53.4133L141.752 53.7195L141.442 55.0664L141.135 53.7195L139.783 53.4133L141.135 53.1048L141.442 51.7603Z" fill="#DBF1FF"/>
<path id="Vector_26" d="M139.47 97.0435L139.902 98.9198L141.785 99.3503L139.902 99.7786L139.47 101.655L139.04 99.7786L137.157 99.3503L139.04 98.9198L139.47 97.0435Z" fill="#B6E3FD"/>
<path id="Vector_27" d="M17.1636 113.397L17.6766 115.627L19.9155 116.136L17.6766 116.647L17.1636 118.878L16.653 116.647L14.4141 116.136L16.653 115.627L17.1636 113.397Z" fill="#B6E3FD"/>
<path id="Vector_28" d="M31.3155 111.46C32.3197 111.46 33.1339 110.649 33.1339 109.648C33.1339 108.648 32.3197 107.836 31.3155 107.836C30.3112 107.836 29.4971 108.648 29.4971 109.648C29.4971 110.649 30.3112 111.46 31.3155 111.46Z" fill="#B6EAFD"/>
<path id="Vector_29" d="M22.2862 61.9846C23.2904 61.9846 24.1046 61.1734 24.1046 60.1727C24.1046 59.172 23.2904 58.3608 22.2862 58.3608C21.2819 58.3608 20.4678 59.172 20.4678 60.1727C20.4678 61.1734 21.2819 61.9846 22.2862 61.9846Z" fill="#B6EAFD"/>
<path id="Vector_30" d="M75.0743 23.258C76.0785 23.258 76.8927 22.4468 76.8927 21.4462C76.8927 20.4455 76.0785 19.6343 75.0743 19.6343C74.07 19.6343 73.2559 20.4455 73.2559 21.4462C73.2559 22.4468 74.07 23.258 75.0743 23.258Z" fill="#B6EAFD"/>
<path id="Vector_31" d="M106.714 108.001C124.369 90.4091 124.369 61.8875 106.714 44.2959C89.0595 26.7042 60.4353 26.7042 42.7805 44.2959C25.1256 61.8875 25.1256 90.4091 42.7805 108.001C60.4353 125.592 89.0595 125.592 106.714 108.001Z" fill="#8AD1FD"/>
<path id="Vector_32" d="M74.7476 111.428C94.3023 111.428 110.154 95.6328 110.154 76.1482C110.154 56.6636 94.3023 40.8682 74.7476 40.8682C55.193 40.8682 39.3408 56.6636 39.3408 76.1482C39.3408 95.6328 55.193 111.428 74.7476 111.428Z" fill="#9BD8FD"/>
<path id="Vector_33" d="M74.7454 99.5184C87.6988 99.5184 98.1997 89.0552 98.1997 76.1481C98.1997 63.241 87.6988 52.7778 74.7454 52.7778C61.7919 52.7778 51.291 63.241 51.291 76.1481C51.291 89.0552 61.7919 99.5184 74.7454 99.5184Z" fill="#B8E3FD"/>
<g id="Group_3" opacity="0.6">
<path id="Vector_34" d="M110.118 111.394C129.654 91.9282 129.654 60.3687 110.118 40.9033C90.5831 21.438 58.9101 21.438 39.3748 40.9033C19.8394 60.3687 19.8394 91.9282 39.3748 111.394C58.9101 130.859 90.5831 130.859 110.118 111.394Z" stroke="#B6EAFD" stroke-width="4" stroke-linecap="round" stroke-linejoin="round"/>
</g>
<path id="Vector_35" opacity="0.6" d="M22.2871 59.878C29.2395 37.6081 50.0876 21.437 74.725 21.437" stroke="#B6EAFD" stroke-width="4" stroke-linecap="round" stroke-linejoin="round"/>
<path id="Vector_36" opacity="0.6" d="M125.926 95.9521C117.962 116.378 98.0423 130.857 74.7289 130.857C57.0717 130.857 41.3623 122.553 31.3184 109.648" stroke="#B6EAFD" stroke-width="4" stroke-linecap="round" stroke-linejoin="round"/>
<g id="Group_4">
<path id="Vector_37" d="M82.5312 89.1122L85.253 89.7591L84.1186 94.2601L80.6943 93.4036L82.5312 89.1122Z" fill="#DCAB69"/>
<path id="Vector_38" d="M82.0854 87.0678L83.5849 87.8299L81.5724 95.2639L79.627 94.2877L82.0854 87.0678Z" fill="white"/>
<path id="Vector_39" d="M70.9923 83.2713C72.1222 83.8515 83.125 86.582 83.1366 86.5843L80.0474 95.2385C76.9443 94.4857 69.0538 92.5863 66.7017 91.3431C64.331 90.0907 55.4077 84.6366 54.9687 84.381C52.7806 83.1125 52.0389 80.3152 53.312 78.1373C54.5851 75.957 57.3902 75.218 59.5782 76.4866C63.2497 78.6139 69.2271 82.3389 70.9946 83.2713H70.9923Z" fill="#225270"/>
<g id="Group_5">
<path id="Vector_40" d="M78.0541 93.468C78.0148 93.1434 78.2482 92.8464 78.5763 92.8096C78.9021 92.7705 79.2001 93.003 79.2371 93.3299C79.2741 93.6568 79.043 93.9515 78.7149 93.9884C78.3892 94.0275 78.0911 93.795 78.0541 93.468Z" fill="#204D69"/>
<path id="Vector_41" d="M75.9633 92.9524C75.924 92.6277 76.1574 92.3307 76.4855 92.2939C76.8113 92.2548 77.1093 92.4873 77.1463 92.8142C77.1856 93.1388 76.9522 93.4358 76.6241 93.4727C76.2983 93.5118 76.0003 93.2793 75.9633 92.9524Z" fill="#204D69"/>
</g>
<path id="Vector_42" d="M87.3554 91.0369C88.0878 90.9195 88.5869 90.2334 88.4714 89.5036C88.3535 88.7737 87.665 88.2764 86.9325 88.3916L85.5555 88.6103C84.823 88.7277 84.3239 89.4138 84.4395 90.1436C84.5573 90.8734 85.2458 91.3707 85.9783 91.2556L87.3554 91.0369Z" fill="#DCAB69"/>
<path id="Vector_43" d="M82.6938 92.9523L83.3685 90.1389C83.6249 89.0684 84.704 88.4076 85.7784 88.6632L88.7844 89.2319C89.8588 89.4874 90.7091 90.558 90.2654 91.6331C89.9558 92.3883 89.5122 93.3713 89.0871 94.3268C88.6642 95.2822 87.7516 96.0581 86.6772 95.8025L84.1748 95.3536C83.1004 95.098 82.4373 94.0229 82.6938 92.9523Z" fill="#DCAB69"/>
</g>
<g id="Group_6">
<g id="Group_7">
<path id="Vector_44" d="M65.9243 130.125H57.1258C56.9905 130.125 56.8809 130.234 56.8809 130.369V135.595C56.8809 135.73 56.9905 135.839 57.1258 135.839H65.9243C66.0596 135.839 66.1693 135.73 66.1693 135.595V130.369C66.1693 130.234 66.0596 130.125 65.9243 130.125Z" stroke="#4D2714" stroke-width="8" stroke-linecap="round" stroke-linejoin="round"/>
<g id="Group_8">
<path id="Vector_45" d="M74.4065 133.829H48.6439C47.7047 133.829 46.9434 134.588 46.9434 135.524V150.99C46.9434 151.926 47.7047 152.685 48.6439 152.685H74.4065C75.3457 152.685 76.1071 151.926 76.1071 150.99V135.524C76.1071 134.588 75.3457 133.829 74.4065 133.829Z" fill="#522617"/>
<path id="Vector_46" d="M48.1656 133.636H74.8825C75.8575 133.636 76.6454 134.423 76.6454 135.392V142.062C72.6343 143.591 67.3339 144.521 61.5229 144.521C55.7119 144.521 50.4115 143.591 46.4004 142.062V135.392C46.4004 134.421 47.1906 133.636 48.1633 133.636H48.1656Z" fill="#632D1B"/>
<path id="Vector_47" d="M62.7719 142.619H60.2742C60.0726 142.619 59.9092 142.782 59.9092 142.983V145.472C59.9092 145.673 60.0726 145.835 60.2742 145.835H62.7719C62.9736 145.835 63.137 145.673 63.137 145.472V142.983C63.137 142.782 62.9736 142.619 62.7719 142.619Z" fill="#B89234"/>
<path id="Vector_48" d="M62.3954 143.107H60.6555C60.5152 143.107 60.4014 143.221 60.4014 143.36V145.094C60.4014 145.234 60.5152 145.347 60.6555 145.347H62.3954C62.5357 145.347 62.6495 145.234 62.6495 145.094V143.36C62.6495 143.221 62.5357 143.107 62.3954 143.107Z" fill="#976615"/>
</g>
</g>
<g id="Group_9">
<path id="Vector_49" d="M52.6952 153.131V154.69H56.8542C57.2285 154.69 57.5428 153.91 58.199 153.91H59.8256C60.1375 153.91 63.4485 155.07 63.8344 155.07C64.7725 155.07 69.3312 155.001 70.6436 154.342V153.304C70.6436 153.304 70.6112 151.78 69.1417 151.78C67.6722 151.78 63.9522 150.983 60.5442 147.97C60.5442 147.97 58.3861 151.052 52.8524 148.939C52.8524 148.939 52.2886 151.087 52.6952 153.131Z" fill="#0A1C26"/>
<path id="Vector_50" d="M58.2697 153.59C57.3062 153.59 54.8431 153.787 52.6943 153.131V154.69C52.6943 154.69 54.4665 155.383 56.8926 154.794C57.26 154.704 57.8445 154.101 58.1981 154.101H59.8247C61.5414 154.101 62.5534 154.932 63.4823 155.07C65.0696 155.309 69.3303 155.001 70.6427 154.342V153.304C70.6427 153.304 70.6427 153.267 70.6357 153.203C69.9518 153.472 68.5123 153.896 66.1348 153.946C62.6112 154.02 59.2378 153.587 58.272 153.587L58.2697 153.59Z" fill="black"/>
</g>
<path id="Vector_51" d="M47.5352 110.229L52.8171 149.006C52.8171 149.006 56.775 151.699 61.3638 148.605C61.3638 148.605 58.2653 142.734 62.0592 108.345L47.5352 110.229Z" fill="#204D69"/>
<g id="Group_10">
<path id="Vector_52" d="M97.6622 153.131V154.69H93.5032C93.1289 154.69 92.8147 153.91 92.1585 153.91H90.5318C90.2199 153.91 86.9089 155.07 86.523 155.07C85.585 155.07 81.0263 155.001 79.7139 154.342V153.304C79.7139 153.304 79.7462 151.78 81.2157 151.78C82.6852 151.78 86.4052 150.983 89.8133 147.97C89.8133 147.97 91.9713 151.052 97.5051 148.939C97.5051 148.939 98.0688 151.087 97.6622 153.131Z" fill="#452008"/>
<path id="Vector_53" d="M92.0839 153.59C93.0474 153.59 95.5105 153.787 97.6593 153.131V154.69C97.6593 154.69 95.8871 155.383 93.461 154.794C93.0936 154.704 92.5091 154.101 92.1555 154.101H90.5289C88.8122 154.101 87.8002 154.932 86.8713 155.07C85.284 155.309 81.0233 155.001 79.7109 154.342V153.304C79.7109 153.304 79.7109 153.267 79.7179 153.203C80.4018 153.472 81.8413 153.896 84.2188 153.946C87.7424 154.02 91.1158 153.587 92.0816 153.587L92.0839 153.59Z" fill="#1A0C03"/>
</g>
<path id="Vector_54" d="M102.822 110.229L97.54 149.006C97.54 149.006 93.5821 151.699 88.9933 148.605C88.9933 148.605 92.0918 142.734 88.2979 108.345L102.822 110.229Z" fill="#524747"/>
<path id="Vector_55" d="M75.1303 100.299L72.1451 98.1509C71.6368 97.794 70.9344 97.9183 70.5763 98.4248L69.6382 99.7579C69.28 100.264 69.4048 100.964 69.9131 101.321L72.6581 103.301C73.1664 103.658 73.8064 103.439 74.2269 103.027C74.6474 102.615 75.0841 102.194 75.403 101.862C75.8582 101.39 75.6364 100.656 75.128 100.299H75.1303Z" fill="#DB8E34"/>
<path id="Vector_56" d="M80.9126 97.3704L83.5905 100.84L76.9962 103.734L76.377 99.302L80.9126 97.3704Z" fill="#DCAB69"/>
<path id="Vector_57" d="M69.405 103.241L73.5479 99.3135C74.2572 98.6597 75.3639 98.7011 76.0201 99.4079L77.7438 101.264C78.4 101.97 78.3584 103.073 77.6491 103.727L73.839 107.348C73.1296 108.002 72.1014 107.8 71.3667 107.254C70.6319 106.708 69.8718 106.149 69.3103 105.705C68.5086 105.074 68.6957 103.895 69.405 103.241Z" fill="#DCAB69"/>
<path id="Vector_58" d="M79.4777 96.2676L77.9111 96.8754L79.1634 104.473L81.199 103.695L79.4777 96.2676Z" fill="white"/>
<path id="Vector_59" d="M80.7804 104.25L78.5762 96.1641C78.6386 96.1387 78.7009 96.1134 78.7633 96.0904C83.0794 94.5272 88.1649 92.5265 90.5448 91.4122C90.4062 89.3286 89.6691 85.2582 88.7241 81.5493C88.1488 79.2884 89.5212 76.9885 91.7902 76.4129C94.0591 75.8419 96.3674 77.2072 96.945 79.468C96.9774 79.5993 97.7653 82.7027 98.3637 86.0364C99.5374 92.6002 99.2325 95.4342 97.1576 97.2692C96.6123 97.7503 81.0831 104.206 80.792 104.245C80.7897 104.245 80.7851 104.245 80.7827 104.245L80.7804 104.25Z" fill="#5C5050"/>
<g id="Group_11">
<path id="Vector_60" d="M81.3975 102.507C81.4437 102.831 81.7441 103.059 82.0699 103.013C82.3957 102.967 82.6244 102.668 82.5782 102.343C82.532 102.019 82.2316 101.791 81.9059 101.837C81.5801 101.883 81.3513 102.182 81.3975 102.507Z" fill="#524747"/>
<path id="Vector_61" d="M83.2911 101.482C83.3373 101.807 83.6377 102.035 83.9635 101.989C84.2892 101.943 84.518 101.643 84.4718 101.319C84.4256 100.994 84.1252 100.766 83.7994 100.812C83.4736 100.858 83.2449 101.158 83.2911 101.482Z" fill="#524747"/>
</g>
<g id="Group_12">
<path id="Vector_62" d="M49.499 153.981V155.539H53.6579C54.0323 155.539 54.3465 154.759 55.0027 154.759H56.6293C56.9412 154.759 60.2522 155.919 60.6381 155.919C61.5762 155.919 66.1349 155.85 67.4473 155.192V154.153C67.4473 154.153 67.4149 152.629 65.9454 152.629C64.4759 152.629 60.7559 151.833 57.3479 148.819C57.3479 148.819 55.1898 151.902 49.6561 149.788C49.6561 149.788 49.0923 151.936 49.499 153.981Z" fill="#102838"/>
<path id="Vector_63" d="M55.0734 154.439C54.1099 154.439 51.6469 154.637 49.498 153.981V155.539C49.498 155.539 51.2702 156.232 53.6963 155.643C54.0637 155.553 54.6483 154.95 55.0018 154.95H56.6284C58.3451 154.95 59.3572 155.781 60.286 155.919C61.8733 156.159 66.134 155.85 67.4464 155.192V154.153C67.4464 154.153 67.4464 154.117 67.4394 154.052C66.7555 154.321 65.316 154.745 62.9385 154.796C59.4149 154.869 56.0415 154.437 55.0757 154.437L55.0734 154.439Z" fill="black"/>
</g>
<path id="Vector_64" d="M66.5422 97.1771L63.8643 100.647L70.4586 103.541L71.0778 99.1087L66.5422 97.1771Z" fill="#DB8E34"/>
<path id="Vector_65" d="M77.5932 102.859L73.1524 99.2699C72.3945 98.6736 71.2947 98.8025 70.6963 99.56L69.1251 101.545C68.5267 102.3 68.6561 103.396 69.4162 103.992L73.5013 107.3C74.2591 107.896 75.2711 107.613 75.9574 107.01C76.6459 106.407 77.3599 105.79 77.8844 105.304C78.633 104.611 78.3534 103.453 77.5932 102.857V102.859Z" fill="#DB8E34"/>
<path id="Vector_66" d="M47.2822 111.078L49.5812 149.855C49.5812 149.855 53.3243 152.549 58.1603 149.455C58.1603 149.455 55.3969 143.584 61.9565 109.195L47.2822 111.078Z" fill="#25597A"/>
<path id="Vector_67" d="M53.4962 64.418L51.791 73.07L60.176 74.845L59.3049 68.0188L53.4962 64.418Z" fill="#DB8E34"/>
<path id="Vector_68" d="M58.3855 67.4617C62.2686 67.4617 65.4165 64.2354 65.4165 60.2556C65.4165 56.2758 62.2686 53.0495 58.3855 53.0495C54.5024 53.0495 51.3545 56.2758 51.3545 60.2556C51.3545 64.2354 54.5024 67.4617 58.3855 67.4617Z" fill="#DB8E34"/>
<path id="Vector_69" d="M64.5029 113.445V82.1433C64.5029 76.3369 55.9585 72.5198 50.1313 72.5198C45.866 75.9064 43.9298 92.9823 44.5282 113.445H64.5029Z" fill="#204D69"/>
<path id="Vector_70" d="M62.3457 73.8619C62.6183 74.624 62.2209 75.462 61.4561 75.7337C60.6913 76.0054 59.8503 75.6094 59.5776 74.8473L59.0254 73.2795C58.7528 72.5174 59.1502 71.6794 59.915 71.4077C60.6798 71.1361 61.5208 71.532 61.7934 72.2941L62.3457 73.8619Z" fill="#FD4F38"/>
<path id="Vector_71" d="M64.3377 78.5517C64.6473 79.3 64.2892 80.1541 63.5382 80.4626C62.7873 80.7711 61.9301 80.4143 61.6205 79.666L60.3243 76.5327C60.0146 75.7844 60.3728 74.9303 61.1237 74.6218C61.8746 74.3133 62.7318 74.6701 63.0415 75.4184L64.3377 78.5517Z" fill="#FD6C59"/>
<path id="Vector_72" d="M51.3975 72.0869V68.1592L60.9054 70.5467L59.7362 74.3385L51.3975 72.0869Z" fill="white"/>
<path id="Vector_73" d="M60.2144 72.7684L51.1432 68.6013L49.5859 72.5681L64.5028 78.8694L60.2144 72.7684Z" fill="#25597A"/>
<path id="Vector_74" d="M61.5815 74.9578L59.6592 78.9499L64.5044 89.3907V78.8693L61.5815 74.9578Z" fill="#25597A"/>
<path id="Vector_75" d="M56.9131 67.3005L61.5942 69.5844H66.0883L64.8175 61.8856L56.9131 60.8611V67.3005Z" fill="#DB8E34"/>
<path id="Vector_76" d="M63.9414 59.2403L66.6632 64.8878L63.946 65.2884L63.9414 59.2403Z" fill="#DB8E34"/>
<path id="Vector_77" d="M57.6183 57.6126C57.2047 58.4483 57.17 59.5971 58.7782 60.2786C58.7782 60.2786 58.39 62.0007 59.2749 63.4811H57.304L56.9135 61.5518C56.9135 61.5518 54.023 62.1458 55.4671 63.4811C55.4671 63.4811 55.3193 66.0504 53.1219 66.3244C50.9246 66.5983 50.6265 65.5899 50.6265 65.5899C50.6265 65.5899 51.6709 64.9315 51.7911 64.0014C51.9112 63.069 50.0766 59.71 50.6265 57.2511C50.9246 55.9158 52.475 52.5039 56.9112 51.7602C61.3475 51.0189 67.0545 51.7786 66.8789 52.6696C66.7033 53.5606 64.9242 56.9173 64.0323 56.8782C63.4316 56.8505 58.688 55.4439 57.6159 57.6126H57.6183Z" fill="#543714"/>
<path id="Vector_78" d="M57.3981 62.2102C57.6731 63.4626 57.144 64.6437 56.2151 64.8463C55.2863 65.0489 54.3089 64.197 54.0317 62.9446C53.7567 61.6922 54.2858 60.5111 55.2147 60.3085C56.1435 60.1059 57.1209 60.9577 57.3981 62.2102Z" fill="#DB8E34"/>
<path id="Vector_79" d="M63.9552 56.4154C63.9552 56.4154 65.9376 53.9681 65.4178 52.8952C64.9349 51.896 63.433 51.896 63.1211 52.2206C63.4815 52.1308 66.0486 52.6327 63.9552 56.4154Z" fill="#754C1C"/>
<path id="Vector_80" d="M63.4721 56.0632C63.4721 56.0632 64.3732 54.0924 63.6893 53.3534C62.9591 52.566 61.9355 52.7985 61.9355 52.7985C61.9355 52.7985 64.3662 53.2981 63.4721 56.0609V56.0632Z" fill="#754C1C"/>
<path id="Vector_81" d="M67.2503 96.2676L68.8192 96.8754L67.5668 104.473L65.5312 103.695L67.2503 96.2676Z" fill="white"/>
<path id="Vector_82" d="M65.9474 104.25L68.1517 96.1641C68.0893 96.1387 68.0269 96.1134 67.9645 96.0904C63.6484 94.5272 58.5629 92.5265 56.183 91.4122C56.3217 89.3286 57.0587 85.2582 58.0038 81.5493C58.5791 79.2884 57.2066 76.9885 54.9377 76.4129C52.6687 75.8419 50.3605 77.2072 49.7828 79.468C49.7505 79.5993 48.9626 82.7027 48.3642 86.0364C47.1904 92.6002 47.4954 95.4342 49.5703 97.2692C50.1156 97.7503 65.6447 104.206 65.9359 104.245C65.9382 104.245 65.9428 104.245 65.9451 104.245L65.9474 104.25Z" fill="#25597A"/>
<g id="Group_13">
<path id="Vector_83" d="M65.3302 102.507C65.284 102.831 64.9836 103.059 64.6578 103.013C64.332 102.967 64.1033 102.668 64.1495 102.343C64.1957 102.019 64.4961 101.791 64.8219 101.837C65.1476 101.883 65.3764 102.182 65.3302 102.507Z" fill="#204D69"/>
<path id="Vector_84" d="M63.4366 101.482C63.3904 101.807 63.09 102.035 62.7643 101.989C62.4385 101.943 62.2097 101.643 62.2559 101.319C62.3021 100.994 62.6025 100.766 62.9283 100.812C63.2541 100.858 63.4828 101.158 63.4366 101.482Z" fill="#204D69"/>
</g>
<g id="Group_14">
<path id="Vector_85" d="M100.217 153.981V155.539H96.0579C95.6836 155.539 95.3694 154.759 94.7132 154.759H93.0865C92.7746 154.759 89.4636 155.919 89.0777 155.919C88.1397 155.919 83.5809 155.85 82.2686 155.192V154.153C82.2686 154.153 82.3009 152.629 83.7704 152.629C85.2399 152.629 88.9599 151.833 92.3679 148.819C92.3679 148.819 94.526 151.902 100.06 149.788C100.06 149.788 100.624 151.936 100.217 153.981Z" fill="#57290A"/>
<path id="Vector_86" d="M94.6386 154.439C95.6021 154.439 98.0651 154.637 100.214 153.981V155.539C100.214 155.539 98.4418 156.232 96.0157 155.643C95.6483 155.553 95.0637 154.95 94.7102 154.95H93.0836C91.3669 154.95 90.3549 155.781 89.426 155.919C87.8387 156.159 83.578 155.85 82.2656 155.192V154.153C82.2656 154.153 82.2656 154.117 82.2726 154.052C82.9565 154.322 84.396 154.745 86.7735 154.796C90.2971 154.869 93.6728 154.437 94.6363 154.437L94.6386 154.439Z" fill="#3B1C07"/>
</g>
<path id="Vector_87" d="M102.431 111.078L100.132 149.855C100.132 149.855 96.389 152.549 91.5531 149.455C91.5531 149.455 94.3165 143.584 87.7568 109.195L102.431 111.078Z" fill="#5C5050"/>
<path id="Vector_88" d="M96.2136 64.418L97.9188 73.07L89.5361 74.845L90.4049 68.0188L96.2136 64.418Z" fill="#DCAB69"/>
<path id="Vector_89" d="M91.3259 67.4617C95.209 67.4617 98.3569 64.2354 98.3569 60.2556C98.3569 56.2758 95.209 53.0495 91.3259 53.0495C87.4428 53.0495 84.2949 56.2758 84.2949 60.2556C84.2949 64.2354 87.4428 67.4617 91.3259 67.4617Z" fill="#DCAB69"/>
<path id="Vector_90" d="M85.2109 113.445V82.1433C85.2109 76.3369 93.7553 72.5198 99.5825 72.5198C103.848 75.9064 105.784 92.9823 105.186 113.445H85.2109Z" fill="#524747"/>
<path id="Vector_91" d="M87.3691 73.8619C87.0965 74.624 87.4939 75.462 88.2587 75.7337C89.0235 76.0054 89.8645 75.6094 90.1372 74.8473L90.6894 73.2795C90.962 72.5174 90.5646 71.6794 89.7998 71.4077C89.0351 71.1361 88.194 71.532 87.9214 72.2941L87.3691 73.8619Z" fill="#186C9F"/>
<path id="Vector_92" d="M85.376 78.5517C85.0664 79.2999 85.4245 80.1541 86.1755 80.4626C86.9264 80.7711 87.7836 80.4142 88.0932 79.666L89.3894 76.5326C89.699 75.7844 89.3409 74.9302 88.59 74.6217C87.8391 74.3132 86.9818 74.6701 86.6722 75.4183L85.376 78.5517Z" fill="#367FAB"/>
<path id="Vector_93" d="M98.3145 72.087V68.1593L88.8066 70.5468L89.9758 74.3386L98.3145 72.087Z" fill="white"/>
<path id="Vector_94" d="M89.4993 72.7684L98.5705 68.6013L100.128 72.5681L85.2109 78.8694L89.4993 72.7684Z" fill="#5C5050"/>
<path id="Vector_95" d="M88.1315 74.9578L90.0562 78.9499L85.2109 89.3907V78.8693L88.1315 74.9578Z" fill="#5C5050"/>
<path id="Vector_96" d="M92.8008 67.3006L88.1196 69.5844H83.3945L85.1274 61.8857L92.8008 60.8611V67.3006Z" fill="#DCAB69"/>
<path id="Vector_97" d="M85.7572 59.3508L82.832 65.0535H85.7572V59.3508Z" fill="#DCAB69"/>
<path id="Vector_98" d="M92.0956 57.6126C92.5092 58.4483 92.5438 59.5971 90.9357 60.2786C90.9357 60.2786 91.3239 62.0007 90.4389 63.481H92.4098L92.8003 61.5517C92.8003 61.5517 95.6908 62.1457 94.2467 63.481C94.2467 63.481 94.3946 66.0504 96.5919 66.3243C98.7892 66.5983 98.9695 65.659 98.9695 65.659C98.9695 65.659 99.1936 63.1841 99.0734 62.2516C98.9533 61.3192 102.595 56.8827 98.8655 55.7477C97.932 52.0319 96.8969 53.5698 92.7541 51.8247C89.9953 50.6643 86.2615 50.6413 84.4662 51.6175C82.188 52.8561 82.1371 57.4606 85.6792 56.8758C86.2707 56.7791 91.0235 55.4415 92.0956 57.6103V57.6126Z" fill="#2C2A28"/>
<path id="Vector_99" d="M92.3149 62.2102C92.0399 63.4626 92.569 64.6437 93.4979 64.8463C94.4267 65.0489 95.4041 64.197 95.6813 62.9446C95.9563 61.6922 95.4272 60.5111 94.4983 60.3085C93.5695 60.1059 92.5921 60.9577 92.3149 62.2102Z" fill="#DCAB69"/>
<path id="Vector_100" d="M76.7265 99.0488C77.0061 99.652 76.7427 100.366 76.1396 100.644L74.044 101.611C73.4386 101.89 72.7223 101.627 72.4428 101.026C72.1632 100.423 72.4266 99.7096 73.0296 99.431L75.1253 98.464C75.7307 98.1855 76.4469 98.4479 76.7265 99.0488Z" fill="#DCAB69"/>
<path id="Vector_101" d="M73.8373 106.029C74.237 106.322 74.3132 106.893 74.0106 107.302C73.7079 107.712 73.1372 107.807 72.7374 107.514L69.2323 104.938C68.8326 104.646 68.7564 104.075 69.0591 103.665C69.3617 103.255 69.9324 103.161 70.3322 103.453L73.8373 106.029Z" fill="#DCAB69"/>
<path id="Vector_102" d="M85.2832 56.0333C85.2832 56.0333 89.4006 53.6642 92.7116 55.2712C92.7116 55.2712 88.4671 54.2559 85.2832 56.0333Z" fill="#615E5A"/>
<path id="Vector_103" d="M85.5791 55.4254C85.5791 55.4254 89.9368 52.3772 93.7931 53.8438C93.7931 53.8438 88.9548 53.1301 85.5791 55.4254Z" fill="#615E5A"/>
<path id="Vector_104" d="M65.6889 66.4716C65.6889 66.4716 64.7162 67.038 63.1104 66.5706C63.1104 66.5706 64.2656 67.4156 65.786 66.9344L65.6889 66.4716Z" fill="#CC8432"/>
<path id="Vector_105" d="M84.0326 66.4716C84.0326 66.4716 85.0053 67.038 86.6112 66.5706C86.6112 66.5706 85.4559 67.4156 83.9355 66.9344L84.0326 66.4716Z" fill="#C2985C"/>
<path id="Vector_106" d="M94.4698 110.042L93.9707 112.786L98.5618 113.56L99.151 110.093L94.4698 110.042Z" fill="#DCAB69"/>
<path id="Vector_107" d="M92.7725 108.813L92.8695 110.486L100.51 111.642L100.395 109.473L92.7725 108.813Z" fill="white"/>
<path id="Vector_108" d="M93.6609 96.2976C93.7418 97.5616 91.9072 109.568 91.9072 109.577L101.101 110.236C101.658 107.102 103 98.2707 102.804 95.6231C102.605 92.9571 101.256 81.0981 101.198 80.5939C100.911 78.0867 98.6402 76.2863 96.1263 76.5718C93.6101 76.8573 91.8033 79.1181 92.0898 81.6253C92.568 85.8292 93.5154 94.3062 93.6609 96.2953V96.2976Z" fill="#5C5050"/>
<g id="Group_15">
<path id="Vector_109" d="M100.273 107.708C99.9884 107.542 99.6233 107.636 99.457 107.919C99.2906 108.203 99.3854 108.566 99.6695 108.732C99.9537 108.898 100.319 108.803 100.485 108.52C100.652 108.237 100.557 107.873 100.273 107.708Z" fill="#524747"/>
<path id="Vector_110" d="M100.64 105.594C100.356 105.428 99.9905 105.523 99.8242 105.806C99.6578 106.089 99.7525 106.453 100.037 106.619C100.321 106.784 100.686 106.69 100.852 106.407C101.019 106.124 100.924 105.76 100.64 105.594Z" fill="#524747"/>
</g>
<path id="Vector_111" d="M94.2988 115.218C93.8968 115.839 93.0673 116.019 92.4435 115.618C91.8196 115.218 91.6394 114.391 92.0414 113.77L92.797 112.6C93.199 111.978 94.0285 111.799 94.6524 112.199C95.2762 112.6 95.4564 113.426 95.0544 114.048L94.2988 115.218Z" fill="#DCAB69"/>
<g id="Group_16">
<path id="Vector_112" d="M99.8931 115.114H91.0945C90.9593 115.114 90.8496 115.223 90.8496 115.358V120.584C90.8496 120.719 90.9593 120.828 91.0945 120.828H99.8931C100.028 120.828 100.138 120.719 100.138 120.584V115.358C100.138 115.223 100.028 115.114 99.8931 115.114Z" stroke="#373736" stroke-width="8" stroke-linecap="round" stroke-linejoin="round"/>
<g id="Group_17">
<path id="Vector_113" d="M108.373 118.818H82.6107C81.6715 118.818 80.9102 119.577 80.9102 120.513V135.979C80.9102 136.915 81.6715 137.674 82.6107 137.674H108.373C109.312 137.674 110.074 136.915 110.074 135.979V120.513C110.074 119.577 109.312 118.818 108.373 118.818Z" fill="#1B1B1A"/>
<path id="Vector_114" d="M108.852 118.623H82.135C81.16 118.623 80.3721 119.41 80.3721 120.379V127.049C84.3832 128.578 89.6836 129.508 95.4946 129.508C101.306 129.508 106.606 128.578 110.617 127.049V120.379C110.617 119.408 109.827 118.623 108.854 118.623H108.852Z" fill="#262624"/>
<path id="Vector_115" d="M96.7436 127.606H94.2459C94.0443 127.606 93.8809 127.769 93.8809 127.97V130.459C93.8809 130.66 94.0443 130.822 94.2459 130.822H96.7436C96.9452 130.822 97.1087 130.66 97.1087 130.459V127.97C97.1087 127.769 96.9452 127.606 96.7436 127.606Z" fill="#696561"/>
<path id="Vector_116" d="M96.3651 128.094H94.6253C94.4849 128.094 94.3711 128.208 94.3711 128.347V130.081C94.3711 130.221 94.4849 130.334 94.6253 130.334H96.3651C96.5055 130.334 96.6193 130.221 96.6193 130.081V128.347C96.6193 128.208 96.5055 128.094 96.3651 128.094Z" fill="#373736"/>
</g>
</g>
<path id="Vector_117" d="M97.9338 111.734L95.078 111.219C93.9897 111.023 92.95 111.741 92.7512 112.826L92.0673 115.798C91.8709 116.882 92.511 118.086 93.6801 118.116C94.5003 118.137 95.5817 118.128 96.6283 118.123C97.675 118.118 98.7564 117.6 98.9551 116.516L99.5466 114.053C99.743 112.968 99.0221 111.932 97.9338 111.734Z" fill="#DCAB69"/>
</g>
<path id="Vector_118" d="M122.819 58.0498C129.613 55.3572 132.93 47.6862 130.228 40.9163C127.525 34.1464 119.827 30.8412 113.033 33.5339C106.238 36.2266 102.921 43.8976 105.624 50.6674C108.326 57.4373 116.024 60.7425 122.819 58.0498Z" fill="#58C1FD"/>
<path id="Vector_119" d="M56.9712 37.0303C63.0708 37.0303 68.0156 32.1032 68.0156 26.0254C68.0156 19.9476 63.0708 15.0206 56.9712 15.0206C50.8715 15.0206 45.9268 19.9476 45.9268 26.0254C45.9268 32.1032 50.8715 37.0303 56.9712 37.0303Z" fill="#58C1FD"/>
<path id="Vector_120" d="M123.163 110.404C129.582 110.404 134.785 105.219 134.785 98.8233C134.785 92.4276 129.582 87.2429 123.163 87.2429C116.744 87.2429 111.541 92.4276 111.541 98.8233C111.541 105.219 116.744 110.404 123.163 110.404Z" fill="#58C1FD"/>
<path id="Vector_121" d="M25.8115 94.4811C33.5063 94.4811 39.7441 88.2656 39.7441 80.5984C39.7441 72.9312 33.5063 66.7157 25.8115 66.7157C18.1167 66.7157 11.8789 72.9312 11.8789 80.5984C11.8789 88.2656 18.1167 94.4811 25.8115 94.4811Z" fill="#58C1FD"/>
<g id="Group_18">
<g id="Group_19">
<path id="Vector_122" d="M124.409 53.7655H112.521V37.7993H120.772L122.101 40.4124L124.409 41.4208V53.7655Z" fill="#FAF3ED"/>
<path id="Vector_123" d="M124.409 41.4208H120.772V37.7993L124.409 41.4208Z" fill="#E8DBD1"/>
</g>
<g id="Group_20">
<path id="Vector_124" d="M122.51 43.0024C122.51 43.1567 122.385 43.281 122.23 43.281H114.702C114.548 43.281 114.423 43.1567 114.423 43.0024C114.423 42.8482 114.548 42.7239 114.702 42.7239H122.23C122.385 42.7239 122.51 42.8482 122.51 43.0024Z" fill="#DCD6D1"/>
<path id="Vector_125" d="M122.51 44.8535C122.51 45.0077 122.385 45.132 122.23 45.132H114.702C114.548 45.132 114.423 45.0077 114.423 44.8535C114.423 44.6992 114.548 44.5749 114.702 44.5749H122.23C122.385 44.5749 122.51 44.6992 122.51 44.8535Z" fill="#DCD6D1"/>
<path id="Vector_126" d="M122.51 46.7045C122.51 46.8587 122.385 46.9831 122.23 46.9831H114.702C114.548 46.9831 114.423 46.8587 114.423 46.7045C114.423 46.5502 114.548 46.4259 114.702 46.4259H122.23C122.385 46.4259 122.51 46.5502 122.51 46.7045Z" fill="#DCD6D1"/>
</g>
<g id="Group_21">
<path id="Vector_127" d="M120.538 50.9851C120.805 49.8538 120.101 48.7211 118.966 48.4551C117.83 48.1891 116.694 48.8906 116.427 50.0219C116.16 51.1533 116.864 52.286 117.999 52.552C119.135 52.8179 120.271 52.1164 120.538 50.9851Z" fill="#26DC3D"/>
<path id="Vector_128" d="M117.433 50.4825L118.156 51.2054L119.651 49.9875" stroke="white" stroke-width="2" stroke-linecap="round" stroke-linejoin="round"/>
</g>
</g>
<path id="Vector_129" d="M24.2414 74.2741C24.2184 74.2741 24.1978 74.2787 24.1748 74.281C24.1978 74.281 24.2184 74.2764 24.2414 74.2741Z" fill="#FD4A5F"/>
<path id="Vector_130" d="M33.1332 81.8808C33.1332 81.7565 33.1309 81.6321 33.124 81.5078C33.1193 81.4203 33.1124 81.3351 33.1055 81.2477C33.1032 81.2154 33.1009 81.1855 33.0985 81.1533C33.0893 81.0428 33.0754 80.9323 33.0593 80.8217C33.0593 80.8171 33.0593 80.8125 33.0593 80.8102C32.5348 77.0276 29.2792 74.1152 25.3397 74.1152C24.6858 74.1152 24.0528 74.1958 23.4451 74.3478C20.0555 75.195 17.5439 78.2432 17.5439 81.8808C17.5439 84.9405 19.3231 87.5789 21.9016 88.8451V88.8497C21.9525 88.8751 22.0056 88.8981 22.0588 88.9234C22.0772 88.9326 22.0957 88.9418 22.1142 88.951C23.0962 89.3954 24.1868 89.6463 25.3374 89.6463C29.6027 89.6463 33.0662 86.2321 33.1286 81.9959C33.1286 81.9568 33.1309 81.9176 33.1309 81.8785L33.1332 81.8808Z" fill="#599EC7"/>
<g id="Group_22">
<path id="Vector_131" d="M22.4229 87.7448C23.4603 88.2536 24.6271 88.5414 25.8609 88.5414C30.1655 88.5414 33.6544 85.0649 33.6544 80.7758C33.6544 80.2923 33.6082 79.8204 33.5227 79.3599L25.8609 80.7758L22.4229 87.7448Z" fill="#3B80F5"/>
<path id="Vector_132" d="M23.9668 73.2405L25.8614 80.7735L33.6526 80.8909C33.6526 80.8518 33.6549 80.8126 33.6549 80.7735C33.6549 76.4844 30.166 73.0079 25.8614 73.0079C25.2076 73.0079 24.5745 73.0885 23.9668 73.2405Z" fill="#F5C03A"/>
<path id="Vector_133" d="M22.6386 87.846L25.8618 80.7758H18.0684C18.0684 83.9184 19.9445 86.6235 22.6386 87.846Z" fill="#3BFF56"/>
<path id="Vector_134" d="M23.9695 73.2427C20.5799 74.0854 18.0684 77.1359 18.0684 80.7735H25.8618L23.9672 73.2427H23.9695Z" fill="#FD4A5F"/>
</g>
<g id="Group_23" opacity="0.4">
<path id="Vector_135" d="M28.0201 83.6052C28.0201 84.2752 27.595 84.6251 27.1306 84.6251C26.6407 84.6251 26.2549 84.2613 26.2549 83.6604C26.2549 83.0596 26.6061 82.6544 27.156 82.6544C27.7059 82.6544 28.0225 83.0573 28.0225 83.6052H28.0201ZM26.814 83.6397C26.814 83.9759 26.9273 84.2153 27.1444 84.2153C27.3616 84.2153 27.461 83.9989 27.461 83.6397C27.461 83.3151 27.3709 83.0642 27.1398 83.0642C26.9088 83.0642 26.814 83.3197 26.814 83.6397ZM27.1699 85.965L29.0137 82.6544H29.418L27.5696 85.965H27.1699ZM30.3353 84.9359C30.3353 85.6059 29.9102 85.9558 29.4457 85.9558C28.9813 85.9558 28.5747 85.5921 28.5701 84.9912C28.5701 84.4202 28.9213 83.9851 29.4712 83.9851C30.0211 83.9851 30.3376 84.388 30.3376 84.9359H30.3353ZM29.1338 84.9704C29.1292 85.3066 29.2424 85.546 29.4596 85.546C29.6768 85.546 29.7762 85.3296 29.7762 84.9704C29.7762 84.6458 29.693 84.3949 29.4596 84.3949C29.2262 84.3949 29.1338 84.6504 29.1338 84.9704Z" fill="white"/>
</g>
<path id="Vector_136" d="M129.475 99.8045C130.009 96.2046 127.514 92.8548 123.901 92.3226C120.288 91.7904 116.926 94.2772 116.392 97.8772C115.858 101.477 118.354 104.827 121.966 105.359C125.579 105.891 128.941 103.404 129.475 99.8045Z" fill="#E6C027"/>
<g id="Group_24" opacity="0.6">
<path id="Vector_137" d="M123.377 93.2425C123.377 93.0583 123.227 92.9086 123.042 92.9086H120.064C119.676 93.0951 119.306 93.3207 118.964 93.5786H123.042C123.227 93.5786 123.377 93.4289 123.377 93.2448V93.2425Z" fill="#C2A220"/>
<path id="Vector_138" d="M122.47 95.729C122.655 95.729 122.805 95.5794 122.805 95.3952C122.805 95.211 122.655 95.0613 122.47 95.0613H117.523C117.373 95.2755 117.232 95.4988 117.107 95.7313H122.47V95.729Z" fill="#C2A220"/>
<path id="Vector_139" d="M123.351 103.667H118.437C118.7 103.913 118.986 104.137 119.287 104.337H123.351C123.536 104.337 123.686 104.187 123.686 104.003C123.686 103.819 123.536 103.669 123.351 103.669V103.667Z" fill="#C2A220"/>
<path id="Vector_140" d="M122.706 101.848C122.706 101.664 122.555 101.515 122.371 101.515H116.895C116.996 101.745 117.112 101.968 117.241 102.184H122.371C122.555 102.184 122.706 102.035 122.706 101.851V101.848Z" fill="#C2A220"/>
<path id="Vector_141" d="M122.086 99.698C122.086 99.5138 121.936 99.3642 121.751 99.3642H116.349C116.367 99.5898 116.395 99.8131 116.436 100.034H121.751C121.936 100.034 122.086 99.8845 122.086 99.7003V99.698Z" fill="#C2A220"/>
<path id="Vector_142" d="M121.802 97.8792C121.987 97.8792 122.137 97.7296 122.137 97.5454C122.137 97.3612 121.987 97.2115 121.802 97.2115H116.531C116.476 97.4303 116.432 97.6536 116.397 97.8815H121.802V97.8792Z" fill="#C2A220"/>
</g>
<path id="Vector_143" d="M130.662 99.8981C131.242 96.3052 128.789 92.924 125.183 92.346C121.578 91.7679 118.184 94.2119 117.604 97.8047C117.024 101.398 119.477 104.779 123.083 105.357C126.688 105.935 130.082 103.491 130.662 99.8981Z" fill="#FDE721"/>
<g id="Group_25" opacity="0.4">
<path id="Vector_144" d="M127.946 103.199C130.364 101.095 130.612 97.4374 128.501 95.0287C126.39 92.62 122.719 92.3726 120.302 94.476C117.884 96.5795 117.636 100.237 119.747 102.646C121.858 105.055 125.529 105.302 127.946 103.199Z" stroke="#E6C027" stroke-width="2" stroke-linecap="round" stroke-linejoin="round"/>
</g>
<path id="Vector_145" d="M124.124 103.835C126.95 103.835 129.24 101.599 129.24 98.8415C129.24 96.0836 126.95 93.8479 124.124 93.8479C121.299 93.8479 119.009 96.0836 119.009 98.8415C119.009 101.599 121.299 103.835 124.124 103.835Z" fill="#E6C027"/>
<path id="Vector_146" d="M123.158 102.882V101.996C122.532 101.968 121.922 101.8 121.566 101.595L121.848 100.504C122.241 100.718 122.793 100.914 123.401 100.914C123.935 100.914 124.3 100.709 124.3 100.336C124.3 99.9628 123.999 99.758 123.309 99.5254C122.306 99.1893 121.624 98.7242 121.624 97.8194C121.624 96.9998 122.204 96.3552 123.205 96.1595V95.2731H124.122V96.0927C124.748 96.1204 125.171 96.2516 125.478 96.4012L125.208 97.4557C124.965 97.3521 124.533 97.138 123.861 97.138C123.253 97.138 123.057 97.3981 123.057 97.6606C123.057 97.9691 123.385 98.1648 124.18 98.4618C125.293 98.8532 125.742 99.3666 125.742 100.205C125.742 101.043 125.152 101.743 124.076 101.929V102.88H123.158V102.882Z" fill="#C2A220"/>
<path id="Vector_147" d="M123.629 102.647V101.761C123.003 101.733 122.393 101.565 122.037 101.36L122.319 100.269C122.712 100.483 123.264 100.679 123.872 100.679C124.405 100.679 124.77 100.474 124.77 100.101C124.77 99.728 124.47 99.5231 123.779 99.2906C122.776 98.9544 122.095 98.4894 122.095 97.5846C122.095 96.765 122.675 96.1203 123.675 95.9246V95.0383H124.593V95.8579C125.219 95.8855 125.642 96.0167 125.949 96.1664L125.679 97.2208C125.436 97.1172 125.004 96.9031 124.331 96.9031C123.724 96.9031 123.527 97.1633 123.527 97.4257C123.527 97.7342 123.856 97.9299 124.65 98.2269C125.764 98.6183 126.212 99.1317 126.212 99.9697C126.212 100.808 125.623 101.508 124.546 101.694V102.645H123.629V102.647Z" fill="#FDE721"/>
<path id="Vector_148" d="M128.217 91.7345C128.217 91.7345 128.217 95.0705 124.885 95.0705C128.217 95.0705 128.217 98.4065 128.217 98.4065C128.217 98.4065 128.217 95.0705 131.548 95.0705C128.217 95.0705 128.217 91.7345 128.217 91.7345Z" fill="white"/>
<path id="Vector_149" d="M120.741 102.44C120.741 102.44 120.741 104.431 118.754 104.431C120.741 104.431 120.741 106.423 120.741 106.423C120.741 106.423 120.741 104.431 122.728 104.431C120.741 104.431 120.741 102.44 120.741 102.44Z" fill="white"/>
<g id="Group_26">
<g id="Group_27">
<g id="Group_28">
<path id="Vector_150" d="M61.1419 22.9198C61.1419 20.6244 59.2749 18.7642 56.9713 18.7642C54.6677 18.7642 52.8008 20.6244 52.8008 22.9198C52.8008 23.8683 53.1196 24.7431 53.658 25.4407C54.3581 26.3778 55.5272 27.9778 55.5272 29.8035H58.4154C58.4154 27.9801 59.5845 26.3801 60.2846 25.4407C60.8207 24.7408 61.1419 23.8683 61.1419 22.9198Z" fill="#F9DE3B"/>
<path id="Vector_151" d="M56.8238 21.9367C56.8238 22.6365 56.2554 23.2029 55.553 23.2029C54.8506 23.2029 54.2822 22.6365 54.2822 21.9367C54.2822 21.2368 54.8506 20.6704 55.553 20.6704C56.2554 20.6704 56.8238 21.2368 56.8238 21.9367Z" fill="white"/>
<path id="Vector_152" d="M55.4982 24.14C55.4982 24.4485 55.2486 24.6972 54.939 24.6972C54.6294 24.6972 54.3799 24.4485 54.3799 24.14C54.3799 23.8315 54.6294 23.5829 54.939 23.5829C55.2486 23.5829 55.4982 23.8315 55.4982 24.14Z" fill="white"/>
</g>
<path id="Vector_153" opacity="0.4" d="M61.1423 22.9198C61.1423 21.4463 60.3706 20.1548 59.2084 19.418C59.4602 19.9867 59.6012 20.6106 59.6012 21.2644C59.6012 23.9236 57.3022 26.0785 54.4672 26.0785C54.347 26.0785 54.2292 26.0739 54.1113 26.0647C54.7721 27.0132 55.53 28.337 55.53 29.8059H58.4182C58.4182 27.9825 59.5873 26.3824 60.2874 25.4431C60.8235 24.7432 61.1446 23.8706 61.1446 22.9221L61.1423 22.9198Z" fill="#D7C034"/>
</g>
<path id="Vector_154" d="M58.8015 33.1188C58.8015 33.4757 57.9836 33.7635 56.9716 33.7635C55.9595 33.7635 55.1416 33.4757 55.1416 33.1188C55.1416 32.762 55.9595 32.4742 56.9716 32.4742C57.9836 32.4742 58.8015 32.762 58.8015 33.1188Z" fill="#3B76C2"/>
<path id="Vector_155" d="M58.9715 29.2303H54.9697C54.7502 29.2303 54.5723 29.4076 54.5723 29.6263V32.5087C54.5723 32.7274 54.7502 32.9047 54.9697 32.9047H58.9715C59.191 32.9047 59.369 32.7274 59.369 32.5087V29.6263C59.369 29.4076 59.191 29.2303 58.9715 29.2303Z" fill="#215192"/>
<g id="Group_29">
<path id="Vector_156" d="M59.7696 29.9946C59.7696 30.2226 59.5848 30.4252 59.356 30.4482L54.5894 30.934C54.3606 30.957 54.1758 30.7912 54.1758 30.5656C54.1758 30.3377 54.3606 30.1351 54.5894 30.1121L59.356 29.6263C59.5848 29.6033 59.7696 29.769 59.7696 29.9946Z" fill="#3B76C2"/>
<path id="Vector_157" d="M59.7696 31.4957C59.7696 31.7237 59.5848 31.9263 59.356 31.9493L54.5894 32.4351C54.3606 32.4581 54.1758 32.2923 54.1758 32.0667C54.1758 31.8388 54.3606 31.6362 54.5894 31.6132L59.356 31.1274C59.5848 31.1044 59.7696 31.2701 59.7696 31.4957Z" fill="#3B76C2"/>
</g>
</g>
</g>
<defs>
<clipPath id="clip0_43_2844">
<rect width="150" height="156" fill="white"/>
</clipPath>
</defs>
</svg>
