<svg width="220" height="129" viewBox="0 0 220 129" fill="none" xmlns="http://www.w3.org/2000/svg">
<g id="Frame" clip-path="url(#clip0_43_3031)">
<g id="Group">
<g id="OBJECTS">
<g id="Group_2">
<g id="Group_3">
<path id="Vector" d="M219.654 126.344H0.345912C0.15566 126.344 0 126.188 0 125.998C0 125.808 0.15566 125.652 0.345912 125.652H219.654C219.844 125.652 220 125.808 220 125.998C220 126.188 219.844 126.344 219.654 126.344Z" fill="url(#paint0_linear_43_3031)"/>
<path id="Vector_2" d="M70.909 129H52.3508C52.1605 129 52.0049 128.844 52.0049 128.654C52.0049 128.463 52.1605 128.307 52.3508 128.307H70.909C71.0992 128.307 71.2549 128.463 71.2549 128.654C71.2549 128.844 71.0992 129 70.909 129Z" fill="url(#paint1_linear_43_3031)"/>
<path id="Vector_3" d="M146.84 129H118.589C118.399 129 118.243 128.844 118.243 128.654C118.243 128.463 118.399 128.307 118.589 128.307H146.84C147.03 128.307 147.186 128.463 147.186 128.654C147.186 128.844 147.03 129 146.84 129Z" fill="url(#paint2_linear_43_3031)"/>
<path id="Vector_4" d="M110.844 129H80.1067C79.9164 129 79.7607 128.844 79.7607 128.654C79.7607 128.463 79.9164 128.307 80.1067 128.307H110.844C111.035 128.307 111.19 128.463 111.19 128.654C111.19 128.844 111.035 129 110.844 129Z" fill="url(#paint3_linear_43_3031)"/>
<path id="Vector_5" d="M190.67 129H157.736C157.545 129 157.39 128.844 157.39 128.654C157.39 128.463 157.545 128.307 157.736 128.307H190.67C190.86 128.307 191.016 128.463 191.016 128.654C191.016 128.844 190.86 129 190.67 129Z" fill="url(#paint4_linear_43_3031)"/>
</g>
<g id="Group_4">
<path id="Vector_6" d="M142.167 32.5478L142.098 32.6101C140.828 33.7562 138.922 33.7701 137.608 32.6759C124.165 21.5196 104.701 19.2274 88.6196 28.3893C67.9721 40.1515 60.6872 66.3629 72.2476 87.093L74.4406 85.4241C74.7969 85.1506 75.3123 85.3895 75.3366 85.8396L75.935 97.0616C75.9557 97.4564 75.5752 97.7507 75.1982 97.6226L64.551 94.0562C64.1256 93.9108 64.0322 93.3498 64.3919 93.0763L66.6957 91.3208C66.6023 91.158 66.502 90.9988 66.4086 90.836C52.7105 66.7368 61.123 36.083 85.1985 22.368C103.874 11.7345 126.483 14.4145 142.084 27.399C143.675 28.7217 143.706 31.1593 142.167 32.5478Z" fill="white"/>
<path id="Vector_7" d="M134.806 109.738C116.13 120.371 93.5215 117.691 77.9209 104.71C76.3297 103.388 76.2986 100.95 77.8379 99.5616L77.9105 99.4958C79.18 98.3497 81.086 98.3359 82.4005 99.43C95.8426 110.586 115.304 112.878 131.385 103.717C152.033 91.9579 159.317 65.7431 147.757 45.0129L145.564 46.6819C145.208 46.9554 144.692 46.7165 144.668 46.2663L144.07 35.0443C144.049 34.6496 144.429 34.3587 144.806 34.4834L155.454 38.0498C155.879 38.1952 155.972 38.7561 155.613 39.0297L153.309 40.7852C153.402 40.9479 153.503 41.1072 153.596 41.2699C167.294 65.3691 158.882 96.0229 134.806 109.738Z" fill="white"/>
</g>
<g id="Group_5">
<path id="Vector_8" d="M82.4344 39.5698C84.9457 39.8953 86.9728 41.9278 87.291 44.445C87.5262 46.2975 86.8621 48.0045 85.6791 49.1852L86.5404 51.5397C86.6199 51.7613 86.364 51.9518 86.1772 51.8064L84.1674 50.2621C83.1366 50.7676 81.9363 50.9788 80.6668 50.7537C78.242 50.3175 76.3394 48.2953 76.0627 45.8439C75.6476 42.1701 78.7539 39.0989 82.4344 39.5732V39.5698Z" fill="white"/>
<path id="Vector_9" d="M83.6387 45.089C83.6387 45.5426 84.0053 45.9131 84.4619 45.9131C84.9185 45.9131 85.2852 45.5461 85.2852 45.089C85.2852 44.632 84.9185 44.265 84.4619 44.265C84.0053 44.265 83.6387 44.632 83.6387 45.089Z" fill="url(#paint5_linear_43_3031)"/>
<path id="Vector_10" d="M81.6807 45.9131C82.1354 45.9131 82.504 45.5442 82.504 45.089C82.504 44.6339 82.1354 44.265 81.6807 44.265C81.226 44.265 80.8574 44.6339 80.8574 45.089C80.8574 45.5442 81.226 45.9131 81.6807 45.9131Z" fill="url(#paint6_linear_43_3031)"/>
<path id="Vector_11" d="M78.0762 45.089C78.0762 45.5426 78.4428 45.9131 78.8994 45.9131C79.356 45.9131 79.7227 45.5461 79.7227 45.089C79.7227 44.632 79.356 44.265 78.8994 44.265C78.4428 44.265 78.0762 44.632 78.0762 45.089Z" fill="url(#paint7_linear_43_3031)"/>
</g>
<g id="Group_6">
<path id="Vector_12" style="mix-blend-mode:multiply" opacity="0.5" d="M41.9066 66.8407H28.6097C27.7768 66.8407 27.1016 67.5166 27.1016 68.3504V75.9506C27.1016 76.7844 27.7768 77.4603 28.6097 77.4603H41.9066C42.7395 77.4603 43.4148 76.7844 43.4148 75.9506V68.3504C43.4148 67.5166 42.7395 66.8407 41.9066 66.8407Z" fill="url(#paint8_linear_43_3031)"/>
<path id="Vector_13" d="M41.5992 66.1863H27.6105C26.9686 66.1863 26.4482 66.7072 26.4482 67.3497V75.6425C26.4482 76.285 26.9686 76.8059 27.6105 76.8059H41.5992C42.2411 76.8059 42.7615 76.285 42.7615 75.6425V67.3497C42.7615 66.7072 42.2411 66.1863 41.5992 66.1863Z" fill="url(#paint9_linear_43_3031)"/>
<path id="Vector_14" d="M33.7053 69.9258L35.8672 71.1758C36.1128 71.3178 36.1128 71.671 35.8672 71.8129L33.7053 73.0629C33.4597 73.2049 33.1553 73.0283 33.1553 72.7443V70.2479C33.1553 69.9639 33.4597 69.7873 33.7053 69.9293V69.9258Z" fill="white"/>
</g>
<g id="Group_7">
<g id="Group_8">
<path id="Vector_15" d="M170.884 30.2002V28.5278C170.884 28.3408 170.749 28.1816 170.562 28.1539L168.556 27.8422C168.411 27.818 168.293 27.7141 168.252 27.5721C168.12 27.122 167.94 26.6892 167.719 26.2875C167.646 26.1594 167.657 26.0002 167.743 25.879L168.94 24.2377C169.051 24.0854 169.033 23.8776 168.902 23.7461L167.722 22.5653C167.591 22.4338 167.38 22.4164 167.231 22.5272L165.592 23.7253C165.474 23.8118 165.315 23.8222 165.183 23.7495C164.779 23.5279 164.35 23.3479 163.9 23.2163C163.758 23.1747 163.654 23.057 163.63 22.9116L163.319 20.9033C163.291 20.7198 163.132 20.5813 162.945 20.5813H161.275C161.088 20.5813 160.929 20.7163 160.901 20.9033L160.59 22.9116C160.565 23.057 160.462 23.1747 160.32 23.2163C159.87 23.3479 159.438 23.5279 159.037 23.7495C158.909 23.8222 158.749 23.8118 158.628 23.7253L156.989 22.5272C156.837 22.4164 156.629 22.4338 156.498 22.5653L155.318 23.7461C155.187 23.8776 155.169 24.0888 155.28 24.2377L156.477 25.879C156.563 25.9967 156.574 26.156 156.501 26.2875C156.28 26.6927 156.1 27.122 155.968 27.5721C155.927 27.7141 155.809 27.818 155.664 27.8422L153.658 28.1539C153.474 28.1816 153.336 28.3408 153.336 28.5278V30.2002C153.336 30.3872 153.471 30.5465 153.658 30.5742L155.664 30.8858C155.809 30.91 155.927 31.0139 155.968 31.1559C156.1 31.606 156.28 32.0388 156.501 32.4405C156.574 32.5686 156.563 32.7279 156.477 32.849L155.28 34.4903C155.169 34.6426 155.187 34.8504 155.318 34.982L156.498 36.1627C156.629 36.2943 156.84 36.3116 156.989 36.2008L158.628 35.0027C158.746 34.9162 158.905 34.9058 159.037 34.9785C159.441 35.2001 159.87 35.3801 160.32 35.5117C160.462 35.5533 160.565 35.671 160.59 35.8164L160.901 37.8247C160.929 38.0082 161.088 38.1467 161.275 38.1467H162.945C163.132 38.1467 163.291 38.0117 163.319 37.8247L163.63 35.8164C163.654 35.671 163.758 35.5533 163.9 35.5117C164.35 35.3801 164.782 35.2001 165.183 34.9785C165.311 34.9058 165.471 34.9162 165.592 35.0027L167.231 36.2008C167.383 36.3116 167.591 36.2943 167.722 36.1627L168.902 34.982C169.033 34.8504 169.051 34.6392 168.94 34.4903L167.743 32.849C167.657 32.7313 167.646 32.572 167.719 32.4405C167.94 32.0353 168.12 31.606 168.252 31.1559C168.293 31.0139 168.411 30.91 168.556 30.8858L170.562 30.5742C170.746 30.5465 170.884 30.3872 170.884 30.2002ZM162.112 33.0499C160.078 33.0499 158.428 31.3982 158.428 29.3623C158.428 27.3263 160.078 25.6747 162.112 25.6747C164.146 25.6747 165.796 27.3263 165.796 29.3623C165.796 31.3982 164.146 33.0499 162.112 33.0499Z" fill="url(#paint10_linear_43_3031)"/>
<path id="Vector_16" d="M162.108 34.1544C159.469 34.1544 157.324 32.0042 157.324 29.3658C157.324 26.7273 159.472 24.5771 162.108 24.5771C164.744 24.5771 166.892 26.7273 166.892 29.3658C166.892 32.0042 164.744 34.1544 162.108 34.1544ZM162.108 24.7675C159.576 24.7675 157.514 26.8312 157.514 29.3658C157.514 31.9003 159.576 33.964 162.108 33.964C164.64 33.964 166.702 31.9003 166.702 29.3658C166.702 26.8312 164.64 24.7675 162.108 24.7675Z" fill="url(#paint11_linear_43_3031)"/>
</g>
<g id="Group_9">
<path id="Vector_17" opacity="0.5" d="M57.5222 123.63L54.1738 123.11C53.9282 123.072 53.731 122.896 53.6618 122.66C53.4439 121.905 53.1429 121.189 52.7728 120.513C52.6552 120.295 52.6725 120.032 52.8178 119.835L54.8171 117.096C55.0005 116.843 54.9728 116.493 54.7514 116.272L52.7832 114.302C52.5618 114.08 52.2124 114.052 51.9634 114.236L49.2238 116.241C49.0266 116.386 48.7637 116.4 48.5458 116.282C47.8712 115.912 47.1552 115.61 46.4011 115.392C46.1659 115.323 45.9895 115.126 45.9549 114.883L45.4326 111.532C45.3841 111.22 45.1212 110.995 44.8065 110.995H42.0219C41.7105 110.995 41.4442 111.22 41.3958 111.532L40.8769 114.883C40.8388 115.126 40.6624 115.323 40.4272 115.392C39.6731 115.61 38.9571 115.912 38.2826 116.282C38.0646 116.4 37.8017 116.386 37.6046 116.241L34.8684 114.236C34.6159 114.052 34.2665 114.08 34.0451 114.302L32.0769 116.272C31.8555 116.493 31.8278 116.843 32.0112 117.096L34.014 119.835C34.1593 120.032 34.1731 120.295 34.0555 120.513C33.6854 121.189 33.3844 121.905 33.1665 122.66C33.0973 122.896 32.9002 123.072 32.658 123.11L29.3096 123.63C28.9983 123.678 28.7734 123.945 28.7734 124.256V125.652H37.269C37.269 122.252 40.019 119.499 43.4159 119.499C46.8127 119.499 49.5627 122.252 49.5627 125.652H58.0549V124.256C58.0549 123.945 57.83 123.678 57.5222 123.63Z" fill="url(#paint12_linear_43_3031)"/>
<path id="Vector_18" d="M43.4158 117.657C39.0089 117.657 35.4287 121.241 35.4287 125.652H35.7504C35.7504 121.421 39.1888 117.979 43.4158 117.979C47.6429 117.979 51.0778 121.421 51.0778 125.652H51.3995C51.3995 121.241 47.8193 117.657 43.4158 117.657Z" fill="url(#paint13_linear_43_3031)"/>
</g>
</g>
<g id="Group_10">
<g id="Group_11">
<path id="Vector_19" d="M101.2 118.893L102.248 122.196L104.23 123.706L106.04 122.65L105.721 118.702" fill="url(#paint14_linear_43_3031)"/>
<path id="Vector_20" d="M83.1543 120.174L82.9502 123.356C82.9502 123.356 85.1952 124.1 86.2052 123.882L87.1115 120.932L83.1543 120.174Z" fill="url(#paint15_linear_43_3031)"/>
<g id="Group_12">
<path id="Vector_21" d="M105.967 120.943C105.967 120.943 105.493 121.261 104.365 121.386C102.622 121.576 101.581 121.386 101.581 121.386C101.581 121.386 96.641 105.514 97.4643 100.188C97.0111 99.2326 96.3885 97.6433 95.6898 95.7736C95.0325 94.0181 94.3165 92.0132 93.6281 90.0535C91.9297 85.2267 90.4111 80.6527 90.4111 80.6527L101.594 76.8127C101.594 76.8127 103.985 93.5437 104.538 99.1495C105.074 104.582 105.967 120.943 105.967 120.943Z" fill="url(#paint16_linear_43_3031)"/>
<path id="Vector_22" style="mix-blend-mode:multiply" opacity="0.4" d="M95.6896 95.7701C95.0323 94.0181 94.3163 92.0133 93.6279 90.0535L94.7106 88.246L95.6896 95.7701Z" fill="url(#paint17_linear_43_3031)"/>
<path id="Vector_23" d="M96.6062 81.1444L85.8241 80.9193C85.8241 80.9193 85.2499 97.3733 85.1219 99.5789C85.1219 99.5789 85.2396 100.971 84.5062 104.194C83.6968 107.757 82.998 121.251 82.998 121.251C82.998 121.251 85.0943 121.968 87.5433 121.826C87.5433 121.826 90.9713 109.371 91.6597 100.867C93.4861 95.4619 96.6062 81.1478 96.6062 81.1478V81.1444Z" fill="url(#paint18_linear_43_3031)"/>
</g>
<path id="Vector_24" d="M118.091 71.0441C118.053 71.1584 117.911 71.2381 117.863 71.3662C117.801 71.5185 117.815 71.7159 117.732 71.8682C117.676 71.9721 118.444 72.2214 118.378 72.308C118.275 72.4499 117.265 72.443 117.112 72.4603C116.376 72.5504 115.753 72.3842 115.161 72.076C114.791 71.8821 113.643 71.4043 113.11 71.335C111.128 71.0753 103.701 70.5144 102.345 69.9465C99.4121 68.7139 97.3643 63.2569 97.3643 63.2569L103.539 62.7618C103.539 62.7618 104.158 66.5186 104.397 66.8718C104.635 67.2284 111.668 68.7623 113.892 68.9909C114.262 69.029 114.995 69.0359 115.379 68.9355C115.76 68.8281 116.576 68.6654 117.06 68.8351C117.545 69.0047 119.33 70.0123 119.385 70.1335C119.385 70.1335 119.385 71.0026 118.088 71.0476L118.091 71.0441Z" fill="url(#paint19_linear_43_3031)"/>
<path id="Vector_25" d="M113.01 72.2214C113.01 72.2214 113.591 70.7048 113.726 68.9701L104.649 66.5532C104.649 66.5532 103.642 60.5561 101.646 57.4018C101.2 56.6954 100.785 56.1068 100.498 55.9544C97.7757 54.514 97.0527 64.1295 97.0527 64.1295C97.0527 64.1295 98.6716 67.8448 101 70.0539C102.736 71.702 113.01 72.2179 113.01 72.2179V72.2214Z" fill="url(#paint20_linear_43_3031)"/>
<path id="Vector_26" d="M102.014 80.8085C102.014 80.8085 101.547 80.9643 89.7372 80.7808C89.9102 80.1125 86.1605 64.7943 86.1916 63.6517C86.2193 62.7549 85.1055 57.6684 85.4963 56.8824C86.036 55.7917 88.3882 54.9711 90.7577 54.3444C92.5426 53.8735 94.5627 53.4545 94.5627 53.4545L97.6102 54.5764C97.6102 54.5764 99.9797 55.9198 100.409 56.3631C100.782 58.0078 101.083 71.4528 101.17 74.4271C101.197 75.2685 102.007 80.8085 102.007 80.8085H102.014Z" fill="white"/>
<path id="Vector_27" d="M95.1089 57.1975C92.6494 56.7196 90.7607 54.3478 90.7607 54.3478L91.3834 54.0293C91.3834 54.0293 91.667 53.7592 91.712 53.3333C91.9299 51.1588 91.0582 48.929 91.0582 48.929C92.5837 50.0058 94.6038 50.6498 95.5966 51.0065C95.6243 51.1934 95.7073 51.9968 95.9045 52.6927C96.029 53.1186 96.195 53.4995 96.4233 53.6726C96.4821 53.7176 97.5683 57.6753 95.1089 57.1975Z" fill="url(#paint21_linear_43_3031)"/>
<g id="Vector_28" style="mix-blend-mode:multiply">
<path d="M95.9042 52.6927C94.1712 52.3292 92.5869 50.4317 92.5869 50.4317L95.5963 51.003C95.624 51.19 95.707 51.9933 95.9042 52.6893V52.6927Z" fill="#E3A39A"/>
</g>
<path id="Vector_29" d="M97.2949 51.9725C96.7934 52.0072 96.1811 51.9379 95.4547 51.7405C95.4547 51.7405 94.7629 51.467 93.8462 51.0342C93.0402 50.6533 91.9264 50.1512 91.2242 49.4449C91.2207 49.4414 90.6569 48.1257 90.6569 48.1257C90.1069 46.1451 90.9163 43.8079 91.4871 43.053C93.3101 40.6362 98.0836 41.3218 98.9034 45.0302C98.9657 45.3141 98.9726 45.6084 98.9311 45.8992C98.8758 46.3044 98.7997 47.0246 98.8204 47.8521C98.855 49.0952 98.094 51.9171 97.2949 51.9691V51.9725Z" fill="url(#paint22_linear_43_3031)"/>
<path id="Vector_30" d="M96.686 44.9194C96.3539 44.8397 96.1913 44.8086 95.8143 44.677C95.9838 44.7359 96.0599 45.2518 95.3162 45.2171C94.6174 45.186 94.5379 46.4948 93.3964 46.938C93.3099 47.5405 93.3376 48.2538 93.514 49.0086L92.881 48.9428C92.8014 48.5896 92.67 47.821 92.4002 47.447C92.4002 47.447 92.4002 47.447 92.4002 47.4401C92.3656 47.3881 92.0404 46.9138 91.4212 47.0661C91.1722 47.1285 90.8608 47.3916 90.8781 48.053C90.8954 48.6 91.0892 49.0709 91.3347 49.3653C91.442 50.2309 91.6461 51.0965 91.6564 51.3735C91.4524 51.3527 89.0552 46.3667 89.3527 44.1334C89.581 42.409 90.6602 41.7754 91.5942 41.7754C92.0646 39.8294 94.3995 39.736 95.5756 40.0164C96.6756 40.2796 97.3502 40.8197 98.6024 41.4395C100.041 42.1493 100.654 41.7477 100.775 42.4229C101.017 43.7733 99.6124 45.6223 96.6929 44.9194H96.686Z" fill="url(#paint23_linear_43_3031)"/>
<path id="Vector_31" d="M111.003 125.652H101.47C101.186 125.157 101.207 123.065 102.252 122.196C102.252 122.196 104.677 123.311 106.043 122.65C106.043 122.65 108.738 123.37 110.208 124.267C110.927 124.703 111.069 125.226 111.007 125.652H111.003Z" fill="url(#paint24_linear_43_3031)"/>
<path id="Vector_32" d="M82.9885 122.757C82.9885 122.757 81.6671 123.47 80.8058 123.99C79.9445 124.506 79.9307 125.652 79.9307 125.652H87.1118C87.1118 125.652 87.1118 123.612 86.4961 122.937C84.6039 123.366 82.9885 122.757 82.9885 122.757Z" fill="url(#paint25_linear_43_3031)"/>
<path id="Vector_33" d="M92.4595 47.3431C92.4595 47.3431 92.4561 47.3432 92.4561 47.3397H92.4595V47.3431Z" fill="url(#paint26_linear_43_3031)"/>
<path id="Vector_34" d="M95.32 58.5305C95.32 58.5305 93.2411 72.0725 93.4279 74.6625C93.6147 77.2524 96.1398 81.1409 96.6068 81.1443C97.2018 81.1478 98.5647 76.8404 98.6166 74.8979C98.6685 72.9554 96.5895 58.3817 96.5895 58.3817L95.3131 58.5305H95.32Z" fill="url(#paint27_linear_43_3031)"/>
<path id="Vector_35" d="M91.7185 53.2017C91.7185 53.2017 93.5968 55.2204 95.9005 55.8817L94.7314 58.0458C94.7314 58.0458 91.881 57.0971 90.7568 54.3478L91.7185 53.2052V53.2017Z" fill="url(#paint28_linear_43_3031)"/>
<path id="Vector_36" d="M96.1534 53.3333C96.1534 53.3333 96.7795 54.424 95.9043 55.8817L96.7795 57.6788C96.7795 57.6788 97.8172 55.6255 96.6895 53.9116C96.6238 53.8146 96.5477 53.7246 96.4647 53.6415L96.1534 53.3333Z" fill="url(#paint29_linear_43_3031)"/>
<path id="Vector_37" d="M95.9045 55.8818L94.7354 58.0458L95.3199 58.5306C95.3199 58.5306 96.3093 58.5444 96.5964 58.3817L96.7832 57.6753L95.908 55.8783L95.9045 55.8818Z" fill="url(#paint30_linear_43_3031)"/>
<path id="Vector_38" d="M97.1564 54.379C97.1564 54.379 97.5784 54.6006 97.6269 56.5881C97.7168 60.5215 96.1844 71.0718 96.1844 71.0718C96.1844 71.0718 93.3341 60.0991 91.7879 56.4427C91.1756 54.9919 90.7605 54.3444 90.7605 54.3444C90.7605 54.3444 87.5989 54.3686 85.3055 56.0479C85.0703 56.2211 84.9388 56.6608 84.8281 56.969L86.0008 64.2299C86.0008 64.2299 87.6681 72.5365 86.7964 77.9623C86.5196 79.6832 84.9838 84.7315 84.9838 84.7315C84.9838 84.7315 87.7338 85.7149 89.3561 85.7634C94.825 85.9261 95.8696 84.2849 96.2605 83.3673C96.5476 82.6886 96.7379 81.1478 96.7379 81.1478C96.7379 81.1478 97.4297 82.8791 97.8033 83.3673C99.2942 85.3063 103.12 84.7177 103.12 84.7177C103.12 84.7177 102.061 79.3404 101.754 76.1064C101.442 72.8412 101.84 62.9903 101.84 62.9903C101.84 62.9903 101.511 58.4475 100.508 55.9614C99.8615 55.4247 98.0593 54.4829 97.1634 54.3824L97.1564 54.379Z" fill="url(#paint31_linear_43_3031)"/>
<path id="Vector_39" d="M76.7163 66.8649C75.3534 70.6598 83.7937 78.8453 83.7937 78.8453C83.7937 78.8453 85.3814 77.8723 86.7927 76.4007L81.8773 68.1218L85.9971 64.2299L84.8245 56.969C82.2889 59.05 77.9408 63.4578 76.7163 66.8649Z" fill="url(#paint32_linear_43_3031)"/>
<path id="Vector_40" d="M96.0627 76.9415L90.0555 67.6144C89.8474 67.2914 89.4171 67.1983 89.0943 67.4066L75.7818 75.9977C75.4591 76.2059 75.3662 76.6367 75.5742 76.9597L81.5815 86.2868C81.7896 86.6098 82.2199 86.7029 82.5426 86.4946L95.8551 77.9035C96.1778 77.6953 96.2708 77.2645 96.0627 76.9415Z" fill="url(#paint33_linear_43_3031)"/>
<path id="Vector_41" d="M89.8229 79.5654C90.5874 80.0294 91.1409 79.7905 90.9783 79.4616C90.8157 79.1361 90.0201 78.4713 89.7192 78.3085C89.4148 78.1458 88.6572 77.8757 88.2836 77.7338C88.1522 77.6853 87.9481 77.5953 87.7405 77.5052C87.2493 77.2871 86.8446 76.9201 86.5714 76.4561C85.4575 74.5448 82.417 69.3025 81.8808 68.1252C82.9773 66.9895 83.9528 66.0616 85.1393 64.8705C85.3365 64.6731 81.4795 60.4938 81.4795 60.4938C81.4795 60.4938 76.4258 65.93 76.6644 67.5886C77.2456 71.6259 85.0355 78.7414 85.0355 78.7414C85.1808 79.0738 86.2462 81.1894 86.2462 81.1894C86.2462 81.1894 86.7616 81.8438 86.9865 82.0792C87.1698 82.2697 87.9723 82.7994 88.1833 82.8098C88.2836 82.8133 88.3494 82.7717 88.3597 82.6956C88.7195 82.938 89.0619 83.1422 89.221 83.1492C89.4355 83.1596 89.5566 83.0384 89.5151 82.8375C89.7607 82.9864 89.9751 83.1007 90.0893 83.1041C90.4387 83.1215 90.5459 82.7891 90.0893 82.332C89.6327 81.875 88.927 81.2136 88.927 81.2136C88.9962 81.2725 89.055 81.3244 89.0965 81.3486C89.3525 81.5252 90.2138 81.9961 90.5148 82.0412C90.8641 82.0931 90.8295 81.8161 90.6912 81.5356C90.5493 81.2552 90.1204 81.127 89.7468 80.7773C89.3733 80.4276 88.7679 79.517 88.7679 79.517C88.7679 79.517 89.2487 79.4477 89.8333 79.562L89.8229 79.5654Z" fill="url(#paint34_linear_43_3031)"/>
<path id="Vector_42" d="M76.7163 66.8649C75.3534 70.6598 83.7937 78.8453 83.7937 78.8453C83.7937 78.8453 85.3814 77.8723 86.7927 76.4007L81.8773 68.1218L86.5713 64.1814L85.1981 56.1484C82.6625 58.2294 77.9408 63.4578 76.7163 66.8649Z" fill="url(#paint35_linear_43_3031)"/>
<path id="Vector_43" d="M98.8031 59.7009C98.8031 59.7009 99.7579 60.802 99.706 61.0928C99.6091 61.6503 96.1846 72.7962 96.1846 72.7962C96.1846 72.7962 95.3821 70.8952 94.1956 69.022C93.0022 67.1522 89.8925 62.0415 90.0031 61.6676C90.1173 61.2902 91.4802 59.8775 91.4802 59.8775C91.4802 59.8775 89.6469 59.2369 89.6953 58.7521C89.7368 58.2674 90.2487 54.4309 90.2487 54.4309C90.5704 54.3686 90.7607 54.3478 90.7607 54.3478C90.7607 54.3478 91.1723 54.9988 91.7881 56.4461C93.3343 60.1025 96.1846 71.0753 96.1846 71.0753C96.1846 71.0753 97.717 60.525 97.627 56.5915C97.5821 54.604 96.9179 54.327 96.9179 54.327C97.077 54.3443 97.461 54.4067 97.7274 54.5209C98.3119 55.3866 99.8374 58.2016 99.7924 58.534C99.7509 58.8664 98.7997 59.7043 98.7997 59.7043L98.8031 59.7009Z" fill="url(#paint36_linear_43_3031)"/>
</g>
<g id="Group_13">
<path id="Vector_44" d="M122.432 62.4502C122.432 62.4502 119.419 64.3927 117.479 64.2853C116.711 64.2438 114.725 63.4785 112.619 62.5748C110.512 61.6711 108.278 60.622 106.998 60.0091C106.998 60.0091 105.434 59.829 104.701 59.8429C104.009 59.8567 103.03 59.5036 102.639 59.3651C102.342 58.6518 102.01 57.98 101.647 57.4053C101.491 57.1594 101.335 56.924 101.193 56.7197C101.242 56.647 101.356 56.6504 101.536 56.6781C101.958 56.7439 102.975 57.0452 102.975 57.0452L103.49 57.104C104.006 57.1594 104.445 57.1767 104.445 57.1767C104.445 57.1767 103.649 56.8236 103.4 56.5743C103.151 56.325 103.151 55.9856 103.4 56.0583C103.649 56.1311 104.21 56.086 104.915 56.3977C105.621 56.7058 105.652 57.0313 106.019 57.336C106.385 57.6476 106.721 57.8623 106.721 57.8623C107.679 58.0735 109.955 58.5756 111.65 58.9149C113.857 59.3581 117.385 60.3588 117.385 60.3588L119.897 58.6795L122.429 62.4467L122.432 62.4502Z" fill="url(#paint37_linear_43_3031)"/>
<path id="Vector_45" d="M126.905 125.645C126.905 125.645 126.887 125.648 126.88 125.652H118.343C118.271 125.614 118.281 125.582 118.281 125.582C118.281 125.582 118.125 125.406 118.388 124.98C118.648 124.561 120.201 124.166 121.163 123.969C122.238 123.332 123.446 122.487 123.446 122.487C124.511 122.902 126.427 122.553 126.427 122.553C127.209 123.304 127.313 125.513 126.908 125.645H126.905Z" fill="white"/>
<path id="Vector_46" d="M146.346 122.986C146.065 123.28 145.498 123.633 144.924 123.907C144.606 124.052 143.502 124.693 142.413 125.323C141.98 125.565 141.489 125.693 140.998 125.693H139.213C138.881 125.693 138.76 125.465 138.77 125.323C138.794 124.949 139.109 124.634 139.631 124.537C139.759 124.513 140.289 123.976 141.42 123.231C141.752 122.702 142.202 121.517 142.202 121.517C143.817 121.31 144.751 120.576 144.751 120.576C145.764 120.856 146.204 122.269 146.346 122.986Z" fill="white"/>
<path id="Vector_47" d="M123.353 121.143C123.384 121.614 123.415 122.065 123.442 122.487C124.273 122.875 125.494 122.84 126.424 122.556C126.48 122.387 126.587 121.981 126.736 121.393C125.086 121.469 123.986 121.299 123.356 121.143H123.353Z" fill="url(#paint38_linear_43_3031)"/>
<path id="Vector_48" d="M127.87 54.102L125.715 61.5049C125.383 61.7611 125.012 62.0346 124.632 62.3047C123.85 62.8657 123.027 63.4093 122.435 63.7971C121.93 64.1295 121.595 64.3407 121.595 64.3407C119.661 62.4467 118.347 59.5035 118.347 59.5035C118.347 59.5035 121.75 56.8859 123.961 55.6359C126.171 54.3859 127.866 54.102 127.866 54.102H127.87Z" fill="url(#paint39_linear_43_3031)"/>
<path id="Vector_49" style="mix-blend-mode:multiply" opacity="0.5" d="M124.743 60.4938L124.629 62.3047C123.847 62.8656 123.024 63.4093 122.433 63.7971L124.166 60.1683L124.74 60.4938H124.743Z" fill="url(#paint40_linear_43_3031)"/>
<path id="Vector_50" d="M129.98 76.7469C128.589 74.7213 124.992 75.7255 123.802 76.1687C123.266 76.3799 122.311 92.0825 122.11 99.7243C122.104 100.067 122.605 113.484 123.114 121.237C123.743 121.393 125.826 121.545 127.476 121.469C128.202 115.583 129.506 102.955 128.378 100.375C128.728 99.243 129.575 95.6385 130.27 92.5672C130.544 91.3484 130.796 90.2162 130.98 89.3505C131.149 88.5645 131.27 88.0002 131.301 87.8062C131.381 87.3734 131.436 86.8021 131.481 86.1512C131.658 83.298 131.429 78.8729 129.98 76.7469Z" fill="url(#paint41_linear_43_3031)"/>
<path id="Vector_51" d="M144.75 120.576C144.719 120.292 144.695 119.928 144.671 119.495C143.242 120.347 141.755 120.448 141.755 120.448C142.035 121.095 142.198 121.483 142.201 121.514C142.201 121.514 143.848 121.587 144.75 120.572V120.576Z" fill="url(#paint42_linear_43_3031)"/>
<path id="Vector_52" d="M144.848 119.426C144.305 115.33 142.212 103.398 139.459 100.773C139.317 98.3601 139.773 87.6401 139.808 86.6775C139.929 83.0349 138.421 78.3709 136.529 76.7227L128.206 76.8958L130.596 87.7266C131.437 91.0991 132.302 98.5332 133.595 101.864C133.706 102.148 139.459 117.169 140.998 120.735C140.998 120.735 142.278 120.576 143.423 120.25C144.651 119.9 144.848 119.426 144.848 119.426Z" fill="url(#paint43_linear_43_3031)"/>
<path id="Vector_53" d="M125.466 55.352C125.857 54.8014 127.316 54.2163 128.524 53.922C129.527 53.7558 130.986 53.6034 132.778 54.0709C134.861 54.611 136.507 55.3831 136.985 55.9683C137.87 57.059 138.517 57.7377 137.095 67.0969C136.791 69.1052 136.836 73.8315 136.836 75.0261C136.836 76.2206 137.258 76.7954 136.957 77.1417C136.289 77.9173 130.855 78.3778 128.707 78.3778C126.797 78.3778 123.542 77.8688 123.376 77.2559C123.245 76.7677 123.878 71.8094 123.902 66.3144C123.944 56.9482 125.113 55.7571 125.462 55.3589L125.466 55.352Z" fill="url(#paint44_linear_43_3031)"/>
<path id="Vector_54" d="M129.022 55.6463C129.022 55.6463 126.514 70.459 126.466 72.2214C126.417 73.9873 128.261 77.3425 128.52 77.3425C129.091 77.3425 130.16 74.7387 130.496 72.488C130.828 70.2339 130.15 55.7363 130.15 55.7363L129.022 55.6463Z" fill="url(#paint45_linear_43_3031)"/>
<g id="Group_14">
<path id="Vector_55" d="M132.779 54.0708C132.779 54.0708 130.735 55.6116 128.524 53.9219C128.524 53.9219 128.805 53.3852 128.853 53.2918C128.978 53.0771 129.216 52.6131 129.368 51.9621C129.382 51.9171 129.389 51.8687 129.403 51.8167C129.445 51.6228 129.476 51.4081 129.496 51.1796C129.534 50.7849 129.531 50.3486 129.462 49.8742L129.676 49.7011L133.205 46.9242L133.606 46.6091C133.606 46.6091 133.488 47.2843 133.329 48.2711C133.239 48.832 133.135 49.4899 133.032 50.1824C132.828 51.5916 132.786 54.0674 132.786 54.0674L132.779 54.0708Z" fill="url(#paint46_linear_43_3031)"/>
<path id="Vector_56" style="mix-blend-mode:multiply" opacity="0.5" d="M131.987 50.2655C131.482 51.003 130.344 52.4677 128.853 53.2883C128.977 53.0736 129.216 52.6096 129.368 51.9587C129.133 52.0279 128.922 52.066 128.718 52.0833C128.728 51.9206 128.735 51.7544 128.732 51.5778L128.967 51.4358L129.496 51.1762L132.281 49.8188C132.281 49.8188 132.18 49.992 131.987 50.2655Z" fill="url(#paint47_linear_43_3031)"/>
<path id="Vector_57" d="M126.421 44.5004C126.421 44.5004 125.947 45.9166 127.044 46.8723L127.428 44.5766L126.421 44.5004Z" fill="url(#paint48_linear_43_3031)"/>
<path id="Vector_58" d="M132.561 49.5522C132.385 49.8015 132.191 50.0404 131.983 50.2655C131.644 50.6394 131.257 50.9753 130.838 51.2592C130.299 51.6263 129.807 51.8409 129.365 51.9587C129.129 52.0279 128.918 52.066 128.714 52.0833C127.777 52.1629 127.23 51.8028 127.23 51.8028C126.352 50.4975 126.383 48.3784 126.584 46.7718C126.663 46.1208 126.77 45.5564 126.853 45.1583C126.929 44.7981 126.992 44.5869 126.992 44.5869C126.995 44.5696 126.995 44.5592 126.999 44.5454C127.379 42.4713 130.15 42.3986 132.056 43.5655C132.17 43.6347 132.274 43.7075 132.378 43.7871C132.907 44.168 133.346 44.6562 133.606 45.231C134.052 46.2109 133.779 47.3258 133.322 48.2745C133.298 48.3265 133.274 48.3749 133.246 48.4269C133.031 48.8493 132.786 49.2336 132.557 49.5557L132.561 49.5522Z" fill="url(#paint49_linear_43_3031)"/>
<path id="Vector_59" d="M132.727 42.6583C132.665 41.8723 132.198 41.3495 131.721 41.1037C129.808 40.1134 128.386 42.3155 126.248 41.5088C125.1 41.0725 125.204 44.3273 126.629 45.0613C128.151 45.8439 129.458 45.6707 130.441 45.2483C130.416 45.6015 130.441 45.9928 130.614 46.2732C130.762 46.5121 131.191 46.7891 131.433 46.9311C131.392 47.2912 131.364 47.6201 131.361 47.8729L131.738 48.0772C131.814 47.9491 131.897 47.776 131.997 47.5509C131.997 47.5509 132.347 46.6749 132.987 46.7545C133.62 46.8341 133.111 49.1921 133.025 50.1859C133.025 50.1859 134.481 49.1471 135.017 46.0412C135.498 43.2781 133.896 41.9693 132.727 42.6618V42.6583Z" fill="url(#paint50_linear_43_3031)"/>
</g>
<path id="Vector_60" d="M135.286 65.9369C135.286 65.9369 132.218 70.7429 131.101 71.1653C128.876 72.0137 122.65 72.024 120.367 71.9963C119.952 72.1002 119.011 72.5538 118.482 72.5469C118.281 72.5434 117.998 72.488 117.724 72.4188C117.448 72.3495 117.185 72.2664 117.015 72.211C116.586 72.1452 116.064 71.7921 115.981 71.7193C115.898 71.6501 115.856 71.477 115.856 71.477C115.856 71.477 115.68 71.3869 115.597 71.3281C115.507 71.2692 115.517 71.1238 115.517 71.1238C115.14 71.0026 115.13 70.8018 115.189 70.7014C115.244 70.5975 115.569 70.5767 115.569 70.5767C115.569 70.5767 115.59 70.4347 115.784 70.3793C115.912 70.3378 117.098 70.2893 117.109 70.2859C117.323 70.4001 117.98 70.7256 118.368 70.6979C118.838 70.6702 119.015 70.4555 118.842 70.2962C118.696 70.1577 118.347 69.9846 118.25 69.9361C118.233 69.9292 118.222 69.9223 118.222 69.9223C118.222 69.9223 117.378 69.5137 117.06 69.2298C116.738 68.9493 116.901 68.7762 117.001 68.7277C117.102 68.6827 118.112 68.8558 118.33 68.9355C118.734 69.0878 120.343 69.9119 120.343 69.9119L129.06 67.5539L130.734 64.3407L135.293 65.9369H135.286Z" fill="url(#paint51_linear_43_3031)"/>
<path id="Vector_61" d="M134.757 67.9383C134.757 67.9383 133.913 68.0387 131.541 66.574C130.683 66.0443 129.776 65.1198 129.776 65.1198C130.6 63.437 131.24 62.1385 133.357 57.8865C134.291 56.0064 136.411 55.9648 136.411 55.9648C136.411 55.9648 138.089 56.6019 138.089 59.9433C138.089 62.606 136.252 65.4175 134.757 67.9348V67.9383Z" fill="url(#paint52_linear_43_3031)"/>
<path id="Vector_62" style="mix-blend-mode:multiply" opacity="0.5" d="M130.98 89.3505C130.797 90.2161 130.548 91.3449 130.271 92.5672L129.866 84.4233L130.98 89.3505Z" fill="url(#paint53_linear_43_3031)"/>
<path id="Vector_63" d="M132.799 53.2883C132.799 53.2883 131.741 54.0639 129.689 54.0051L130.322 55.397C130.322 55.397 132.163 55.307 133.072 54.1505L132.799 53.2918V53.2883Z" fill="url(#paint54_linear_43_3031)"/>
<path id="Vector_64" d="M128.766 53.4545C128.766 53.4545 129.022 53.8873 129.69 54.0051L128.97 55.1546C128.97 55.1546 128.521 54.8534 128.354 53.9635L128.766 53.4545Z" fill="url(#paint55_linear_43_3031)"/>
<path id="Vector_65" d="M129.689 54.0051L128.97 55.1546L129.022 55.6463L130.153 55.7363L130.322 55.397L129.689 54.0051Z" fill="url(#paint56_linear_43_3031)"/>
</g>
</g>
<g id="Group_15">
<g id="Group_16">
<path id="Vector_66" d="M162.925 105.801H157.563V125.652H162.925V105.801Z" fill="url(#paint57_linear_43_3031)"/>
<path id="Vector_67" d="M172.23 101.248H166.868V125.655H172.23V101.248Z" fill="url(#paint58_linear_43_3031)"/>
<path id="Vector_68" d="M181.538 96.6912H176.177V125.652H181.538V96.6912Z" fill="url(#paint59_linear_43_3031)"/>
<path id="Vector_69" d="M190.844 92.1379H185.482V125.655H190.844V92.1379Z" fill="url(#paint60_linear_43_3031)"/>
<path id="Vector_70" d="M190.443 80.026L182.587 82.6887L184.832 83.866C182.058 86.7779 173.106 95.23 159.124 99.3781C159.124 99.3781 175.33 97.9411 186.759 86.1097L187.489 88.6339L190.446 80.026H190.443Z" fill="white"/>
</g>
<g id="Group_17">
<path id="Vector_71" d="M182.279 53.3506H167.28C166.77 53.3506 166.356 53.7646 166.356 54.2751V63.1288C166.356 63.6394 166.77 64.0533 167.28 64.0533H182.279C182.789 64.0533 183.202 63.6394 183.202 63.1288V54.2751C183.202 53.7646 182.789 53.3506 182.279 53.3506Z" fill="url(#paint61_linear_43_3031)"/>
<path id="Vector_72" d="M175.924 52.9732L174.786 54.6976C174.592 54.9884 174.267 55.165 173.914 55.165H166.235C165.657 55.165 165.19 55.6325 165.19 56.2107V66.6398C165.19 67.2181 165.657 67.6855 166.235 67.6855H183.33C183.908 67.6855 184.375 67.2181 184.375 66.6398V53.5515C184.375 52.9732 183.908 52.5058 183.33 52.5058H176.796C176.446 52.5058 176.118 52.6824 175.924 52.9732Z" fill="url(#paint62_linear_43_3031)"/>
<path id="Vector_73" d="M174.323 69.5172H165.647C165.395 69.5172 165.19 69.3129 165.19 69.0601C165.19 68.8074 165.395 68.6031 165.647 68.6031H174.323C174.575 68.6031 174.779 68.8074 174.779 69.0601C174.779 69.3129 174.575 69.5172 174.323 69.5172Z" fill="url(#paint63_linear_43_3031)"/>
<path id="Vector_74" d="M176.267 71.2658H165.647C165.395 71.2658 165.19 71.0615 165.19 70.8087C165.19 70.556 165.395 70.3517 165.647 70.3517H176.267C176.519 70.3517 176.723 70.556 176.723 70.8087C176.723 71.0615 176.519 71.2658 176.267 71.2658Z" fill="url(#paint64_linear_43_3031)"/>
<path id="Vector_75" d="M179.321 71.2658H177.896C177.644 71.2658 177.439 71.0615 177.439 70.8087C177.439 70.556 177.644 70.3517 177.896 70.3517H179.321C179.574 70.3517 179.778 70.556 179.778 70.8087C179.778 71.0615 179.574 71.2658 179.321 71.2658Z" fill="url(#paint65_linear_43_3031)"/>
<path id="Vector_76" d="M169.078 73.0178H165.647C165.395 73.0178 165.19 72.8135 165.19 72.5607C165.19 72.308 165.395 72.1037 165.647 72.1037H169.078C169.331 72.1037 169.535 72.308 169.535 72.5607C169.535 72.8135 169.331 73.0178 169.078 73.0178Z" fill="url(#paint66_linear_43_3031)"/>
<path id="Vector_77" d="M183.912 69.5172H175.918C175.665 69.5172 175.461 69.3129 175.461 69.0601C175.461 68.8074 175.665 68.6031 175.918 68.6031H183.912C184.164 68.6031 184.368 68.8074 184.368 69.0601C184.368 69.3129 184.164 69.5172 183.912 69.5172Z" fill="url(#paint67_linear_43_3031)"/>
</g>
<g id="Group_18">
<path id="Vector_78" d="M64.2568 52.5023C64.2568 53.3368 64.1254 54.1401 63.8798 54.8949C62.8766 58.0008 59.9606 60.2515 56.5222 60.2515C55.7059 60.2515 54.9172 60.1234 54.1804 59.8879C52.7449 59.4309 51.4927 58.5721 50.5518 57.4364C49.4483 56.0964 48.7842 54.3756 48.7842 52.5023C48.7842 48.2261 52.2502 44.7567 56.5257 44.7567C60.8012 44.7567 64.2637 48.2261 64.2637 52.5023H64.2568Z" fill="url(#paint68_linear_43_3031)"/>
<path id="Vector_79" d="M65.0215 52.2669C65.0215 53.1845 64.8797 54.0674 64.6064 54.895L56.5225 52.2669V43.7595C61.2165 43.7595 65.0215 47.5682 65.0215 52.2669Z" fill="url(#paint69_linear_43_3031)"/>
<path id="Vector_80" d="M56.5184 52.2669L53.7545 61.2522C52.0595 60.7155 50.586 59.701 49.4756 58.361L56.5184 52.2669Z" fill="url(#paint70_linear_43_3031)"/>
</g>
</g>
<g id="Group_19">
<g id="Group_20">
<path id="Vector_81" d="M52.7272 95.7563C57.3351 95.7563 61.0706 92.0171 61.0706 87.4047C61.0706 82.7922 57.3351 79.053 52.7272 79.053C48.1193 79.053 44.3838 82.7922 44.3838 87.4047C44.3838 92.0171 48.1193 95.7563 52.7272 95.7563Z" fill="url(#paint71_linear_43_3031)"/>
<g id="Vector_82" style="mix-blend-mode:screen">
<path d="M52.7272 95.7563C57.3351 95.7563 61.0706 92.0171 61.0706 87.4047C61.0706 82.7922 57.3351 79.053 52.7272 79.053C48.1193 79.053 44.3838 82.7922 44.3838 87.4047C44.3838 92.0171 48.1193 95.7563 52.7272 95.7563Z" fill="#F0C97C"/>
</g>
<path id="Vector_83" d="M52.7271 95.462C57.1726 95.462 60.7765 91.8546 60.7765 87.4047C60.7765 82.9547 57.1726 79.3474 52.7271 79.3474C48.2816 79.3474 44.6777 82.9547 44.6777 87.4047C44.6777 91.8546 48.2816 95.462 52.7271 95.462Z" fill="url(#paint72_linear_43_3031)"/>
<g id="Vector_84" style="mix-blend-mode:multiply">
<path d="M52.7269 94.2155C56.4847 94.2155 59.531 91.1662 59.531 87.4047C59.531 83.6432 56.4847 80.5939 52.7269 80.5939C48.9691 80.5939 45.9229 83.6432 45.9229 87.4047C45.9229 91.1662 48.9691 94.2155 52.7269 94.2155Z" fill="#F0C97C"/>
</g>
<path id="Vector_85" d="M52.7275 93.9315C56.3286 93.9315 59.2479 91.0094 59.2479 87.4047C59.2479 83.8 56.3286 80.8778 52.7275 80.8778C49.1263 80.8778 46.207 83.8 46.207 87.4047C46.207 91.0094 49.1263 93.9315 52.7275 93.9315Z" fill="url(#paint73_linear_43_3031)"/>
<g id="Vector_86" style="mix-blend-mode:screen">
<path d="M53.0174 86.9026C52.0627 86.5079 51.7894 86.2655 51.7894 85.8257C51.7894 85.4726 52.0454 85.0571 52.7683 85.0571C53.4394 85.0571 53.858 85.296 54.0378 85.3999L54.19 85.4864L54.5636 84.4996L54.4529 84.4338C54.069 84.2087 53.64 84.0806 53.1419 84.046V83.0038H52.1803V84.1049C51.1979 84.3126 50.5718 85.0224 50.5718 85.9469C50.5718 87.0515 51.4642 87.5535 52.4224 87.931C53.2111 88.253 53.5328 88.5785 53.5328 89.0632C53.5328 89.5895 53.0727 89.96 52.4155 89.96C51.907 89.96 51.3778 89.8007 50.9661 89.5272L50.807 89.4199L50.4473 90.4205L50.5407 90.4863C50.9177 90.7564 51.5196 90.9434 52.1076 90.978V92.0618H53.0797V90.9261C54.0932 90.7079 54.7643 89.9427 54.7643 88.9905C54.7643 88.0383 54.2419 87.3977 53.0209 86.8991L53.0174 86.9026Z" fill="#F0C97C"/>
</g>
</g>
<g id="Group_21">
<path id="Vector_87" d="M169.787 47.8917C171.795 47.0522 172.743 44.7424 171.904 42.7325C171.065 40.7227 168.758 39.7739 166.75 40.6134C164.742 41.4529 163.794 43.7628 164.633 45.7726C165.471 47.7824 167.779 48.7312 169.787 47.8917Z" fill="url(#paint74_linear_43_3031)"/>
<g id="Vector_88" style="mix-blend-mode:screen">
<path d="M169.787 47.8917C171.795 47.0522 172.743 44.7424 171.904 42.7325C171.065 40.7227 168.758 39.7739 166.75 40.6134C164.742 41.4529 163.794 43.7628 164.633 45.7726C165.471 47.7824 167.779 48.7312 169.787 47.8917Z" fill="#F0C97C"/>
</g>
<path id="Vector_89" d="M171.972 45.1377C172.452 43.0918 171.185 41.0436 169.141 40.563C167.097 40.0823 165.051 41.3513 164.571 43.3972C164.09 45.4431 165.358 47.4913 167.402 47.9719C169.446 48.4525 171.492 47.1836 171.972 45.1377Z" fill="url(#paint75_linear_43_3031)"/>
<g id="Vector_90" style="mix-blend-mode:multiply">
<path d="M169.774 47.1142C171.342 46.2835 171.941 44.337 171.111 42.7667C170.282 41.1964 168.337 40.5968 166.768 41.4276C165.199 42.2583 164.601 44.2048 165.43 45.7751C166.26 47.3454 168.205 47.945 169.774 47.1142Z" fill="#F0C97C"/>
</g>
<path id="Vector_91" d="M171.264 44.9697C171.653 43.3129 170.627 41.6541 168.971 41.2646C167.316 40.8751 165.659 41.9024 165.27 43.5592C164.881 45.2159 165.907 46.8748 167.562 47.2643C169.217 47.6538 170.875 46.6265 171.264 44.9697Z" fill="url(#paint76_linear_43_3031)"/>
<g id="Vector_92" style="mix-blend-mode:screen">
<path d="M168.407 44.0295C167.957 43.8425 167.825 43.7283 167.825 43.5205C167.825 43.3543 167.946 43.1569 168.289 43.1569C168.604 43.1569 168.804 43.2712 168.887 43.3197L168.96 43.3612L169.136 42.8938L169.085 42.8626C168.905 42.7553 168.701 42.6964 168.465 42.6791V42.1874H168.012V42.7068C167.549 42.8038 167.251 43.1396 167.251 43.5759C167.251 44.0988 167.673 44.3342 168.126 44.5143C168.5 44.6666 168.652 44.819 168.652 45.0475C168.652 45.2968 168.434 45.4699 168.123 45.4699C167.881 45.4699 167.632 45.3937 167.438 45.2656L167.362 45.2137L167.192 45.6881L167.237 45.7192C167.414 45.8473 167.701 45.9339 167.978 45.9512V46.4637H168.438V45.927C168.915 45.8231 169.233 45.463 169.233 45.0129C169.233 44.5627 168.988 44.2615 168.41 44.026L168.407 44.0295Z" fill="#F0C97C"/>
</g>
</g>
<g id="Group_22">
<path id="Vector_93" d="M75.0361 20.9401C77.8759 19.7824 79.2403 16.5396 78.0838 13.6971C76.9272 10.8545 73.6876 9.48871 70.8478 10.6464C68.0081 11.8041 66.6436 15.0469 67.8002 17.8895C68.9568 20.732 72.1964 22.0978 75.0361 20.9401Z" fill="url(#paint77_linear_43_3031)"/>
<g id="Vector_94" style="mix-blend-mode:screen">
<path d="M75.0361 20.9401C77.8759 19.7824 79.2403 16.5396 78.0838 13.6971C76.9272 10.8545 73.6876 9.48871 70.8478 10.6464C68.0081 11.8041 66.6436 15.0469 67.8002 17.8895C68.9568 20.732 72.1964 22.0978 75.0361 20.9401Z" fill="#F0C97C"/>
</g>
<path id="Vector_95" d="M78.1573 17.0166C78.8325 14.1325 77.0442 11.2467 74.1631 10.5707C71.2819 9.89484 68.3989 11.6849 67.7236 14.5689C67.0484 17.4529 68.8366 20.3388 71.7178 21.0147C74.599 21.6906 77.482 19.9006 78.1573 17.0166Z" fill="url(#paint78_linear_43_3031)"/>
<g id="Vector_96" style="mix-blend-mode:multiply">
<path d="M74.6904 19.977C76.9976 19.0114 78.0859 16.3565 77.1213 14.047C76.1566 11.7375 73.5043 10.6481 71.1971 11.6137C68.8899 12.5793 67.8015 15.2343 68.7662 17.5437C69.7308 19.8532 72.3832 20.9426 74.6904 19.977Z" fill="#F0C97C"/>
</g>
<path id="Vector_97" d="M77.1693 16.7866C77.7172 14.4501 76.2692 12.1115 73.935 11.5631C71.6009 11.0146 69.2646 12.4641 68.7167 14.8005C68.1688 17.137 69.6168 19.4756 71.9509 20.024C74.2851 20.5725 76.6214 19.123 77.1693 16.7866Z" fill="url(#paint79_linear_43_3031)"/>
<g id="Vector_98" style="mix-blend-mode:screen">
<path d="M73.1361 15.4602C72.5031 15.1971 72.3197 15.0378 72.3197 14.7435C72.3197 14.508 72.4892 14.2345 72.9701 14.2345C73.4163 14.2345 73.693 14.3938 73.8141 14.463L73.9144 14.5219L74.1635 13.864L74.0908 13.8225C73.8348 13.6736 73.5512 13.587 73.2191 13.5662V12.8737H72.5792V13.6078C71.9254 13.7463 71.5068 14.2206 71.5068 14.8335C71.5068 15.5676 72.0984 15.9034 72.7383 16.1527C73.2641 16.3674 73.4785 16.5856 73.4785 16.9041C73.4785 17.2538 73.1741 17.4997 72.7348 17.4997C72.3958 17.4997 72.043 17.3958 71.7697 17.2123L71.6625 17.143L71.4238 17.8113L71.4861 17.8563C71.7352 18.0363 72.1364 18.161 72.5307 18.1818V18.902H73.1776V18.1472C73.8521 18.0017 74.2984 17.4927 74.2984 16.8591C74.2984 16.2254 73.9524 15.7996 73.1361 15.4672V15.4602Z" fill="#F0C97C"/>
</g>
</g>
<g id="Group_23">
<path id="Vector_99" d="M161.672 92.8671C165.048 91.4574 166.644 87.5747 165.235 84.1948C163.827 80.815 159.948 79.2178 156.572 80.6275C153.195 82.0372 151.6 85.9199 153.008 89.2997C154.416 92.6796 158.295 94.2767 161.672 92.8671Z" fill="url(#paint80_linear_43_3031)"/>
<g id="Vector_100" style="mix-blend-mode:screen">
<path d="M161.672 92.8671C165.048 91.4574 166.644 87.5747 165.235 84.1948C163.827 80.815 159.948 79.2178 156.572 80.6275C153.195 82.0372 151.6 85.9199 153.008 89.2997C154.416 92.6796 158.295 94.2767 161.672 92.8671Z" fill="#F0C97C"/>
</g>
<path id="Vector_101" d="M165.512 86.7503C165.512 90.2855 162.652 93.149 159.12 93.149C155.588 93.149 152.728 90.2855 152.728 86.7503C152.728 83.215 155.588 80.3515 159.12 80.3515C162.652 80.3515 165.512 83.215 165.512 86.7503Z" fill="url(#paint81_linear_43_3031)"/>
<g id="Vector_102" style="mix-blend-mode:multiply">
<path d="M161.133 91.7609C163.9 90.6479 165.242 87.5003 164.131 84.7304C163.019 81.9605 159.874 80.6173 157.107 81.7302C154.34 82.8432 152.998 85.9908 154.11 88.7607C155.222 91.5306 158.366 92.8738 161.133 91.7609Z" fill="#F0C97C"/>
</g>
<path id="Vector_103" d="M164.162 87.9368C164.817 85.1502 163.091 82.3597 160.307 81.7041C157.523 81.0484 154.736 82.7759 154.081 85.5625C153.426 88.3491 155.151 91.1397 157.935 91.7953C160.719 92.451 163.507 90.7235 164.162 87.9368Z" fill="url(#paint82_linear_43_3031)"/>
<g id="Vector_104" style="mix-blend-mode:screen">
<path d="M159.348 86.352C158.59 86.037 158.372 85.8465 158.372 85.4968C158.372 85.2163 158.577 84.8874 159.151 84.8874C159.684 84.8874 160.016 85.0778 160.157 85.1609L160.278 85.2302L160.576 84.4477L160.489 84.3957C160.185 84.2191 159.843 84.1153 159.448 84.0876V83.26H158.687V84.136C157.909 84.3022 157.411 84.8666 157.411 85.5972C157.411 86.4732 158.117 86.8749 158.881 87.1727C159.507 87.4254 159.763 87.6886 159.763 88.0695C159.763 88.4884 159.396 88.7793 158.874 88.7793C158.469 88.7793 158.051 88.6546 157.722 88.4365L157.594 88.3534L157.311 89.1498L157.383 89.2017C157.681 89.4164 158.158 89.5618 158.628 89.593V90.4517H159.4V89.5514C160.202 89.3783 160.735 88.7724 160.735 88.0141C160.735 87.2558 160.32 86.7502 159.351 86.3555L159.348 86.352Z" fill="#F0C97C"/>
</g>
</g>
<g id="Group_24">
<g id="Group_25">
<path id="Vector_105" d="M78.262 122.456H52.1768V125.659H78.262V122.456Z" fill="url(#paint83_linear_43_3031)"/>
<g id="Group_26" style="mix-blend-mode:multiply">
<path id="Vector_106" d="M74.5362 122.456H73.917V125.659H74.5362V122.456Z" fill="url(#paint84_linear_43_3031)"/>
<path id="Vector_107" d="M76.5391 122.456H75.9199V125.659H76.5391V122.456Z" fill="url(#paint85_linear_43_3031)"/>
<path id="Vector_108" d="M54.5186 122.456H53.8994V125.659H54.5186V122.456Z" fill="url(#paint86_linear_43_3031)"/>
<path id="Vector_109" d="M56.5176 122.456H55.8984V125.659H56.5176V122.456Z" fill="url(#paint87_linear_43_3031)"/>
<path id="Vector_110" d="M58.5205 122.456H57.9014V125.659H58.5205V122.456Z" fill="url(#paint88_linear_43_3031)"/>
<path id="Vector_111" d="M60.5235 122.456H59.9043V125.659H60.5235V122.456Z" fill="url(#paint89_linear_43_3031)"/>
<path id="Vector_112" d="M62.5264 122.456H61.9072V125.659H62.5264V122.456Z" fill="url(#paint90_linear_43_3031)"/>
<path id="Vector_113" d="M64.5254 122.456H63.9062V125.659H64.5254V122.456Z" fill="url(#paint91_linear_43_3031)"/>
<path id="Vector_114" d="M66.5284 122.456H65.9092V125.659H66.5284V122.456Z" fill="url(#paint92_linear_43_3031)"/>
<path id="Vector_115" d="M68.5313 122.456H67.9121V125.659H68.5313V122.456Z" fill="url(#paint93_linear_43_3031)"/>
<path id="Vector_116" d="M70.5342 122.456H69.915V125.659H70.5342V122.456Z" fill="url(#paint94_linear_43_3031)"/>
<path id="Vector_117" d="M72.5332 122.456H71.9141V125.659H72.5332V122.456Z" fill="url(#paint95_linear_43_3031)"/>
</g>
</g>
<g id="Group_27">
<path id="Vector_118" d="M80.9534 118.574H54.8682V121.777H80.9534V118.574Z" fill="url(#paint96_linear_43_3031)"/>
<g id="Group_28" style="mix-blend-mode:multiply">
<path id="Vector_119" d="M77.2315 118.574H76.6123V121.777H77.2315V118.574Z" fill="url(#paint97_linear_43_3031)"/>
<path id="Vector_120" d="M79.2305 118.574H78.6113V121.777H79.2305V118.574Z" fill="url(#paint98_linear_43_3031)"/>
<path id="Vector_121" d="M57.21 118.574H56.5908V121.777H57.21V118.574Z" fill="url(#paint99_linear_43_3031)"/>
<path id="Vector_122" d="M59.2129 118.574H58.5938V121.777H59.2129V118.574Z" fill="url(#paint100_linear_43_3031)"/>
<path id="Vector_123" d="M61.212 118.574H60.5928V121.777H61.212V118.574Z" fill="url(#paint101_linear_43_3031)"/>
<path id="Vector_124" d="M63.2149 118.574H62.5957V121.777H63.2149V118.574Z" fill="url(#paint102_linear_43_3031)"/>
<path id="Vector_125" d="M65.2178 118.574H64.5986V121.777H65.2178V118.574Z" fill="url(#paint103_linear_43_3031)"/>
<path id="Vector_126" d="M67.2207 118.574H66.6016V121.777H67.2207V118.574Z" fill="url(#paint104_linear_43_3031)"/>
<path id="Vector_127" d="M69.2237 118.574H68.6045V121.777H69.2237V118.574Z" fill="url(#paint105_linear_43_3031)"/>
<path id="Vector_128" d="M71.2227 118.574H70.6035V121.777H71.2227V118.574Z" fill="url(#paint106_linear_43_3031)"/>
<path id="Vector_129" d="M73.2256 118.574H72.6064V121.777H73.2256V118.574Z" fill="url(#paint107_linear_43_3031)"/>
<path id="Vector_130" d="M75.2286 118.574H74.6094V121.777H75.2286V118.574Z" fill="url(#paint108_linear_43_3031)"/>
</g>
</g>
<g id="Group_29">
<path id="Vector_131" d="M76.7815 114.696H50.6963V117.899H76.7815V114.696Z" fill="url(#paint109_linear_43_3031)"/>
<g id="Group_30" style="mix-blend-mode:multiply">
<path id="Vector_132" d="M73.0557 114.696H72.4365V117.899H73.0557V114.696Z" fill="url(#paint110_linear_43_3031)"/>
<path id="Vector_133" d="M75.0586 114.696H74.4395V117.899H75.0586V114.696Z" fill="url(#paint111_linear_43_3031)"/>
<path id="Vector_134" d="M53.0381 114.696H52.4189V117.899H53.0381V114.696Z" fill="url(#paint112_linear_43_3031)"/>
<path id="Vector_135" d="M55.0371 114.696H54.418V117.899H55.0371V114.696Z" fill="url(#paint113_linear_43_3031)"/>
<path id="Vector_136" d="M57.0401 114.696H56.4209V117.899H57.0401V114.696Z" fill="url(#paint114_linear_43_3031)"/>
<path id="Vector_137" d="M59.043 114.696H58.4238V117.899H59.043V114.696Z" fill="url(#paint115_linear_43_3031)"/>
<path id="Vector_138" d="M61.0459 114.696H60.4268V117.899H61.0459V114.696Z" fill="url(#paint116_linear_43_3031)"/>
<path id="Vector_139" d="M63.045 114.696H62.4258V117.899H63.045V114.696Z" fill="url(#paint117_linear_43_3031)"/>
<path id="Vector_140" d="M65.0479 114.696H64.4287V117.899H65.0479V114.696Z" fill="url(#paint118_linear_43_3031)"/>
<path id="Vector_141" d="M67.0508 114.696H66.4316V117.899H67.0508V114.696Z" fill="url(#paint119_linear_43_3031)"/>
<path id="Vector_142" d="M69.0538 114.696H68.4346V117.899H69.0538V114.696Z" fill="url(#paint120_linear_43_3031)"/>
<path id="Vector_143" d="M71.0528 114.696H70.4336V117.899H71.0528V114.696Z" fill="url(#paint121_linear_43_3031)"/>
</g>
</g>
<g id="Group_31">
<path id="Vector_144" d="M77.2591 110.818H51.1738V114.021H77.2591V110.818Z" fill="url(#paint122_linear_43_3031)"/>
<g id="Group_32" style="mix-blend-mode:multiply">
<path id="Vector_145" d="M73.5371 110.818H72.918V114.021H73.5371V110.818Z" fill="url(#paint123_linear_43_3031)"/>
<path id="Vector_146" d="M75.5362 110.818H74.917V114.021H75.5362V110.818Z" fill="url(#paint124_linear_43_3031)"/>
<path id="Vector_147" d="M53.5157 110.818H52.8965V114.021H53.5157V110.818Z" fill="url(#paint125_linear_43_3031)"/>
<path id="Vector_148" d="M55.5186 110.818H54.8994V114.021H55.5186V110.818Z" fill="url(#paint126_linear_43_3031)"/>
<path id="Vector_149" d="M57.5215 110.818H56.9023V114.021H57.5215V110.818Z" fill="url(#paint127_linear_43_3031)"/>
<path id="Vector_150" d="M59.5206 110.818H58.9014V114.021H59.5206V110.818Z" fill="url(#paint128_linear_43_3031)"/>
<path id="Vector_151" d="M61.5235 110.818H60.9043V114.021H61.5235V110.818Z" fill="url(#paint129_linear_43_3031)"/>
<path id="Vector_152" d="M63.5264 110.818H62.9072V114.021H63.5264V110.818Z" fill="url(#paint130_linear_43_3031)"/>
<path id="Vector_153" d="M65.5293 110.818H64.9102V114.021H65.5293V110.818Z" fill="url(#paint131_linear_43_3031)"/>
<path id="Vector_154" d="M67.5284 110.818H66.9092V114.021H67.5284V110.818Z" fill="url(#paint132_linear_43_3031)"/>
<path id="Vector_155" d="M69.5313 110.818H68.9121V114.021H69.5313V110.818Z" fill="url(#paint133_linear_43_3031)"/>
<path id="Vector_156" d="M71.5342 110.818H70.915V114.021H71.5342V110.818Z" fill="url(#paint134_linear_43_3031)"/>
</g>
</g>
</g>
</g>
<g id="Group_33">
<path id="Vector_157" d="M30.319 42.8038C30.319 43.1847 30.0112 43.4894 29.6341 43.4894C29.2571 43.4894 28.9492 43.1812 28.9492 42.8038C28.9492 42.4264 29.2571 42.1182 29.6341 42.1182C30.0112 42.1182 30.319 42.4264 30.319 42.8038Z" fill="url(#paint135_linear_43_3031)"/>
<path id="Vector_158" opacity="0.3" d="M59.3313 12.3474C60.0897 12.3474 60.7045 11.732 60.7045 10.9728C60.7045 10.2136 60.0897 9.59814 59.3313 9.59814C58.5728 9.59814 57.958 10.2136 57.958 10.9728C57.958 11.732 58.5728 12.3474 59.3313 12.3474Z" fill="url(#paint136_linear_43_3031)"/>
<path id="Vector_159" opacity="0.3" d="M7.0292 99.1772C7.45522 99.1772 7.80058 98.8315 7.80058 98.4051C7.80058 97.9786 7.45522 97.6329 7.0292 97.6329C6.60317 97.6329 6.25781 97.9786 6.25781 98.4051C6.25781 98.8315 6.60317 99.1772 7.0292 99.1772Z" fill="url(#paint137_linear_43_3031)"/>
<path id="Vector_160" d="M90.3424 3.44523C90.3424 3.84342 90.0172 4.16889 89.6194 4.16889C89.2216 4.16889 88.8965 3.84342 88.8965 3.44523C88.8965 3.04704 89.2216 2.72156 89.6194 2.72156C90.0172 2.72156 90.3424 3.04704 90.3424 3.44523Z" fill="url(#paint138_linear_43_3031)"/>
<path id="Vector_161" opacity="0.3" d="M139.05 10.4742C139.202 11.2809 138.51 11.9734 137.704 11.8211C137.258 11.7345 136.891 11.371 136.808 10.9208C136.656 10.1141 137.348 9.42156 138.154 9.57391C138.6 9.65701 138.967 10.024 139.053 10.4707L139.05 10.4742Z" fill="url(#paint139_linear_43_3031)"/>
<path id="Vector_162" opacity="0.3" d="M149.881 114.101C149.881 114.731 149.369 115.243 148.739 115.243C148.11 115.243 147.598 114.731 147.598 114.101C147.598 113.471 148.11 112.958 148.739 112.958C149.369 112.958 149.881 113.471 149.881 114.101Z" fill="url(#paint140_linear_43_3031)"/>
<path id="Vector_163" opacity="0.3" d="M154.36 122.161C154.716 122.161 155.004 121.873 155.004 121.517C155.004 121.162 154.716 120.873 154.36 120.873C154.005 120.873 153.717 121.162 153.717 121.517C153.717 121.873 154.005 122.161 154.36 122.161Z" fill="url(#paint141_linear_43_3031)"/>
<path id="Vector_164" d="M177.841 26.1664C178.296 26.1664 178.664 25.7974 178.664 25.3423C178.664 24.8871 178.296 24.5182 177.841 24.5182C177.386 24.5182 177.018 24.8871 177.018 25.3423C177.018 25.7974 177.386 26.1664 177.841 26.1664Z" fill="url(#paint142_linear_43_3031)"/>
<path id="Vector_165" opacity="0.3" d="M57.6712 102.377C57.6712 102.927 57.2249 103.374 56.6749 103.374C56.1249 103.374 55.6787 102.927 55.6787 102.377C55.6787 101.826 56.1249 101.379 56.6749 101.379C57.2249 101.379 57.6712 101.826 57.6712 102.377Z" fill="url(#paint143_linear_43_3031)"/>
<path id="Vector_166" d="M25.47 116.248C25.47 116.798 25.0238 117.245 24.4738 117.245C23.9238 117.245 23.4775 116.798 23.4775 116.248C23.4775 115.697 23.9238 115.25 24.4738 115.25C25.0238 115.25 25.47 115.697 25.47 116.248Z" fill="url(#paint144_linear_43_3031)"/>
<path id="Vector_167" opacity="0.3" d="M183.174 47.4401C183.174 47.9907 182.728 48.4373 182.178 48.4373C181.628 48.4373 181.182 47.9907 181.182 47.4401C181.182 46.8896 181.628 46.4429 182.178 46.4429C182.728 46.4429 183.174 46.8896 183.174 47.4401Z" fill="url(#paint145_linear_43_3031)"/>
<path id="Vector_168" d="M208.588 109.523C208.588 110.074 208.142 110.52 207.592 110.52C207.042 110.52 206.596 110.074 206.596 109.523C206.596 108.973 207.042 108.526 207.592 108.526C208.142 108.526 208.588 108.973 208.588 109.523Z" fill="url(#paint146_linear_43_3031)"/>
<path id="Vector_169" d="M153.588 96.3172C153.588 96.6184 153.343 96.8642 153.042 96.8642C152.741 96.8642 152.495 96.6184 152.495 96.3172C152.495 96.0159 152.741 95.7701 153.042 95.7701C153.343 95.7701 153.588 96.0159 153.588 96.3172Z" fill="url(#paint147_linear_43_3031)"/>
<path id="Vector_170" opacity="0.3" d="M65.0209 26.4191C65.5826 26.4191 66.0379 25.9633 66.0379 25.4011C66.0379 24.8389 65.5826 24.3831 65.0209 24.3831C64.4592 24.3831 64.0039 24.8389 64.0039 25.4011C64.0039 25.9633 64.4592 26.4191 65.0209 26.4191Z" fill="url(#paint148_linear_43_3031)"/>
<path id="Vector_171" d="M158.473 16.3986C158.473 17.1568 157.857 17.7732 157.1 17.7732C156.342 17.7732 155.727 17.1568 155.727 16.3986C155.727 15.6403 156.342 15.0239 157.1 15.0239C157.857 15.0239 158.473 15.6403 158.473 16.3986Z" fill="url(#paint149_linear_43_3031)"/>
<path id="Vector_172" opacity="0.3" d="M212.369 85.341C213.128 85.341 213.743 84.7255 213.743 83.9664C213.743 83.2072 213.128 82.5917 212.369 82.5917C211.611 82.5917 210.996 83.2072 210.996 83.9664C210.996 84.7255 211.611 85.341 212.369 85.341Z" fill="url(#paint150_linear_43_3031)"/>
<path id="Vector_173" opacity="0.3" d="M198.931 120.029C199.256 120.029 199.519 119.765 199.519 119.44C199.519 119.115 199.256 118.851 198.931 118.851C198.606 118.851 198.343 119.115 198.343 119.44C198.343 119.765 198.606 120.029 198.931 120.029Z" fill="url(#paint151_linear_43_3031)"/>
<path id="Vector_174" d="M179.487 77.2144C179.487 77.9727 178.871 78.589 178.113 78.589C177.356 78.589 176.74 77.9727 176.74 77.2144C176.74 76.4561 177.356 75.8398 178.113 75.8398C178.871 75.8398 179.487 76.4561 179.487 77.2144Z" fill="url(#paint152_linear_43_3031)"/>
<path id="Vector_175" d="M35.8024 91.9683C36.2838 91.9683 36.6741 91.5776 36.6741 91.0957C36.6741 90.6138 36.2838 90.2231 35.8024 90.2231C35.3209 90.2231 34.9307 90.6138 34.9307 91.0957C34.9307 91.5776 35.3209 91.9683 35.8024 91.9683Z" fill="url(#paint153_linear_43_3031)"/>
<path id="Vector_176" d="M195.956 45.9581H195.278V45.2795C195.278 45.0094 195.06 44.7947 194.794 44.7947C194.528 44.7947 194.31 45.0129 194.31 45.2795V45.9581H193.632C193.362 45.9581 193.147 46.1763 193.147 46.4429C193.147 46.7095 193.365 46.9277 193.632 46.9277H194.31V47.6063C194.31 47.8764 194.528 48.0911 194.794 48.0911C195.06 48.0911 195.278 47.8729 195.278 47.6063V46.9277H195.956C196.226 46.9277 196.441 46.7095 196.441 46.4429C196.441 46.1763 196.223 45.9581 195.956 45.9581Z" fill="white"/>
<path id="Vector_177" d="M195.648 101.771H194.97V101.092C194.97 100.822 194.752 100.607 194.485 100.607C194.219 100.607 194.001 100.825 194.001 101.092V101.771H193.323C193.053 101.771 192.839 101.989 192.839 102.255C192.839 102.522 193.057 102.74 193.323 102.74H194.001V103.419C194.001 103.689 194.219 103.904 194.485 103.904C194.752 103.904 194.97 103.685 194.97 103.419V102.74H195.648C195.917 102.74 196.132 102.522 196.132 102.255C196.132 101.989 195.914 101.771 195.648 101.771Z" fill="white"/>
<path id="Vector_178" opacity="0.3" d="M61.6418 34.833H60.9638V34.1544C60.9638 33.8843 60.7459 33.6696 60.4795 33.6696C60.2132 33.6696 59.9953 33.8878 59.9953 34.1544V34.833H59.3173C59.0475 34.833 58.833 35.0512 58.833 35.3178C58.833 35.5844 59.0509 35.8025 59.3173 35.8025H59.9953V36.4812C59.9953 36.7513 60.2132 36.9659 60.4795 36.9659C60.7459 36.9659 60.9638 36.7478 60.9638 36.4812V35.8025H61.6418C61.9116 35.8025 62.1261 35.5844 62.1261 35.3178C62.1261 35.0512 61.9082 34.833 61.6418 34.833Z" fill="url(#paint154_linear_43_3031)"/>
<path id="Vector_179" d="M43.1252 57.1906H42.4472V56.512C42.4472 56.2419 42.2293 56.0272 41.9629 56.0272C41.6966 56.0272 41.4787 56.2454 41.4787 56.512V57.1906H40.8007C40.5309 57.1906 40.3164 57.4088 40.3164 57.6754C40.3164 57.942 40.5343 58.1601 40.8007 58.1601H41.4787V58.8388C41.4787 59.1089 41.6966 59.3236 41.9629 59.3236C42.2293 59.3236 42.4472 59.1054 42.4472 58.8388V58.1601H43.1252C43.395 58.1601 43.6095 57.942 43.6095 57.6754C43.6095 57.4088 43.3916 57.1906 43.1252 57.1906Z" fill="url(#paint155_linear_43_3031)"/>
<path id="Vector_180" d="M122.629 1.16341H121.951V0.484754C121.951 0.214677 121.733 0 121.467 0C121.2 0 120.983 0.218139 120.983 0.484754V1.16341H120.305C120.035 1.16341 119.82 1.38155 119.82 1.64816C119.82 1.91478 120.038 2.13292 120.305 2.13292H120.983V2.81157C120.983 3.08165 121.2 3.29633 121.467 3.29633C121.733 3.29633 121.951 3.07819 121.951 2.81157V2.13292H122.629C122.899 2.13292 123.113 1.91478 123.113 1.64816C123.113 1.38155 122.895 1.16341 122.629 1.16341Z" fill="url(#paint156_linear_43_3031)"/>
</g>
</g>
</g>
</g>
</g>
<defs>
<linearGradient id="paint0_linear_43_3031" x1="4.84277" y1="125.998" x2="221.391" y2="125.998" gradientUnits="userSpaceOnUse">
<stop stop-color="#182C7E"/>
<stop offset="1" stop-color="#1A0048"/>
</linearGradient>
<linearGradient id="paint1_linear_43_3031" x1="47.6983" y1="128.654" x2="115.065" y2="128.654" gradientUnits="userSpaceOnUse">
<stop stop-color="#182C7E"/>
<stop offset="1" stop-color="#1A0048"/>
</linearGradient>
<linearGradient id="paint2_linear_43_3031" x1="-42.9553" y1="128.654" x2="226.652" y2="128.654" gradientUnits="userSpaceOnUse">
<stop stop-color="#182C7E"/>
<stop offset="1" stop-color="#1A0048"/>
</linearGradient>
<linearGradient id="paint3_linear_43_3031" x1="-95.2776" y1="128.654" x2="197.478" y2="128.654" gradientUnits="userSpaceOnUse">
<stop stop-color="#182C7E"/>
<stop offset="1" stop-color="#1A0048"/>
</linearGradient>
<linearGradient id="paint4_linear_43_3031" x1="-190.252" y1="128.654" x2="274.37" y2="128.654" gradientUnits="userSpaceOnUse">
<stop stop-color="#182C7E"/>
<stop offset="1" stop-color="#1A0048"/>
</linearGradient>
<linearGradient id="paint5_linear_43_3031" x1="86.5616" y1="44.4312" x2="77.3345" y2="47.3103" gradientUnits="userSpaceOnUse">
<stop stop-color="#4EC6FD"/>
<stop offset="1" stop-color="#1AA0FE"/>
</linearGradient>
<linearGradient id="paint6_linear_43_3031" x1="86.3159" y1="43.6382" x2="77.0888" y2="46.5173" gradientUnits="userSpaceOnUse">
<stop stop-color="#4EC6FD"/>
<stop offset="1" stop-color="#1AA0FE"/>
</linearGradient>
<linearGradient id="paint7_linear_43_3031" x1="86.0667" y1="42.8453" x2="76.8396" y2="45.7279" gradientUnits="userSpaceOnUse">
<stop stop-color="#4EC6FD"/>
<stop offset="1" stop-color="#1AA0FE"/>
</linearGradient>
<linearGradient id="paint8_linear_43_3031" x1="26.8767" y1="67.1766" x2="42.8211" y2="76.6189" gradientUnits="userSpaceOnUse">
<stop stop-color="#B5D9F8"/>
<stop offset="1" stop-color="#8EC1F8"/>
</linearGradient>
<linearGradient id="paint9_linear_43_3031" x1="26.1058" y1="66.4529" x2="42.2716" y2="76.0267" gradientUnits="userSpaceOnUse">
<stop stop-color="#B5D9F8"/>
<stop offset="1" stop-color="#8EC1F8"/>
</linearGradient>
<linearGradient id="paint10_linear_43_3031" x1="155.958" y1="23.2094" x2="171.197" y2="38.4295" gradientUnits="userSpaceOnUse">
<stop stop-color="#B5D9F8"/>
<stop offset="1" stop-color="#8EC1F8"/>
</linearGradient>
<linearGradient id="paint11_linear_43_3031" x1="168.968" y1="34.7223" x2="155.56" y2="24.2713" gradientUnits="userSpaceOnUse">
<stop stop-color="#7489D6"/>
<stop offset="1" stop-color="#7C90D9"/>
</linearGradient>
<linearGradient id="paint12_linear_43_3031" x1="34.6539" y1="113.845" x2="56.3571" y2="135.53" gradientUnits="userSpaceOnUse">
<stop stop-color="#B5D9F8"/>
<stop offset="1" stop-color="#8EC1F8"/>
</linearGradient>
<linearGradient id="paint13_linear_43_3031" x1="53.9315" y1="131.919" x2="33.9194" y2="116.315" gradientUnits="userSpaceOnUse">
<stop stop-color="#7489D6"/>
<stop offset="1" stop-color="#7C90D9"/>
</linearGradient>
<linearGradient id="paint14_linear_43_3031" x1="103.407" y1="118.46" x2="104.183" y2="123.259" gradientUnits="userSpaceOnUse">
<stop stop-color="#FFB8AB"/>
<stop offset="1" stop-color="#F99D8A"/>
</linearGradient>
<linearGradient id="paint15_linear_43_3031" x1="85.3404" y1="119.568" x2="84.5087" y2="123.505" gradientUnits="userSpaceOnUse">
<stop stop-color="#FFB8AB"/>
<stop offset="1" stop-color="#F99D8A"/>
</linearGradient>
<linearGradient id="paint16_linear_43_3031" x1="96.8831" y1="84.1221" x2="100.897" y2="123.248" gradientUnits="userSpaceOnUse">
<stop stop-color="#182C7E"/>
<stop offset="1" stop-color="#1A0048"/>
</linearGradient>
<linearGradient id="paint17_linear_43_3031" x1="94.3059" y1="89.4475" x2="94.9852" y2="96.0989" gradientUnits="userSpaceOnUse">
<stop stop-color="#182C7E"/>
<stop offset="1" stop-color="#1A0048"/>
</linearGradient>
<linearGradient id="paint18_linear_43_3031" x1="88.1798" y1="85.3375" x2="92.176" y2="124.283" gradientUnits="userSpaceOnUse">
<stop stop-color="#182C7E"/>
<stop offset="1" stop-color="#1A0048"/>
</linearGradient>
<linearGradient id="paint19_linear_43_3031" x1="112.903" y1="68.378" x2="119.763" y2="69.7466" gradientUnits="userSpaceOnUse">
<stop stop-color="#FFB8AB"/>
<stop offset="1" stop-color="#F99D8A"/>
</linearGradient>
<linearGradient id="paint20_linear_43_3031" x1="108.023" y1="62.3148" x2="85.0522" y2="84.7008" gradientUnits="userSpaceOnUse">
<stop stop-color="#182C7E"/>
<stop offset="1" stop-color="#1A0048"/>
</linearGradient>
<linearGradient id="paint21_linear_43_3031" x1="94.7352" y1="43.5597" x2="93.5492" y2="55.6864" gradientUnits="userSpaceOnUse">
<stop stop-color="#FFB8AB"/>
<stop offset="1" stop-color="#F99D8A"/>
</linearGradient>
<linearGradient id="paint22_linear_43_3031" x1="94.7144" y1="43.9256" x2="94.7144" y2="55.7605" gradientUnits="userSpaceOnUse">
<stop stop-color="#FFB8AB"/>
<stop offset="1" stop-color="#F99D8A"/>
</linearGradient>
<linearGradient id="paint23_linear_43_3031" x1="94.6693" y1="37.5996" x2="95.4214" y2="49.2336" gradientUnits="userSpaceOnUse">
<stop stop-color="#3945BA"/>
<stop offset="1" stop-color="#0C176F"/>
</linearGradient>
<linearGradient id="paint24_linear_43_3031" x1="101.311" y1="123.924" x2="111.017" y2="123.924" gradientUnits="userSpaceOnUse">
<stop stop-color="#002E7E"/>
<stop offset="1" stop-color="#151A6D"/>
</linearGradient>
<linearGradient id="paint25_linear_43_3031" x1="79.9341" y1="124.204" x2="87.1118" y2="124.204" gradientUnits="userSpaceOnUse">
<stop stop-color="#002E7E"/>
<stop offset="1" stop-color="#151A6D"/>
</linearGradient>
<linearGradient id="paint26_linear_43_3031" x1="92.4595" y1="47.3292" x2="92.4595" y2="47.3606" gradientUnits="userSpaceOnUse">
<stop stop-color="#FFB8AB"/>
<stop offset="1" stop-color="#F99D8A"/>
</linearGradient>
<linearGradient id="paint27_linear_43_3031" x1="90.4115" y1="57.6476" x2="102.721" y2="82.963" gradientUnits="userSpaceOnUse">
<stop stop-color="#6DB0FF"/>
<stop offset="1" stop-color="#4B56BB"/>
</linearGradient>
<linearGradient id="paint28_linear_43_3031" x1="90.7568" y1="55.6255" x2="95.904" y2="55.6255" gradientUnits="userSpaceOnUse">
<stop stop-color="#B5D9F8"/>
<stop offset="1" stop-color="#8EC1F8"/>
</linearGradient>
<linearGradient id="paint29_linear_43_3031" x1="97.0977" y1="53.4995" x2="95.8813" y2="57.5154" gradientUnits="userSpaceOnUse">
<stop stop-color="#B5D9F8"/>
<stop offset="1" stop-color="#8EC1F8"/>
</linearGradient>
<linearGradient id="paint30_linear_43_3031" x1="94.8495" y1="55.996" x2="96.3531" y2="59.0834" gradientUnits="userSpaceOnUse">
<stop stop-color="#6DB0FF"/>
<stop offset="1" stop-color="#4B56BB"/>
</linearGradient>
<linearGradient id="paint31_linear_43_3031" x1="93.9706" y1="54.469" x2="93.9706" y2="84.4961" gradientUnits="userSpaceOnUse">
<stop stop-color="#182C7E"/>
<stop offset="1" stop-color="#1A0048"/>
</linearGradient>
<linearGradient id="paint32_linear_43_3031" x1="76.5676" y1="67.9071" x2="118.762" y2="67.9071" gradientUnits="userSpaceOnUse">
<stop stop-color="#182C7E"/>
<stop offset="1" stop-color="#1A0048"/>
</linearGradient>
<linearGradient id="paint33_linear_43_3031" x1="81.2539" y1="70.5035" x2="89.823" y2="82.552" gradientUnits="userSpaceOnUse">
<stop stop-color="#B5D9F8"/>
<stop offset="1" stop-color="#8EC1F8"/>
</linearGradient>
<linearGradient id="paint34_linear_43_3031" x1="86.6682" y1="82.0204" x2="79.7793" y2="61.786" gradientUnits="userSpaceOnUse">
<stop stop-color="#FFB8AB"/>
<stop offset="1" stop-color="#F99D8A"/>
</linearGradient>
<linearGradient id="paint35_linear_43_3031" x1="81.6801" y1="54.469" x2="81.6801" y2="84.4961" gradientUnits="userSpaceOnUse">
<stop stop-color="#182C7E"/>
<stop offset="1" stop-color="#1A0048"/>
</linearGradient>
<linearGradient id="paint36_linear_43_3031" x1="94.4965" y1="56.1033" x2="96.7494" y2="79.198" gradientUnits="userSpaceOnUse">
<stop stop-color="#184AA7"/>
<stop offset="1" stop-color="#190E5B"/>
</linearGradient>
<linearGradient id="paint37_linear_43_3031" x1="127.607" y1="88.3638" x2="105.484" y2="48.1372" gradientUnits="userSpaceOnUse">
<stop stop-color="#FFC39A"/>
<stop offset="1" stop-color="#E8A38C"/>
</linearGradient>
<linearGradient id="paint38_linear_43_3031" x1="141.949" y1="121.957" x2="114.566" y2="121.957" gradientUnits="userSpaceOnUse">
<stop stop-color="#FCCFB0"/>
<stop offset="1" stop-color="#FCBA97"/>
</linearGradient>
<linearGradient id="paint39_linear_43_3031" x1="131.052" y1="71.3212" x2="121.671" y2="54.2621" gradientUnits="userSpaceOnUse">
<stop stop-color="#435FEA"/>
<stop offset="1" stop-color="#008EFF"/>
</linearGradient>
<linearGradient id="paint40_linear_43_3031" x1="125.504" y1="59.8498" x2="121.972" y2="64.2611" gradientUnits="userSpaceOnUse">
<stop stop-color="#FFC39A"/>
<stop offset="1" stop-color="#E8A38C"/>
</linearGradient>
<linearGradient id="paint41_linear_43_3031" x1="124.22" y1="73.1459" x2="129.395" y2="121.319" gradientUnits="userSpaceOnUse">
<stop stop-color="#002E66"/>
<stop offset="1" stop-color="#1A0048"/>
</linearGradient>
<linearGradient id="paint42_linear_43_3031" x1="141.945" y1="120.506" x2="114.57" y2="120.506" gradientUnits="userSpaceOnUse">
<stop stop-color="#FCCFB0"/>
<stop offset="1" stop-color="#FCBA97"/>
</linearGradient>
<linearGradient id="paint43_linear_43_3031" x1="133.813" y1="72.8343" x2="138.922" y2="120.405" gradientUnits="userSpaceOnUse">
<stop stop-color="#002E66"/>
<stop offset="1" stop-color="#1A0048"/>
</linearGradient>
<linearGradient id="paint44_linear_43_3031" x1="137.797" y1="80.3861" x2="121.096" y2="50.0163" gradientUnits="userSpaceOnUse">
<stop stop-color="#435FEA"/>
<stop offset="1" stop-color="#008EFF"/>
</linearGradient>
<linearGradient id="paint45_linear_43_3031" x1="128.175" y1="53.6276" x2="128.726" y2="80.0571" gradientUnits="userSpaceOnUse">
<stop stop-color="#3945BA"/>
<stop offset="1" stop-color="#0C176F"/>
</linearGradient>
<linearGradient id="paint46_linear_43_3031" x1="126.041" y1="49.6422" x2="133.617" y2="50.9313" gradientUnits="userSpaceOnUse">
<stop stop-color="#FFC39A"/>
<stop offset="1" stop-color="#E8A38C"/>
</linearGradient>
<linearGradient id="paint47_linear_43_3031" x1="128.714" y1="51.5536" x2="132.277" y2="51.5536" gradientUnits="userSpaceOnUse">
<stop stop-color="#FFC39A"/>
<stop offset="1" stop-color="#E8A38C"/>
</linearGradient>
<linearGradient id="paint48_linear_43_3031" x1="126.317" y1="45.6881" x2="127.428" y2="45.6881" gradientUnits="userSpaceOnUse">
<stop stop-color="#3945BA"/>
<stop offset="1" stop-color="#0C176F"/>
</linearGradient>
<linearGradient id="paint49_linear_43_3031" x1="126.639" y1="47.0453" x2="133.841" y2="48.2722" gradientUnits="userSpaceOnUse">
<stop stop-color="#FFC39A"/>
<stop offset="1" stop-color="#E8A38C"/>
</linearGradient>
<linearGradient id="paint50_linear_43_3031" x1="125.466" y1="45.5115" x2="135.104" y2="45.5115" gradientUnits="userSpaceOnUse">
<stop stop-color="#3945BA"/>
<stop offset="1" stop-color="#0C176F"/>
</linearGradient>
<linearGradient id="paint51_linear_43_3031" x1="115.161" y1="68.4438" x2="135.286" y2="68.4438" gradientUnits="userSpaceOnUse">
<stop stop-color="#FFC39A"/>
<stop offset="1" stop-color="#E8A38C"/>
</linearGradient>
<linearGradient id="paint52_linear_43_3031" x1="121.273" y1="51.3786" x2="137.93" y2="64.305" gradientUnits="userSpaceOnUse">
<stop stop-color="#435FEA"/>
<stop offset="1" stop-color="#008EFF"/>
</linearGradient>
<linearGradient id="paint53_linear_43_3031" x1="129.212" y1="84.9496" x2="130.883" y2="91.8462" gradientUnits="userSpaceOnUse">
<stop stop-color="#2E2A87"/>
<stop offset="1" stop-color="#000E42"/>
</linearGradient>
<linearGradient id="paint54_linear_43_3031" x1="134.975" y1="53.1394" x2="129.844" y2="54.8296" gradientUnits="userSpaceOnUse">
<stop stop-color="#435FEA"/>
<stop offset="1" stop-color="#008EFF"/>
</linearGradient>
<linearGradient id="paint55_linear_43_3031" x1="130.506" y1="53.7627" x2="128.441" y2="54.4436" gradientUnits="userSpaceOnUse">
<stop stop-color="#435FEA"/>
<stop offset="1" stop-color="#008EFF"/>
</linearGradient>
<linearGradient id="paint56_linear_43_3031" x1="129.617" y1="53.8423" x2="129.662" y2="55.9649" gradientUnits="userSpaceOnUse">
<stop stop-color="#3945BA"/>
<stop offset="1" stop-color="#0C176F"/>
</linearGradient>
<linearGradient id="paint57_linear_43_3031" x1="160.244" y1="89.4683" x2="160.244" y2="132.082" gradientUnits="userSpaceOnUse">
<stop stop-color="#4DC5FD"/>
<stop offset="1" stop-color="#008EFF"/>
</linearGradient>
<linearGradient id="paint58_linear_43_3031" x1="169.549" y1="89.4683" x2="169.549" y2="132.082" gradientUnits="userSpaceOnUse">
<stop stop-color="#4DC5FD"/>
<stop offset="1" stop-color="#008EFF"/>
</linearGradient>
<linearGradient id="paint59_linear_43_3031" x1="178.858" y1="89.4683" x2="178.858" y2="132.082" gradientUnits="userSpaceOnUse">
<stop stop-color="#4DC5FD"/>
<stop offset="1" stop-color="#008EFF"/>
</linearGradient>
<linearGradient id="paint60_linear_43_3031" x1="188.163" y1="89.4683" x2="188.163" y2="132.082" gradientUnits="userSpaceOnUse">
<stop stop-color="#4DC5FD"/>
<stop offset="1" stop-color="#008EFF"/>
</linearGradient>
<linearGradient id="paint61_linear_43_3031" x1="163.52" y1="52.2253" x2="185.835" y2="65.0315" gradientUnits="userSpaceOnUse">
<stop stop-color="white"/>
<stop offset="1" stop-color="#DEE3FC"/>
</linearGradient>
<linearGradient id="paint62_linear_43_3031" x1="162.434" y1="52.994" x2="188.04" y2="67.6914" gradientUnits="userSpaceOnUse">
<stop stop-color="#49D5FF"/>
<stop offset="1" stop-color="#00BBFF"/>
</linearGradient>
<linearGradient id="paint63_linear_43_3031" x1="165.052" y1="66.2209" x2="174.829" y2="71.8322" gradientUnits="userSpaceOnUse">
<stop stop-color="white"/>
<stop offset="1" stop-color="#DEE3FC"/>
</linearGradient>
<linearGradient id="paint64_linear_43_3031" x1="165.038" y1="67.4051" x2="176.77" y2="74.1366" gradientUnits="userSpaceOnUse">
<stop stop-color="white"/>
<stop offset="1" stop-color="#DEE3FC"/>
</linearGradient>
<linearGradient id="paint65_linear_43_3031" x1="177.35" y1="70.0851" x2="179.845" y2="71.5164" gradientUnits="userSpaceOnUse">
<stop stop-color="white"/>
<stop offset="1" stop-color="#DEE3FC"/>
</linearGradient>
<linearGradient id="paint66_linear_43_3031" x1="165.09" y1="71.2519" x2="169.596" y2="73.8381" gradientUnits="userSpaceOnUse">
<stop stop-color="white"/>
<stop offset="1" stop-color="#DEE3FC"/>
</linearGradient>
<linearGradient id="paint67_linear_43_3031" x1="175.326" y1="66.4182" x2="184.421" y2="71.6389" gradientUnits="userSpaceOnUse">
<stop stop-color="white"/>
<stop offset="1" stop-color="#DEE3FC"/>
</linearGradient>
<linearGradient id="paint68_linear_43_3031" x1="63.9663" y1="58.5964" x2="47.8687" y2="45.4543" gradientUnits="userSpaceOnUse">
<stop stop-color="#89D7FF"/>
<stop offset="0.22" stop-color="#9CDCFE"/>
<stop offset="1" stop-color="#DEF1FB"/>
</linearGradient>
<linearGradient id="paint69_linear_43_3031" x1="56.519" y1="49.3272" x2="65.0215" y2="49.3272" gradientUnits="userSpaceOnUse">
<stop stop-color="#06B1FD"/>
<stop offset="1" stop-color="#0084FF"/>
</linearGradient>
<linearGradient id="paint70_linear_43_3031" x1="52.9209" y1="43.1362" x2="53.0352" y2="60.7951" gradientUnits="userSpaceOnUse">
<stop stop-color="#1AD2FF"/>
<stop offset="1" stop-color="#0063FF"/>
</linearGradient>
<linearGradient id="paint71_linear_43_3031" x1="44.3838" y1="87.4047" x2="61.0706" y2="87.4047" gradientUnits="userSpaceOnUse">
<stop stop-color="#FFE16F"/>
<stop offset="1" stop-color="#FFBB3F"/>
</linearGradient>
<linearGradient id="paint72_linear_43_3031" x1="46.262" y1="79.7594" x2="56.6305" y2="91.9963" gradientUnits="userSpaceOnUse">
<stop stop-color="#FFE16F"/>
<stop offset="1" stop-color="#FFBB3F"/>
</linearGradient>
<linearGradient id="paint73_linear_43_3031" x1="45.4979" y1="80.168" x2="58.8425" y2="93.496" gradientUnits="userSpaceOnUse">
<stop stop-color="#FFE16F"/>
<stop offset="1" stop-color="#FFBB3F"/>
</linearGradient>
<linearGradient id="paint74_linear_43_3031" x1="164.325" y1="44.2662" x2="172.208" y2="44.2662" gradientUnits="userSpaceOnUse">
<stop stop-color="#FFE16F"/>
<stop offset="1" stop-color="#FFBB3F"/>
</linearGradient>
<linearGradient id="paint75_linear_43_3031" x1="165.22" y1="40.6507" x2="170.117" y2="46.4318" gradientUnits="userSpaceOnUse">
<stop stop-color="#FFE16F"/>
<stop offset="1" stop-color="#FFBB3F"/>
</linearGradient>
<linearGradient id="paint76_linear_43_3031" x1="164.851" y1="40.8493" x2="171.153" y2="47.1449" gradientUnits="userSpaceOnUse">
<stop stop-color="#FFE16F"/>
<stop offset="1" stop-color="#FFBB3F"/>
</linearGradient>
<linearGradient id="paint77_linear_43_3031" x1="67.3901" y1="15.7932" x2="78.4973" y2="15.7932" gradientUnits="userSpaceOnUse">
<stop stop-color="#FFE16F"/>
<stop offset="1" stop-color="#FFBB3F"/>
</linearGradient>
<linearGradient id="paint78_linear_43_3031" x1="68.6379" y1="10.71" x2="75.5399" y2="18.8541" gradientUnits="userSpaceOnUse">
<stop stop-color="#FFE16F"/>
<stop offset="1" stop-color="#FFBB3F"/>
</linearGradient>
<linearGradient id="paint79_linear_43_3031" x1="68.1328" y1="10.9757" x2="77.0141" y2="19.8483" gradientUnits="userSpaceOnUse">
<stop stop-color="#FFE16F"/>
<stop offset="1" stop-color="#FFBB3F"/>
</linearGradient>
<linearGradient id="paint80_linear_43_3031" x1="152.492" y1="86.7505" x2="165.744" y2="86.7505" gradientUnits="userSpaceOnUse">
<stop stop-color="#FFE16F"/>
<stop offset="1" stop-color="#FFBB3F"/>
</linearGradient>
<linearGradient id="paint81_linear_43_3031" x1="153.987" y1="80.6804" x2="162.218" y2="90.3952" gradientUnits="userSpaceOnUse">
<stop stop-color="#FFE16F"/>
<stop offset="1" stop-color="#FFBB3F"/>
</linearGradient>
<linearGradient id="paint82_linear_43_3031" x1="153.381" y1="81.001" x2="163.976" y2="91.5859" gradientUnits="userSpaceOnUse">
<stop stop-color="#FFE16F"/>
<stop offset="1" stop-color="#FFBB3F"/>
</linearGradient>
<linearGradient id="paint83_linear_43_3031" x1="52.1768" y1="124.055" x2="78.262" y2="124.055" gradientUnits="userSpaceOnUse">
<stop stop-color="#FFE16F"/>
<stop offset="1" stop-color="#FFBB3F"/>
</linearGradient>
<linearGradient id="paint84_linear_43_3031" x1="53.2073" y1="124.055" x2="80.0085" y2="124.055" gradientUnits="userSpaceOnUse">
<stop stop-color="#FFE16F"/>
<stop offset="1" stop-color="#FFBB3F"/>
</linearGradient>
<linearGradient id="paint85_linear_43_3031" x1="53.2072" y1="124.055" x2="80.0086" y2="124.055" gradientUnits="userSpaceOnUse">
<stop stop-color="#FFE16F"/>
<stop offset="1" stop-color="#FFBB3F"/>
</linearGradient>
<linearGradient id="paint86_linear_43_3031" x1="53.2076" y1="124.055" x2="80.0088" y2="124.055" gradientUnits="userSpaceOnUse">
<stop stop-color="#FFE16F"/>
<stop offset="1" stop-color="#FFBB3F"/>
</linearGradient>
<linearGradient id="paint87_linear_43_3031" x1="53.2073" y1="124.055" x2="80.0119" y2="124.055" gradientUnits="userSpaceOnUse">
<stop stop-color="#FFE16F"/>
<stop offset="1" stop-color="#FFBB3F"/>
</linearGradient>
<linearGradient id="paint88_linear_43_3031" x1="53.2074" y1="124.055" x2="80.012" y2="124.055" gradientUnits="userSpaceOnUse">
<stop stop-color="#FFE16F"/>
<stop offset="1" stop-color="#FFBB3F"/>
</linearGradient>
<linearGradient id="paint89_linear_43_3031" x1="53.2074" y1="124.055" x2="80.0088" y2="124.055" gradientUnits="userSpaceOnUse">
<stop stop-color="#FFE16F"/>
<stop offset="1" stop-color="#FFBB3F"/>
</linearGradient>
<linearGradient id="paint90_linear_43_3031" x1="53.2076" y1="124.055" x2="80.0122" y2="124.055" gradientUnits="userSpaceOnUse">
<stop stop-color="#FFE16F"/>
<stop offset="1" stop-color="#FFBB3F"/>
</linearGradient>
<linearGradient id="paint91_linear_43_3031" x1="53.2072" y1="124.055" x2="80.0119" y2="124.055" gradientUnits="userSpaceOnUse">
<stop stop-color="#FFE16F"/>
<stop offset="1" stop-color="#FFBB3F"/>
</linearGradient>
<linearGradient id="paint92_linear_43_3031" x1="53.2072" y1="124.055" x2="80.0086" y2="124.055" gradientUnits="userSpaceOnUse">
<stop stop-color="#FFE16F"/>
<stop offset="1" stop-color="#FFBB3F"/>
</linearGradient>
<linearGradient id="paint93_linear_43_3031" x1="53.2074" y1="124.055" x2="80.0086" y2="124.055" gradientUnits="userSpaceOnUse">
<stop stop-color="#FFE16F"/>
<stop offset="1" stop-color="#FFBB3F"/>
</linearGradient>
<linearGradient id="paint94_linear_43_3031" x1="53.2074" y1="124.055" x2="80.0088" y2="124.055" gradientUnits="userSpaceOnUse">
<stop stop-color="#FFE16F"/>
<stop offset="1" stop-color="#FFBB3F"/>
</linearGradient>
<linearGradient id="paint95_linear_43_3031" x1="53.2071" y1="124.055" x2="80.0084" y2="124.055" gradientUnits="userSpaceOnUse">
<stop stop-color="#FFE16F"/>
<stop offset="1" stop-color="#FFBB3F"/>
</linearGradient>
<linearGradient id="paint96_linear_43_3031" x1="54.8682" y1="120.177" x2="80.9534" y2="120.177" gradientUnits="userSpaceOnUse">
<stop stop-color="#FFE16F"/>
<stop offset="1" stop-color="#FFBB3F"/>
</linearGradient>
<linearGradient id="paint97_linear_43_3031" x1="55.9025" y1="120.177" x2="82.7038" y2="120.177" gradientUnits="userSpaceOnUse">
<stop stop-color="#FFE16F"/>
<stop offset="1" stop-color="#FFBB3F"/>
</linearGradient>
<linearGradient id="paint98_linear_43_3031" x1="55.8986" y1="120.177" x2="82.7035" y2="120.177" gradientUnits="userSpaceOnUse">
<stop stop-color="#FFE16F"/>
<stop offset="1" stop-color="#FFBB3F"/>
</linearGradient>
<linearGradient id="paint99_linear_43_3031" x1="55.899" y1="120.177" x2="82.7036" y2="120.177" gradientUnits="userSpaceOnUse">
<stop stop-color="#FFE16F"/>
<stop offset="1" stop-color="#FFBB3F"/>
</linearGradient>
<linearGradient id="paint100_linear_43_3031" x1="55.9026" y1="120.177" x2="82.7003" y2="120.177" gradientUnits="userSpaceOnUse">
<stop stop-color="#FFE16F"/>
<stop offset="1" stop-color="#FFBB3F"/>
</linearGradient>
<linearGradient id="paint101_linear_43_3031" x1="55.8987" y1="120.177" x2="82.7036" y2="120.177" gradientUnits="userSpaceOnUse">
<stop stop-color="#FFE16F"/>
<stop offset="1" stop-color="#FFBB3F"/>
</linearGradient>
<linearGradient id="paint102_linear_43_3031" x1="55.8989" y1="120.177" x2="82.7035" y2="120.177" gradientUnits="userSpaceOnUse">
<stop stop-color="#FFE16F"/>
<stop offset="1" stop-color="#FFBB3F"/>
</linearGradient>
<linearGradient id="paint103_linear_43_3031" x1="55.9024" y1="120.177" x2="82.7001" y2="120.177" gradientUnits="userSpaceOnUse">
<stop stop-color="#FFE16F"/>
<stop offset="1" stop-color="#FFBB3F"/>
</linearGradient>
<linearGradient id="paint104_linear_43_3031" x1="55.899" y1="120.177" x2="82.7038" y2="120.177" gradientUnits="userSpaceOnUse">
<stop stop-color="#FFE16F"/>
<stop offset="1" stop-color="#FFBB3F"/>
</linearGradient>
<linearGradient id="paint105_linear_43_3031" x1="55.8992" y1="120.177" x2="82.7038" y2="120.177" gradientUnits="userSpaceOnUse">
<stop stop-color="#FFE16F"/>
<stop offset="1" stop-color="#FFBB3F"/>
</linearGradient>
<linearGradient id="paint106_linear_43_3031" x1="55.9023" y1="120.177" x2="82.7035" y2="120.177" gradientUnits="userSpaceOnUse">
<stop stop-color="#FFE16F"/>
<stop offset="1" stop-color="#FFBB3F"/>
</linearGradient>
<linearGradient id="paint107_linear_43_3031" x1="55.8988" y1="120.177" x2="82.7037" y2="120.177" gradientUnits="userSpaceOnUse">
<stop stop-color="#FFE16F"/>
<stop offset="1" stop-color="#FFBB3F"/>
</linearGradient>
<linearGradient id="paint108_linear_43_3031" x1="55.8991" y1="120.177" x2="82.7037" y2="120.177" gradientUnits="userSpaceOnUse">
<stop stop-color="#FFE16F"/>
<stop offset="1" stop-color="#FFBB3F"/>
</linearGradient>
<linearGradient id="paint109_linear_43_3031" x1="50.6963" y1="116.299" x2="76.7815" y2="116.299" gradientUnits="userSpaceOnUse">
<stop stop-color="#FFE16F"/>
<stop offset="1" stop-color="#FFBB3F"/>
</linearGradient>
<linearGradient id="paint110_linear_43_3031" x1="51.7269" y1="116.299" x2="78.528" y2="116.299" gradientUnits="userSpaceOnUse">
<stop stop-color="#FFE16F"/>
<stop offset="1" stop-color="#FFBB3F"/>
</linearGradient>
<linearGradient id="paint111_linear_43_3031" x1="51.7268" y1="116.299" x2="78.5282" y2="116.299" gradientUnits="userSpaceOnUse">
<stop stop-color="#FFE16F"/>
<stop offset="1" stop-color="#FFBB3F"/>
</linearGradient>
<linearGradient id="paint112_linear_43_3031" x1="51.7271" y1="116.299" x2="78.5285" y2="116.299" gradientUnits="userSpaceOnUse">
<stop stop-color="#FFE16F"/>
<stop offset="1" stop-color="#FFBB3F"/>
</linearGradient>
<linearGradient id="paint113_linear_43_3031" x1="51.7268" y1="116.299" x2="78.5314" y2="116.299" gradientUnits="userSpaceOnUse">
<stop stop-color="#FFE16F"/>
<stop offset="1" stop-color="#FFBB3F"/>
</linearGradient>
<linearGradient id="paint114_linear_43_3031" x1="51.7269" y1="116.299" x2="78.5315" y2="116.299" gradientUnits="userSpaceOnUse">
<stop stop-color="#FFE16F"/>
<stop offset="1" stop-color="#FFBB3F"/>
</linearGradient>
<linearGradient id="paint115_linear_43_3031" x1="51.7269" y1="116.299" x2="78.5283" y2="116.299" gradientUnits="userSpaceOnUse">
<stop stop-color="#FFE16F"/>
<stop offset="1" stop-color="#FFBB3F"/>
</linearGradient>
<linearGradient id="paint116_linear_43_3031" x1="51.7271" y1="116.299" x2="78.5317" y2="116.299" gradientUnits="userSpaceOnUse">
<stop stop-color="#FFE16F"/>
<stop offset="1" stop-color="#FFBB3F"/>
</linearGradient>
<linearGradient id="paint117_linear_43_3031" x1="51.7268" y1="116.299" x2="78.5314" y2="116.299" gradientUnits="userSpaceOnUse">
<stop stop-color="#FFE16F"/>
<stop offset="1" stop-color="#FFBB3F"/>
</linearGradient>
<linearGradient id="paint118_linear_43_3031" x1="51.7268" y1="116.299" x2="78.5281" y2="116.299" gradientUnits="userSpaceOnUse">
<stop stop-color="#FFE16F"/>
<stop offset="1" stop-color="#FFBB3F"/>
</linearGradient>
<linearGradient id="paint119_linear_43_3031" x1="51.727" y1="116.299" x2="78.5316" y2="116.299" gradientUnits="userSpaceOnUse">
<stop stop-color="#FFE16F"/>
<stop offset="1" stop-color="#FFBB3F"/>
</linearGradient>
<linearGradient id="paint120_linear_43_3031" x1="51.7269" y1="116.299" x2="78.5283" y2="116.299" gradientUnits="userSpaceOnUse">
<stop stop-color="#FFE16F"/>
<stop offset="1" stop-color="#FFBB3F"/>
</linearGradient>
<linearGradient id="paint121_linear_43_3031" x1="51.7266" y1="116.299" x2="78.528" y2="116.299" gradientUnits="userSpaceOnUse">
<stop stop-color="#FFE16F"/>
<stop offset="1" stop-color="#FFBB3F"/>
</linearGradient>
<linearGradient id="paint122_linear_43_3031" x1="51.1738" y1="112.421" x2="77.2591" y2="112.421" gradientUnits="userSpaceOnUse">
<stop stop-color="#FFE16F"/>
<stop offset="1" stop-color="#FFBB3F"/>
</linearGradient>
<linearGradient id="paint123_linear_43_3031" x1="52.2048" y1="112.421" x2="79.0095" y2="112.421" gradientUnits="userSpaceOnUse">
<stop stop-color="#FFE16F"/>
<stop offset="1" stop-color="#FFBB3F"/>
</linearGradient>
<linearGradient id="paint124_linear_43_3031" x1="52.208" y1="112.421" x2="79.0091" y2="112.421" gradientUnits="userSpaceOnUse">
<stop stop-color="#FFE16F"/>
<stop offset="1" stop-color="#FFBB3F"/>
</linearGradient>
<linearGradient id="paint125_linear_43_3031" x1="52.2081" y1="112.421" x2="79.0095" y2="112.421" gradientUnits="userSpaceOnUse">
<stop stop-color="#FFE16F"/>
<stop offset="1" stop-color="#FFBB3F"/>
</linearGradient>
<linearGradient id="paint126_linear_43_3031" x1="52.2082" y1="112.421" x2="79.0094" y2="112.421" gradientUnits="userSpaceOnUse">
<stop stop-color="#FFE16F"/>
<stop offset="1" stop-color="#FFBB3F"/>
</linearGradient>
<linearGradient id="paint127_linear_43_3031" x1="52.2083" y1="112.421" x2="79.006" y2="112.421" gradientUnits="userSpaceOnUse">
<stop stop-color="#FFE16F"/>
<stop offset="1" stop-color="#FFBB3F"/>
</linearGradient>
<linearGradient id="paint128_linear_43_3031" x1="52.2079" y1="112.421" x2="79.0093" y2="112.421" gradientUnits="userSpaceOnUse">
<stop stop-color="#FFE16F"/>
<stop offset="1" stop-color="#FFBB3F"/>
</linearGradient>
<linearGradient id="paint129_linear_43_3031" x1="52.2046" y1="112.421" x2="79.0093" y2="112.421" gradientUnits="userSpaceOnUse">
<stop stop-color="#FFE16F"/>
<stop offset="1" stop-color="#FFBB3F"/>
</linearGradient>
<linearGradient id="paint130_linear_43_3031" x1="52.2082" y1="112.421" x2="79.0094" y2="112.421" gradientUnits="userSpaceOnUse">
<stop stop-color="#FFE16F"/>
<stop offset="1" stop-color="#FFBB3F"/>
</linearGradient>
<linearGradient id="paint131_linear_43_3031" x1="52.2047" y1="112.421" x2="79.0096" y2="112.421" gradientUnits="userSpaceOnUse">
<stop stop-color="#FFE16F"/>
<stop offset="1" stop-color="#FFBB3F"/>
</linearGradient>
<linearGradient id="paint132_linear_43_3031" x1="52.2044" y1="112.421" x2="79.0092" y2="112.421" gradientUnits="userSpaceOnUse">
<stop stop-color="#FFE16F"/>
<stop offset="1" stop-color="#FFBB3F"/>
</linearGradient>
<linearGradient id="paint133_linear_43_3031" x1="52.2081" y1="112.421" x2="79.0092" y2="112.421" gradientUnits="userSpaceOnUse">
<stop stop-color="#FFE16F"/>
<stop offset="1" stop-color="#FFBB3F"/>
</linearGradient>
<linearGradient id="paint134_linear_43_3031" x1="52.2046" y1="112.421" x2="79.0094" y2="112.421" gradientUnits="userSpaceOnUse">
<stop stop-color="#FFE16F"/>
<stop offset="1" stop-color="#FFBB3F"/>
</linearGradient>
<linearGradient id="paint135_linear_43_3031" x1="31.6024" y1="44.123" x2="116.894" y2="100.966" gradientUnits="userSpaceOnUse">
<stop stop-color="#DDF4FF"/>
<stop offset="1" stop-color="#AFE6FF"/>
</linearGradient>
<linearGradient id="paint136_linear_43_3031" x1="47.4077" y1="3.01241" x2="217.932" y2="116.657" gradientUnits="userSpaceOnUse">
<stop stop-color="#DDF4FF"/>
<stop offset="1" stop-color="#AFE6FF"/>
</linearGradient>
<linearGradient id="paint137_linear_43_3031" x1="-1.2381" y1="92.8858" x2="57.5091" y2="132.039" gradientUnits="userSpaceOnUse">
<stop stop-color="#DDF4FF"/>
<stop offset="1" stop-color="#AFE6FF"/>
</linearGradient>
<linearGradient id="paint138_linear_43_3031" x1="59.1686" y1="-16.8902" x2="167.107" y2="55.0501" gradientUnits="userSpaceOnUse">
<stop stop-color="#DDF4FF"/>
<stop offset="1" stop-color="#D9FFFF"/>
</linearGradient>
<linearGradient id="paint139_linear_43_3031" x1="136.784" y1="10.6958" x2="139.071" y2="10.6958" gradientUnits="userSpaceOnUse">
<stop stop-color="#DDF4FF"/>
<stop offset="1" stop-color="#AFE6FF"/>
</linearGradient>
<linearGradient id="paint140_linear_43_3031" x1="147.594" y1="114.101" x2="149.881" y2="114.101" gradientUnits="userSpaceOnUse">
<stop stop-color="#DDF4FF"/>
<stop offset="1" stop-color="#AFE6FF"/>
</linearGradient>
<linearGradient id="paint141_linear_43_3031" x1="20.5303" y1="32.1495" x2="191.051" y2="145.794" gradientUnits="userSpaceOnUse">
<stop stop-color="#DDF4FF"/>
<stop offset="1" stop-color="#AFE6FF"/>
</linearGradient>
<linearGradient id="paint142_linear_43_3031" x1="121.9" y1="-12.0115" x2="184.79" y2="29.9007" gradientUnits="userSpaceOnUse">
<stop stop-color="#DDF4FF"/>
<stop offset="1" stop-color="#AFE6FF"/>
</linearGradient>
<linearGradient id="paint143_linear_43_3031" x1="22.8621" y1="79.7975" x2="193.385" y2="193.445" gradientUnits="userSpaceOnUse">
<stop stop-color="#DDF4FF"/>
<stop offset="1" stop-color="#AFE6FF"/>
</linearGradient>
<linearGradient id="paint144_linear_43_3031" x1="-9.3391" y1="93.6684" x2="161.184" y2="207.316" gradientUnits="userSpaceOnUse">
<stop stop-color="#DDF4FF"/>
<stop offset="1" stop-color="#D9FFFF"/>
</linearGradient>
<linearGradient id="paint145_linear_43_3031" x1="148.369" y1="24.861" x2="318.888" y2="138.507" gradientUnits="userSpaceOnUse">
<stop stop-color="#DDF4FF"/>
<stop offset="1" stop-color="#AFE6FF"/>
</linearGradient>
<linearGradient id="paint146_linear_43_3031" x1="173.779" y1="86.9441" x2="344.303" y2="200.589" gradientUnits="userSpaceOnUse">
<stop stop-color="#DDF4FF"/>
<stop offset="1" stop-color="#D9FFFF"/>
</linearGradient>
<linearGradient id="paint147_linear_43_3031" x1="134.425" y1="83.8867" x2="228.307" y2="146.456" gradientUnits="userSpaceOnUse">
<stop stop-color="#DDF4FF"/>
<stop offset="1" stop-color="#D9FFFF"/>
</linearGradient>
<linearGradient id="paint148_linear_43_3031" x1="11.3837" y1="-10.4153" x2="89.0328" y2="41.3343" gradientUnits="userSpaceOnUse">
<stop stop-color="#DDF4FF"/>
<stop offset="1" stop-color="#AFE6FF"/>
</linearGradient>
<linearGradient id="paint149_linear_43_3031" x1="64.1325" y1="-45.6846" x2="234.656" y2="67.9632" gradientUnits="userSpaceOnUse">
<stop stop-color="#DDF4FF"/>
<stop offset="1" stop-color="#AFE6FF"/>
</linearGradient>
<linearGradient id="paint150_linear_43_3031" x1="73.3093" y1="-8.89524" x2="243.833" y2="104.753" gradientUnits="userSpaceOnUse">
<stop stop-color="#DDF4FF"/>
<stop offset="1" stop-color="#AFE6FF"/>
</linearGradient>
<linearGradient id="paint151_linear_43_3031" x1="29.4981" y1="6.29508" x2="200.014" y2="119.938" gradientUnits="userSpaceOnUse">
<stop stop-color="#DDF4FF"/>
<stop offset="1" stop-color="#AFE6FF"/>
</linearGradient>
<linearGradient id="paint152_linear_43_3031" x1="55.5984" y1="-4.59826" x2="226.122" y2="109.046" gradientUnits="userSpaceOnUse">
<stop stop-color="#DDF4FF"/>
<stop offset="1" stop-color="#D9FFFF"/>
</linearGradient>
<linearGradient id="paint153_linear_43_3031" x1="-5.43375" y1="63.5583" x2="165.09" y2="177.206" gradientUnits="userSpaceOnUse">
<stop stop-color="#DDF4FF"/>
<stop offset="1" stop-color="#AFE6FF"/>
</linearGradient>
<linearGradient id="paint154_linear_43_3031" x1="58.833" y1="35.3178" x2="62.1296" y2="35.3178" gradientUnits="userSpaceOnUse">
<stop stop-color="#DDF4FF"/>
<stop offset="1" stop-color="#AFE6FF"/>
</linearGradient>
<linearGradient id="paint155_linear_43_3031" x1="40.8007" y1="56.512" x2="43.1517" y2="58.8642" gradientUnits="userSpaceOnUse">
<stop stop-color="#DDF4FF"/>
<stop offset="1" stop-color="#AFE6FF"/>
</linearGradient>
<linearGradient id="paint156_linear_43_3031" x1="119.886" y1="0.0657881" x2="123.761" y2="3.93654" gradientUnits="userSpaceOnUse">
<stop stop-color="#DDF4FF"/>
<stop offset="1" stop-color="#AFE6FF"/>
</linearGradient>
<clipPath id="clip0_43_3031">
<rect width="220" height="129" fill="white"/>
</clipPath>
</defs>
</svg>
