<svg width="332" height="256" viewBox="0 0 332 256" fill="none" xmlns="http://www.w3.org/2000/svg">
<g clip-path="url(#clip0_43_3247)">
<path d="M218.242 39.0291L218.081 39.1743C215.114 41.844 210.66 41.8762 207.588 39.3275C176.174 13.3404 130.685 8.00101 93.1028 29.3424C44.8497 56.741 27.8249 117.797 54.8415 166.085L59.9667 162.198C60.7993 161.561 62.0038 162.117 62.0604 163.166L63.459 189.306C63.5075 190.226 62.6182 190.911 61.7371 190.613L36.8547 182.305C35.8603 181.966 35.6421 180.66 36.4828 180.023L41.8667 175.933C41.6484 175.554 41.414 175.183 41.1957 174.804C9.17518 118.668 28.8354 47.264 85.0997 15.3164C128.745 -9.45281 181.582 -3.21009 218.04 27.0357C221.759 30.1167 221.832 35.7948 218.234 39.0291H218.242Z" fill="#FFE600"/>
<path d="M201.04 218.834C157.395 243.603 104.558 237.361 68.0992 207.123C64.3806 204.042 64.3078 198.364 67.9052 195.129L68.075 194.976C71.0418 192.306 75.496 192.274 78.568 194.823C109.982 220.81 155.463 226.149 193.045 204.808C241.298 177.418 258.323 116.353 231.306 68.065L226.181 71.9526C225.348 72.5898 224.144 72.0333 224.087 70.9848L222.689 44.8444C222.64 43.9249 223.529 43.2474 224.411 43.5377L249.293 51.8452C250.287 52.184 250.506 53.4906 249.665 54.1278L244.281 58.217C244.499 58.5961 244.734 58.9671 244.952 59.3462C276.964 115.482 257.304 186.886 201.04 218.834Z" fill="#FADD55"/>
<path d="M78.6488 55.3779C84.5177 56.1361 89.2549 60.8706 89.9986 66.7342C90.5484 71.0493 88.9962 75.0256 86.2315 77.7759L88.2444 83.2605C88.4304 83.7767 87.8321 84.2203 87.3956 83.8815L82.6988 80.2843C80.2898 81.4619 77.4847 81.9539 74.5179 81.4296C68.851 80.4133 64.4048 75.7031 63.7581 69.9927C62.7881 61.4351 70.0474 54.281 78.6488 55.386V55.3779Z" fill="white"/>
<path d="M81.4619 68.2425C81.4619 69.299 82.3188 70.162 83.3859 70.162C84.453 70.162 85.3099 69.3071 85.3099 68.2425C85.3099 67.1778 84.453 66.3229 83.3859 66.3229C82.3188 66.3229 81.4619 67.1778 81.4619 68.2425Z" fill="url(#paint0_linear_43_3247)"/>
<path d="M76.8864 70.162C77.949 70.162 78.8104 69.3026 78.8104 68.2425C78.8104 67.1823 77.949 66.3229 76.8864 66.3229C75.8238 66.3229 74.9624 67.1823 74.9624 68.2425C74.9624 69.3026 75.8238 70.162 76.8864 70.162Z" fill="url(#paint1_linear_43_3247)"/>
<path d="M68.4629 68.2425C68.4629 69.299 69.3198 70.162 70.3869 70.162C71.454 70.162 72.3108 69.3071 72.3108 68.2425C72.3108 67.1778 71.454 66.3229 70.3869 66.3229C69.3198 66.3229 68.4629 67.1778 68.4629 68.2425Z" fill="url(#paint2_linear_43_3247)"/>
<path d="M122.504 240.159L124.954 247.854L129.586 251.37L133.814 248.91L133.07 239.716" fill="url(#paint3_linear_43_3247)"/>
<path d="M80.3305 243.144L79.8535 250.556C79.8535 250.556 85.1 252.29 87.4605 251.782L89.5785 244.91L80.3305 243.144Z" fill="url(#paint4_linear_43_3247)"/>
<path d="M133.644 244.934C133.644 244.934 132.537 245.676 129.901 245.966C125.827 246.41 123.394 245.966 123.394 245.966C123.394 245.966 111.85 208.994 113.774 196.589C112.715 194.363 111.26 190.661 109.627 186.306C108.091 182.216 106.417 177.547 104.809 172.981C100.839 161.738 97.2905 151.084 97.2905 151.084L123.426 142.139C123.426 142.139 129.012 181.112 130.305 194.17C131.558 206.824 133.644 244.934 133.644 244.934Z" fill="url(#paint5_linear_43_3247)"/>
<path style="mix-blend-mode:multiply" opacity="0.4" d="M109.627 186.298C108.091 182.216 106.417 177.547 104.809 172.981L107.339 168.771L109.627 186.298Z" fill="url(#paint6_linear_43_3247)"/>
<path d="M111.769 152.229L86.5714 151.705C86.5714 151.705 85.2295 190.032 84.9303 195.17C84.9303 195.17 85.2052 198.412 83.4914 205.921C81.5998 214.221 79.9668 245.652 79.9668 245.652C79.9668 245.652 84.8657 247.321 90.5891 246.991C90.5891 246.991 98.6003 217.979 100.209 198.17C104.477 185.58 111.769 152.237 111.769 152.237V152.229Z" fill="url(#paint7_linear_43_3247)"/>
<path d="M161.979 128.702C161.89 128.968 161.558 129.153 161.445 129.452C161.3 129.807 161.332 130.266 161.138 130.621C161.009 130.863 162.803 131.444 162.65 131.646C162.407 131.976 160.047 131.96 159.691 132C157.969 132.21 156.514 131.823 155.132 131.105C154.267 130.654 151.583 129.541 150.338 129.379C145.706 128.774 128.349 127.468 125.18 126.145C118.325 123.274 113.54 110.562 113.54 110.562L127.969 109.409C127.969 109.409 129.416 118.16 129.974 118.983C130.532 119.813 146.967 123.387 152.165 123.919C153.03 124.008 154.743 124.024 155.641 123.79C156.53 123.54 158.438 123.161 159.57 123.556C160.701 123.951 164.873 126.298 165.002 126.58C165.002 126.58 165.002 128.605 161.971 128.71L161.979 128.702Z" fill="url(#paint8_linear_43_3247)"/>
<path d="M150.103 131.444C150.103 131.444 151.461 127.911 151.777 123.87L130.564 118.241C130.564 118.241 128.212 104.271 123.548 96.9235C122.505 95.2781 121.535 93.907 120.864 93.5521C114.502 90.1968 112.812 112.595 112.812 112.595C112.812 112.595 116.595 121.249 122.036 126.395C126.094 130.234 150.103 131.436 150.103 131.436V131.444Z" fill="url(#paint9_linear_43_3247)"/>
<path d="M124.404 151.447C124.404 151.447 123.313 151.809 95.7144 151.382C96.1186 149.825 87.3556 114.143 87.4283 111.482C87.493 109.393 84.89 97.5445 85.8035 95.7137C87.0646 93.173 92.5617 91.2615 98.0992 89.8016C102.27 88.7047 106.992 87.7288 106.992 87.7288L114.113 90.342C114.113 90.342 119.651 93.4715 120.653 94.5038C121.526 98.335 122.23 129.653 122.432 136.582C122.497 138.542 124.388 151.447 124.388 151.447H124.404Z" fill="white"/>
<path d="M108.269 96.4476C102.521 95.3346 98.1074 89.8097 98.1074 89.8097L99.5625 89.0677C99.5625 89.0677 100.225 88.4386 100.331 87.4465C100.84 82.3813 98.8026 77.1871 98.8026 77.1871C102.368 79.6955 107.089 81.1957 109.409 82.0265C109.473 82.462 109.667 84.3332 110.128 85.9544C110.419 86.9464 110.807 87.8336 111.341 88.2369C111.478 88.3418 114.017 97.5607 108.269 96.4476Z" fill="url(#paint10_linear_43_3247)"/>
<g style="mix-blend-mode:multiply">
<path d="M110.128 85.9544C106.078 85.1075 102.375 80.6876 102.375 80.6876L109.409 82.0184C109.473 82.4539 109.667 84.3251 110.128 85.9463V85.9544Z" fill="#E3A39A"/>
</g>
<path d="M113.378 84.2767C112.206 84.3574 110.775 84.1961 109.077 83.7363C109.077 83.7363 107.46 83.0992 105.318 82.091C103.435 81.2038 100.832 80.0343 99.1906 78.3889C99.1825 78.3808 97.8648 75.3159 97.8648 75.3159C96.5795 70.7024 98.4711 65.2582 99.805 63.4999C104.065 57.8702 115.221 59.4672 117.137 68.1053C117.282 68.7667 117.299 69.4523 117.202 70.1298C117.072 71.0735 116.894 72.7511 116.943 74.6788C117.024 77.5743 115.245 84.1477 113.378 84.2687V84.2767Z" fill="url(#paint11_linear_43_3247)"/>
<path d="M111.955 67.8392C111.179 67.6537 110.799 67.5811 109.918 67.2746C110.314 67.4117 110.492 68.6135 108.754 68.5328C107.121 68.4602 106.935 71.509 104.267 72.5414C104.065 73.9448 104.13 75.6063 104.542 77.3646L103.063 77.2113C102.877 76.3886 102.569 74.5981 101.939 73.727C101.939 73.727 101.939 73.727 101.939 73.7109C101.858 73.5899 101.098 72.4849 99.6512 72.8398C99.0691 72.985 98.3416 73.598 98.382 75.1385C98.4224 76.4128 98.8751 77.5097 99.4491 78.1953C99.6997 80.2117 100.177 82.2281 100.201 82.8733C99.7239 82.8249 94.1217 71.2106 94.817 66.0083C95.3505 61.9917 97.8727 60.5157 100.055 60.5157C101.155 55.9828 106.611 55.7651 109.36 56.4184C111.931 57.0314 113.507 58.2896 116.433 59.7333C119.796 61.3868 121.227 60.4512 121.51 62.0239C122.076 65.1695 118.794 69.4765 111.971 67.8392H111.955Z" fill="url(#paint12_linear_43_3247)"/>
<path d="M145.414 255.903H123.135C122.472 254.75 122.521 249.878 124.962 247.854C124.962 247.854 130.629 250.451 133.822 248.91C133.822 248.91 140.119 250.588 143.555 252.677C145.236 253.693 145.568 254.911 145.422 255.903H145.414Z" fill="url(#paint13_linear_43_3247)"/>
<path d="M79.9426 249.16C79.9426 249.16 76.8545 250.822 74.8416 252.032C72.8287 253.234 72.7964 255.903 72.7964 255.903H89.5787C89.5787 255.903 89.5787 251.153 88.1397 249.58C83.7178 250.58 79.9426 249.16 79.9426 249.16Z" fill="url(#paint14_linear_43_3247)"/>
<path d="M102.077 73.4937C102.077 73.4937 102.068 73.4937 102.068 73.4851H102.077V73.4937Z" fill="url(#paint15_linear_43_3247)"/>
<path d="M108.762 99.5529C108.762 99.5529 103.903 131.097 104.34 137.13C104.776 143.163 110.678 152.221 111.769 152.229C113.159 152.237 116.344 142.203 116.466 137.679C116.587 133.154 111.728 99.2061 111.728 99.2061L108.746 99.5529H108.762Z" fill="url(#paint16_linear_43_3247)"/>
<path d="M100.355 87.14C100.355 87.14 104.744 91.8422 110.128 93.3827L107.396 98.4237C107.396 98.4237 100.735 96.2137 98.1074 89.8097L100.355 87.1481V87.14Z" fill="url(#paint17_linear_43_3247)"/>
<path d="M110.71 87.4465C110.71 87.4465 112.173 89.9871 110.128 93.3827L112.173 97.5687C112.173 97.5687 114.598 92.7859 111.963 88.7934C111.809 88.5676 111.632 88.3579 111.438 88.1643L110.71 87.4465Z" fill="url(#paint18_linear_43_3247)"/>
<path d="M110.128 93.3827L107.396 98.4237L108.762 99.5529C108.762 99.5529 111.074 99.5851 111.745 99.206L112.181 97.5607L110.136 93.3747L110.128 93.3827Z" fill="url(#paint19_linear_43_3247)"/>
<path d="M113.054 89.8823C113.054 89.8823 114.041 90.3985 114.154 95.0281C114.364 104.191 110.783 128.766 110.783 128.766C110.783 128.766 104.122 103.207 100.508 94.6894C99.0772 91.3099 98.1072 89.8016 98.1072 89.8016C98.1072 89.8016 90.7184 89.8581 85.3587 93.7699C84.809 94.1732 84.5019 95.1975 84.2432 95.9153L86.9836 112.829C86.9836 112.829 90.8801 132.178 88.8429 144.817C88.1962 148.825 84.6069 160.585 84.6069 160.585C84.6069 160.585 91.0337 162.875 94.8251 162.988C107.606 163.367 110.047 159.544 110.961 157.407C111.632 155.826 112.076 152.237 112.076 152.237C112.076 152.237 113.693 156.27 114.566 157.407C118.05 161.924 126.991 160.552 126.991 160.552C126.991 160.552 124.517 148.027 123.798 140.494C123.07 132.888 124 109.941 124 109.941C124 109.941 123.232 99.3593 120.888 93.5682C119.376 92.3181 115.164 90.1243 113.071 89.8904L113.054 89.8823Z" fill="url(#paint20_linear_43_3247)"/>
<path d="M65.2865 118.967C62.1014 127.806 81.8263 146.873 81.8263 146.873C81.8263 146.873 85.5368 144.607 88.8351 141.179L77.3478 121.894L86.9758 112.829L84.2353 95.9153C78.3098 100.763 68.1482 111.03 65.2865 118.967Z" fill="url(#paint21_linear_43_3247)"/>
<path d="M110.507 142.433L96.4678 120.707C95.9816 119.954 94.976 119.737 94.2217 120.223L63.1105 140.234C62.3562 140.72 62.139 141.723 62.6252 142.475L76.6642 164.202C77.1505 164.954 78.1561 165.171 78.9103 164.686L110.022 144.674C110.776 144.189 110.993 143.185 110.507 142.433Z" fill="url(#paint22_linear_43_3247)"/>
<path d="M95.9165 148.551C97.7031 149.632 98.9965 149.075 98.6166 148.309C98.2366 147.551 96.3773 146.002 95.674 145.623C94.9626 145.244 93.1922 144.615 92.3192 144.284C92.012 144.171 91.535 143.962 91.05 143.752C89.9021 143.244 88.9562 142.389 88.3176 141.308C85.7146 136.856 78.6088 124.645 77.3558 121.902C79.9184 119.257 82.198 117.095 84.9708 114.321C85.4316 113.861 76.418 104.126 76.418 104.126C76.418 104.126 64.6074 116.789 65.1651 120.652C66.5233 130.057 84.7283 146.631 84.7283 146.631C85.0678 147.406 87.5577 152.334 87.5577 152.334C87.5577 152.334 88.7622 153.858 89.2877 154.407C89.7161 154.85 91.5916 156.084 92.0847 156.108C92.3192 156.116 92.4728 156.02 92.497 155.842C93.3377 156.407 94.1381 156.883 94.5099 156.899C95.0111 156.923 95.2941 156.641 95.1971 156.173C95.771 156.52 96.2722 156.786 96.539 156.794C97.3555 156.834 97.6061 156.06 96.539 154.995C95.4719 153.931 93.8228 152.39 93.8228 152.39C93.9845 152.527 94.1219 152.648 94.2189 152.705C94.8171 153.116 96.83 154.213 97.5333 154.318C98.3498 154.439 98.269 153.794 97.9456 153.14C97.6142 152.487 96.6117 152.189 95.7387 151.374C94.8656 150.559 93.4509 148.438 93.4509 148.438C93.4509 148.438 94.5746 148.277 95.9408 148.543L95.9165 148.551Z" fill="url(#paint23_linear_43_3247)"/>
<path d="M65.2865 118.967C62.1014 127.806 81.8263 146.873 81.8263 146.873C81.8263 146.873 85.5368 144.607 88.8351 141.179L77.3478 121.894L88.3177 112.716L85.1084 94.0038C79.1828 98.8512 68.1482 111.03 65.2865 118.967Z" fill="url(#paint24_linear_43_3247)"/>
<path d="M116.902 102.279C116.902 102.279 119.134 104.844 119.012 105.521C118.786 106.82 110.783 132.783 110.783 132.783C110.783 132.783 108.907 128.355 106.135 123.991C103.346 119.636 96.0782 107.731 96.3369 106.86C96.6037 105.981 99.7888 102.69 99.7888 102.69C99.7888 102.69 95.5043 101.198 95.6174 100.069C95.7144 98.9399 96.9109 90.0033 96.9109 90.0033C97.6627 89.8581 98.1073 89.8097 98.1073 89.8097C98.1073 89.8097 99.0693 91.326 100.508 94.6974C104.122 103.215 110.783 128.774 110.783 128.774C110.783 128.774 114.364 104.199 114.154 95.0362C114.049 90.4065 112.497 89.7613 112.497 89.7613C112.869 89.8016 113.766 89.9468 114.388 90.213C115.755 92.2293 119.32 98.7866 119.215 99.5609C119.118 100.335 116.894 102.287 116.894 102.287L116.902 102.279Z" fill="url(#paint25_linear_43_3247)"/>
<path d="M172.124 108.683C172.124 108.683 165.083 113.208 160.548 112.958C158.753 112.861 154.113 111.079 149.19 108.973C144.266 106.868 139.044 104.424 136.053 102.997C136.053 102.997 132.399 102.577 130.685 102.61C129.069 102.642 126.781 101.819 125.867 101.497C125.172 99.8352 124.396 98.2704 123.547 96.9316C123.183 96.3589 122.82 95.8105 122.488 95.3346C122.601 95.1652 122.868 95.1733 123.289 95.2378C124.275 95.3911 126.652 96.0928 126.652 96.0928L127.856 96.2299C129.061 96.3589 130.087 96.3992 130.087 96.3992C130.087 96.3992 128.228 95.5766 127.646 94.9958C127.064 94.4151 127.064 93.6247 127.646 93.7941C128.228 93.9635 129.537 93.8586 131.187 94.5845C132.836 95.3023 132.908 96.0605 133.765 96.7703C134.622 97.4962 135.406 97.9962 135.406 97.9962C137.646 98.4882 142.965 99.6577 146.926 100.448C152.084 101.481 160.329 103.811 160.329 103.811L166.198 99.8997L172.116 108.675L172.124 108.683Z" fill="url(#paint26_linear_43_3247)"/>
<path d="M182.576 255.887C182.576 255.887 182.536 255.895 182.52 255.903H162.568C162.399 255.814 162.423 255.742 162.423 255.742C162.423 255.742 162.059 255.331 162.673 254.338C163.28 253.363 166.909 252.443 169.157 251.983C171.671 250.499 174.492 248.531 174.492 248.531C176.982 249.499 181.461 248.685 181.461 248.685C183.288 250.435 183.53 255.581 182.584 255.887H182.576Z" fill="black"/>
<path d="M228.008 249.693C227.353 250.378 226.027 251.201 224.686 251.838C223.942 252.177 221.363 253.669 218.817 255.137C217.806 255.702 216.658 256 215.51 256H211.339C210.563 256 210.28 255.468 210.304 255.137C210.361 254.266 211.096 253.532 212.317 253.306C212.616 253.25 213.853 251.999 216.496 250.265C217.273 249.031 218.323 246.273 218.323 246.273C222.099 245.789 224.281 244.079 224.281 244.079C226.65 244.732 227.677 248.023 228.008 249.693Z" fill="black"/>
<path d="M174.274 245.394C174.347 246.491 174.419 247.539 174.484 248.523C176.424 249.427 179.278 249.346 181.452 248.685C181.582 248.289 181.832 247.346 182.18 245.975C178.324 246.152 175.753 245.757 174.282 245.394H174.274Z" fill="url(#paint27_linear_43_3247)"/>
<path d="M184.832 89.2371L179.795 106.481C179.019 107.078 178.154 107.715 177.265 108.344C175.438 109.651 173.514 110.917 172.132 111.821C170.952 112.595 170.167 113.087 170.167 113.087C165.649 108.675 162.577 101.819 162.577 101.819C162.577 101.819 170.531 95.7217 175.697 92.8101C180.863 89.8984 184.824 89.2371 184.824 89.2371H184.832Z" fill="url(#paint28_linear_43_3247)"/>
<path style="mix-blend-mode:multiply" opacity="0.5" d="M177.524 104.118L177.257 108.336C175.43 109.643 173.506 110.909 172.124 111.812L176.174 103.36L177.516 104.118H177.524Z" fill="url(#paint29_linear_43_3247)"/>
<path d="M189.763 141.986C186.513 137.267 178.106 139.606 175.325 140.639C174.072 141.131 171.841 177.708 171.372 195.508C171.356 196.307 172.528 227.561 173.716 245.62C175.187 245.983 180.054 246.337 183.91 246.16C185.608 232.449 188.655 203.034 186.02 197.025C186.836 194.387 188.817 185.991 190.442 178.837C191.08 175.998 191.671 173.361 192.099 171.344C192.495 169.513 192.778 168.199 192.851 167.747C193.037 166.739 193.166 165.408 193.271 163.892C193.683 157.246 193.15 146.938 189.763 141.986Z" fill="url(#paint30_linear_43_3247)"/>
<path d="M224.281 244.079C224.209 243.418 224.152 242.571 224.096 241.563C220.757 243.547 217.281 243.781 217.281 243.781C217.936 245.289 218.316 246.192 218.324 246.265C218.324 246.265 222.172 246.434 224.281 244.071V244.079Z" fill="url(#paint31_linear_43_3247)"/>
<path d="M224.508 241.401C223.238 231.86 218.348 204.066 211.913 197.952C211.581 192.331 212.648 167.36 212.729 165.118C213.012 156.633 209.488 145.768 205.066 141.929L185.616 142.332L191.202 167.561C193.166 175.417 195.187 192.734 198.211 200.493C198.469 201.154 211.913 236.143 215.51 244.45C215.51 244.45 218.501 244.079 221.177 243.321C224.047 242.506 224.508 241.401 224.508 241.401Z" fill="url(#paint32_linear_43_3247)"/>
<path d="M179.213 92.1487C180.127 90.8663 183.538 89.5032 186.359 88.8177C188.704 88.4305 192.115 88.0756 196.303 89.1645C201.169 90.4227 205.017 92.2213 206.133 93.5844C208.202 96.125 209.714 97.7059 206.391 119.507C205.68 124.185 205.785 135.194 205.785 137.977C205.785 140.76 206.771 142.099 206.068 142.905C204.508 144.712 191.808 145.785 186.788 145.785C182.326 145.785 174.719 144.599 174.331 143.171C174.023 142.034 175.503 130.484 175.559 117.684C175.656 95.8669 178.389 93.0924 179.205 92.1648L179.213 92.1487Z" fill="url(#paint33_linear_43_3247)"/>
<path d="M187.524 92.8343C187.524 92.8343 181.663 127.339 181.55 131.444C181.436 135.557 185.745 143.373 186.351 143.373C187.685 143.373 190.183 137.308 190.967 132.065C191.743 126.814 190.159 93.044 190.159 93.044L187.524 92.8343Z" fill="url(#paint34_linear_43_3247)"/>
<path d="M196.303 89.1645C196.303 89.1645 191.525 92.7536 186.359 88.8176C186.359 88.8176 187.014 87.5675 187.127 87.3497C187.418 86.8497 187.976 85.7689 188.332 84.2525C188.364 84.1477 188.38 84.0348 188.413 83.9138C188.51 83.4621 188.582 82.9621 188.631 82.4297C188.72 81.5103 188.712 80.494 188.55 79.389L189.051 78.9858L197.297 72.5172L198.235 71.7832C198.235 71.7832 197.96 73.356 197.588 75.6547C197.378 76.9613 197.135 78.4938 196.893 80.1069C196.416 83.3895 196.319 89.1564 196.319 89.1564L196.303 89.1645Z" fill="url(#paint35_linear_43_3247)"/>
<path style="mix-blend-mode:multiply" opacity="0.5" d="M194.451 80.3004C193.271 82.0184 190.611 85.4301 187.127 87.3416C187.418 86.8416 187.976 85.7608 188.332 84.2445C187.782 84.4058 187.289 84.4945 186.812 84.5348C186.836 84.1558 186.852 83.7686 186.844 83.3573L187.394 83.0266L188.631 82.4217L195.138 79.26C195.138 79.26 194.904 79.6633 194.451 80.3004Z" fill="url(#paint36_linear_43_3247)"/>
<path d="M181.445 66.8713C181.445 66.8713 180.337 70.1701 182.9 72.3962L183.797 67.0488L181.445 66.8713Z" fill="url(#paint37_linear_43_3247)"/>
<path d="M195.794 78.6389C195.381 79.2197 194.929 79.7762 194.444 80.3004C193.651 81.1715 192.746 81.9539 191.768 82.6152C190.507 83.4702 189.359 83.9703 188.324 84.2445C187.774 84.4058 187.281 84.4945 186.804 84.5348C184.614 84.7203 183.336 83.8815 183.336 83.8815C181.283 80.8408 181.356 75.9047 181.825 72.1623C182.011 70.646 182.261 69.3313 182.455 68.4038C182.633 67.565 182.779 67.073 182.779 67.073C182.787 67.0326 182.787 67.0084 182.795 66.9762C183.684 62.1449 190.159 61.9755 194.613 64.6936C194.88 64.8549 195.123 65.0243 195.365 65.2098C196.602 66.097 197.629 67.2343 198.235 68.5732C199.278 70.8557 198.639 73.4528 197.572 75.6628C197.516 75.7837 197.459 75.8967 197.394 76.0176C196.893 77.0016 196.319 77.8969 195.786 78.647L195.794 78.6389Z" fill="url(#paint38_linear_43_3247)"/>
<path d="M196.182 62.5805C196.036 60.7496 194.945 59.5317 193.829 58.959C189.359 56.6523 186.036 61.782 181.04 59.9027C178.356 58.8864 178.599 66.4681 181.929 68.1779C185.486 70.0008 188.542 69.5975 190.838 68.6135C190.781 69.4362 190.838 70.3476 191.242 71.0009C191.59 71.5574 192.592 72.2026 193.158 72.5333C193.061 73.3721 192.996 74.1384 192.988 74.7272L193.87 75.203C194.047 74.9046 194.241 74.5013 194.476 73.9771C194.476 73.9771 195.292 71.9365 196.788 72.122C198.267 72.3075 197.079 77.8001 196.877 80.1149C196.877 80.1149 200.28 77.6953 201.533 70.4605C202.657 64.0242 198.914 60.9754 196.182 62.5885V62.5805Z" fill="url(#paint39_linear_43_3247)"/>
<path d="M202.164 116.805C202.164 116.805 194.993 128 192.382 128.984C187.184 130.96 172.633 130.984 167.298 130.92C166.328 131.162 164.129 132.218 162.892 132.202C162.423 132.194 161.76 132.065 161.122 131.904C160.475 131.742 159.861 131.549 159.464 131.42C158.462 131.267 157.241 130.444 157.047 130.274C156.853 130.113 156.756 129.71 156.756 129.71C156.756 129.71 156.344 129.5 156.15 129.363C155.94 129.226 155.964 128.887 155.964 128.887C155.083 128.605 155.059 128.137 155.196 127.903C155.325 127.661 156.085 127.613 156.085 127.613C156.085 127.613 156.134 127.282 156.587 127.153C156.886 127.056 159.658 126.943 159.683 126.935C160.184 127.202 161.72 127.96 162.625 127.895C163.725 127.831 164.137 127.331 163.733 126.96C163.393 126.637 162.577 126.234 162.35 126.121C162.31 126.105 162.286 126.088 162.286 126.088C162.286 126.088 160.313 125.137 159.569 124.475C158.818 123.822 159.198 123.419 159.432 123.306C159.666 123.201 162.027 123.604 162.536 123.79C163.482 124.145 167.241 126.064 167.241 126.064L187.613 120.572L191.525 113.087L202.18 116.805H202.164Z" fill="url(#paint40_linear_43_3247)"/>
<path d="M200.927 121.467C200.927 121.467 198.955 121.701 193.409 118.289C191.404 117.055 189.286 114.902 189.286 114.902C191.21 110.982 192.706 107.957 197.653 98.0527C199.836 93.6731 204.791 93.5763 204.791 93.5763C204.791 93.5763 208.712 95.0604 208.712 102.844C208.712 109.046 204.419 115.595 200.927 121.459V121.467Z" fill="url(#paint41_linear_43_3247)"/>
<path style="mix-blend-mode:multiply" opacity="0.5" d="M192.099 171.344C191.671 173.361 191.089 175.99 190.442 178.837L189.496 159.867L192.099 171.344Z" fill="url(#paint42_linear_43_3247)"/>
<path d="M196.351 87.3416C196.351 87.3416 193.878 89.1483 189.084 89.0112L190.563 92.2536C190.563 92.2536 194.864 92.0438 196.99 89.35L196.351 87.3497V87.3416Z" fill="url(#paint43_linear_43_3247)"/>
<path d="M186.925 87.7288C186.925 87.7288 187.524 88.737 189.084 89.0112L187.402 91.689C187.402 91.689 186.351 90.9873 185.963 88.9144L186.925 87.7288Z" fill="url(#paint44_linear_43_3247)"/>
<path d="M189.084 89.0112L187.402 91.689L187.524 92.8343L190.167 93.044L190.563 92.2535L189.084 89.0112Z" fill="url(#paint45_linear_43_3247)"/>
<path d="M266.755 209.664H254.225V255.903H266.755V209.664Z" fill="url(#paint46_linear_43_3247)"/>
<path d="M288.5 199.049H275.97V255.903H288.5V199.049Z" fill="url(#paint47_linear_43_3247)"/>
<path d="M310.255 188.443H297.725V255.903H310.255V188.443Z" fill="url(#paint48_linear_43_3247)"/>
<path d="M332 177.829H319.47V255.903H332V177.829Z" fill="url(#paint49_linear_43_3247)"/>
<path d="M331.063 149.624L312.704 155.826L317.951 158.568C311.467 165.351 290.546 185.039 257.871 194.702C257.871 194.702 295.744 191.355 322.453 163.795L324.159 169.675L331.071 149.624H331.063Z" fill="white"/>
<path d="M311.984 87.4868H276.932C275.74 87.4868 274.774 88.451 274.774 89.6403V110.264C274.774 111.453 275.74 112.417 276.932 112.417H311.984C313.176 112.417 314.143 111.453 314.143 110.264V89.6403C314.143 88.451 313.176 87.4868 311.984 87.4868Z" fill="url(#paint50_linear_43_3247)"/>
<path d="M297.134 86.6077L294.475 90.6243C294.022 91.3018 293.262 91.7132 292.438 91.7132H274.491C273.141 91.7132 272.05 92.802 272.05 94.149V118.442C272.05 119.789 273.141 120.878 274.491 120.878H314.442C315.792 120.878 316.883 119.789 316.883 118.442V87.9546C316.883 86.6077 315.792 85.5188 314.442 85.5188H299.171C298.355 85.5188 297.587 85.9302 297.134 86.6077Z" fill="url(#paint51_linear_43_3247)"/>
<path d="M293.391 125.145H273.117C272.527 125.145 272.05 124.669 272.05 124.08C272.05 123.491 272.527 123.016 273.117 123.016H293.391C293.982 123.016 294.459 123.491 294.459 124.08C294.459 124.669 293.982 125.145 293.391 125.145Z" fill="url(#paint52_linear_43_3247)"/>
<path d="M297.935 129.218H273.117C272.527 129.218 272.05 128.742 272.05 128.153C272.05 127.564 272.527 127.089 273.117 127.089H297.935C298.525 127.089 299.002 127.564 299.002 128.153C299.002 128.742 298.525 129.218 297.935 129.218Z" fill="url(#paint53_linear_43_3247)"/>
<path d="M305.073 129.218H301.742C301.152 129.218 300.675 128.742 300.675 128.153C300.675 127.564 301.152 127.089 301.742 127.089H305.073C305.663 127.089 306.14 127.564 306.14 128.153C306.14 128.742 305.663 129.218 305.073 129.218Z" fill="url(#paint54_linear_43_3247)"/>
<path d="M281.136 133.299H273.117C272.527 133.299 272.05 132.823 272.05 132.234C272.05 131.646 272.527 131.17 273.117 131.17H281.136C281.726 131.17 282.203 131.646 282.203 132.234C282.203 132.823 281.726 133.299 281.136 133.299Z" fill="url(#paint55_linear_43_3247)"/>
<path d="M315.8 125.145H297.118C296.528 125.145 296.051 124.669 296.051 124.08C296.051 123.491 296.528 123.016 297.118 123.016H315.8C316.39 123.016 316.867 123.491 316.867 124.08C316.867 124.669 316.39 125.145 315.8 125.145Z" fill="url(#paint56_linear_43_3247)"/>
<path d="M36.1678 85.5108C36.1678 87.4546 35.8606 89.3258 35.2867 91.084C32.9423 98.3188 26.1276 103.561 18.0921 103.561C16.1843 103.561 14.3412 103.263 12.6193 102.715C9.26443 101.65 6.33804 99.6496 4.1392 97.0041C1.56042 93.8828 0.00830078 89.8742 0.00830078 85.5108C0.00830078 75.5498 8.10842 67.4682 18.1002 67.4682C28.092 67.4682 36.184 75.5498 36.184 85.5108H36.1678Z" fill="url(#paint57_linear_43_3247)"/>
<path d="M37.9546 84.9623C37.9546 87.0997 37.6231 89.1564 36.9845 91.084L18.0923 84.9623V65.1453C29.0622 65.1453 37.9546 74.0174 37.9546 84.9623Z" fill="url(#paint58_linear_43_3247)"/>
<path d="M18.0922 84.9623L11.6332 105.892C7.67202 104.642 4.22825 102.279 1.6333 99.1577L18.0922 84.9623Z" fill="url(#paint59_linear_43_3247)"/>
</g>
<defs>
<linearGradient id="paint0_linear_43_3247" x1="88.3009" y1="66.71" x2="66.7498" y2="73.4566" gradientUnits="userSpaceOnUse">
<stop stop-color="#4EC6FD"/>
<stop offset="1" stop-color="#1AA0FE"/>
</linearGradient>
<linearGradient id="paint1_linear_43_3247" x1="87.727" y1="64.863" x2="66.1758" y2="71.6096" gradientUnits="userSpaceOnUse">
<stop stop-color="#4EC6FD"/>
<stop offset="1" stop-color="#1AA0FE"/>
</linearGradient>
<linearGradient id="paint2_linear_43_3247" x1="87.1449" y1="63.016" x2="65.5938" y2="69.7707" gradientUnits="userSpaceOnUse">
<stop stop-color="#4EC6FD"/>
<stop offset="1" stop-color="#1AA0FE"/>
</linearGradient>
<linearGradient id="paint3_linear_43_3247" x1="127.662" y1="239.151" x2="129.465" y2="250.331" gradientUnits="userSpaceOnUse">
<stop stop-color="#FFB8AB"/>
<stop offset="1" stop-color="#F99D8A"/>
</linearGradient>
<linearGradient id="paint4_linear_43_3247" x1="85.4395" y1="241.732" x2="83.5078" y2="250.904" gradientUnits="userSpaceOnUse">
<stop stop-color="#FFB8AB"/>
<stop offset="1" stop-color="#F99D8A"/>
</linearGradient>
<linearGradient id="paint5_linear_43_3247" x1="112.416" y1="159.165" x2="121.735" y2="250.31" gradientUnits="userSpaceOnUse">
<stop stop-color="#182C7E"/>
<stop offset="1" stop-color="#1A0048"/>
</linearGradient>
<linearGradient id="paint6_linear_43_3247" x1="106.393" y1="171.57" x2="107.97" y2="187.065" gradientUnits="userSpaceOnUse">
<stop stop-color="#182C7E"/>
<stop offset="1" stop-color="#1A0048"/>
</linearGradient>
<linearGradient id="paint7_linear_43_3247" x1="92.0766" y1="161.996" x2="101.355" y2="252.714" gradientUnits="userSpaceOnUse">
<stop stop-color="#182C7E"/>
<stop offset="1" stop-color="#1A0048"/>
</linearGradient>
<linearGradient id="paint8_linear_43_3247" x1="149.853" y1="122.483" x2="165.88" y2="125.699" gradientUnits="userSpaceOnUse">
<stop stop-color="#FFB8AB"/>
<stop offset="1" stop-color="#F99D8A"/>
</linearGradient>
<linearGradient id="paint9_linear_43_3247" x1="138.445" y1="108.365" x2="84.9339" y2="160.685" gradientUnits="userSpaceOnUse">
<stop stop-color="#182C7E"/>
<stop offset="1" stop-color="#1A0048"/>
</linearGradient>
<linearGradient id="paint10_linear_43_3247" x1="107.398" y1="64.6915" x2="104.645" y2="92.9408" gradientUnits="userSpaceOnUse">
<stop stop-color="#FFB8AB"/>
<stop offset="1" stop-color="#F99D8A"/>
</linearGradient>
<linearGradient id="paint11_linear_43_3247" x1="107.347" y1="65.5324" x2="107.347" y2="93.1004" gradientUnits="userSpaceOnUse">
<stop stop-color="#FFB8AB"/>
<stop offset="1" stop-color="#F99D8A"/>
</linearGradient>
<linearGradient id="paint12_linear_43_3247" x1="107.242" y1="50.7967" x2="108.988" y2="77.8974" gradientUnits="userSpaceOnUse">
<stop stop-color="#3945BA"/>
<stop offset="1" stop-color="#0C176F"/>
</linearGradient>
<linearGradient id="paint13_linear_43_3247" x1="122.763" y1="251.878" x2="145.447" y2="251.878" gradientUnits="userSpaceOnUse">
<stop stop-color="#002E7E"/>
<stop offset="1" stop-color="#151A6D"/>
</linearGradient>
<linearGradient id="paint14_linear_43_3247" x1="72.8045" y1="252.532" x2="89.5787" y2="252.532" gradientUnits="userSpaceOnUse">
<stop stop-color="#002E7E"/>
<stop offset="1" stop-color="#151A6D"/>
</linearGradient>
<linearGradient id="paint15_linear_43_3247" x1="102.077" y1="73.4591" x2="102.077" y2="73.5371" gradientUnits="userSpaceOnUse">
<stop stop-color="#FFB8AB"/>
<stop offset="1" stop-color="#F99D8A"/>
</linearGradient>
<linearGradient id="paint16_linear_43_3247" x1="97.2906" y1="97.4962" x2="125.907" y2="156.539" gradientUnits="userSpaceOnUse">
<stop stop-color="#6DB0FF"/>
<stop offset="1" stop-color="#4B56BB"/>
</linearGradient>
<linearGradient id="paint17_linear_43_3247" x1="98.0993" y1="92.7859" x2="110.128" y2="92.7859" gradientUnits="userSpaceOnUse">
<stop stop-color="#B5D9F8"/>
<stop offset="1" stop-color="#8EC1F8"/>
</linearGradient>
<linearGradient id="paint18_linear_43_3247" x1="112.917" y1="87.8336" x2="110.091" y2="97.1932" gradientUnits="userSpaceOnUse">
<stop stop-color="#B5D9F8"/>
<stop offset="1" stop-color="#8EC1F8"/>
</linearGradient>
<linearGradient id="paint19_linear_43_3247" x1="107.662" y1="93.6489" x2="111.158" y2="100.85" gradientUnits="userSpaceOnUse">
<stop stop-color="#6DB0FF"/>
<stop offset="1" stop-color="#4B56BB"/>
</linearGradient>
<linearGradient id="paint20_linear_43_3247" x1="105.609" y1="90.092" x2="105.609" y2="160.036" gradientUnits="userSpaceOnUse">
<stop stop-color="#182C7E"/>
<stop offset="1" stop-color="#1A0048"/>
</linearGradient>
<linearGradient id="paint21_linear_43_3247" x1="64.9389" y1="121.394" x2="163.547" y2="121.394" gradientUnits="userSpaceOnUse">
<stop stop-color="#182C7E"/>
<stop offset="1" stop-color="#1A0048"/>
</linearGradient>
<linearGradient id="paint22_linear_43_3247" x1="75.8939" y1="127.443" x2="95.833" y2="155.57" gradientUnits="userSpaceOnUse">
<stop stop-color="#B5D9F8"/>
<stop offset="1" stop-color="#8EC1F8"/>
</linearGradient>
<linearGradient id="paint23_linear_43_3247" x1="88.544" y1="154.269" x2="72.5467" y2="107.104" gradientUnits="userSpaceOnUse">
<stop stop-color="#FFB8AB"/>
<stop offset="1" stop-color="#F99D8A"/>
</linearGradient>
<linearGradient id="paint24_linear_43_3247" x1="76.887" y1="90.092" x2="76.887" y2="160.036" gradientUnits="userSpaceOnUse">
<stop stop-color="#182C7E"/>
<stop offset="1" stop-color="#1A0048"/>
</linearGradient>
<linearGradient id="paint25_linear_43_3247" x1="106.838" y1="93.8989" x2="112.077" y2="147.69" gradientUnits="userSpaceOnUse">
<stop stop-color="#184AA7"/>
<stop offset="1" stop-color="#190E5B"/>
</linearGradient>
<linearGradient id="paint26_linear_43_3247" x1="184.217" y1="169.046" x2="132.774" y2="75.2007" gradientUnits="userSpaceOnUse">
<stop stop-color="#FFC39A"/>
<stop offset="1" stop-color="#E8A38C"/>
</linearGradient>
<linearGradient id="paint27_linear_43_3247" x1="217.733" y1="247.297" x2="153.741" y2="247.297" gradientUnits="userSpaceOnUse">
<stop stop-color="#FCCFB0"/>
<stop offset="1" stop-color="#FCBA97"/>
</linearGradient>
<linearGradient id="paint28_linear_43_3247" x1="192.269" y1="129.347" x2="170.454" y2="89.5499" gradientUnits="userSpaceOnUse">
<stop stop-color="#435FEA"/>
<stop offset="1" stop-color="#008EFF"/>
</linearGradient>
<linearGradient id="paint29_linear_43_3247" x1="179.31" y1="102.626" x2="171.079" y2="112.928" gradientUnits="userSpaceOnUse">
<stop stop-color="#FFC39A"/>
<stop offset="1" stop-color="#E8A38C"/>
</linearGradient>
<linearGradient id="paint30_linear_43_3247" x1="176.303" y1="133.589" x2="188.318" y2="245.819" gradientUnits="userSpaceOnUse">
<stop stop-color="#002E66"/>
<stop offset="1" stop-color="#1A0048"/>
</linearGradient>
<linearGradient id="paint31_linear_43_3247" x1="217.725" y1="243.918" x2="153.749" y2="243.918" gradientUnits="userSpaceOnUse">
<stop stop-color="#FCCFB0"/>
<stop offset="1" stop-color="#FCBA97"/>
</linearGradient>
<linearGradient id="paint32_linear_43_3247" x1="198.72" y1="132.872" x2="210.582" y2="243.682" gradientUnits="userSpaceOnUse">
<stop stop-color="#002E66"/>
<stop offset="1" stop-color="#1A0048"/>
</linearGradient>
<linearGradient id="paint33_linear_43_3247" x1="208.033" y1="150.463" x2="169.196" y2="79.6127" gradientUnits="userSpaceOnUse">
<stop stop-color="#435FEA"/>
<stop offset="1" stop-color="#008EFF"/>
</linearGradient>
<linearGradient id="paint34_linear_43_3247" x1="185.543" y1="88.1321" x2="186.823" y2="149.696" gradientUnits="userSpaceOnUse">
<stop stop-color="#3945BA"/>
<stop offset="1" stop-color="#0C176F"/>
</linearGradient>
<linearGradient id="paint35_linear_43_3247" x1="180.555" y1="78.8486" x2="198.257" y2="81.8705" gradientUnits="userSpaceOnUse">
<stop stop-color="#FFC39A"/>
<stop offset="1" stop-color="#E8A38C"/>
</linearGradient>
<linearGradient id="paint36_linear_43_3247" x1="186.804" y1="83.3008" x2="195.13" y2="83.3008" gradientUnits="userSpaceOnUse">
<stop stop-color="#FFC39A"/>
<stop offset="1" stop-color="#E8A38C"/>
</linearGradient>
<linearGradient id="paint37_linear_43_3247" x1="181.21" y1="69.6378" x2="183.797" y2="69.6378" gradientUnits="userSpaceOnUse">
<stop stop-color="#3945BA"/>
<stop offset="1" stop-color="#0C176F"/>
</linearGradient>
<linearGradient id="paint38_linear_43_3247" x1="181.962" y1="72.7995" x2="198.783" y2="75.6755" gradientUnits="userSpaceOnUse">
<stop stop-color="#FFC39A"/>
<stop offset="1" stop-color="#E8A38C"/>
</linearGradient>
<linearGradient id="paint39_linear_43_3247" x1="179.213" y1="69.2265" x2="201.735" y2="69.2265" gradientUnits="userSpaceOnUse">
<stop stop-color="#3945BA"/>
<stop offset="1" stop-color="#0C176F"/>
</linearGradient>
<linearGradient id="paint40_linear_43_3247" x1="155.131" y1="122.644" x2="202.164" y2="122.644" gradientUnits="userSpaceOnUse">
<stop stop-color="#FFC39A"/>
<stop offset="1" stop-color="#E8A38C"/>
</linearGradient>
<linearGradient id="paint41_linear_43_3247" x1="169.414" y1="82.8988" x2="208.239" y2="113.127" gradientUnits="userSpaceOnUse">
<stop stop-color="#435FEA"/>
<stop offset="1" stop-color="#008EFF"/>
</linearGradient>
<linearGradient id="paint42_linear_43_3247" x1="187.968" y1="161.093" x2="191.848" y2="177.163" gradientUnits="userSpaceOnUse">
<stop stop-color="#2E2A87"/>
<stop offset="1" stop-color="#000E42"/>
</linearGradient>
<linearGradient id="paint43_linear_43_3247" x1="201.436" y1="86.9948" x2="189.453" y2="90.947" gradientUnits="userSpaceOnUse">
<stop stop-color="#435FEA"/>
<stop offset="1" stop-color="#008EFF"/>
</linearGradient>
<linearGradient id="paint44_linear_43_3247" x1="191" y1="88.4466" x2="186.168" y2="90.0421" gradientUnits="userSpaceOnUse">
<stop stop-color="#435FEA"/>
<stop offset="1" stop-color="#008EFF"/>
</linearGradient>
<linearGradient id="paint45_linear_43_3247" x1="188.914" y1="88.6321" x2="189.019" y2="93.5682" gradientUnits="userSpaceOnUse">
<stop stop-color="#3945BA"/>
<stop offset="1" stop-color="#0C176F"/>
</linearGradient>
<linearGradient id="paint46_linear_43_3247" x1="260.49" y1="171.618" x2="260.49" y2="270.881" gradientUnits="userSpaceOnUse">
<stop stop-color="#4DC5FD"/>
<stop offset="1" stop-color="#008EFF"/>
</linearGradient>
<linearGradient id="paint47_linear_43_3247" x1="282.235" y1="171.618" x2="282.235" y2="270.881" gradientUnits="userSpaceOnUse">
<stop stop-color="#FD4D4D"/>
<stop offset="1" stop-color="#FF0000"/>
</linearGradient>
<linearGradient id="paint48_linear_43_3247" x1="303.99" y1="171.618" x2="303.99" y2="270.881" gradientUnits="userSpaceOnUse">
<stop stop-color="#F9FD4D"/>
<stop offset="1" stop-color="#FAFF00"/>
</linearGradient>
<linearGradient id="paint49_linear_43_3247" x1="325.735" y1="171.618" x2="325.735" y2="270.881" gradientUnits="userSpaceOnUse">
<stop stop-color="#FDD64D"/>
<stop offset="1" stop-color="#FFD600"/>
</linearGradient>
<linearGradient id="paint50_linear_43_3247" x1="268.145" y1="84.8655" x2="320.219" y2="114.843" gradientUnits="userSpaceOnUse">
<stop stop-color="white"/>
<stop offset="1" stop-color="#DEE3FC"/>
</linearGradient>
<linearGradient id="paint51_linear_43_3247" x1="265.607" y1="86.6561" x2="325.352" y2="121.06" gradientUnits="userSpaceOnUse">
<stop stop-color="#FFCC49"/>
<stop offset="1" stop-color="#FF4D00"/>
</linearGradient>
<linearGradient id="paint52_linear_43_3247" x1="271.726" y1="117.466" x2="294.538" y2="130.602" gradientUnits="userSpaceOnUse">
<stop stop-color="white"/>
<stop offset="1" stop-color="#DEE3FC"/>
</linearGradient>
<linearGradient id="paint53_linear_43_3247" x1="271.694" y1="120.225" x2="299.068" y2="135.982" gradientUnits="userSpaceOnUse">
<stop stop-color="white"/>
<stop offset="1" stop-color="#DEE3FC"/>
</linearGradient>
<linearGradient id="paint54_linear_43_3247" x1="300.465" y1="126.468" x2="306.287" y2="129.818" gradientUnits="userSpaceOnUse">
<stop stop-color="white"/>
<stop offset="1" stop-color="#DEE3FC"/>
</linearGradient>
<linearGradient id="paint55_linear_43_3247" x1="271.815" y1="129.186" x2="282.329" y2="135.239" gradientUnits="userSpaceOnUse">
<stop stop-color="white"/>
<stop offset="1" stop-color="#DEE3FC"/>
</linearGradient>
<linearGradient id="paint56_linear_43_3247" x1="295.736" y1="117.926" x2="316.957" y2="130.147" gradientUnits="userSpaceOnUse">
<stop stop-color="white"/>
<stop offset="1" stop-color="#DEE3FC"/>
</linearGradient>
<linearGradient id="paint57_linear_43_3247" x1="35.4888" y1="99.698" x2="-2.03289" y2="68.9651" gradientUnits="userSpaceOnUse">
<stop stop-color="#89D7FF"/>
<stop offset="0.22" stop-color="#9CDCFE"/>
<stop offset="1" stop-color="#DEF1FB"/>
</linearGradient>
<linearGradient id="paint58_linear_43_3247" x1="18.0923" y1="78.1147" x2="37.9546" y2="78.1147" gradientUnits="userSpaceOnUse">
<stop stop-color="#06B1FD"/>
<stop offset="1" stop-color="#0084FF"/>
</linearGradient>
<linearGradient id="paint59_linear_43_3247" x1="9.67684" y1="63.6935" x2="9.94239" y2="104.828" gradientUnits="userSpaceOnUse">
<stop stop-color="#1AD2FF"/>
<stop offset="1" stop-color="#0063FF"/>
</linearGradient>
<clipPath id="clip0_43_3247">
<rect width="332" height="256" fill="white"/>
</clipPath>
</defs>
</svg>
