<svg width="40" height="40" viewBox="0 0 40 40" fill="none" xmlns="http://www.w3.org/2000/svg">
<g id="Group 2185">
<g id="Ellipse 508" filter="url(#filter0_d_35_344)">
<circle cx="20" cy="16" r="16" transform="rotate(-180 20 16)" fill="black"/>
</g>
<path id="Arrow 1" d="M12 15C11.4477 15 11 15.4477 11 16C11 16.5523 11.4477 17 12 17L12 15ZM28.7071 16.7071C29.0976 16.3166 29.0976 15.6834 28.7071 15.2929L22.3431 8.92893C21.9526 8.53841 21.3195 8.53841 20.9289 8.92893C20.5384 9.31946 20.5384 9.95262 20.9289 10.3431L26.5858 16L20.9289 21.6569C20.5384 22.0474 20.5384 22.6805 20.9289 23.0711C21.3195 23.4616 21.9526 23.4616 22.3431 23.0711L28.7071 16.7071ZM12 17L28 17L28 15L12 15L12 17Z" fill="white"/>
</g>
<defs>
<filter id="filter0_d_35_344" x="0" y="0" width="40" height="40" filterUnits="userSpaceOnUse" color-interpolation-filters="sRGB">
<feFlood flood-opacity="0" result="BackgroundImageFix"/>
<feColorMatrix in="SourceAlpha" type="matrix" values="0 0 0 0 0 0 0 0 0 0 0 0 0 0 0 0 0 0 127 0" result="hardAlpha"/>
<feOffset dy="4"/>
<feGaussianBlur stdDeviation="2"/>
<feComposite in2="hardAlpha" operator="out"/>
<feColorMatrix type="matrix" values="0 0 0 0 0 0 0 0 0 0 0 0 0 0 0 0 0 0 0.25 0"/>
<feBlend mode="normal" in2="BackgroundImageFix" result="effect1_dropShadow_35_344"/>
<feBlend mode="normal" in="SourceGraphic" in2="effect1_dropShadow_35_344" result="shape"/>
</filter>
</defs>
</svg>
