<svg xmlns="http://www.w3.org/2000/svg" width="86" height="91" viewBox="0 0 86 91" fill="none">
  <g clip-path="url(#clip0_32_30)">
  <path d="M10.34 0H74.78C77.61 0 80.22 1.18 82.07 3.05C83.95 4.9 85.12 7.51 85.12 10.34V79.87C85.12 82.7 83.94 85.31 82.07 87.16C80.22 89.04 77.61 90.22 74.78 90.22H10.34C7.48 90.22 4.9 89.04 3.05 87.16C1.18 85.32 0 82.71 0 79.88V10.34C0 7.51 1.18 4.9 3.06 3.05C4.9 1.18 7.48 0 10.34 0ZM74.79 2.26H10.34C8.11 2.26 6.08 3.15 4.61 4.62C3.15 6.08 2.26 8.12 2.26 10.35V79.88C2.26 82.11 3.15 84.11 4.61 85.58C6.07 87.08 8.11 87.97 10.34 87.97H74.78C77.01 87.97 79.01 87.08 80.48 85.58C81.98 84.12 82.87 82.11 82.87 79.88V10.34C82.87 8.11 81.98 6.08 80.48 4.61C79.02 3.15 77.01 2.26 74.79 2.26Z" fill="#F0B90B"/>
    <path fill-rule="evenodd" clip-rule="evenodd" d="M8.19219 0H18.935H19.7131L19.1944 0.612536L8.45157 12.4741L7.85355 12.294V0.353109V0H8.19219ZM19.2304 34.7992H20.9308C21.0173 34.7992 21.0749 34.8569 21.0749 34.9434C21.0749 35.0226 21.0173 35.0947 20.9308 35.0947H19.2304C19.1728 35.3037 18.971 35.4694 18.726 35.4694C18.4306 35.4694 18.1929 35.2316 18.1929 34.9361C18.1929 34.6407 18.4306 34.4029 18.726 34.4029C18.971 34.4101 19.1728 34.5758 19.2304 34.7992ZM0.129692 36.6512H5.375V23.2547H0L21.4928 0.792693L43 23.2619H37.625V36.6585H41.7967V43H0.129692V36.6512ZM16.9104 27.7515H26.0968V42.2722H16.9104V27.7515Z" fill="#F0B90B"/>
  </g>
  <defs>
    <clipPath id="clip0_32_30">
      <rect width="43" height="43" fill="white"/>
    </clipPath>
  </defs>
</svg>