<svg width="1225" height="583" viewBox="0 0 1225 583" fill="none" xmlns="http://www.w3.org/2000/svg">
<path d="M1225 0.580078H0V583H1225V0.580078Z" fill="white"/>
<g style="mix-blend-mode:multiply">
<path d="M1992.51 -50.2656C1824.95 42.3348 1623.81 62.0086 1419.9 42.7932C1231.17 198.579 1105.8 344.05 918.175 492.425C829.482 558.972 751.613 611.537 660.464 659.747C589.154 698.56 527.376 755.71 483.207 839.333C444.176 914.437 414.417 992.062 429.507 1093.26C444.596 1195.03 486.955 1266.43 514.484 1339.5C538.459 1405.56 559.59 1461.64 582.951 1472.68C606.893 1484.48 633.065 1451.24 680.336 1356.01C834.038 1056.43 1130.46 889.835 1410.95 714.414C1609.01 588.807 1802.52 448.379 1922.59 232.196C1938.16 210.345 1972.61 142.461 1991.96 75.7993C2012.12 9.97813 2017.16 -54.6588 1992.45 -50.3421L1992.51 -50.2656Z" fill="url(#paint0_linear_86_764)"/>
</g>
<g style="mix-blend-mode:multiply">
<path d="M377.002 977.927C352.22 706.811 420.88 542.392 522.885 448.11C633.033 351.422 792.842 343.706 952.393 296.565C1096.63 257.982 1191.78 173.862 1255.89 58.799C1316.76 -40.1046 1344.1 -185.347 1457.31 -235.047C1578.25 -163.343 1698.48 -95.535 1817.55 -32.1587C1774.77 374.496 1505.91 542.506 1239.7 698.712C972.297 856.981 707.542 1003.52 646.151 1414.61C556.036 1271.2 466.341 1125.5 377.002 977.965V977.927Z" fill="url(#paint1_linear_86_764)"/>
</g>
<g style="mix-blend-mode:multiply">
<path d="M201.995 856.936C299.331 441.664 591.7 549.104 847.877 445.165C1014.03 380.075 1125.62 266.296 1187.3 99.5871C1236.67 -28.7585 1295.31 -183.478 1390.65 -286.594C1521.84 -169.353 1653.61 -57.4693 1785.47 48.2142C1651.12 444.809 1337.87 567.569 1033.23 680.531C726.551 795.828 428.447 901.325 277.473 1317.06C252.225 1156.76 227.212 1003.87 201.96 856.972L201.995 856.936Z" fill="url(#paint2_linear_86_764)"/>
</g>
<path style="mix-blend-mode:overlay" d="M1148.04 280.214C1084.93 359.979 1010.91 399.327 982.733 368.154C954.558 336.982 982.863 247.056 1045.97 167.329C1109.07 87.6025 1183.09 48.2168 1211.27 79.3892C1239.44 110.562 1211.14 200.488 1148.04 280.214Z" fill="url(#paint3_radial_86_764)"/>
<defs>
<linearGradient id="paint0_linear_86_764" x1="497.142" y1="1375.82" x2="2076.25" y2="40.2114" gradientUnits="userSpaceOnUse">
<stop offset="0.01" stop-color="#FFE500" stop-opacity="0.5"/>
<stop offset="1" stop-color="#FFC700"/>
</linearGradient>
<linearGradient id="paint1_linear_86_764" x1="705.761" y1="864.175" x2="1345.98" y2="322.677" gradientUnits="userSpaceOnUse">
<stop offset="0.01" stop-color="#FFEC40" stop-opacity="0"/>
<stop offset="1" stop-color="#FFD600"/>
</linearGradient>
<linearGradient id="paint2_linear_86_764" x1="313.324" y1="981.565" x2="1592.51" y2="267.535" gradientUnits="userSpaceOnUse">
<stop stop-color="#FFE665" stop-opacity="0"/>
<stop offset="1" stop-color="#FFC700"/>
</linearGradient>
<radialGradient id="paint3_radial_86_764" cx="0" cy="0" r="1" gradientUnits="userSpaceOnUse" gradientTransform="translate(1098.8 225.741) rotate(47.8914) scale(76.487 181.584)">
<stop stop-color="white"/>
<stop offset="1" stop-color="#808080" stop-opacity="0"/>
</radialGradient>
</defs>
</svg>
