<svg width="21" height="10" viewBox="0 0 21 10" fill="none" xmlns="http://www.w3.org/2000/svg">
<g id="Group 2226">
<path id="Vector" d="M16.4366 0.5C16.9202 1.05562 17.8022 1.0545 18.2853 0.5H19.9359C20.242 0.5 20.5 0.752742 20.5 1.07672V8.92328C20.5 9.24748 20.2418 9.5 19.9359 9.5H18.2098C17.7464 8.97848 16.9093 8.97109 16.44 9.5H1.06407C0.757998 9.5 0.5 9.24726 0.5 8.92328V1.07672C0.5 0.752522 0.758216 0.5 1.06407 0.5H16.4366Z" fill="white" stroke="#E2E2E2"/>
<path id="tab" d="M19.8299 10H17.6392L17.6178 9.96454C17.4917 9.75628 17.2584 9.62119 17 9.60711V0.415963C17.2902 0.408646 17.5553 0.263425 17.7004 0.0326467L17.7213 0H19.8306C20.4765 0 21 0.481257 21 1.07509V8.92435C21 9.51818 20.4765 9.99944 19.8306 9.99944L19.8299 10Z" fill="#8DB6FF"/>
</g>
</svg>
