<svg xmlns="http://www.w3.org/2000/svg" width="550" height="167" viewBox="0 0 550 167" fill="none">
<path fill-rule="evenodd" clip-rule="evenodd" d="M299.963 0.0385497C343.049 -0.46433 384.815 3.98151 421.197 11.695C459.469 19.8092 489.605 31.0765 510.043 44.578C533.503 60.0764 560.633 77.3368 545.742 93.9726C530.771 110.697 473.499 117.447 434.422 129.058C389.486 142.409 360.144 166.792 299.963 166.999C239.858 167.205 213.227 141.238 163.477 129.988C111.055 118.134 17.1311 120.137 2.01656 99.6253C-13.4351 78.656 63.789 63.3942 101.465 45.8329C126.448 34.1884 149.433 22.6007 184.742 14.4548C219.324 6.47668 257.939 0.529041 299.963 0.0385497Z" fill="#D9BD32"/>
</svg>