<svg width="528" height="312" viewBox="0 0 528 312" fill="none" xmlns="http://www.w3.org/2000/svg">
<path d="M442.742 236.151L213.746 140.51L67.522 195.959L51.3904 194.23L51.3452 203.374C51.3452 205.301 52.113 207.161 53.5401 208.819C54.9672 210.476 57.0536 211.92 59.664 213.012L298.857 312.912C303.509 314.855 309.1 315.607 314.474 315.146C317.572 314.883 320.598 314.219 323.335 313.154L463.245 258.736C466.406 257.507 468.944 255.833 470.687 253.895C472.431 251.958 473.388 249.757 473.388 247.474V239.433L442.742 236.151Z" fill="url(#paint0_linear_23_2)"/>
<mask id="mask0_23_2" style="mask-type:luminance" maskUnits="userSpaceOnUse" x="51" y="140" width="423" height="176">
<path d="M442.741 236.151L213.746 140.51L67.5218 195.959L51.3901 194.23L51.345 203.374C51.345 205.301 52.1127 207.161 53.5398 208.819C54.9669 210.476 57.0534 211.92 59.6637 213.012L298.857 312.912C303.509 314.855 309.1 315.607 314.474 315.146C317.572 314.883 320.598 314.219 323.334 313.154L463.245 258.736C466.406 257.507 468.944 255.833 470.687 253.895C472.43 251.958 473.388 249.757 473.388 247.474V239.433L442.741 236.151Z" fill="white"/>
</mask>
<g mask="url(#mask0_23_2)">
<path d="M309.307 298.137V324.658L483.956 255.212V230.41L309.307 298.137Z" fill="url(#paint1_linear_23_2)"/>
</g>
<path d="M321.699 301.485L468.059 245.981C469.784 245.328 471.094 244.455 471.988 243.473C474.652 240.531 473.514 236.59 468.483 234.488L224.169 132.452C221.423 131.305 218.298 130.636 215.118 130.444C210.964 130.197 206.7 130.768 203.006 132.167L56.6468 187.672C54.9216 188.325 53.6119 189.197 52.7177 190.18C50.0532 193.122 51.1913 197.062 56.2223 199.164L300.537 301.205C303.201 302.32 306.218 302.984 309.307 303.198C313.552 303.489 317.924 302.923 321.699 301.491V301.485Z" fill="url(#paint2_linear_23_2)"/>
<path d="M152.94 162.831C152.94 163.973 150.637 164.9 147.81 164.9C144.983 164.9 142.679 163.973 142.679 162.831C142.679 161.689 144.983 160.762 147.81 160.762C150.637 160.762 152.94 161.689 152.94 162.831Z" fill="url(#paint3_linear_23_2)"/>
<path d="M140.99 166.146C140.99 166.574 140.195 166.925 139.211 166.925C138.226 166.925 137.432 166.574 137.432 166.146C137.432 165.718 138.226 165.367 139.211 165.367C140.195 165.367 140.99 165.718 140.99 166.146Z" fill="url(#paint4_linear_23_2)"/>
<path d="M158.079 159.121C158.079 159.549 157.285 159.9 156.3 159.9C155.315 159.9 154.521 159.549 154.521 159.121C154.521 158.693 155.315 158.341 156.3 158.341C157.285 158.341 158.079 158.693 158.079 159.121Z" fill="url(#paint5_linear_23_2)"/>
<path d="M80.0314 216.695C80.0314 216.974 80.1759 217.238 80.4288 217.463C80.5823 217.6 80.781 217.721 81.0159 217.814L95.1153 223.555C95.7837 223.829 96.5514 223.846 97.1927 223.681C97.9695 223.484 98.5566 223.028 98.5566 222.441V222.348C98.5566 222.134 98.4753 221.92 98.3127 221.733C98.1411 221.53 97.8882 221.354 97.563 221.222L83.4636 215.575C82.9127 215.355 82.2985 215.306 81.7385 215.388C80.7991 215.525 80.0314 216.025 80.0314 216.7V216.695Z" fill="url(#paint6_linear_23_2)"/>
<path d="M105.511 227.271C105.511 227.551 105.656 227.814 105.909 228.039C106.062 228.176 106.261 228.297 106.496 228.39L120.595 234.131C121.264 234.406 122.031 234.422 122.673 234.258C123.449 234.06 124.037 233.604 124.037 233.017V232.924C124.037 232.71 123.955 232.496 123.793 232.309C123.621 232.106 123.368 231.93 123.043 231.799L108.944 226.151C108.393 225.932 107.778 225.882 107.218 225.964C106.279 226.102 105.511 226.601 105.511 227.276V227.271Z" fill="url(#paint7_linear_23_2)"/>
<path d="M327.191 304.449C327.191 305.102 326.351 305.629 325.312 305.629C324.274 305.629 323.434 305.102 323.434 304.449C323.434 303.796 324.274 303.269 325.312 303.269C326.351 303.269 327.191 303.796 327.191 304.449Z" fill="url(#paint8_linear_23_2)"/>
<path d="M327.191 308.148C327.191 308.801 326.351 309.328 325.312 309.328C324.274 309.328 323.434 308.801 323.434 308.148C323.434 307.495 324.274 306.968 325.312 306.968C326.351 306.968 327.191 307.495 327.191 308.148Z" fill="url(#paint9_linear_23_2)"/>
<path d="M333.306 302.084C333.306 302.737 332.466 303.264 331.427 303.264C330.388 303.264 329.548 302.737 329.548 302.084C329.548 301.431 330.388 300.904 331.427 300.904C332.466 300.904 333.306 301.431 333.306 302.084Z" fill="url(#paint10_linear_23_2)"/>
<path d="M333.306 305.783C333.306 306.436 332.466 306.963 331.427 306.963C330.388 306.963 329.548 306.436 329.548 305.783C329.548 305.13 330.388 304.603 331.427 304.603C332.466 304.603 333.306 305.13 333.306 305.783Z" fill="url(#paint11_linear_23_2)"/>
<path d="M339.412 299.718C339.412 300.371 338.572 300.898 337.533 300.898C336.495 300.898 335.655 300.371 335.655 299.718C335.655 299.065 336.495 298.538 337.533 298.538C338.572 298.538 339.412 299.065 339.412 299.718Z" fill="url(#paint12_linear_23_2)"/>
<path d="M339.412 303.417C339.412 304.07 338.572 304.597 337.533 304.597C336.495 304.597 335.655 304.07 335.655 303.417C335.655 302.764 336.495 302.237 337.533 302.237C338.572 302.237 339.412 302.764 339.412 303.417Z" fill="url(#paint13_linear_23_2)"/>
<path d="M345.526 297.353C345.526 298.006 344.686 298.533 343.648 298.533C342.609 298.533 341.769 298.006 341.769 297.353C341.769 296.699 342.609 296.173 343.648 296.173C344.686 296.173 345.526 296.699 345.526 297.353Z" fill="url(#paint14_linear_23_2)"/>
<path d="M345.526 301.052C345.526 301.705 344.686 302.232 343.648 302.232C342.609 302.232 341.769 301.705 341.769 301.052C341.769 300.399 342.609 299.872 343.648 299.872C344.686 299.872 345.526 300.399 345.526 301.052Z" fill="url(#paint15_linear_23_2)"/>
<path d="M351.641 294.987C351.641 295.64 350.801 296.167 349.763 296.167C348.724 296.167 347.884 295.64 347.884 294.987C347.884 294.334 348.724 293.807 349.763 293.807C350.801 293.807 351.641 294.334 351.641 294.987Z" fill="url(#paint16_linear_23_2)"/>
<path d="M351.641 298.686C351.641 299.339 350.801 299.866 349.763 299.866C348.724 299.866 347.884 299.339 347.884 298.686C347.884 298.033 348.724 297.506 349.763 297.506C350.801 297.506 351.641 298.033 351.641 298.686Z" fill="url(#paint17_linear_23_2)"/>
<path d="M432.625 262.682L445.884 257.847C446.589 257.589 447.366 257.545 448.061 257.655C449.235 257.841 450.193 258.483 450.193 259.329V259.411C450.193 259.565 450.157 259.713 450.094 259.856C449.904 260.289 449.443 260.662 448.793 260.898L435.533 265.651C434.675 265.959 433.718 265.959 432.923 265.739C431.966 265.476 431.252 264.894 431.252 264.164C431.252 263.862 431.379 263.571 431.623 263.313C431.857 263.055 432.201 262.841 432.634 262.682H432.625Z" fill="url(#paint18_linear_23_2)"/>
<path d="M459.541 256.091C459.541 256.925 458.43 257.6 457.057 257.6C455.684 257.6 454.573 256.925 454.573 256.091C454.573 255.256 455.684 254.581 457.057 254.581C458.43 254.581 459.541 255.256 459.541 256.091Z" fill="url(#paint19_linear_23_2)"/>
<path d="M208.995 138.874L177.616 150.894C176.903 151.168 176.334 151.541 175.954 151.98C175.521 152.474 175.322 153.045 175.422 153.621L176.388 159.489C176.478 160.026 176.316 160.553 175.945 161.025C175.566 161.503 174.979 161.914 174.22 162.205L139.365 175.762C138.967 175.915 138.543 176.031 138.109 176.108C137.35 176.239 136.547 176.256 135.77 176.146L119.918 173.989C119.304 173.907 118.681 173.896 118.076 173.962C117.47 174.027 116.883 174.159 116.35 174.362L75.1089 190.163C73.6638 190.718 72.9141 191.634 72.896 192.556C72.8689 193.478 73.5644 194.411 74.9825 194.993L307.32 290.635C308.594 291.156 310.039 291.453 311.52 291.507C313.236 291.573 314.979 291.326 316.497 290.756L450.455 240.679C451.864 240.152 452.614 239.285 452.704 238.401C452.803 237.435 452.108 236.442 450.617 235.833L214.179 138.923C213.493 138.643 212.707 138.479 211.921 138.44C210.918 138.391 209.889 138.534 208.995 138.874Z" fill="url(#paint20_linear_23_2)"/>
<mask id="mask1_23_2" style="mask-type:luminance" maskUnits="userSpaceOnUse" x="72" y="138" width="381" height="154">
<path d="M208.995 138.874L177.616 150.894C176.903 151.168 176.334 151.541 175.954 151.98C175.521 152.474 175.322 153.045 175.422 153.621L176.388 159.489C176.478 160.026 176.316 160.553 175.945 161.025C175.566 161.503 174.979 161.914 174.22 162.205L139.365 175.762C138.967 175.915 138.543 176.031 138.109 176.108C137.35 176.239 136.547 176.256 135.77 176.146L119.918 173.989C119.304 173.907 118.681 173.896 118.076 173.962C117.47 174.027 116.883 174.159 116.35 174.362L75.1089 190.163C73.6638 190.718 72.9141 191.634 72.896 192.556C72.8689 193.478 73.5644 194.411 74.9825 194.993L307.32 290.635C308.594 291.156 310.039 291.453 311.52 291.507C313.236 291.573 314.979 291.326 316.497 290.756L450.455 240.679C451.864 240.152 452.614 239.285 452.704 238.401C452.803 237.435 452.108 236.442 450.617 235.833L214.179 138.923C213.493 138.643 212.707 138.479 211.921 138.44C210.918 138.391 209.889 138.534 208.995 138.874Z" fill="white"/>
</mask>
<g mask="url(#mask1_23_2)">
<g style="mix-blend-mode:multiply" opacity="0.4">
<path d="M461.809 177.079L371.449 165.674L378.44 109.758L297.15 136.316L243.354 90.7458L209.175 142.837L119.765 128.94L148.686 182.194L65.4896 206.475L143.98 235.975L105.936 287.067L197.271 279.005L222.173 333.005L283.61 291.156L359.807 322.797L362.607 266.744L454.447 261.222L397.291 217.188L461.799 177.084L461.809 177.079ZM435.94 256.085L353.177 261.063L350.657 311.573L281.994 283.061L226.626 320.772L204.189 272.111L121.887 279.372L156.174 233.33L85.442 206.749L160.41 184.873L134.343 136.882L214.92 149.406L245.72 102.464L294.196 143.528L367.448 119.599L361.144 169.988L442.57 180.268L384.438 216.409L435.94 256.091V256.085Z" fill="url(#paint21_linear_23_2)"/>
<path d="M399.54 187.386L338.084 179.631L342.844 141.602L287.558 159.664L250.977 128.671L227.737 164.099L166.931 154.648L186.604 190.866L130.026 207.375L183.406 227.435L157.529 262.183L219.644 256.7L236.579 293.423L278.363 264.96L330.181 286.48L332.087 248.357L394.545 244.598L355.679 214.653L399.549 187.381L399.54 187.386ZM373.952 238.901L321.591 242.051L320.002 274.01L276.556 255.97L241.529 279.828L227.33 249.038L175.259 253.632L196.955 224.499L152.2 207.682L199.637 193.841L183.144 163.479L234.123 171.404L253.605 141.7L284.279 167.683L330.624 152.54L326.631 184.422L378.152 190.926L341.372 213.791L373.961 238.895L373.952 238.901Z" fill="url(#paint22_linear_23_2)"/>
<path d="M339.484 197.342L305.911 193.105L308.513 172.331L278.309 182.2L258.32 165.268L245.621 184.62L212.4 179.455L223.148 199.241L192.24 208.259L221.405 219.219L207.27 238.204L241.204 235.207L250.453 255.267L273.278 239.719L301.585 251.475L302.624 230.652L336.748 228.599L315.513 212.238L339.484 197.337V197.342ZM292.3 224.439L291.568 239.197L271.507 230.866L255.33 241.881L248.773 227.666L224.729 229.79L234.746 216.338L214.08 208.572L235.983 202.178L228.369 188.155L251.907 191.815L260.903 178.1L275.066 190.098L296.463 183.105L294.621 197.825L318.412 200.827L301.431 211.387L316.479 222.979L292.3 224.433V224.439Z" fill="url(#paint23_linear_23_2)"/>
<path d="M290.719 205.41L279.79 204.033L280.639 197.265L270.803 200.476L264.3 194.966L260.163 201.267L249.342 199.587L252.838 206.03L242.776 208.967L252.269 212.534L247.662 218.714L258.709 217.737L261.716 224.269L269.15 219.208L278.372 223.034L278.706 216.255L289.816 215.586L282.906 210.257L290.71 205.405L290.719 205.41ZM279.564 212.737L273.485 213.105L273.305 216.815L268.265 214.724L264.2 217.49L262.556 213.917L256.514 214.45L259.034 211.069L253.84 209.115L259.341 207.507L257.426 203.983L263.342 204.905L265.6 201.459L269.159 204.472L274.533 202.715L274.073 206.415L280.052 207.172L275.78 209.823L279.564 212.737Z" fill="url(#paint24_linear_23_2)"/>
</g>
</g>
<path d="M22.2316 0.00549138L22.7373 3.28385C24.399 12.3282 30.0161 20.8123 38.776 27.9292C44.628 32.6902 51.8888 36.8362 60.2964 40.131C70.2574 44.0354 78.638 49.1534 84.9777 55.095C90.0801 59.878 93.864 65.1937 96.0856 70.8443L98.3794 76.6707C100.745 82.6837 104.882 88.3234 110.508 93.348C116.134 98.3726 123.25 102.782 131.586 106.324L145.132 112.079C151.941 114.973 157.947 118.449 162.977 122.364C170.49 128.207 175.855 135.028 178.582 142.381L180.93 148.729C183.025 154.379 186.683 159.728 191.695 164.56C196.698 169.393 203.056 173.709 210.542 177.295L218.498 181.111C227.421 185.389 234.781 190.727 240.145 196.762C241.933 198.777 243.505 200.864 244.832 203.022L262.126 231.033C262.126 231.033 263.192 232.758 264.257 234.488C265.323 232.763 266.389 231.033 266.389 231.033L283.683 203.022C286.365 198.678 290.004 194.598 294.484 190.886C298.891 187.234 304.11 183.939 310.026 181.106L317.982 177.289C325.766 173.555 332.332 169.036 337.425 163.962C342.121 159.289 345.571 154.143 347.585 148.723L349.933 142.375C352.317 135.928 356.742 129.893 362.856 124.567C368.392 119.74 375.318 115.5 383.383 112.074L396.929 106.319C404.488 103.106 411.053 99.1744 416.409 94.7208C422.857 89.3613 427.544 83.2329 430.126 76.6652L432.42 70.8388C434.913 64.5128 439.356 58.593 445.434 53.3817C451.511 48.1704 459.215 43.6565 468.209 40.131C478.703 36.018 487.4 30.576 493.821 24.2774C500.242 17.9788 505.109 8.49517 505.768 0H22.2316V0.00549138Z" fill="url(#paint25_linear_23_2)"/>
<path d="M194.613 93.9072L196.253 96.6185L198.966 98.254L196.253 99.8896L194.613 102.595L192.973 99.8896L190.255 98.254L192.973 96.6185L194.613 93.9072Z" fill="url(#paint26_linear_23_2)"/>
<path d="M384.614 57.9799L386.254 60.6857L388.967 62.3212L386.254 63.9568L384.614 66.6681L382.968 63.9568L380.255 62.3212L382.968 60.6857L384.614 57.9799Z" fill="url(#paint27_linear_23_2)"/>
<path d="M302.986 25.0383L304.631 27.7441L307.344 29.3851L304.631 31.0207L302.986 33.7265L301.346 31.0207L298.633 29.3851L301.346 27.7441L302.986 25.0383Z" fill="url(#paint28_linear_23_2)"/>
<path d="M320.073 172.271L321.713 174.982L324.432 176.618L321.713 178.253L320.073 180.959L318.433 178.253L315.72 176.618L318.433 174.982L320.073 172.271Z" fill="url(#paint29_linear_23_2)"/>
<path d="M101.616 28.5509L103.262 31.2567L105.975 32.8922L103.262 34.5333L101.616 37.2391L99.9762 34.5333L97.2632 32.8922L99.9762 31.2567L101.616 28.5509Z" fill="url(#paint30_linear_23_2)"/>
<path d="M222.189 108.699C222.189 109.73 221.353 110.565 220.318 110.565C219.284 110.565 218.447 109.73 218.447 108.699C218.447 107.667 219.284 106.832 220.318 106.832C221.353 106.832 222.189 107.667 222.189 108.699Z" fill="url(#paint31_linear_23_2)"/>
<path d="M375.016 76.3058C375.016 77.3376 374.18 78.1718 373.145 78.1718C372.111 78.1718 371.274 77.3376 371.274 76.3058C371.274 75.2739 372.111 74.4397 373.145 74.4397C374.18 74.4397 375.016 75.2739 375.016 76.3058Z" fill="url(#paint32_linear_23_2)"/>
<path d="M191.245 135.103C191.245 136.135 190.409 136.969 189.374 136.969C188.34 136.969 187.503 136.135 187.503 135.103C187.503 134.072 188.34 133.237 189.374 133.237C190.409 133.237 191.245 134.072 191.245 135.103Z" fill="url(#paint33_linear_23_2)"/>
<path d="M311.197 52.3652C312.23 52.3652 313.068 51.5297 313.068 50.4991C313.068 49.4685 312.23 48.6331 311.197 48.6331C310.163 48.6331 309.326 49.4685 309.326 50.4991C309.326 51.5297 310.163 52.3652 311.197 52.3652Z" fill="url(#paint34_linear_23_2)"/>
<path d="M348.326 104.275L361.269 102.019L347.17 156.503L339.224 155.636L328.851 160.4L348.326 104.275Z" fill="url(#paint35_linear_23_2)"/>
<path d="M348.326 104.275L355.023 103.111L339.224 155.636L328.851 160.4L348.326 104.275Z" fill="url(#paint36_linear_23_2)"/>
<path d="M307.697 86.882L324.542 86.1849L361.27 102.019L348.326 104.275L307.697 86.882Z" fill="url(#paint37_linear_23_2)"/>
<path d="M324.542 86.1849L313.849 123.819L296.146 118.814L307.697 86.882L324.542 86.1849Z" fill="url(#paint38_linear_23_2)"/>
<path d="M352.443 103.556L356.24 90.9764C358.958 81.9753 354.429 72.3815 345.745 68.7317C335.564 64.4562 323.925 69.9995 320.866 80.5867L317.795 91.2069L314.548 89.8183L317.454 79.9062C321.091 67.4968 334.717 60.9656 346.708 65.8887C357.104 70.1532 362.552 81.5966 359.294 92.3265L356.075 102.93L352.443 103.561V103.556Z" fill="url(#paint39_linear_23_2)"/>
<path d="M307.697 86.882L287.902 141.591L328.851 160.4L348.326 104.275L307.697 86.882Z" fill="url(#paint40_linear_23_2)"/>
<path d="M309.469 108.682L308.132 111.525C307.317 113.259 307.477 115.202 308.396 116.734C308.946 117.65 309.766 118.424 310.812 118.907C312.138 119.527 313.585 119.582 314.878 119.165C316.298 118.709 317.531 117.689 318.213 116.24L319.551 113.397C320.205 112.008 320.227 110.488 319.743 109.154C319.259 107.82 318.263 106.668 316.871 106.015C315.28 105.268 313.514 105.345 312.055 106.059C310.96 106.596 310.03 107.497 309.469 108.682ZM311.698 117.195C309.838 116.327 309.034 114.116 309.909 112.261L311.175 109.566C311.604 108.655 312.353 108.001 313.228 107.672C314.136 107.332 315.176 107.343 316.122 107.782C317.052 108.216 317.718 108.984 318.043 109.879C318.367 110.773 318.351 111.789 317.911 112.716L316.645 115.411C315.775 117.266 313.558 118.067 311.698 117.195Z" fill="url(#paint41_linear_23_2)"/>
<path d="M318.918 129.944L317.58 132.787C316.766 134.522 316.926 136.465 317.845 137.996C318.395 138.912 319.215 139.686 320.26 140.169C321.587 140.789 323.034 140.844 324.327 140.427C325.747 139.972 326.98 138.951 327.662 137.502L328.999 134.659C329.654 133.27 329.676 131.75 329.192 130.416C328.708 129.083 327.712 127.93 326.319 127.277C324.729 126.53 322.962 126.607 321.504 127.321C320.409 127.859 319.479 128.759 318.918 129.944ZM321.146 138.457C319.286 137.59 318.483 135.378 319.358 133.523L320.624 130.828C321.053 129.917 321.801 129.264 322.676 128.934C323.584 128.594 324.624 128.605 325.571 129.044C326.501 129.478 327.167 130.246 327.491 131.141C327.816 132.035 327.8 133.051 327.359 133.978L326.094 136.673C325.224 138.528 323.006 139.33 321.146 138.457Z" fill="url(#paint42_linear_23_2)"/>
<path d="M334.08 112.383L332.96 110.923L302.878 133.869L303.998 135.33L334.08 112.383Z" fill="url(#paint43_linear_23_2)"/>
<path d="M205.102 44.9448L244.471 45.3949L270.655 15.9L231.55 17.1239L205.102 44.9448Z" fill="url(#paint44_linear_23_2)"/>
<path d="M246.309 49.352L263.402 87.7272L227.731 86.2398L210.633 47.8592L246.309 49.352Z" fill="url(#paint45_linear_23_2)"/>
<mask id="mask2_23_2" style="mask-type:luminance" maskUnits="userSpaceOnUse" x="210" y="47" width="54" height="41">
<path d="M246.309 49.352L263.402 87.7272L227.731 86.2398L210.633 47.8592L246.309 49.352Z" fill="white"/>
</mask>
<g mask="url(#mask2_23_2)">
<g style="mix-blend-mode:multiply" opacity="0.4">
<path d="M276.303 104.052L189.454 64.9425L189.044 65.8479L275.893 104.957L276.303 104.052Z" fill="url(#paint46_linear_23_2)"/>
<path d="M278.406 100.388L191.556 61.2783L191.146 62.1837L277.996 101.293L278.406 100.388Z" fill="url(#paint47_linear_23_2)"/>
<path d="M280.508 96.718L193.659 57.6086L193.249 58.514L280.098 97.6234L280.508 96.718Z" fill="url(#paint48_linear_23_2)"/>
<path d="M282.608 93.0588L195.759 53.9494L195.349 54.8548L282.198 93.9642L282.608 93.0588Z" fill="url(#paint49_linear_23_2)"/>
<path d="M284.711 89.3892L197.861 50.2797L197.451 51.1851L284.301 90.2945L284.711 89.3892Z" fill="url(#paint50_linear_23_2)"/>
<path d="M286.813 85.725L199.964 46.6156L199.554 47.5209L286.403 86.6304L286.813 85.725Z" fill="url(#paint51_linear_23_2)"/>
<path d="M288.913 82.0658L202.064 42.9564L201.654 43.8618L288.503 82.9712L288.913 82.0658Z" fill="url(#paint52_linear_23_2)"/>
<path d="M291.016 78.3961L204.166 39.2867L203.756 40.1921L290.606 79.3015L291.016 78.3961Z" fill="url(#paint53_linear_23_2)"/>
<path d="M293.118 74.7319L206.269 35.6225L205.859 36.5279L292.708 75.6373L293.118 74.7319Z" fill="url(#paint54_linear_23_2)"/>
</g>
</g>
<path d="M246.249 49.3795L263.342 87.7601L286.147 60.3563L269.054 21.9812L246.249 49.3795Z" fill="url(#paint55_linear_23_2)"/>
<mask id="mask3_23_2" style="mask-type:luminance" maskUnits="userSpaceOnUse" x="246" y="21" width="41" height="67">
<path d="M246.249 49.3795L263.342 87.7601L286.147 60.3563L269.054 21.9812L246.249 49.3795Z" fill="white"/>
</mask>
<g mask="url(#mask3_23_2)">
<g style="mix-blend-mode:multiply" opacity="0.4">
<path d="M264.585 104.774L293.001 14.0608L292.051 13.7645L263.634 104.478L264.585 104.774Z" fill="url(#paint56_linear_23_2)"/>
<path d="M268.735 105.273L297.152 14.5594L296.201 14.2632L267.785 104.977L268.735 105.273Z" fill="url(#paint57_linear_23_2)"/>
<path d="M260.443 103.905L288.859 13.1918L287.909 12.8956L259.492 103.609L260.443 103.905Z" fill="url(#paint58_linear_23_2)"/>
<path d="M256.299 103.04L284.716 12.3265L283.765 12.0302L255.348 102.744L256.299 103.04Z" fill="url(#paint59_linear_23_2)"/>
<path d="M252.157 102.166L280.574 11.452L279.623 11.1558L251.206 101.869L252.157 102.166Z" fill="url(#paint60_linear_23_2)"/>
<path d="M248.015 101.295L276.432 10.5814L275.481 10.2852L247.064 100.999L248.015 101.295Z" fill="url(#paint61_linear_23_2)"/>
<path d="M243.871 100.431L272.288 9.71773L271.337 9.42149L242.921 100.135L243.871 100.431Z" fill="url(#paint62_linear_23_2)"/>
<path d="M239.73 99.5608L268.146 8.84714L267.196 8.5509L238.779 99.2646L239.73 99.5608Z" fill="url(#paint63_linear_23_2)"/>
<path d="M235.587 98.6864L264.004 7.9727L263.054 7.67646L234.637 98.3901L235.587 98.6864Z" fill="url(#paint64_linear_23_2)"/>
<path d="M231.446 97.8158L259.862 7.10211L258.912 6.80587L230.495 97.5195L231.446 97.8158Z" fill="url(#paint65_linear_23_2)"/>
</g>
</g>
<path d="M244.471 45.3949L248.687 54.8569L209.241 54.2313L205.102 44.9448L244.471 45.3949Z" fill="url(#paint66_linear_23_2)"/>
<path d="M248.687 54.8569L244.471 45.3949L270.655 15.9L274.496 24.5168L248.687 54.8569Z" fill="url(#paint67_linear_23_2)"/>
<path d="M221.204 45.1259L245.666 16.6794L252.236 16.4763L228.1 45.2083L221.204 45.1259Z" fill="url(#paint68_linear_23_2)"/>
<path d="M221.204 45.1259L238.985 86.7064L245.566 86.9863L228.1 45.2083L221.204 45.1259Z" fill="url(#paint69_linear_23_2)"/>
<path d="M216.593 32.8593L255.362 33.1282L273.99 74.9611L278.382 69.6867L259.847 28.0734L220.681 28.5563L216.593 32.8593Z" fill="url(#paint70_linear_23_2)"/>
<path d="M259.847 28.0734L255.362 33.1282L273.99 74.9611L278.382 69.6867L259.847 28.0734Z" fill="url(#paint71_linear_23_2)"/>
<path d="M240.834 28.0624C240.834 28.0624 241.076 17.316 244.328 13.8418C247.586 10.3677 250.431 12.0581 250.431 12.0581C250.431 12.0581 251.791 12.9637 251.725 14.967C251.659 16.9702 250.949 21.855 243.266 28.0349L240.823 28.0624H240.834Z" fill="url(#paint72_linear_23_2)"/>
<path d="M236.2 28.1008C236.2 28.1008 234.593 13.4741 239.695 11.5257C244.796 9.57732 248.731 10.5488 250.96 12.0746C253.188 13.5949 252.044 22.0745 243.277 28.0349L242.914 28.013C242.914 28.013 247.295 24.5388 248.797 22.047C250.299 19.5553 251.73 15.7847 251.29 13.9681C250.844 12.1514 248.505 11.7343 247.135 12.3984C244.934 13.4686 240.603 24.2973 240.839 28.0679L236.206 28.1063L236.2 28.1008Z" fill="url(#paint73_linear_23_2)"/>
<path d="M233.438 31.339C233.438 31.339 225.282 24.3138 220.511 24.3906C215.74 24.4674 215.09 27.7111 215.09 27.7111C215.09 27.7111 214.848 29.3247 216.383 30.62C217.919 31.9153 222.03 34.665 231.776 33.1227L233.432 31.3335L233.438 31.339Z" fill="url(#paint74_linear_23_2)"/>
<path d="M236.574 27.9307C236.574 27.9307 226.773 16.9373 221.903 19.4071C217.033 21.8769 215.118 25.4444 214.76 28.1118C214.397 30.7792 221.474 35.62 231.781 33.1227L232.007 32.8373C232.007 32.8373 226.487 33.7484 223.626 33.1886C220.764 32.6342 217 31.1633 215.943 29.6156C214.887 28.0679 216.152 26.0591 217.561 25.4883C219.834 24.5772 230.791 28.6277 233.438 31.3335L236.574 27.9307Z" fill="url(#paint75_linear_23_2)"/>
<path d="M231.666 32.9636C231.666 32.9636 230.692 28.5783 235.485 26.4598C240.273 24.3357 242.71 28.2874 242.71 28.2874C242.71 28.2874 241.192 31.7561 238.352 33.013" fill="url(#paint76_linear_23_2)"/>
<path d="M144.194 18.5838L141.228 22.2446C139.588 24.2699 141.794 28.7539 146.147 32.261C150.506 35.7681 155.365 36.9756 156.999 34.9504L159.966 31.2896L144.188 18.5838H144.194Z" fill="url(#paint77_linear_23_2)"/>
<mask id="mask4_23_2" style="mask-type:luminance" maskUnits="userSpaceOnUse" x="140" y="18" width="20" height="18">
<path d="M144.194 18.5838L141.228 22.2446C139.588 24.2699 141.794 28.7539 146.147 32.261C150.506 35.7681 155.365 36.9756 156.999 34.9504L159.966 31.2896L144.188 18.5838H144.194Z" fill="white"/>
</mask>
<g mask="url(#mask4_23_2)">
<g style="mix-blend-mode:color-burn" opacity="0.4">
<path d="M146.116 20.1367L145.508 19.647L138.053 28.8521L138.661 29.3418L146.116 20.1367Z" fill="url(#paint78_linear_23_2)"/>
<path d="M148.206 21.8249L147.598 21.3352L140.142 30.5403L140.75 31.0301L148.206 21.8249Z" fill="url(#paint79_linear_23_2)"/>
<path d="M150.294 23.5L149.686 23.0103L142.231 32.2154L142.839 32.7051L150.294 23.5Z" fill="url(#paint80_linear_23_2)"/>
<path d="M152.384 25.1882L151.776 24.6985L144.32 33.9036L144.928 34.3933L152.384 25.1882Z" fill="url(#paint81_linear_23_2)"/>
<path d="M154.467 26.8688L153.859 26.379L146.404 35.5841L147.012 36.0739L154.467 26.8688Z" fill="url(#paint82_linear_23_2)"/>
<path d="M156.557 28.5515L155.949 28.0618L148.493 37.2669L149.101 37.7566L156.557 28.5515Z" fill="url(#paint83_linear_23_2)"/>
<path d="M158.645 30.232L158.037 29.7423L150.582 38.9474L151.19 39.4372L158.645 30.232Z" fill="url(#paint84_linear_23_2)"/>
</g>
</g>
<path d="M159.971 31.2951C158.331 33.3203 153.472 32.1128 149.119 28.6057C144.761 25.0986 142.559 20.6146 144.199 18.5893C145.839 16.5641 150.698 17.7716 155.051 21.2787C159.41 24.7858 161.611 29.2698 159.971 31.2951Z" fill="url(#paint85_linear_23_2)"/>
<path d="M157.667 29.4429C158.826 28.0116 157.264 24.8363 154.179 22.3507C151.094 19.865 147.653 19.0103 146.493 20.4416C145.334 21.8729 146.896 25.0482 149.981 27.5339C153.066 30.0195 156.507 30.8742 157.667 29.4429Z" fill="url(#paint86_linear_23_2)"/>
<path d="M393.254 38.8801L397.001 36.0206C399.07 34.4399 397.992 29.5662 394.591 25.1261C391.19 20.6914 386.754 18.3753 384.68 19.956L380.932 22.8154L393.254 38.8801Z" fill="url(#paint87_linear_23_2)"/>
<mask id="mask5_23_2" style="mask-type:luminance" maskUnits="userSpaceOnUse" x="380" y="19" width="19" height="20">
<path d="M393.254 38.8801L397.001 36.0206C399.07 34.4399 397.992 29.5662 394.591 25.1261C391.19 20.6914 386.754 18.3753 384.68 19.956L380.932 22.8154L393.254 38.8801Z" fill="white"/>
</mask>
<g mask="url(#mask5_23_2)">
<g style="mix-blend-mode:color-burn" opacity="0.4">
<path d="M391.766 36.9126L392.241 37.5317L401.665 30.3429L401.19 29.7239L391.766 36.9126Z" fill="url(#paint88_linear_23_2)"/>
<path d="M390.134 34.7844L390.609 35.4034L400.033 28.2146L399.558 27.5956L390.134 34.7844Z" fill="url(#paint89_linear_23_2)"/>
<path d="M388.475 32.6732L388.949 33.2922L398.372 26.1018L397.898 25.4828L388.475 32.6732Z" fill="url(#paint90_linear_23_2)"/>
<path d="M386.842 30.5527L387.317 31.1717L396.74 23.9813L396.265 23.3623L386.842 30.5527Z" fill="url(#paint91_linear_23_2)"/>
<path d="M385.242 28.4017L385.717 29.0208L395.141 21.832L394.666 21.213L385.242 28.4017Z" fill="url(#paint92_linear_23_2)"/>
<path d="M383.58 26.2997L384.055 26.9187L393.478 19.7283L393.003 19.1093L383.58 26.2997Z" fill="url(#paint93_linear_23_2)"/>
<path d="M381.952 24.1705L382.427 24.7894L391.849 17.599L391.375 16.9801L381.952 24.1705Z" fill="url(#paint94_linear_23_2)"/>
</g>
</g>
<path d="M380.932 22.8209C383.001 21.2403 387.437 23.5564 390.843 27.991C394.244 32.4257 395.323 37.3049 393.254 38.8856C391.184 40.4663 386.749 38.1501 383.342 33.7155C379.942 29.2808 378.863 24.4016 380.932 22.8209Z" fill="url(#paint95_linear_23_2)"/>
<path d="M382.726 25.1645C384.19 24.0449 387.332 25.6859 389.743 28.8253C392.153 31.9647 392.918 35.4224 391.449 36.542C389.985 37.6617 386.842 36.0206 384.432 32.8812C382.022 29.7419 381.257 26.2841 382.726 25.1645Z" fill="url(#paint96_linear_23_2)"/>
<path d="M155.459 73.8853C155.459 73.8853 148.096 87.7437 140.232 98.0015C140.232 98.0015 137.656 104.818 143.539 109.961C149.422 115.098 155.162 112.277 155.162 112.277C155.162 112.277 169.04 97.4856 177.212 93.2431C177.212 93.2431 167.054 89.4561 161.848 84.747C156.642 80.0434 155.459 73.8853 155.459 73.8853Z" fill="url(#paint97_linear_23_2)"/>
<path d="M140.232 98.0015L137.563 102.129C137.563 102.129 133.716 108.781 137.915 114.192C142.114 119.604 150.313 118.589 155.161 112.277L156.68 110.691C156.68 110.691 143.704 112.507 140.232 98.0015Z" fill="url(#paint98_linear_23_2)"/>
<path d="M161.765 101.876L154.463 109.149L159.856 113.27L161.512 111.673L163.08 104.39L161.765 101.876Z" fill="url(#paint99_linear_23_2)"/>
<path d="M168.716 101.13L166.536 107.266L161.512 111.673L163.08 104.39L168.716 101.13Z" fill="url(#paint100_linear_23_2)"/>
<path d="M165.034 107.535C163.845 108.237 159.014 110.696 161.11 113.611C163.207 116.525 181.444 129.039 181.444 129.039L185.005 126.327L170.51 108.973C170.51 108.973 167.896 105.834 165.029 107.529L165.034 107.535Z" fill="url(#paint101_linear_23_2)"/>
<path d="M185.01 126.333L182.143 132.129L178.187 135.103L181.45 129.039L185.01 126.333Z" fill="url(#paint102_linear_23_2)"/>
<path d="M182.699 63.2158C173.894 56.0095 163.014 55.3015 157.66 61.7998C152.311 68.2981 155.106 79.4122 163.911 86.6185C172.716 93.8248 184.185 94.4011 189.539 87.9028C194.888 81.4045 191.504 70.4221 182.699 63.2158Z" fill="url(#paint103_linear_23_2)"/>
<path d="M155.8 75.3837C155.8 75.3837 176.838 73.4627 176.068 92.0521C176.068 92.0521 165.452 89.231 161.848 84.747C158.249 80.2629 155.8 75.3837 155.8 75.3837Z" fill="url(#paint104_linear_23_2)"/>
<path d="M170.603 91.1959C170.845 91.2782 176.508 79.533 176.508 79.533L167.51 72.5791L158.557 80.0434C158.557 80.0434 161.666 88.1718 170.603 91.1959Z" fill="url(#paint105_linear_23_2)"/>
<path d="M175.248 72.0357C172.661 70.0544 169.376 69.9995 167.907 71.904C166.437 73.814 167.34 76.9644 169.926 78.9457C172.513 80.927 175.798 80.9819 177.267 79.0774C178.737 77.1674 177.834 74.0171 175.248 72.0357Z" fill="url(#paint106_linear_23_2)"/>
<path d="M174.764 73.3145C173.234 72.14 171.286 72.1071 170.416 73.2377C169.547 74.3683 170.08 76.2344 171.61 77.4089C173.14 78.5834 175.088 78.6164 175.958 77.4858C176.827 76.3551 176.293 74.4891 174.764 73.3145Z" fill="url(#paint107_linear_23_2)"/>
<path d="M183.26 63.117C174.103 55.6198 162.167 55.0216 156.603 61.7833C151.04 68.5451 153.951 80.1037 163.108 87.601C172.265 95.0982 184.201 95.6964 189.765 88.9346C195.329 82.1729 192.418 70.6142 183.26 63.117ZM188.874 87.3595C183.745 93.5888 172.749 93.04 164.313 86.13C155.877 79.2201 153.197 68.5725 158.32 62.3432C163.449 56.1138 174.444 56.6626 182.881 63.5726C191.317 70.4825 193.997 81.1301 188.874 87.3595Z" fill="url(#paint108_linear_23_2)"/>
<path d="M161.765 101.876L163.08 104.39L168.716 101.13L168.11 98.4516L161.765 101.876Z" fill="url(#paint109_linear_23_2)"/>
<path d="M161.474 110.241C161.474 110.241 158.458 112.765 160.555 115.68C162.651 118.594 178.186 135.098 178.186 135.098L181.45 129.033L166.955 111.679C166.955 111.679 164.577 109.022 161.474 110.235V110.241Z" fill="url(#paint110_linear_23_2)"/>
<mask id="mask6_23_2" style="mask-type:luminance" maskUnits="userSpaceOnUse" x="135" y="98" width="22" height="20">
<path d="M140.232 98.0015L137.563 102.129C137.563 102.129 133.716 108.781 137.915 114.192C142.114 119.604 150.313 118.589 155.161 112.277L156.68 110.691C156.68 110.691 143.704 112.507 140.232 98.0015Z" fill="white"/>
</mask>
<g mask="url(#mask6_23_2)">
<g style="mix-blend-mode:multiply" opacity="0.15">
<path d="M140.457 102.562L133.358 112.162L133.54 113.528L140.903 103.441L140.457 102.562Z" fill="url(#paint111_linear_23_2)"/>
<path d="M142.642 105.257L135.543 114.862L135.724 116.229L143.082 106.135L142.642 105.257Z" fill="url(#paint112_linear_23_2)"/>
<path d="M144.827 107.958L137.728 117.557L137.909 118.923L145.267 108.836L144.827 107.958Z" fill="url(#paint113_linear_23_2)"/>
<path d="M147.941 109.895L140.848 119.5L141.024 120.866L148.387 110.773L147.941 109.895Z" fill="url(#paint114_linear_23_2)"/>
<path d="M151.887 110.543L144.788 120.142L144.97 121.509L152.333 111.421L151.887 110.543Z" fill="url(#paint115_linear_23_2)"/>
</g>
</g>
<path d="M140.231 98.0015L139.004 99.9005C139.004 99.9005 141.068 113.117 155.167 112.271L156.686 110.685C156.686 110.685 143.654 111.651 140.237 97.9961L140.231 98.0015Z" fill="url(#paint116_linear_23_2)"/>
<path d="M176.024 37.9964L169.315 51.8328L176.381 55.8339L174.175 66.1192L180.586 53.5123L174.191 49.3026L176.024 37.9964Z" fill="url(#paint117_linear_23_2)"/>
<path d="M206.324 63.7098L190.976 62.3212L189.71 70.3288L179.282 71.8875L193.37 73.4353L195.07 65.9875L206.324 63.7098Z" fill="url(#paint118_linear_23_2)"/>
<path d="M353.35 27.4916C353.35 26.0646 354.512 24.9065 355.942 24.9065V18.9296C351.6 18.9296 344.881 20.3237 341.238 25.642C337.595 30.9603 327.376 32.058 327.513 32.058V37.7934C327.513 37.7934 327.557 37.7879 327.585 37.7879C329.016 37.7879 330.177 38.9459 330.177 40.3729C330.177 41.7999 329.016 42.958 327.585 42.958C327.563 42.958 327.541 42.9525 327.513 42.9525V49.5441C327.376 49.5441 337.595 48.4409 341.238 43.1281C344.881 37.8098 351.6 36.4158 355.942 36.4158V30.0766C354.512 30.0766 353.35 28.9186 353.35 27.4916Z" fill="url(#paint119_linear_23_2)"/>
<mask id="mask7_23_2" style="mask-type:luminance" maskUnits="userSpaceOnUse" x="327" y="18" width="29" height="32">
<path d="M353.35 27.4916C353.35 26.0646 354.512 24.9065 355.942 24.9065V18.9296C351.6 18.9296 344.881 20.3237 341.238 25.642C337.595 30.9603 327.376 32.058 327.513 32.058V37.7934C327.513 37.7934 327.557 37.7879 327.585 37.7879C329.016 37.7879 330.177 38.9459 330.177 40.3729C330.177 41.7999 329.016 42.958 327.585 42.958C327.563 42.958 327.541 42.9525 327.513 42.9525V49.5441C327.376 49.5441 337.595 48.4409 341.238 43.1281C344.881 37.8098 351.6 36.4158 355.942 36.4158V30.0766C354.512 30.0766 353.35 28.9186 353.35 27.4916Z" fill="white"/>
</mask>
<g mask="url(#mask7_23_2)">
<g style="mix-blend-mode:multiply">
<path d="M334.414 28.227H332.587V51.2949H334.414V28.227Z" fill="url(#paint120_linear_23_2)"/>
<path d="M350.912 17.8484H349.085V40.9163H350.912V17.8484Z" fill="url(#paint121_linear_23_2)"/>
</g>
<path style="mix-blend-mode:multiply" d="M338.52 33.9515L339.956 32.9581L339.152 30.8395L340.715 31.6518L341.15 29.418L341.926 31.5585L343.346 30.5212L342.872 32.7385L344.446 33.5014L343.01 34.4948L343.808 36.6134L342.251 35.8011L341.81 38.0349L341.04 35.8944L339.62 36.9317L340.088 34.7144L338.52 33.9515Z" fill="url(#paint122_linear_23_2)"/>
</g>
<path d="M132.395 60.1807C123.981 57.0468 128.169 48.3422 128.169 48.3422L123.854 50.0216C123.948 50.1973 124.019 50.3839 124.063 50.5924C124.267 51.6791 123.596 52.7219 122.55 52.914C121.543 53.1061 120.563 52.4256 120.321 51.3937L117.487 52.4969C117.487 52.4969 113.294 61.2016 121.713 64.3355C127.464 66.476 128.306 73.1664 127.58 76.3058L132.153 74.5275C132.103 74.4068 132.065 74.275 132.043 74.1433C131.839 73.0566 132.511 72.0138 133.551 71.8217C134.492 71.6461 135.405 72.2224 135.724 73.1444L138.267 72.1565C138.988 69.0171 138.151 62.3267 132.401 60.1862L132.395 60.1807Z" fill="url(#paint123_linear_23_2)"/>
<mask id="mask8_23_2" style="mask-type:luminance" maskUnits="userSpaceOnUse" x="116" y="48" width="23" height="29">
<path d="M132.395 60.1807C123.981 57.0468 128.169 48.3422 128.169 48.3422L123.854 50.0216C123.948 50.1973 124.019 50.3839 124.063 50.5924C124.267 51.6791 123.596 52.7219 122.55 52.914C121.543 53.1061 120.563 52.4256 120.321 51.3937L117.487 52.4969C117.487 52.4969 113.294 61.2016 121.713 64.3355C127.464 66.476 128.306 73.1664 127.58 76.3058L132.153 74.5275C132.103 74.4068 132.065 74.275 132.043 74.1433C131.839 73.0566 132.511 72.0138 133.551 71.8217C134.492 71.6461 135.405 72.2224 135.724 73.1444L138.267 72.1565C138.988 69.0171 138.151 62.3267 132.401 60.1862L132.395 60.1807Z" fill="white"/>
</mask>
<g mask="url(#mask8_23_2)">
<g style="mix-blend-mode:multiply">
<path d="M114.747 58.0128L131.014 52.0578V53.15L114.747 59.1105V58.0128Z" fill="url(#paint124_linear_23_2)"/>
<path d="M122.88 71.4814L139.153 65.521V66.6187L122.88 72.5791V71.4814Z" fill="url(#paint125_linear_23_2)"/>
</g>
<path style="mix-blend-mode:multiply" d="M127.844 59.2532L128.752 60.7131L130.986 60.0984L130.034 61.5419L132.29 62.1291L130.034 62.7164L130.986 64.1598L128.752 63.5451L127.844 65.0051L126.936 63.5451L124.702 64.1598L125.659 62.7164L123.397 62.1291L125.659 61.5419L124.702 60.0984L126.936 60.7131L127.844 59.2532Z" fill="url(#paint126_linear_23_2)"/>
</g>
<path d="M258.125 113.084C256.033 121.799 246.86 118.709 246.86 118.709L249.055 122.776C249.221 122.667 249.397 122.568 249.6 122.502C250.657 122.167 251.774 122.705 252.099 123.715C252.412 124.692 251.857 125.74 250.86 126.108L252.302 128.781C252.302 128.781 261.476 131.865 263.567 123.155C264.998 117.2 271.547 115.554 274.766 115.883L272.438 111.574C272.323 111.635 272.202 111.69 272.07 111.734C271.013 112.068 269.896 111.531 269.571 110.521C269.279 109.61 269.742 108.638 270.622 108.21L269.329 105.812C266.115 105.482 259.561 107.129 258.13 113.084H258.125Z" fill="url(#paint127_linear_23_2)"/>
<mask id="mask9_23_2" style="mask-type:luminance" maskUnits="userSpaceOnUse" x="246" y="105" width="29" height="25">
<path d="M258.125 113.084C256.033 121.799 246.86 118.709 246.86 118.709L249.055 122.776C249.221 122.667 249.397 122.568 249.6 122.502C250.657 122.167 251.774 122.705 252.099 123.715C252.412 124.692 251.857 125.74 250.86 126.108L252.302 128.781C252.302 128.781 261.476 131.865 263.567 123.155C264.998 117.2 271.547 115.554 274.766 115.883L272.438 111.574C272.323 111.635 272.202 111.69 272.07 111.734C271.013 112.068 269.896 111.531 269.571 110.521C269.279 109.61 269.742 108.638 270.622 108.21L269.329 105.812C266.115 105.482 259.561 107.129 258.13 113.084H258.125Z" fill="white"/>
</mask>
<g mask="url(#mask9_23_2)">
<g style="mix-blend-mode:multiply" opacity="0.4">
<path style="mix-blend-mode:multiply" d="M258.13 130.817L250.211 115.438L251.301 115.307L259.22 130.68L258.13 130.817Z" fill="url(#paint128_linear_23_2)"/>
<path style="mix-blend-mode:multiply" d="M270.534 121.119L262.621 105.746L263.71 105.614L271.629 120.987L270.534 121.119Z" fill="url(#paint129_linear_23_2)"/>
</g>
<path style="mix-blend-mode:multiply" d="M257.767 117.7L259.104 116.624L258.218 114.489L259.776 115.257L260.084 112.952L260.942 115.114L262.263 113.989L261.922 116.278L263.485 116.997L262.142 118.073L263.028 120.213L261.476 119.445L261.168 121.75L260.309 119.588L258.983 120.707L259.324 118.419L257.767 117.7Z" fill="url(#paint130_linear_23_2)"/>
</g>
<defs>
<linearGradient id="paint0_linear_23_2" x1="92.2254" y1="277.742" x2="187.98" y2="202.95" gradientUnits="userSpaceOnUse">
<stop stop-color="#4F4E7F"/>
<stop offset="1" stop-color="#181838"/>
</linearGradient>
<linearGradient id="paint1_linear_23_2" x1="288.352" y1="300.212" x2="476.337" y2="193.58" gradientUnits="userSpaceOnUse">
<stop stop-color="#4F4E7F"/>
<stop offset="1" stop-color="#181838"/>
</linearGradient>
<linearGradient id="paint2_linear_23_2" x1="51.3268" y1="216.826" x2="473.388" y2="216.826" gradientUnits="userSpaceOnUse">
<stop stop-color="#4F4E7F"/>
<stop offset="1" stop-color="#181838"/>
</linearGradient>
<linearGradient id="paint3_linear_23_2" x1="142.67" y1="162.831" x2="152.94" y2="162.831" gradientUnits="userSpaceOnUse">
<stop stop-color="#4F4E7F"/>
<stop offset="1" stop-color="#181838"/>
</linearGradient>
<linearGradient id="paint4_linear_23_2" x1="137.441" y1="166.146" x2="140.99" y2="166.146" gradientUnits="userSpaceOnUse">
<stop stop-color="#4F4E7F"/>
<stop offset="1" stop-color="#181838"/>
</linearGradient>
<linearGradient id="paint5_linear_23_2" x1="154.521" y1="159.121" x2="158.079" y2="159.121" gradientUnits="userSpaceOnUse">
<stop stop-color="#4F4E7F"/>
<stop offset="1" stop-color="#181838"/>
</linearGradient>
<linearGradient id="paint6_linear_23_2" x1="80.0314" y1="219.565" x2="98.5566" y2="219.565" gradientUnits="userSpaceOnUse">
<stop stop-color="#4F4E7F"/>
<stop offset="1" stop-color="#181838"/>
</linearGradient>
<linearGradient id="paint7_linear_23_2" x1="105.511" y1="230.141" x2="124.037" y2="230.141" gradientUnits="userSpaceOnUse">
<stop stop-color="#4F4E7F"/>
<stop offset="1" stop-color="#181838"/>
</linearGradient>
<linearGradient id="paint8_linear_23_2" x1="323.443" y1="304.449" x2="327.191" y2="304.449" gradientUnits="userSpaceOnUse">
<stop stop-color="#4F4E7F"/>
<stop offset="1" stop-color="#181838"/>
</linearGradient>
<linearGradient id="paint9_linear_23_2" x1="323.443" y1="308.148" x2="327.191" y2="308.148" gradientUnits="userSpaceOnUse">
<stop stop-color="#4F4E7F"/>
<stop offset="1" stop-color="#181838"/>
</linearGradient>
<linearGradient id="paint10_linear_23_2" x1="329.557" y1="302.084" x2="333.306" y2="302.084" gradientUnits="userSpaceOnUse">
<stop stop-color="#4F4E7F"/>
<stop offset="1" stop-color="#181838"/>
</linearGradient>
<linearGradient id="paint11_linear_23_2" x1="329.557" y1="305.783" x2="333.306" y2="305.783" gradientUnits="userSpaceOnUse">
<stop stop-color="#4F4E7F"/>
<stop offset="1" stop-color="#181838"/>
</linearGradient>
<linearGradient id="paint12_linear_23_2" x1="335.664" y1="299.718" x2="339.412" y2="299.718" gradientUnits="userSpaceOnUse">
<stop stop-color="#4F4E7F"/>
<stop offset="1" stop-color="#181838"/>
</linearGradient>
<linearGradient id="paint13_linear_23_2" x1="335.664" y1="303.417" x2="339.412" y2="303.417" gradientUnits="userSpaceOnUse">
<stop stop-color="#4F4E7F"/>
<stop offset="1" stop-color="#181838"/>
</linearGradient>
<linearGradient id="paint14_linear_23_2" x1="341.778" y1="297.353" x2="345.526" y2="297.353" gradientUnits="userSpaceOnUse">
<stop stop-color="#4F4E7F"/>
<stop offset="1" stop-color="#181838"/>
</linearGradient>
<linearGradient id="paint15_linear_23_2" x1="341.778" y1="301.052" x2="345.526" y2="301.052" gradientUnits="userSpaceOnUse">
<stop stop-color="#4F4E7F"/>
<stop offset="1" stop-color="#181838"/>
</linearGradient>
<linearGradient id="paint16_linear_23_2" x1="347.884" y1="294.987" x2="351.641" y2="294.987" gradientUnits="userSpaceOnUse">
<stop stop-color="#4F4E7F"/>
<stop offset="1" stop-color="#181838"/>
</linearGradient>
<linearGradient id="paint17_linear_23_2" x1="347.884" y1="298.686" x2="351.641" y2="298.686" gradientUnits="userSpaceOnUse">
<stop stop-color="#4F4E7F"/>
<stop offset="1" stop-color="#181838"/>
</linearGradient>
<linearGradient id="paint18_linear_23_2" x1="431.243" y1="261.744" x2="450.193" y2="261.744" gradientUnits="userSpaceOnUse">
<stop stop-color="#4F4E7F"/>
<stop offset="1" stop-color="#181838"/>
</linearGradient>
<linearGradient id="paint19_linear_23_2" x1="454.564" y1="256.091" x2="459.541" y2="256.091" gradientUnits="userSpaceOnUse">
<stop stop-color="#4F4E7F"/>
<stop offset="1" stop-color="#181838"/>
</linearGradient>
<linearGradient id="paint20_linear_23_2" x1="153.103" y1="157.837" x2="279.578" y2="337.64" gradientUnits="userSpaceOnUse">
<stop stop-color="#DD2828"/>
<stop offset="1" stop-color="#FF9C9C"/>
</linearGradient>
<linearGradient id="paint21_linear_23_2" x1="69.0136" y1="224.03" x2="455.637" y2="146.358" gradientUnits="userSpaceOnUse">
<stop stop-color="#DD2828"/>
<stop offset="1" stop-color="#FF9C9C"/>
</linearGradient>
<linearGradient id="paint22_linear_23_2" x1="132.409" y1="219.322" x2="395.342" y2="166.499" gradientUnits="userSpaceOnUse">
<stop stop-color="#DD2828"/>
<stop offset="1" stop-color="#FF9C9C"/>
</linearGradient>
<linearGradient id="paint23_linear_23_2" x1="193.556" y1="214.786" x2="337.188" y2="185.931" gradientUnits="userSpaceOnUse">
<stop stop-color="#DD2828"/>
<stop offset="1" stop-color="#FF9C9C"/>
</linearGradient>
<linearGradient id="paint24_linear_23_2" x1="243.198" y1="211.098" x2="289.973" y2="201.701" gradientUnits="userSpaceOnUse">
<stop stop-color="#DD2828"/>
<stop offset="1" stop-color="#FF9C9C"/>
</linearGradient>
<linearGradient id="paint25_linear_23_2" x1="238.956" y1="226.225" x2="231.329" y2="0.529637" gradientUnits="userSpaceOnUse">
<stop stop-color="#FFF38A" stop-opacity="0"/>
<stop offset="1" stop-color="#FDFF8A"/>
</linearGradient>
<linearGradient id="paint26_linear_23_2" x1="194.61" y1="93.9072" x2="194.61" y2="102.595" gradientUnits="userSpaceOnUse">
<stop stop-color="white"/>
<stop offset="1" stop-color="white"/>
</linearGradient>
<linearGradient id="paint27_linear_23_2" x1="384.611" y1="57.9799" x2="384.611" y2="66.6681" gradientUnits="userSpaceOnUse">
<stop stop-color="white"/>
<stop offset="1" stop-color="white"/>
</linearGradient>
<linearGradient id="paint28_linear_23_2" x1="302.989" y1="25.0383" x2="302.989" y2="33.7265" gradientUnits="userSpaceOnUse">
<stop stop-color="white"/>
<stop offset="1" stop-color="white"/>
</linearGradient>
<linearGradient id="paint29_linear_23_2" x1="320.076" y1="172.271" x2="320.076" y2="180.959" gradientUnits="userSpaceOnUse">
<stop stop-color="white"/>
<stop offset="1" stop-color="white"/>
</linearGradient>
<linearGradient id="paint30_linear_23_2" x1="101.619" y1="28.5509" x2="101.619" y2="37.2391" gradientUnits="userSpaceOnUse">
<stop stop-color="white"/>
<stop offset="1" stop-color="white"/>
</linearGradient>
<linearGradient id="paint31_linear_23_2" x1="220.318" y1="106.832" x2="220.318" y2="110.565" gradientUnits="userSpaceOnUse">
<stop stop-color="white"/>
<stop offset="1" stop-color="white"/>
</linearGradient>
<linearGradient id="paint32_linear_23_2" x1="373.145" y1="74.4397" x2="373.145" y2="78.1718" gradientUnits="userSpaceOnUse">
<stop stop-color="white"/>
<stop offset="1" stop-color="white"/>
</linearGradient>
<linearGradient id="paint33_linear_23_2" x1="189.374" y1="133.237" x2="189.374" y2="136.969" gradientUnits="userSpaceOnUse">
<stop stop-color="white"/>
<stop offset="1" stop-color="white"/>
</linearGradient>
<linearGradient id="paint34_linear_23_2" x1="311.197" y1="48.6331" x2="311.197" y2="52.3652" gradientUnits="userSpaceOnUse">
<stop stop-color="white"/>
<stop offset="1" stop-color="white"/>
</linearGradient>
<linearGradient id="paint35_linear_23_2" x1="337.735" y1="129.149" x2="353.666" y2="133.675" gradientUnits="userSpaceOnUse">
<stop stop-color="#9057FF"/>
<stop offset="1" stop-color="#2823E5"/>
</linearGradient>
<linearGradient id="paint36_linear_23_2" x1="23.7621" y1="41.8483" x2="346.397" y2="133.511" gradientUnits="userSpaceOnUse">
<stop stop-color="#9057FF"/>
<stop offset="1" stop-color="#2823E5"/>
</linearGradient>
<linearGradient id="paint37_linear_23_2" x1="307.641" y1="87.1018" x2="361.197" y2="102.317" gradientUnits="userSpaceOnUse">
<stop stop-color="#9057FF"/>
<stop offset="1" stop-color="#2823E5"/>
</linearGradient>
<linearGradient id="paint38_linear_23_2" x1="301.492" y1="100.008" x2="319.196" y2="105.037" gradientUnits="userSpaceOnUse">
<stop stop-color="#9057FF"/>
<stop offset="1" stop-color="#2823E5"/>
</linearGradient>
<linearGradient id="paint39_linear_23_2" x1="318.518" y1="75.8744" x2="360.584" y2="87.8254" gradientUnits="userSpaceOnUse">
<stop stop-color="#4F4E7F"/>
<stop offset="1" stop-color="#181838"/>
</linearGradient>
<linearGradient id="paint40_linear_23_2" x1="330.925" y1="91.5472" x2="308.96" y2="147.558" gradientUnits="userSpaceOnUse">
<stop stop-color="#9057FF"/>
<stop offset="1" stop-color="#2823E5"/>
</linearGradient>
<linearGradient id="paint41_linear_23_2" x1="303.922" y1="140.081" x2="314.903" y2="109.322" gradientUnits="userSpaceOnUse">
<stop stop-color="#9057FF"/>
<stop offset="1" stop-color="#2823E5"/>
</linearGradient>
<linearGradient id="paint42_linear_23_2" x1="319.066" y1="145.488" x2="330.048" y2="114.728" gradientUnits="userSpaceOnUse">
<stop stop-color="#9057FF"/>
<stop offset="1" stop-color="#2823E5"/>
</linearGradient>
<linearGradient id="paint43_linear_23_2" x1="311.434" y1="142.752" x2="322.421" y2="111.998" gradientUnits="userSpaceOnUse">
<stop stop-color="#9057FF"/>
<stop offset="1" stop-color="#2823E5"/>
</linearGradient>
<linearGradient id="paint44_linear_23_2" x1="203.9" y1="40.5816" x2="272.269" y2="21.7803" gradientUnits="userSpaceOnUse">
<stop offset="0.01" stop-color="#EDD440"/>
<stop offset="1" stop-color="#FF8A33"/>
</linearGradient>
<linearGradient id="paint45_linear_23_2" x1="222.394" y1="74.2651" x2="251.608" y2="61.2538" gradientUnits="userSpaceOnUse">
<stop stop-color="#EDD440"/>
<stop offset="1" stop-color="#FF8A33"/>
</linearGradient>
<linearGradient id="paint46_linear_23_2" x1="268.182" y1="123.284" x2="203.369" y2="52.946" gradientUnits="userSpaceOnUse">
<stop stop-color="#EDD440"/>
<stop offset="1" stop-color="#FF8A33"/>
</linearGradient>
<linearGradient id="paint47_linear_23_2" x1="270.284" y1="119.62" x2="205.476" y2="49.2841" gradientUnits="userSpaceOnUse">
<stop stop-color="#EDD440"/>
<stop offset="1" stop-color="#FF8A33"/>
</linearGradient>
<linearGradient id="paint48_linear_23_2" x1="272.387" y1="115.95" x2="207.571" y2="45.6171" gradientUnits="userSpaceOnUse">
<stop stop-color="#EDD440"/>
<stop offset="1" stop-color="#FF8A33"/>
</linearGradient>
<linearGradient id="paint49_linear_23_2" x1="274.489" y1="112.286" x2="209.674" y2="41.953" gradientUnits="userSpaceOnUse">
<stop stop-color="#EDD440"/>
<stop offset="1" stop-color="#FF8A33"/>
</linearGradient>
<linearGradient id="paint50_linear_23_2" x1="276.589" y1="108.622" x2="211.781" y2="38.2857" gradientUnits="userSpaceOnUse">
<stop stop-color="#EDD440"/>
<stop offset="1" stop-color="#FF8A33"/>
</linearGradient>
<linearGradient id="paint51_linear_23_2" x1="278.687" y1="104.955" x2="213.877" y2="34.6241" gradientUnits="userSpaceOnUse">
<stop stop-color="#EDD440"/>
<stop offset="1" stop-color="#FF8A33"/>
</linearGradient>
<linearGradient id="paint52_linear_23_2" x1="280.794" y1="101.293" x2="215.979" y2="30.9599" gradientUnits="userSpaceOnUse">
<stop stop-color="#EDD440"/>
<stop offset="1" stop-color="#FF8A33"/>
</linearGradient>
<linearGradient id="paint53_linear_23_2" x1="282.894" y1="97.6285" x2="218.081" y2="27.2903" gradientUnits="userSpaceOnUse">
<stop stop-color="#EDD440"/>
<stop offset="1" stop-color="#FF8A33"/>
</linearGradient>
<linearGradient id="paint54_linear_23_2" x1="284.992" y1="93.962" x2="220.184" y2="23.6261" gradientUnits="userSpaceOnUse">
<stop stop-color="#EDD440"/>
<stop offset="1" stop-color="#FF8A33"/>
</linearGradient>
<linearGradient id="paint55_linear_23_2" x1="251.569" y1="61.3406" x2="280.788" y2="48.3271" gradientUnits="userSpaceOnUse">
<stop stop-color="#EDD440"/>
<stop offset="1" stop-color="#FF8A33"/>
</linearGradient>
<linearGradient id="paint56_linear_23_2" x1="283.451" y1="111.211" x2="274.134" y2="16.137" gradientUnits="userSpaceOnUse">
<stop stop-color="#EDD440"/>
<stop offset="1" stop-color="#FF8A33"/>
</linearGradient>
<linearGradient id="paint57_linear_23_2" x1="287.602" y1="111.709" x2="278.285" y2="16.6357" gradientUnits="userSpaceOnUse">
<stop stop-color="#EDD440"/>
<stop offset="1" stop-color="#FF8A33"/>
</linearGradient>
<linearGradient id="paint58_linear_23_2" x1="279.309" y1="110.342" x2="269.987" y2="15.2663" gradientUnits="userSpaceOnUse">
<stop stop-color="#EDD440"/>
<stop offset="1" stop-color="#FF8A33"/>
</linearGradient>
<linearGradient id="paint59_linear_23_2" x1="275.167" y1="109.471" x2="265.843" y2="14.4011" gradientUnits="userSpaceOnUse">
<stop stop-color="#EDD440"/>
<stop offset="1" stop-color="#FF8A33"/>
</linearGradient>
<linearGradient id="paint60_linear_23_2" x1="271.018" y1="108.6" x2="261.701" y2="13.5266" gradientUnits="userSpaceOnUse">
<stop stop-color="#EDD440"/>
<stop offset="1" stop-color="#FF8A33"/>
</linearGradient>
<linearGradient id="paint61_linear_23_2" x1="266.881" y1="107.731" x2="257.565" y2="12.6576" gradientUnits="userSpaceOnUse">
<stop stop-color="#EDD440"/>
<stop offset="1" stop-color="#FF8A33"/>
</linearGradient>
<linearGradient id="paint62_linear_23_2" x1="262.739" y1="106.862" x2="253.417" y2="11.7871" gradientUnits="userSpaceOnUse">
<stop stop-color="#EDD440"/>
<stop offset="1" stop-color="#FF8A33"/>
</linearGradient>
<linearGradient id="paint63_linear_23_2" x1="258.597" y1="105.992" x2="249.279" y2="10.9234" gradientUnits="userSpaceOnUse">
<stop stop-color="#EDD440"/>
<stop offset="1" stop-color="#FF8A33"/>
</linearGradient>
<linearGradient id="paint64_linear_23_2" x1="254.448" y1="105.121" x2="245.132" y2="10.0473" gradientUnits="userSpaceOnUse">
<stop stop-color="#EDD440"/>
<stop offset="1" stop-color="#FF8A33"/>
</linearGradient>
<linearGradient id="paint65_linear_23_2" x1="250.312" y1="104.252" x2="240.99" y2="9.17669" gradientUnits="userSpaceOnUse">
<stop stop-color="#EDD440"/>
<stop offset="1" stop-color="#FF8A33"/>
</linearGradient>
<linearGradient id="paint66_linear_23_2" x1="252.663" y1="49.4516" x2="205.496" y2="50.2682" gradientUnits="userSpaceOnUse">
<stop stop-color="#EDD440"/>
<stop offset="1" stop-color="#FF8A33"/>
</linearGradient>
<linearGradient id="paint67_linear_23_2" x1="269.399" y1="22.8078" x2="253.23" y2="42.7137" gradientUnits="userSpaceOnUse">
<stop stop-color="#EDD440"/>
<stop offset="1" stop-color="#FF8A33"/>
</linearGradient>
<linearGradient id="paint68_linear_23_2" x1="218.506" y1="39.0773" x2="255.052" y2="22.8009" gradientUnits="userSpaceOnUse">
<stop stop-color="#DD2828"/>
<stop offset="1" stop-color="#FF9C9C"/>
</linearGradient>
<linearGradient id="paint69_linear_23_2" x1="226.546" y1="48.5838" x2="242.469" y2="89.4922" gradientUnits="userSpaceOnUse">
<stop stop-color="#DD2828"/>
<stop offset="1" stop-color="#FF9C9C"/>
</linearGradient>
<linearGradient id="paint70_linear_23_2" x1="246.295" y1="46.7954" x2="215.269" y2="39.6624" gradientUnits="userSpaceOnUse">
<stop stop-color="#DD2828"/>
<stop offset="1" stop-color="#FF9C9C"/>
</linearGradient>
<linearGradient id="paint71_linear_23_2" x1="255.999" y1="26.7799" x2="274.754" y2="69.4942" gradientUnits="userSpaceOnUse">
<stop stop-color="#DD2828"/>
<stop offset="1" stop-color="#FF9C9C"/>
</linearGradient>
<linearGradient id="paint72_linear_23_2" x1="246.494" y1="16.4032" x2="246.141" y2="24.8664" gradientUnits="userSpaceOnUse">
<stop stop-color="#DD2828"/>
<stop offset="1" stop-color="#FF9C9C"/>
</linearGradient>
<linearGradient id="paint73_linear_23_2" x1="233.971" y1="23.0983" x2="252.477" y2="14.856" gradientUnits="userSpaceOnUse">
<stop stop-color="#DD2828"/>
<stop offset="1" stop-color="#FF9C9C"/>
</linearGradient>
<linearGradient id="paint74_linear_23_2" x1="220.968" y1="27.7272" x2="227.491" y2="33.1479" gradientUnits="userSpaceOnUse">
<stop stop-color="#DD2828"/>
<stop offset="1" stop-color="#FF9C9C"/>
</linearGradient>
<linearGradient id="paint75_linear_23_2" x1="234.345" y1="22.9482" x2="215.843" y2="31.1882" gradientUnits="userSpaceOnUse">
<stop stop-color="#DD2828"/>
<stop offset="1" stop-color="#FF9C9C"/>
</linearGradient>
<linearGradient id="paint76_linear_23_2" x1="237.23" y1="27.9299" x2="237.075" y2="31.6748" gradientUnits="userSpaceOnUse">
<stop stop-color="#E53C89"/>
<stop offset="1" stop-color="#FF9C9C"/>
</linearGradient>
<linearGradient id="paint77_linear_23_2" x1="150.358" y1="27.1184" x2="146.311" y2="32.1414" gradientUnits="userSpaceOnUse">
<stop stop-color="#EDD440"/>
<stop offset="1" stop-color="#FF8A33"/>
</linearGradient>
<linearGradient id="paint78_linear_23_2" x1="136.81" y1="27.9848" x2="145.758" y2="22.0674" gradientUnits="userSpaceOnUse">
<stop stop-color="#EDD440"/>
<stop offset="1" stop-color="#FF8A33"/>
</linearGradient>
<linearGradient id="paint79_linear_23_2" x1="138.893" y1="29.6893" x2="147.841" y2="23.772" gradientUnits="userSpaceOnUse">
<stop stop-color="#EDD440"/>
<stop offset="1" stop-color="#FF8A33"/>
</linearGradient>
<linearGradient id="paint80_linear_23_2" x1="140.988" y1="31.3481" x2="149.936" y2="25.4307" gradientUnits="userSpaceOnUse">
<stop stop-color="#EDD440"/>
<stop offset="1" stop-color="#FF8A33"/>
</linearGradient>
<linearGradient id="paint81_linear_23_2" x1="143.077" y1="33.0363" x2="152.026" y2="27.119" gradientUnits="userSpaceOnUse">
<stop stop-color="#EDD440"/>
<stop offset="1" stop-color="#FF8A33"/>
</linearGradient>
<linearGradient id="paint82_linear_23_2" x1="145.161" y1="34.7169" x2="154.109" y2="28.7995" gradientUnits="userSpaceOnUse">
<stop stop-color="#EDD440"/>
<stop offset="1" stop-color="#FF8A33"/>
</linearGradient>
<linearGradient id="paint83_linear_23_2" x1="147.246" y1="36.3962" x2="156.194" y2="30.4788" gradientUnits="userSpaceOnUse">
<stop stop-color="#EDD440"/>
<stop offset="1" stop-color="#FF8A33"/>
</linearGradient>
<linearGradient id="paint84_linear_23_2" x1="149.339" y1="38.0802" x2="158.287" y2="32.1628" gradientUnits="userSpaceOnUse">
<stop stop-color="#EDD440"/>
<stop offset="1" stop-color="#FF8A33"/>
</linearGradient>
<linearGradient id="paint85_linear_23_2" x1="157.156" y1="19.1617" x2="150.75" y2="26.5534" gradientUnits="userSpaceOnUse">
<stop stop-color="#EDD440"/>
<stop offset="1" stop-color="#FF8A33"/>
</linearGradient>
<linearGradient id="paint86_linear_23_2" x1="148.561" y1="27.2786" x2="154.544" y2="23.3226" gradientUnits="userSpaceOnUse">
<stop stop-color="#EDD440"/>
<stop offset="1" stop-color="#FF8A33"/>
</linearGradient>
<linearGradient id="paint87_linear_23_2" x1="389.307" y1="29.1713" x2="394.423" y2="25.2461" gradientUnits="userSpaceOnUse">
<stop stop-color="#EDD440"/>
<stop offset="1" stop-color="#FF8A33"/>
</linearGradient>
<linearGradient id="paint88_linear_23_2" x1="402.68" y1="31.5036" x2="392.585" y2="35.135" gradientUnits="userSpaceOnUse">
<stop stop-color="#EDD440"/>
<stop offset="1" stop-color="#FF8A33"/>
</linearGradient>
<linearGradient id="paint89_linear_23_2" x1="401.048" y1="29.3753" x2="390.953" y2="33.0067" gradientUnits="userSpaceOnUse">
<stop stop-color="#EDD440"/>
<stop offset="1" stop-color="#FF8A33"/>
</linearGradient>
<linearGradient id="paint90_linear_23_2" x1="399.392" y1="27.259" x2="389.298" y2="30.8923" gradientUnits="userSpaceOnUse">
<stop stop-color="#EDD440"/>
<stop offset="1" stop-color="#FF8A33"/>
</linearGradient>
<linearGradient id="paint91_linear_23_2" x1="397.765" y1="25.1274" x2="387.666" y2="28.7639" gradientUnits="userSpaceOnUse">
<stop stop-color="#EDD440"/>
<stop offset="1" stop-color="#FF8A33"/>
</linearGradient>
<linearGradient id="paint92_linear_23_2" x1="396.156" y1="22.9926" x2="386.057" y2="26.6274" gradientUnits="userSpaceOnUse">
<stop stop-color="#EDD440"/>
<stop offset="1" stop-color="#FF8A33"/>
</linearGradient>
<linearGradient id="paint93_linear_23_2" x1="394.509" y1="20.8831" x2="384.411" y2="24.5196" gradientUnits="userSpaceOnUse">
<stop stop-color="#EDD440"/>
<stop offset="1" stop-color="#FF8A33"/>
</linearGradient>
<linearGradient id="paint94_linear_23_2" x1="392.878" y1="18.7495" x2="382.779" y2="22.386" gradientUnits="userSpaceOnUse">
<stop stop-color="#EDD440"/>
<stop offset="1" stop-color="#FF8A33"/>
</linearGradient>
<linearGradient id="paint95_linear_23_2" x1="380.818" y1="35.3034" x2="388.793" y2="29.6291" gradientUnits="userSpaceOnUse">
<stop stop-color="#EDD440"/>
<stop offset="1" stop-color="#FF8A33"/>
</linearGradient>
<linearGradient id="paint96_linear_23_2" x1="391.095" y1="29.4243" x2="384.342" y2="31.8551" gradientUnits="userSpaceOnUse">
<stop stop-color="#EDD440"/>
<stop offset="1" stop-color="#FF8A33"/>
</linearGradient>
<linearGradient id="paint97_linear_23_2" x1="143.75" y1="107.709" x2="163.702" y2="86.2579" gradientUnits="userSpaceOnUse">
<stop stop-color="#DD2828"/>
<stop offset="1" stop-color="#FF9C9C"/>
</linearGradient>
<linearGradient id="paint98_linear_23_2" x1="143.168" y1="107.051" x2="149.31" y2="115.098" gradientUnits="userSpaceOnUse">
<stop stop-color="#4F4E7F"/>
<stop offset="1" stop-color="#181838"/>
</linearGradient>
<linearGradient id="paint99_linear_23_2" x1="154.43" y1="109" x2="163.647" y2="106.925" gradientUnits="userSpaceOnUse">
<stop stop-color="#DD2828"/>
<stop offset="1" stop-color="#FF9C9C"/>
</linearGradient>
<linearGradient id="paint100_linear_23_2" x1="160.548" y1="107.416" x2="169.669" y2="105.362" gradientUnits="userSpaceOnUse">
<stop stop-color="#DD2828"/>
<stop offset="1" stop-color="#FF9C9C"/>
</linearGradient>
<linearGradient id="paint101_linear_23_2" x1="162.447" y1="120.604" x2="182.689" y2="116.044" gradientUnits="userSpaceOnUse">
<stop stop-color="#DD2828"/>
<stop offset="1" stop-color="#FF9C9C"/>
</linearGradient>
<linearGradient id="paint102_linear_23_2" x1="177.405" y1="131.648" x2="185.779" y2="129.761" gradientUnits="userSpaceOnUse">
<stop stop-color="#DD2828"/>
<stop offset="1" stop-color="#FF9C9C"/>
</linearGradient>
<linearGradient id="paint103_linear_23_2" x1="177.598" y1="68.169" x2="162.948" y2="92.7559" gradientUnits="userSpaceOnUse">
<stop stop-color="#DD2828"/>
<stop offset="1" stop-color="#FF9C9C"/>
</linearGradient>
<linearGradient id="paint104_linear_23_2" x1="158.072" y1="85.4757" x2="174.492" y2="81.7773" gradientUnits="userSpaceOnUse">
<stop stop-color="#4F4E7F"/>
<stop offset="1" stop-color="#181838"/>
</linearGradient>
<linearGradient id="paint105_linear_23_2" x1="171.947" y1="78.4408" x2="162.439" y2="87.7515" gradientUnits="userSpaceOnUse">
<stop stop-color="#DD2828"/>
<stop offset="1" stop-color="#FF9C9C"/>
</linearGradient>
<linearGradient id="paint106_linear_23_2" x1="167.83" y1="76.9667" x2="177.879" y2="73.8329" gradientUnits="userSpaceOnUse">
<stop stop-color="#DD2828"/>
<stop offset="1" stop-color="#FF9C9C"/>
</linearGradient>
<linearGradient id="paint107_linear_23_2" x1="170.366" y1="76.2299" x2="176.321" y2="74.3743" gradientUnits="userSpaceOnUse">
<stop stop-color="#4F4E7F"/>
<stop offset="1" stop-color="#181838"/>
</linearGradient>
<linearGradient id="paint108_linear_23_2" x1="155.436" y1="79.3328" x2="190.923" y2="71.34" gradientUnits="userSpaceOnUse">
<stop stop-color="#DD2828"/>
<stop offset="1" stop-color="#FF9C9C"/>
</linearGradient>
<linearGradient id="paint109_linear_23_2" x1="161.85" y1="102.253" x2="168.625" y2="100.727" gradientUnits="userSpaceOnUse">
<stop stop-color="#DD2828"/>
<stop offset="1" stop-color="#FF9C9C"/>
</linearGradient>
<linearGradient id="paint110_linear_23_2" x1="162.17" y1="124.356" x2="179.513" y2="120.45" gradientUnits="userSpaceOnUse">
<stop stop-color="#DD2828"/>
<stop offset="1" stop-color="#FF9C9C"/>
</linearGradient>
<linearGradient id="paint111_linear_23_2" x1="137.162" y1="104.701" x2="137.092" y2="111.552" gradientUnits="userSpaceOnUse">
<stop stop-color="#4F4E7F"/>
<stop offset="1" stop-color="#181838"/>
</linearGradient>
<linearGradient id="paint112_linear_23_2" x1="139.344" y1="107.402" x2="139.274" y2="114.252" gradientUnits="userSpaceOnUse">
<stop stop-color="#4F4E7F"/>
<stop offset="1" stop-color="#181838"/>
</linearGradient>
<linearGradient id="paint113_linear_23_2" x1="141.531" y1="110.101" x2="141.461" y2="116.952" gradientUnits="userSpaceOnUse">
<stop stop-color="#4F4E7F"/>
<stop offset="1" stop-color="#181838"/>
</linearGradient>
<linearGradient id="paint114_linear_23_2" x1="144.647" y1="112.042" x2="144.577" y2="118.892" gradientUnits="userSpaceOnUse">
<stop stop-color="#4F4E7F"/>
<stop offset="1" stop-color="#181838"/>
</linearGradient>
<linearGradient id="paint115_linear_23_2" x1="148.587" y1="112.683" x2="148.517" y2="119.534" gradientUnits="userSpaceOnUse">
<stop stop-color="#4F4E7F"/>
<stop offset="1" stop-color="#181838"/>
</linearGradient>
<linearGradient id="paint116_linear_23_2" x1="147.89" y1="100.874" x2="147.797" y2="109.671" gradientUnits="userSpaceOnUse">
<stop stop-color="#4F4E7F"/>
<stop offset="1" stop-color="#181838"/>
</linearGradient>
<linearGradient id="paint117_linear_23_2" x1="175.041" y1="43.5464" x2="174.87" y2="61.0119" gradientUnits="userSpaceOnUse">
<stop stop-color="#EDD440"/>
<stop offset="1" stop-color="#FF8A33"/>
</linearGradient>
<linearGradient id="paint118_linear_23_2" x1="200.756" y1="64.7539" x2="184.314" y2="70.7692" gradientUnits="userSpaceOnUse">
<stop stop-color="#EDD440"/>
<stop offset="1" stop-color="#FF8A33"/>
</linearGradient>
<linearGradient id="paint119_linear_23_2" x1="327.513" y1="34.2369" x2="355.942" y2="34.2369" gradientUnits="userSpaceOnUse">
<stop stop-color="#DD2828"/>
<stop offset="1" stop-color="#FF9C9C"/>
</linearGradient>
<linearGradient id="paint120_linear_23_2" x1="333.754" y1="42.2335" x2="331.613" y2="21.0854" gradientUnits="userSpaceOnUse">
<stop stop-color="#DD2828"/>
<stop offset="1" stop-color="#FF9C9C"/>
</linearGradient>
<linearGradient id="paint121_linear_23_2" x1="351.144" y1="40.6309" x2="349.003" y2="19.4883" gradientUnits="userSpaceOnUse">
<stop stop-color="#DD2828"/>
<stop offset="1" stop-color="#FF9C9C"/>
</linearGradient>
<linearGradient id="paint122_linear_23_2" x1="342.592" y1="37.8215" x2="340.386" y2="29.6208" gradientUnits="userSpaceOnUse">
<stop stop-color="#DD2828"/>
<stop offset="1" stop-color="#FF9C9C"/>
</linearGradient>
<linearGradient id="paint123_linear_23_2" x1="117.618" y1="64.2497" x2="136.918" y2="60.5897" gradientUnits="userSpaceOnUse">
<stop stop-color="#9057FF"/>
<stop offset="1" stop-color="#2823E5"/>
</linearGradient>
<linearGradient id="paint124_linear_23_2" x1="114.383" y1="57.1895" x2="131.379" y2="53.9622" gradientUnits="userSpaceOnUse">
<stop stop-color="#9057FF"/>
<stop offset="1" stop-color="#2823E5"/>
</linearGradient>
<linearGradient id="paint125_linear_23_2" x1="122.517" y1="70.6527" x2="139.513" y2="67.4308" gradientUnits="userSpaceOnUse">
<stop stop-color="#9057FF"/>
<stop offset="1" stop-color="#2823E5"/>
</linearGradient>
<linearGradient id="paint126_linear_23_2" x1="123.552" y1="62.9414" x2="132.135" y2="61.3084" gradientUnits="userSpaceOnUse">
<stop stop-color="#9057FF"/>
<stop offset="1" stop-color="#2823E5"/>
</linearGradient>
<linearGradient id="paint127_linear_23_2" x1="263.983" y1="127.206" x2="258.029" y2="108.534" gradientUnits="userSpaceOnUse">
<stop stop-color="#EDD440"/>
<stop offset="1" stop-color="#FF8A33"/>
</linearGradient>
<linearGradient id="paint128_linear_23_2" x1="257.37" y1="131.276" x2="252.126" y2="114.833" gradientUnits="userSpaceOnUse">
<stop stop-color="#EDD440"/>
<stop offset="1" stop-color="#FF8A33"/>
</linearGradient>
<linearGradient id="paint129_linear_23_2" x1="269.775" y1="121.576" x2="264.537" y2="105.138" gradientUnits="userSpaceOnUse">
<stop stop-color="#EDD440"/>
<stop offset="1" stop-color="#FF8A33"/>
</linearGradient>
<linearGradient id="paint130_linear_23_2" x1="261.969" y1="121.494" x2="259.324" y2="113.195" gradientUnits="userSpaceOnUse">
<stop stop-color="#EDD440"/>
<stop offset="1" stop-color="#FF8A33"/>
</linearGradient>
</defs>
</svg>
