<svg xmlns="http://www.w3.org/2000/svg" width="40" height="40" viewBox="0 0 40 40" fill="none">
  <g filter="url(#filter0_d_34_590)">
    <circle cx="20" cy="16" r="16" fill="black"/>
  </g>
  <path d="M28 17C28.5523 17 29 16.5523 29 16C29 15.4477 28.5523 15 28 15L28 17ZM11.2929 15.2929C10.9024 15.6834 10.9024 16.3166 11.2929 16.7071L17.6569 23.0711C18.0474 23.4616 18.6805 23.4616 19.0711 23.0711C19.4616 22.6805 19.4616 22.0474 19.0711 21.6569L13.4142 16L19.0711 10.3431C19.4616 9.95262 19.4616 9.31946 19.0711 8.92893C18.6805 8.53841 18.0474 8.53841 17.6569 8.92893L11.2929 15.2929ZM28 15L12 15L12 17L28 17L28 15Z" fill="white"/>
  <defs>
    <filter id="filter0_d_34_590" x="0" y="0" width="40" height="40" filterUnits="userSpaceOnUse" color-interpolation-filters="sRGB">
      <feFlood flood-opacity="0" result="BackgroundImageFix"/>
      <feColorMatrix in="SourceAlpha" type="matrix" values="0 0 0 0 0 0 0 0 0 0 0 0 0 0 0 0 0 0 127 0" result="hardAlpha"/>
      <feOffset dy="4"/>
      <feGaussianBlur stdDeviation="2"/>
      <feComposite in2="hardAlpha" operator="out"/>
      <feColorMatrix type="matrix" values="0 0 0 0 0 0 0 0 0 0 0 0 0 0 0 0 0 0 0.25 0"/>
      <feBlend mode="normal" in2="BackgroundImageFix" result="effect1_dropShadow_34_590"/>
      <feBlend mode="normal" in="SourceGraphic" in2="effect1_dropShadow_34_590" result="shape"/>
    </filter>
  </defs>
</svg>