<svg xmlns="http://www.w3.org/2000/svg" width="10" height="6" viewBox="0 0 10 6" fill="none">
<g clip-path="url(#clip0_18_1334)">
<path d="M0.46445 5.56651V5.99976H0.0572706V5.48488C0.121525 5.53601 0.196955 5.56651 0.277273 5.56651H0.46445ZM9.72273 5.56651H9.53625V5.99976H9.94273V5.48488C9.87848 5.53601 9.80305 5.56651 9.72273 5.56651ZM10.0007 3.46664V3.40026C10.0007 3.20293 9.87638 3.04326 9.72273 3.04326H0.277972C0.124319 3.04326 0 3.20293 0 3.40026V3.46664H10.0007ZM0 3.62631V5.031C0 5.22834 0.124319 5.38801 0.277972 5.38801H9.72273C9.87638 5.38801 10.0007 5.22834 10.0007 5.031V3.62631H0ZM4.26805 1.83949C3.74075 1.59013 2.42562 1.59013 1.89831 1.83949C1.65316 1.95521 1.18103 2.72931 1.45132 2.76699C2.34809 2.89077 3.74983 2.86655 4.71574 2.76699C4.98463 2.73918 4.5125 1.95521 4.26805 1.83949ZM8.72189 -0.000244141H1.27811C0.604135 -0.000244141 0.0572706 0.701206 0.0572706 1.56681V2.94728C0.121525 2.89615 0.196955 2.86566 0.277273 2.86566H0.574801C0.715882 2.55529 0.97779 2.3463 1.27741 2.3463H1.30954C1.34935 2.25749 1.39824 2.17138 1.44434 2.09962C1.47576 2.05029 1.55818 1.9283 1.65735 1.82335H1.27741C0.96452 1.82335 0.679564 1.97494 0.463752 2.22251V1.56681C0.463752 0.990935 0.829026 0.521807 1.27741 0.521807H8.72189C9.17027 0.521807 9.53555 0.990935 9.53555 1.56681V2.22251C9.31974 1.97404 9.03478 1.82335 8.72189 1.82335H8.26163C8.39014 1.95879 8.52563 2.15524 8.60874 2.3454H8.72189C9.02151 2.3454 9.28342 2.5544 9.4245 2.86476H9.72203C9.80305 2.86476 9.87848 2.89526 9.94203 2.94638V1.56591C9.94203 0.700309 9.39587 -0.000244141 8.72189 -0.000244141ZM5.20115 2.09962C5.23257 2.05029 5.31499 1.9283 5.41416 1.82335H4.50482C4.63333 1.95879 4.76882 2.15524 4.85193 2.3454H5.06635C5.10616 2.2566 5.15505 2.17138 5.20115 2.09962ZM8.02417 1.83949C7.49686 1.59013 6.18173 1.59013 5.65442 1.83949C5.40928 1.95521 4.93714 2.72931 5.20743 2.76699C6.1042 2.89077 7.50594 2.86655 8.47185 2.76699C8.74075 2.73918 8.26861 1.95521 8.02417 1.83949Z" fill="#F0B90B"/>
</g>
<defs>
<clipPath id="clip0_18_1334">
<rect width="10" height="6" fill="white"/>
</clipPath>
</defs>
</svg>