<svg xmlns="http://www.w3.org/2000/svg" width="24" height="21" viewBox="0 0 24 21" fill="none">
  <g clip-path="url(#clip0_12_248)">
    <path d="M9.11734 6.7834C8.62184 6.69923 8.26564 6.49103 8.06835 6.14403C7.93882 5.9218 7.87557 5.62132 7.87557 5.24331H8.47123C8.4893 5.54453 8.539 5.76455 8.61581 5.90335C8.75738 6.15215 9.01643 6.29169 9.39672 6.3227V4.52273C8.9095 4.43265 8.54954 4.28204 8.3161 4.07089C8.08341 3.85899 7.96744 3.56663 7.96744 3.19231C7.96744 2.85786 8.09244 2.55663 8.34246 2.28715C8.59397 2.01915 8.94414 1.88257 9.39521 1.87814V1.43959H9.7145V1.87149C10.1618 1.9025 10.5044 2.03096 10.7432 2.25836C10.9819 2.48576 11.1069 2.78551 11.1189 3.15909H10.5308C10.5157 2.99223 10.4691 2.84826 10.3922 2.72718C10.2507 2.50495 10.0263 2.3883 9.71601 2.37723V3.98524C10.2364 4.12847 10.5903 4.26284 10.7763 4.38762C11.0805 4.59434 11.2311 4.90074 11.2311 5.30532C11.2311 5.8908 11.0369 6.30646 10.649 6.55305C10.4901 6.6542 10.259 6.72138 9.99464 6.77159C10.7695 6.79743 11.5406 6.91998 12.2846 7.14C12.9895 6.45264 13.4248 5.50171 13.4248 4.45185C13.4248 2.35582 11.6912 0.65625 9.5526 0.65625C7.41395 0.65625 5.68195 2.35508 5.68195 4.45185C5.68195 5.5342 6.14658 6.50875 6.88832 7.1998C7.60974 6.96797 8.35978 6.82917 9.11583 6.7834H9.11734Z" stroke="#F0B90B" stroke-width="0.5" stroke-miterlimit="10"/>
    <path d="M8.79805 3.66411C8.9464 3.78741 9.14671 3.87305 9.39822 3.92178V2.36987C9.10077 2.38169 8.88992 2.46881 8.76491 2.63345C8.63915 2.79883 8.5759 2.97159 8.5759 3.15247C8.5759 3.37027 8.6512 3.54082 8.79805 3.66411Z" stroke="#F0B90B" stroke-width="0.5" stroke-miterlimit="10"/>
    <path d="M10.6265 5.46636C10.6265 5.19097 10.5233 4.98203 10.3177 4.8388C10.1987 4.75537 9.99842 4.67637 9.71753 4.60181V6.33829C10.1016 6.32057 10.3659 6.18324 10.5135 5.92558C10.5888 5.79342 10.6265 5.63986 10.6265 5.46636Z" stroke="#F0B90B" stroke-width="0.5" stroke-miterlimit="10"/>
    <path d="M22.8265 15.1113C23.2995 14.6292 23.3431 13.7321 23.2648 12.5339C22.7091 12.497 21.8898 12.5878 21.5998 12.5339C20.8965 11.1614 19.8851 10.0901 18.4453 9.4404C18.4935 8.5441 18.6178 7.71942 19.1472 7.29269C17.861 7.20631 16.7743 8.0583 16.08 8.83942C15.458 8.20523 14.5355 7.70097 13.4519 7.34584L12.7771 8.52269C10.771 7.84494 8.56687 7.85158 6.57205 8.54337L5.69174 7.3835C5.68949 7.37981 5.68572 7.37685 5.68271 7.3739C4.30689 7.82057 3.03952 8.52048 2.05604 9.52752C1.4152 9.47953 1.489 8.20596 2.32036 8.41047C0.967137 7.50679 0.221622 9.98379 1.53042 10.3005C0.439253 11.8281 0.336085 15.1113 1.79398 16.3154C2.00709 18.125 2.33391 19.8246 3.23079 20.963H6.17671C6.09839 20.3768 6.02083 19.7508 6.0886 19.0664C7.87708 19.4643 10.0029 19.5809 12.1356 19.4104C12.4654 19.9464 12.7832 20.4913 13.177 20.9638H16.0921C15.9851 20.207 15.8699 19.4134 16.0793 18.6367C16.7751 18.5038 20.3882 17.6038 22.8265 15.112V15.1113ZM18.8015 11.2773C19.2014 11.2773 19.5267 11.5955 19.5267 11.9875C19.5267 12.3796 19.2014 12.6978 18.8015 12.6978C18.4016 12.6978 18.0778 12.3796 18.0778 11.9875C18.0778 11.5955 18.4024 11.2773 18.8015 11.2773Z" stroke="#F0B90B" stroke-miterlimit="10"/>
  </g>
  <defs>
    <clipPath id="clip0_12_248">
      <rect width="24" height="21" fill="white"/>
    </clipPath>
  </defs>
</svg>