<svg xmlns="http://www.w3.org/2000/svg" width="13" height="5" viewBox="0 0 13 5" fill="none">
  <g clip-path="url(#clip0_18_1336)">
    <path d="M0.983409 3.75633H0.690157V3.61047H0.983409V2.77955H0.690157V2.21824C0.690157 2.06201 0.535947 1.93481 0.344659 1.93481C0.153371 1.93481 -0.000839233 2.06132 -0.000839233 2.21824V4.99993H0.689314V4.24229H0.982566V3.75633H0.983409Z" fill="#F0B90B"/>
    <path d="M12.6553 0C12.4649 0 12.3098 0.126504 12.3098 0.283423V2.77962H9.19615V3.61053H12.3098V3.75639H9.19615V4.24236H12.3098V5H13V0.283423C13 0.127195 12.8458 0 12.6545 0H12.6553Z" fill="#F0B90B"/>
    <path d="M9.0234 4.46207C9.0234 4.46207 8.94925 5.05173 6.13133 4.62728C3.94458 4.29755 3.45667 5.12293 1.15616 4.48557V2.59839H9.0234V4.46207Z" fill="#F0B90B"/>
    <path d="M9.35458 2.63936L10.9599 2.63313C11.8228 2.63313 12.1818 2.10362 12.1801 1.97435C12.1759 1.65774 11.2565 1.46419 10.2706 1.81466C9.34193 2.1444 9.14222 2.64143 9.35458 2.63936Z" fill="#F0B90B"/>
  </g>
  <defs>
    <clipPath id="clip0_18_1336">
      <rect width="13" height="5" fill="white"/>
    </clipPath>
  </defs>
</svg>