<svg width="22" height="19" viewBox="0 0 22 19" fill="none" xmlns="http://www.w3.org/2000/svg">
<g id="Object" clip-path="url(#clip0_15_956)">
<path id="Vector" d="M10.5443 3.59962L10.9997 4.60529L11.4553 3.59969C12.2833 1.77174 14.1193 0.5 16.2438 0.5C19.14 0.5 21.5 2.86459 21.5 5.7726C21.5 6.40037 21.39 7.00222 21.1892 7.56011C20.9245 8.29316 20.5021 8.95097 19.9623 9.49316L19.7421 9.71443L11.0146 18.4085L2.39058 9.81954L2.37646 9.80548L2.36127 9.79259C2.15045 9.61367 1.95505 9.41851 1.77437 9.20778L1.77394 9.20728C1.35119 8.71553 1.01804 8.14568 0.798247 7.52186L0.798144 7.52156C0.604914 6.97421 0.5 6.38653 0.5 5.7726C0.5 2.86459 2.85928 0.5 5.75694 0.5C7.88031 0.5 9.71663 1.77172 10.5443 3.59962Z" stroke="black"/>
</g>
<defs>
<clipPath id="clip0_15_956">
<rect width="22" height="19" fill="white"/>
</clipPath>
</defs>
</svg>
