<svg xmlns="http://www.w3.org/2000/svg" width="8" height="7" viewBox="0 0 8 7" fill="none">
  <path d="M5.74387 0.981445H4.88505V2.45641H5.74387V0.981445Z" fill="#F0B90B"/>
  <path d="M3.79151 0.941162L1.41112 2.68577V6.91651H6.16914V2.68577L3.79151 0.941162Z" fill="#F0B90B"/>
  <mask id="mask0_18_1146" style="mask-type:luminance" maskUnits="userSpaceOnUse" x="1" y="0" width="6" height="7">
    <path d="M3.79151 0.941162L1.41112 2.68577V6.91651H6.16914V2.68577L3.79151 0.941162Z" fill="white"/>
  </mask>
  <g mask="url(#mask0_18_1146)">
    <path d="M2.58474 6.12085H1.28133V6.79496H2.58474V6.12085Z" fill="#F0B90B"/>
    <path d="M2.65102 6.85429H1.21505V6.05884H2.65102V6.85429ZM1.3476 6.73026H2.52123V6.18018H1.3476V6.73026Z" fill="#F0B90B"/>
    <path d="M3.89092 6.12085H2.5875V6.79496H3.89092V6.12085Z" fill="#F0B90B"/>
    <path d="M3.9572 6.85429H2.52399V6.05884H3.9572V6.85429ZM2.65378 6.73026H3.82741V6.18018H2.65378V6.73026Z" fill="#F0B90B"/>
    <path d="M5.1971 6.12085H3.89092V6.79496H5.1971V6.12085Z" fill="#F0B90B"/>
    <path d="M5.26061 6.85429H3.82741V6.05884H5.26061V6.85429ZM3.9572 6.73026H5.13083V6.18018H3.9572V6.73026Z" fill="#F0B90B"/>
    <path d="M6.49776 6.12085H5.19434V6.79496H6.49776V6.12085Z" fill="#F0B90B"/>
    <path d="M6.56403 6.85429H5.13083V6.05884H6.56403V6.85429ZM5.26061 6.73026H6.43424V6.18018H5.26061V6.73026Z" fill="#F0B90B"/>
    <path d="M2.06282 5.44678H0.759407V6.12089H2.06282V5.44678Z" fill="#F0B90B"/>
    <path d="M2.1291 6.18291H0.695893V5.38745H2.1291V6.18291ZM0.825682 6.05887H1.99931V5.50879H0.825682V6.05887Z" fill="#F0B90B"/>
    <path d="M3.369 5.44678H2.06559V6.12089H3.369V5.44678Z" fill="#F0B90B"/>
    <path d="M3.43252 6.18291H1.99931V5.38745H3.43252V6.18291ZM2.1291 6.05887H3.30273V5.50879H2.1291V6.05887Z" fill="#F0B90B"/>
    <path d="M4.67242 5.44678H3.369V6.12089H4.67242V5.44678Z" fill="#F0B90B"/>
    <path d="M4.7387 6.18291H3.30273V5.38745H4.7387V6.18291ZM3.43528 6.05887H4.60891V5.50879H3.43528V6.05887Z" fill="#F0B90B"/>
    <path d="M5.97584 5.44678H4.67242V6.12089H5.97584V5.44678Z" fill="#F0B90B"/>
    <path d="M6.04211 6.18291H4.60614V5.38745H6.04211V6.18291ZM4.7387 6.05887H5.91232V5.50879H4.7387V6.05887Z" fill="#F0B90B"/>
    <path d="M7.28202 5.44678H5.9786V6.12089H7.28202V5.44678Z" fill="#F0B90B"/>
    <path d="M7.34553 6.18291H5.91232V5.38745H7.34553V6.18291ZM6.04211 6.05887H7.21574V5.50879H6.04211V6.05887Z" fill="#F0B90B"/>
    <path d="M2.54332 4.77539H1.2399V5.4495H2.54332V4.77539Z" fill="#F0B90B"/>
    <path d="M2.6096 5.50883H1.17363V4.71338H2.6096V5.50883ZM1.30618 5.38749H2.47981V4.83742H1.30618V5.38749Z" fill="#F0B90B"/>
    <path d="M3.84674 4.77539H2.54332V5.4495H3.84674V4.77539Z" fill="#F0B90B"/>
    <path d="M3.91301 5.50883H2.47705V4.71338H3.91301V5.50883ZM2.6096 5.38749H3.78322V4.83742H2.6096V5.38749Z" fill="#F0B90B"/>
    <path d="M5.15016 4.77539H3.84674V5.4495H5.15016V4.77539Z" fill="#F0B90B"/>
    <path d="M5.21643 5.50883H3.78046V4.71338H5.21643V5.50883ZM3.91301 5.38749H5.08664V4.83742H3.91301V5.38749Z" fill="#F0B90B"/>
    <path d="M6.45633 4.77539H5.15292V5.4495H6.45633V4.77539Z" fill="#F0B90B"/>
    <path d="M6.52261 5.50883H5.08664V4.71338H6.52261V5.50883ZM5.21919 5.38749H6.39282V4.83742H5.21919V5.38749Z" fill="#F0B90B"/>
    <path d="M1.88885 4.10132H0.585433V4.77543H1.88885V4.10132Z" fill="#F0B90B"/>
    <path d="M1.95513 4.83476H0.521919V4.03931H1.95513V4.83476ZM0.651709 4.71072H1.82534V4.16065H0.651709V4.71072Z" fill="#F0B90B"/>
    <path d="M3.19779 4.10132H1.89161V4.77543H3.19779V4.10132Z" fill="#F0B90B"/>
    <path d="M3.25854 4.83476H1.82534V4.03931H3.25854V4.83476ZM1.95513 4.71072H3.12875V4.16065H1.95513V4.71072Z" fill="#F0B90B"/>
    <path d="M4.49845 4.10132H3.19503V4.77543H4.49845V4.10132Z" fill="#F0B90B"/>
    <path d="M4.56472 4.83476H3.13152V4.03931H4.56472V4.83476ZM3.26131 4.71072H4.43493V4.16065H3.26131V4.71072Z" fill="#F0B90B"/>
    <path d="M5.80463 4.10132H4.49845V4.77543H5.80463V4.10132Z" fill="#F0B90B"/>
    <path d="M5.86814 4.83476H4.43493V4.03931H5.86814V4.83476ZM4.56472 4.71072H5.73835V4.16065H4.56472V4.71072Z" fill="#F0B90B"/>
    <path d="M7.10804 4.10132H5.80463V4.77543H7.10804V4.10132Z" fill="#F0B90B"/>
    <path d="M7.17432 4.83476H5.73835V4.03931H7.17432V4.83476ZM5.8709 4.71072H7.04453V4.16065H5.8709V4.71072Z" fill="#F0B90B"/>
    <path d="M2.36935 3.42725H1.06317V4.10136H2.36935V3.42725Z" fill="#F0B90B"/>
    <path d="M2.43286 4.16069H0.999655V3.36523H2.43286V4.16069ZM1.12944 4.03665H2.30307V3.48658H1.12944V4.03665Z" fill="#F0B90B"/>
    <path d="M3.67277 3.42725H2.36935V4.10136H3.67277V3.42725Z" fill="#F0B90B"/>
    <path d="M3.73904 4.16069H2.30583V3.36523H3.73904V4.16069ZM2.43562 4.03665H3.60925V3.48658H2.43562V4.03665Z" fill="#F0B90B"/>
    <path d="M4.97618 3.42725H3.67277V4.10136H4.97618V3.42725Z" fill="#F0B90B"/>
    <path d="M5.04246 4.16069H3.60925V3.36523H5.04246V4.16069ZM3.73904 4.03665H4.91267V3.48658H3.73904V4.03665Z" fill="#F0B90B"/>
    <path d="M6.28236 3.42725H4.97894V4.10136H6.28236V3.42725Z" fill="#F0B90B"/>
    <path d="M6.34588 4.16069H4.90991V3.36523H6.34588V4.16069ZM5.04246 4.03665H6.21609V3.48658H5.04246V4.03665Z" fill="#F0B90B"/>
    <path d="M1.71488 2.75317H0.41146V3.42729H1.71488V2.75317Z" fill="#F0B90B"/>
    <path d="M1.78115 3.4893H0.347946V2.69385H1.78115V3.4893ZM0.477736 3.36527H1.65136V2.81519H0.477736V3.36527Z" fill="#F0B90B"/>
    <path d="M3.02106 2.75317H1.71764V3.42729H3.02106V2.75317Z" fill="#F0B90B"/>
    <path d="M3.08733 3.4893H1.65413V2.69385H3.08733V3.4893ZM1.78391 3.36527H2.95754V2.81519H1.78391V3.36527Z" fill="#F0B90B"/>
    <path d="M4.32447 2.75317H3.02106V3.42729H4.32447V2.75317Z" fill="#F0B90B"/>
    <path d="M4.39075 3.4893H2.95478V2.69385H4.39075V3.4893ZM3.08457 3.36527H4.2582V2.81519H3.08457V3.36527Z" fill="#F0B90B"/>
    <path d="M5.62789 2.75317H4.32447V3.42729H5.62789V2.75317Z" fill="#F0B90B"/>
    <path d="M5.69417 3.4893H4.2582V2.69385H5.69417V3.4893ZM4.39075 3.36527H5.56438V2.81519H4.39075V3.36527Z" fill="#F0B90B"/>
    <path d="M6.93407 2.75317H5.63065V3.42729H6.93407V2.75317Z" fill="#F0B90B"/>
    <path d="M7.00035 3.4893H5.56714V2.69385H7.00035V3.4893ZM5.69693 3.36527H6.87056V2.81519H5.69693V3.36527Z" fill="#F0B90B"/>
    <path d="M2.19537 2.08154H0.891957V2.75566H2.19537V2.08154Z" fill="#F0B90B"/>
    <path d="M2.26165 2.81499H0.825682V2.01953H2.25889V2.81499H2.26165ZM0.958233 2.69365H2.13186V2.14357H0.955471V2.69365H0.958233Z" fill="#F0B90B"/>
    <path d="M3.49879 2.08154H2.19537V2.75566H3.49879V2.08154Z" fill="#F0B90B"/>
    <path d="M3.56507 2.81499H2.1291V2.01953H3.56507V2.81499ZM2.26165 2.69365H3.43528V2.14357H2.26165V2.69365Z" fill="#F0B90B"/>
    <path d="M4.80221 2.08154H3.49879V2.75566H4.80221V2.08154Z" fill="#F0B90B"/>
    <path d="M4.86848 2.81499H3.43528V2.01953H4.86848V2.81499ZM3.56507 2.69365H4.7387V2.14357H3.56507V2.69365Z" fill="#F0B90B"/>
    <path d="M6.10839 2.08154H4.80497V2.75566H6.10839V2.08154Z" fill="#F0B90B"/>
    <path d="M6.17466 2.81499H4.7387V2.01953H6.17466V2.81499ZM4.86848 2.69365H6.04211V2.14357H4.86848V2.69365Z" fill="#F0B90B"/>
    <path d="M7.41181 2.08154H6.10839V2.75566H7.41181V2.08154Z" fill="#F0B90B"/>
    <path d="M7.47808 2.81499H6.04211V2.01953H7.47808V2.81499ZM6.17466 2.69365H7.34829V2.14357H6.17466V2.69365Z" fill="#F0B90B"/>
    <path d="M1.5409 1.40747H0.237487V2.08158H1.5409V1.40747Z" fill="#F0B90B"/>
    <path d="M1.60718 2.14091H0.173973V1.34546H1.60718V2.14091ZM0.303763 2.01957H1.47739V1.4695H0.303763V2.01957Z" fill="#F0B90B"/>
    <path d="M2.84708 1.40747H1.54367V2.08158H2.84708V1.40747Z" fill="#F0B90B"/>
    <path d="M2.91336 2.14091H1.47739V1.34546H2.91336V2.14091ZM1.60718 2.01957H2.78081V1.4695H1.60718V2.01957Z" fill="#F0B90B"/>
    <path d="M4.1505 1.40747H2.84708V2.08158H4.1505V1.40747Z" fill="#F0B90B"/>
    <path d="M4.21678 2.14091H2.78081V1.34546H4.21678V2.14091ZM2.91336 2.01957H4.08699V1.4695H2.91336V2.01957Z" fill="#F0B90B"/>
    <path d="M5.45392 1.40747H4.1505V2.08158H5.45392V1.40747Z" fill="#F0B90B"/>
    <path d="M5.52019 2.14091H4.08423V1.34546H5.52019V2.14091ZM4.21678 2.01957H5.3904V1.4695H4.21678V2.01957Z" fill="#F0B90B"/>
    <path d="M6.7601 1.40747H5.45668V2.08158H6.7601V1.40747Z" fill="#F0B90B"/>
    <path d="M6.82637 2.14091H5.39317V1.34546H6.82637V2.14091ZM5.52295 2.01957H6.69658V1.4695H5.52295V2.01957Z" fill="#F0B90B"/>
    <path d="M2.02416 0.733398H0.717984V1.40751H2.02416V0.733398Z" fill="#F0B90B"/>
    <path d="M2.08768 1.46953H0.651709V0.674072H2.08768V1.46953ZM0.78426 1.34819H1.95789V0.798109H0.781498V1.34819H0.78426Z" fill="#F0B90B"/>
    <path d="M3.32482 0.733398H2.0214V1.40751H3.32482V0.733398Z" fill="#F0B90B"/>
    <path d="M3.39109 1.46953H1.95513V0.674072H3.39109V1.46953ZM2.08768 1.34819H3.26131V0.798109H2.08768V1.34819Z" fill="#F0B90B"/>
    <path d="M4.62824 0.733398H3.32482V1.40751H4.62824V0.733398Z" fill="#F0B90B"/>
    <path d="M4.69451 1.46953H3.25854V0.674072H4.69451V1.46953ZM3.39109 1.34819H4.56472V0.798109H3.39109V1.34819Z" fill="#F0B90B"/>
    <path d="M5.93441 0.733398H4.631V1.40751H5.93441V0.733398Z" fill="#F0B90B"/>
    <path d="M6.00069 1.46953H4.56472V0.674072H6.00069V1.46953ZM4.69727 1.34819H5.8709V0.798109H4.69727V1.34819Z" fill="#F0B90B"/>
    <path d="M7.24059 0.733398H5.93441V1.40751H7.24059V0.733398Z" fill="#F0B90B"/>
    <path d="M7.30411 1.46953H5.8709V0.674072H7.30411V1.46953ZM6.00069 1.34819H7.17432V0.798109H6.00069V1.34819Z" fill="#F0B90B"/>
  </g>
  <path d="M0.949948 3.12792L0.706938 2.82592L3.79151 0.474609L6.87332 2.82592L6.63307 3.12792L3.79151 0.959971L0.949948 3.12792Z" fill="#F0B90B"/>
  <path d="M5.835 0.765869H4.79116V1.05709H5.835V0.765869Z" fill="#F0B90B"/>
  <path d="M4.51502 3.7644H3.06524V6.66309H4.51502V3.7644Z" fill="#F3EAE1"/>
  <path d="M6.48395 6.56055H1.09631V7.00007H6.48395V6.56055Z" fill="#B1A8A1"/>
  <path d="M4.40456 2.45922C4.40456 2.79088 4.12841 3.06053 3.78875 3.06053C3.44909 3.06053 3.17294 2.79088 3.17294 2.45922C3.17294 2.12756 3.44909 1.85791 3.78875 1.85791C4.12841 1.85791 4.40456 2.12756 4.40456 2.45922Z" fill="#F3EAE1"/>
  <path d="M4.28029 2.45921C4.28029 2.72346 4.06213 2.93648 3.79151 2.93648C3.52088 2.93648 3.30273 2.72346 3.30273 2.45921C3.30273 2.19495 3.52088 1.98193 3.79151 1.98193C4.06213 1.98193 4.28029 2.19495 4.28029 2.45921Z" fill="black"/>
  <path d="M3.79427 2.45921C3.79427 2.72346 3.79151 2.93648 3.79151 2.93648C3.52088 2.93648 3.30273 2.72346 3.30273 2.45921C3.30273 2.19495 3.52088 1.98193 3.79151 1.98193C3.79151 1.98193 3.79427 2.19495 3.79427 2.45921Z" fill="black"/>
  <path d="M2.61236 3.62939H1.88609V5.94295H2.61236V3.62939Z" fill="#F3EAE1"/>
  <g style="mix-blend-mode:multiply">
    <path d="M3.79427 0.943859L3.79151 0.941162L1.41112 2.68577V6.91651H3.79427V0.943859Z" fill="#EDE4DC"/>
  </g>
  <path d="M4.32447 4.04468H3.25854V4.7862H4.32447V4.04468Z" fill="black"/>
  <path d="M4.32447 4.77002H3.25854V5.51154H4.32447V4.77002Z" fill="black"/>
  <path d="M2.51571 4.9939H1.98274V5.69767H2.51571V4.9939Z" fill="black"/>
  <path d="M2.51571 4.43555H1.98274V5.14202H2.51571V4.43555Z" fill="black"/>
  <path d="M2.51571 3.87476H1.98274V4.58123H2.51571V3.87476Z" fill="black"/>
  <path d="M5.69693 3.62939H4.9679V5.94295H5.69693V3.62939Z" fill="#F3EAE1"/>
  <path d="M5.59752 4.9939H5.06455V5.69767H5.59752V4.9939Z" fill="black"/>
  <path d="M5.59752 4.43555H5.06455V5.14202H5.59752V4.43555Z" fill="black"/>
  <path d="M5.59752 3.87476H5.06455V4.58123H5.59752V3.87476Z" fill="black"/>
  <path d="M3.79427 4.04468H3.25854V4.7862H3.79427V4.04468Z" fill="black"/>
  <path d="M3.79427 4.77002H3.25854V5.51154H3.79427V4.77002Z" fill="black"/>
  <path d="M3.79427 0.477306L3.79151 0.474609L0.706938 2.82592L0.949948 3.12792L3.79151 0.959971L3.79427 0.962668V0.477306Z" fill="#F0B90B"/>
  <path d="M3.79427 6.56055H1.09631V7.00007H3.79427V6.56055Z" fill="#A69990"/>
</svg>