<svg width="22" height="19" viewBox="0 0 22 19" fill="none" xmlns="http://www.w3.org/2000/svg">
<g id="Object" clip-path="url(#clip0_15_954)">
<path id="Vector" d="M22 5.7726C22 2.58978 19.4174 0 16.2438 0C13.9146 0 11.9054 1.39441 10.9998 3.39337C10.0946 1.39441 8.08505 0 5.75694 0C2.58181 0 0 2.58978 0 5.7726C0 6.44399 0.114813 7.08791 0.326661 7.68801C0.567398 8.37129 0.932206 8.99515 1.39479 9.53324C1.5922 9.76347 1.80627 9.97737 2.03774 10.1738L10.8183 18.9187C10.8724 18.9729 10.9428 19 11.0139 19C11.085 19 11.1565 18.9729 11.2109 18.9187L20.3174 9.84702L20.3167 9.84591C20.9071 9.25287 21.3696 8.53282 21.6596 7.7296C21.8796 7.11836 22 6.45922 22 5.7726Z" fill="#F0B90B"/>
</g>
<defs>
<clipPath id="clip0_15_954">
<rect width="22" height="19" fill="white"/>
</clipPath>
</defs>
</svg>
