<svg xmlns="http://www.w3.org/2000/svg" width="20" height="17" viewBox="0 0 20 17" fill="none">
  <g clip-path="url(#clip0_12_265)">
    <path d="M6.42872 3.52472L3.90186 0.25H8.99189L6.42872 3.52472ZM6.34687 3.6293C6.34691 3.62926 6.34694 3.62921 6.34697 3.62917L6.34689 3.62927L6.34687 3.6293ZM3.73977 0C3.67816 0 3.62305 0.0412874 3.59806 0.105911L9.2704 0.299782C9.31147 0.247006 9.32208 0.171612 9.29675 0.106629C9.27176 0.0420055 9.21597 0 9.1547 0H3.73977Z" stroke="#F0B90B" stroke-width="0.5"/>
    <path d="M0.782019 4.83459H6.08348L8.78647 15.4794L0.782019 4.83459Z" stroke="#F0B90B" stroke-width="0.5"/>
    <path d="M16.1043 0.250359C15.3945 1.1253 14.0976 2.79627 13.5255 3.53638L10.8086 0.25H16.0205V0.250359H16.1043Z" stroke="#F0B90B" stroke-width="0.5"/>
    <path d="M13.8663 4.83643H18.9657L18.9653 4.83678H19.3905L11.3215 15.5688L13.8663 4.83643Z" stroke="#F0B90B" stroke-width="0.5"/>
    <path d="M9.77942 0.33953C9.80851 0.302192 9.84993 0.280651 9.89305 0.280292C9.93687 0.279574 9.97828 0.299679 10.0084 0.33594L9.77942 0.33953ZM9.77942 0.33953L7.03669 3.84393L9.77942 0.33953ZM7.31548 3.89336L9.89755 0.594216L12.6249 3.89336H7.31548ZM9.89714 0.530259L9.89715 0.530258C9.89682 0.530264 9.8965 0.530268 9.89617 0.53027L9.89714 0.530259Z" stroke="#F0B90B" stroke-width="0.5"/>
    <path d="M14.3672 3.89336L16.9489 0.59421L19.6769 3.89336H14.3672Z" stroke="#F0B90B" stroke-width="0.5"/>
    <path d="M0.318813 3.89336L2.90089 0.594623L5.62856 3.89336H0.318813ZM2.90081 0.530259L2.90085 0.530258C2.90051 0.530264 2.90017 0.530268 2.89984 0.53027L2.90081 0.530259ZM2.89672 0.280292C2.85325 0.280651 2.81218 0.302192 2.78308 0.33953L3.01139 0.33594C2.98161 0.299679 2.94019 0.279574 2.89672 0.280292Z" stroke="#F0B90B" stroke-width="0.5"/>
    <path d="M10.0683 16.4319L7.12918 4.85851H7.26646V4.85815H12.8122L10.0683 16.4319Z" stroke="#F0B90B" stroke-width="0.5"/>
  </g>
  <defs>
    <clipPath id="clip0_12_265">
      <rect width="20" height="17" fill="white"/>
    </clipPath>
  </defs>
</svg>