<svg xmlns="http://www.w3.org/2000/svg" width="38" height="37" viewBox="0 0 38 37" fill="none">
<rect width="38" height="37" rx="18.5" fill="#EBEBEB"/>
<path d="M19.5 11.4408L21.0568 15.6478L21.1365 15.8635L21.3522 15.9432L25.5592 17.5L21.3522 19.0568L21.1365 19.1365L21.0568 19.3522L19.5 23.5592L17.9432 19.3522L17.8635 19.1365L17.6478 19.0568L13.4408 17.5L17.6478 15.9432L17.8635 15.8635L17.9432 15.6478L19.5 11.4408Z" stroke="#F0B90B"/>
<path d="M12 7.72039L12.8459 10.0064L12.8858 10.1142L12.9936 10.1541L15.2796 11L12.9936 11.8459L12.8858 11.8858L12.8459 11.9936L12 14.2796L11.1541 11.9936L11.1142 11.8858L11.0064 11.8459L8.72039 11L11.0064 10.1541L11.1142 10.1142L11.1541 10.0064L12 7.72039Z" stroke="#F0B90B" stroke-width="0.5"/>
<path d="M24.5 25.2882L25.0814 26.8595L25.0974 26.9026L25.1405 26.9186L26.7118 27.5L25.1405 28.0814L25.0974 28.0974L25.0814 28.1405L24.5 29.7118L23.9186 28.1405L23.9026 28.0974L23.8595 28.0814L22.2882 27.5L23.8595 26.9186L23.9026 26.9026L23.9186 26.8595L24.5 25.2882Z" stroke="#F0B90B" stroke-width="0.2"/>
</svg>