<svg width="106" height="12" viewBox="0 0 106 12" fill="none" xmlns="http://www.w3.org/2000/svg">
<path id="Vector 1" d="M0.666667 6C0.666667 8.94552 3.05448 11.3333 6 11.3333C8.94552 11.3333 11.3333 8.94552 11.3333 6C11.3333 3.05448 8.94552 0.666667 6 0.666667C3.05448 0.666667 0.666667 3.05448 0.666667 6ZM94.6667 6C94.6667 8.94552 97.0545 11.3333 100 11.3333C102.946 11.3333 105.333 8.94552 105.333 6C105.333 3.05448 102.946 0.666667 100 0.666667C97.0545 0.666667 94.6667 3.05448 94.6667 6ZM6 7H100V5H6V7Z" fill="#F0B90B"/>
</svg>
